<?xml version="1.0" encoding="UTF-8"?>
<svg width="82px" height="17px" viewBox="0 0 82 17" version="1.1" xmlns="http://www.w3.org/2000/svg" xmlns:xlink="http://www.w3.org/1999/xlink">
    <!-- Generator: Sketch 64 (93537) - https://sketch.com -->
    <title>Group 31</title>
    <desc>Created with Sketch.</desc>
    <g id="Symbols" stroke="none" stroke-width="1" fill="none" fill-rule="evenodd">
        <g id="Group-31">
            <polygon id="Fill-1" fill="#EF5512" points="7.55402764 -1.21842496e-05 3.65527489e-05 9.52051679 9.0995997 9.52051679 14.9749667 -1.21842496e-05"></polygon>
            <polygon id="Fill-2" fill="#E5ECF2" points="14.9749302 -1.21842496e-05 9.09956315 9.52051679 18.1992481 9.52051679 22.3958692 -1.21842496e-05"></polygon>
            <polygon id="Fill-3" fill="#EF5512" points="22.3958327 -1.21842496e-05 18.1992116 9.52051679 27.2987747 9.52051679 29.8167718 -1.21842496e-05"></polygon>
            <polygon id="Fill-4" fill="#E5ECF2" points="29.8167352 -1.21842496e-05 27.2987382 9.52051679 36.3983013 9.52051679 37.2376743 -1.21842496e-05"></polygon>
            <polygon id="Fill-5" fill="#EF5512" points="37.2376377 -1.21842496e-05 36.3982648 9.52051679 45.4978279 9.52051679 44.6585768 -1.21842496e-05"></polygon>
            <polygon id="Fill-6" fill="#E5ECF2" points="44.6585403 -1.21842496e-05 45.4979132 9.52051679 54.5974764 9.52051679 52.0794793 -1.21842496e-05"></polygon>
            <polygon id="Fill-7" fill="#EF5512" points="52.0794428 -1.21842496e-05 54.5975617 9.52051679 63.6971248 9.52051679 59.5003819 -1.21842496e-05"></polygon>
            <polygon id="Fill-8" fill="#E5ECF2" points="59.5003453 -1.21842496e-05 63.6970883 9.52051679 72.7967733 9.52051679 66.9214062 -1.21842496e-05"></polygon>
            <polygon id="Fill-9" fill="#EF5512" points="66.9213575 -1.21842496e-05 72.7967245 9.52051679 81.8962877 9.52051679 74.3422966 -1.21842496e-05"></polygon>
            <g id="Group-30" style="mix-blend-mode: saturation;" transform="translate(0.000000, 9.488606)">
                <path d="M2.43684993e-05,2.10128351 C2.43684993e-05,4.57456434 2.00494264,6.57948262 4.47822348,6.57948262 L4.62138841,6.57948262 C7.09466924,6.57948262 9.09958752,4.57456434 9.09958752,2.10128351 L9.09958752,0.0319105498 L2.43684993e-05,0.0319105498 L2.43684993e-05,2.10128351 Z" id="Fill-10" fill="#EF5512"></path>
                <path d="M9.0995997,2.10128351 C9.0995997,4.57456434 11.104518,6.57948262 13.5777988,6.57948262 L13.7209637,6.57948262 C16.1942446,6.57948262 18.1991629,4.57456434 18.1991629,2.10128351 L18.1991629,0.0319105498 L9.0995997,0.0319105498 L9.0995997,2.10128351 Z" id="Fill-12" fill="#E5ECF2"></path>
                <path d="M18.1991872,2.10128351 C18.1991872,4.57456434 20.2041055,6.57948262 22.6773863,6.57948262 L22.8205513,6.57948262 C25.2938321,6.57948262 27.2987504,4.57456434 27.2987504,2.10128351 L27.2987504,0.0319105498 L18.1991872,0.0319105498 L18.1991872,2.10128351 Z" id="Fill-14" fill="#EF5512"></path>
                <path d="M27.2987626,2.10128351 C27.2987626,4.57456434 29.3038027,6.57948262 31.7769617,6.57948262 L31.9201266,6.57948262 C34.3934074,6.57948262 36.3983257,4.57456434 36.3983257,2.10128351 L36.3983257,0.0319105498 L27.2987626,0.0319105498 L27.2987626,2.10128351 Z" id="Fill-16" fill="#E5ECF2"></path>
                <path d="M36.3983379,2.10128351 C36.3983379,4.57456434 38.403378,6.57948262 40.876537,6.57948262 L41.0197019,6.57948262 C43.4929828,6.57948262 45.497901,4.57456434 45.497901,2.10128351 L45.497901,0.0319105498 L36.3983379,0.0319105498 L36.3983379,2.10128351 Z" id="Fill-18" fill="#EF5512"></path>
                <path d="M45.4979132,2.10128351 C45.4979132,4.57456434 47.5029533,6.57948262 49.9761123,6.57948262 L50.1192773,6.57948262 C52.5925581,6.57948262 54.5974764,4.57456434 54.5974764,2.10128351 L54.5974764,0.0319105498 L45.4979132,0.0319105498 L45.4979132,2.10128351 Z" id="Fill-20" fill="#E5ECF2"></path>
                <path d="M54.5974886,2.10128351 C54.5974886,4.57456434 56.6025287,6.57948262 59.0756877,6.57948262 L59.2188526,6.57948262 C61.6921334,6.57948262 63.6971736,4.57456434 63.6971736,2.10128351 L63.6971736,0.0319105498 L54.5974886,0.0319105498 L54.5974886,2.10128351 Z" id="Fill-22" fill="#EF5512"></path>
                <path d="M63.6971248,2.10128351 C63.6971248,4.57456434 65.7020431,6.57948262 68.1753239,6.57948262 L68.3184889,6.57948262 C70.7917697,6.57948262 72.796688,4.57456434 72.796688,2.10128351 L72.796688,0.0319105498 L63.6971248,0.0319105498 L63.6971248,2.10128351 Z" id="Fill-24" fill="#E5ECF2"></path>
                <path d="M72.7967001,2.10128351 C72.7967001,4.57456434 74.8016184,6.57948262 77.2748993,6.57948262 L77.4180642,6.57948262 C79.891345,6.57948262 81.8962633,4.57456434 81.8962633,2.10128351 L81.8962633,0.0319105498 L72.7967001,0.0319105498 L72.7967001,2.10128351 Z" id="Fill-26" fill="#EF5512"></path>
                <path d="M63.6971248,0.031922734 L54.5974398,0.031922734 L45.4978767,0.031922734 L36.3983135,0.031922734 L27.2987504,0.031922734 L18.1991872,0.031922734 L9.09962407,0.031922734 L6.09212481e-05,0.031922734 L6.09212481e-05,2.17172065 C6.09212481e-05,4.60613373 2.03702377,6.5794948 4.54978158,6.5794948 C7.06266122,6.5794948 9.09962407,4.60613373 9.09962407,2.17172065 C9.09962407,4.60613373 11.1365869,6.5794948 13.6493447,6.5794948 C16.1622244,6.5794948 18.1991872,4.60613373 18.1991872,2.17172065 C18.1991872,4.60613373 20.2361501,6.5794948 22.7489079,6.5794948 C25.2617875,6.5794948 27.2987504,4.60613373 27.2987504,2.17172065 C27.2987504,4.60613373 29.3357132,6.5794948 31.8485929,6.5794948 C34.3613507,6.5794948 36.3983135,4.60613373 36.3983135,2.17172065 C36.3983135,4.60613373 38.4352764,6.5794948 40.948156,6.5794948 C43.4609138,6.5794948 45.4978767,4.60613373 45.4978767,2.17172065 C45.4978767,4.60613373 47.5349614,6.5794948 50.0477192,6.5794948 C52.560477,6.5794948 54.5974398,4.60613373 54.5974398,2.17172065 C54.5974398,4.60613373 56.6345245,6.5794948 59.1472823,6.5794948 C61.6600401,6.5794948 63.6971248,4.60613373 63.6971248,2.17172065 C63.6971248,4.60613373 65.7340877,6.5794948 68.2468455,6.5794948 C70.7596033,6.5794948 72.796688,4.60613373 72.796688,2.17172065 C72.796688,4.60613373 74.8336508,6.5794948 77.3464086,6.5794948 C79.8592883,6.5794948 81.8962511,4.60613373 81.8962511,2.17172065 L81.8962511,0.031922734 L72.796688,0.031922734 L63.6971248,0.031922734 Z" id="Fill-28" fill-opacity="0.31" fill="#000000"></path>
            </g>
        </g>
    </g>
</svg>