<svg xmlns="http://www.w3.org/2000/svg" width="1107.6924" height="1107.6924" viewBox="0 0 1107.6924 1107.6924">
  <g id="Layer_2" data-name="Layer 2">
    <g id="Layer_1-2" data-name="Layer 1">
      <path d="M1107.6924,553.8462q0,22.5462-1.7754,44.6462c-19.2246,241.0153-192.7446,438.5476-421.7446,493.7753a555.1184,555.1184,0,0,1-130.3262,15.4247C247.9662,1107.6924,0,859.7262,0,553.8462S247.9662,0,553.8462,0,1107.6924,247.9662,1107.6924,553.8462Z"/>
      <g>
        <g>
          <path d="M638.04,222.7947l-192.26,630.9822,134.0151,40.8344,192.26-630.9822ZM488.9538,783.8317a49.136,49.136,0,1,1,32.6809,61.3243A49.1361,49.1361,0,0,1,488.9538,783.8317Z" fill="#d8d8d8"/>
          <rect x="616.1628" y="272.7168" width="140.0983" height="64.6213" transform="translate(1253.7222 796.8205) rotate(-163.054)" fill="#ffe500"/>
          <rect x="590.6115" y="356.5741" width="140.0983" height="64.6213" transform="translate(1179.2872 953.4466) rotate(-163.054)" fill="#ffd200"/>
          <rect x="565.0602" y="440.4314" width="140.0983" height="64.6213" transform="translate(1104.8522 1110.0727) rotate(-163.054)" fill="#ffbf00"/>
          <rect x="539.5089" y="524.2887" width="140.0983" height="64.6213" transform="translate(1030.4172 1266.6988) rotate(-163.054)" fill="#ffac00"/>
          <rect x="513.9575" y="608.146" width="140.0983" height="64.6213" transform="translate(955.982 1423.325) rotate(-163.054)" fill="#f90"/>
        </g>
        <g>
          <path d="M536.607,213.0811l-79.77,654.7818,139.07,16.9425,79.77-654.7817ZM487.2093,791.4832a49.1361,49.1361,0,1,1,42.8333,54.7176A49.1361,49.1361,0,0,1,487.2093,791.4832Z" fill="#e2e2e2"/>
          <rect x="528.278" y="253.3888" width="140.0983" height="64.6213" transform="translate(1157.7124 641.6596) rotate(-173.054)" fill="#a1dc40"/>
          <rect x="517.6765" y="340.4091" width="140.0982" height="64.6213" transform="matrix(-0.9927, -0.1209, 0.1209, -0.9927, 1126.0637, 813.7794)" fill="#79bb3b"/>
          <rect x="507.0751" y="427.4294" width="140.0982" height="64.6213" transform="translate(1094.4145 985.8995) rotate(-173.054)" fill="#519b37"/>
          <rect x="496.4736" y="514.4496" width="140.0982" height="64.6213" transform="translate(1062.7662 1158.0189) rotate(-173.054)" fill="#287a32"/>
          <rect x="485.8722" y="601.4699" width="140.0982" height="64.6213" transform="translate(1031.1175 1330.1388) rotate(-173.054)" fill="#00592d"/>
        </g>
        <g>
          <path d="M435.0866,222.7576,470.23,881.4437,610.129,873.98,574.9858,215.2935ZM486.8779,800.95a49.136,49.136,0,1,1,51.6841,46.4484A49.136,49.136,0,0,1,486.8779,800.95Z" fill="#eaeaea"/>
          <rect x="438.4299" y="251.2445" width="140.0983" height="64.6213" transform="translate(1031.3431 539.6169) rotate(176.946)" fill="#5cdcff"/>
          <rect x="443.1004" y="338.7837" width="140.0983" height="64.6213" transform="translate(1045.3414 714.3222) rotate(176.946)" fill="#46b5e4"/>
          <rect x="447.7709" y="426.3228" width="140.0983" height="64.6213" transform="translate(1059.3399 889.0269) rotate(176.9459)" fill="#308fc9"/>
          <rect x="452.4415" y="513.862" width="140.0982" height="64.6213" transform="translate(1073.3379 1063.7324) rotate(176.946)" fill="#1968ae"/>
          <rect x="457.112" y="601.4012" width="140.0983" height="64.6213" transform="translate(1087.3362 1238.4377) rotate(176.946)" fill="#034193"/>
        </g>
        <g>
          <path d="M335.6378,248.2,484.6267,890.7768l136.4777-31.6439L472.1155,216.5563ZM487.0443,808.6153a49.136,49.136,0,1,1,58.9646,36.7679A49.136,49.136,0,0,1,487.0443,808.6153Z" fill="#fff"/>
          <rect x="348.4235" y="263.019" width="140.0983" height="64.6213" transform="translate(892.8367 488.5071) rotate(166.946)" fill="#ff5252"/>
          <rect x="368.2241" y="348.4172" width="140.0983" height="64.6213" transform="translate(951.2151 652.6242) rotate(166.946)" fill="#df4147"/>
          <rect x="388.0246" y="433.8154" width="140.0983" height="64.6213" transform="translate(1009.5937 816.741) rotate(166.946)" fill="#c0313c"/>
          <rect x="407.8252" y="519.2136" width="140.0982" height="64.6213" transform="translate(1067.972 980.8582) rotate(166.946)" fill="#a02030"/>
          <rect x="427.6258" y="604.6118" width="140.0982" height="64.6213" transform="translate(1126.3504 1144.9753) rotate(166.9459)" fill="#800f25"/>
        </g>
      </g>
    </g>
  </g>
</svg>
