<svg xmlns="http://www.w3.org/2000/svg" width="281.4307" height="281.9959" viewBox="0 0 281.4307 281.9959">
  <g id="Layer_2" data-name="Layer 2">
    <g id="Layer_1-2" data-name="Layer 1">
      <g>
        <g id="up-right">
          <g>
            <path d="M166.9707,72.37a2.0266,2.0266,0,0,1,.76-.66,2.26,2.26,0,0,1,1.02-.25,2.1979,2.1979,0,0,1,.77.15,2.1446,2.1446,0,0,1,.72.49l8.26,8.26a4.8526,4.8526,0,0,0,6.86-.02l45.58-45.97a69.2,69.2,0,0,0,7.39,8.73,68.3029,68.3029,0,0,0,8.51,7.23l-45.59,45.97a4.85,4.85,0,0,0,.02,6.83l8.27,8.27a2.123,2.123,0,0,1,.48.71,1.9938,1.9938,0,0,1,.15.77,2.2562,2.2562,0,0,1-.43,1.31,1.7889,1.7889,0,0,1-.48.47,2.1463,2.1463,0,0,1-.68.31l-53.69,14.39a2.67,2.67,0,0,1-.58.08,1.9332,1.9332,0,0,1-.79-.17,2.1879,2.1879,0,0,1-.97-.79,2.1083,2.1083,0,0,1-.36-1.15,2.6744,2.6744,0,0,1,.08-.59l14.39-53.69A2.1463,2.1463,0,0,1,166.9707,72.37Z"/>
            <path d="M241.3407,0a12.0063,12.0063,0,0,1,6.88,2.14,12.487,12.487,0,0,1,4.46,5.63,37.7442,37.7442,0,0,0,20.97,20.98,12.3958,12.3958,0,0,1,5.64,4.46,12.1246,12.1246,0,0,1,2.14,6.87v8.3a12.1544,12.1544,0,0,1-12.15,12.16,12.271,12.271,0,0,1-3.9-.65,67.3983,67.3983,0,0,1-10.14-4.34,4.833,4.833,0,0,0-7.2-6.43l-1.2,1.21a68.3029,68.3029,0,0,1-8.51-7.23,69.2,69.2,0,0,1-7.39-8.73l1.16-1.17a4.8347,4.8347,0,0,0-6.35-7.26,67.7053,67.7053,0,0,1-4.22-9.9,12.3541,12.3541,0,0,1-.64-3.9,12.2365,12.2365,0,0,1,6.62-10.82,12.03,12.03,0,0,1,5.54-1.32Zm0,9.67h-8.29a2.51,2.51,0,0,0-1.13.26,2.3364,2.3364,0,0,0-.87.77,2.3719,2.3719,0,0,0-.48,1.44,2.8033,2.8033,0,0,0,.13.83,60.0348,60.0348,0,0,0,14.47,23.29,59.8956,59.8956,0,0,0,23.29,14.46,2.5664,2.5664,0,0,0,.82.14,2.443,2.443,0,0,0,1.38-.42,2.5652,2.5652,0,0,0,.91-1.1,2.5282,2.5282,0,0,0,.19-.96v-8.3a2.3689,2.3689,0,0,0-.43-1.37,2.7569,2.7569,0,0,0-1.26-.98,47.3339,47.3339,0,0,1-26.37-26.38,2.7931,2.7931,0,0,0-.98-1.25A2.4,2.4,0,0,0,241.3407,9.67Z"/>
            <path d="M225.2307,26.39a3.6452,3.6452,0,0,1,.52-.45,67.3837,67.3837,0,0,0,5.19,8.43l-45.58,45.97a4.8526,4.8526,0,0,1-6.86.02l-8.26-8.26a2.1446,2.1446,0,0,0-.72-.49,2.1979,2.1979,0,0,0-.77-.15,2.26,2.26,0,0,0-1.02.25,2.0266,2.0266,0,0,0-.76.66,2.1463,2.1463,0,0,0-.31.68l-14.39,53.69a2.6744,2.6744,0,0,0-.08.59,2.1083,2.1083,0,0,0,.36,1.15,2.1879,2.1879,0,0,0,.97.79,1.9332,1.9332,0,0,0,.79.17,2.67,2.67,0,0,0,.58-.08l53.69-14.39a2.1463,2.1463,0,0,0,.68-.31,1.7889,1.7889,0,0,0,.48-.47,2.2562,2.2562,0,0,0,.43-1.31,1.9938,1.9938,0,0,0-.15-.77,2.123,2.123,0,0,0-.48-.71l-8.27-8.27a4.85,4.85,0,0,1-.02-6.83l45.59-45.97a66.5269,66.5269,0,0,0,8.4,5.22,3.9024,3.9024,0,0,1-.33.38l-43.4,43.76,4.87,4.87a11.8192,11.8192,0,0,1-1.61,18.05,11.7413,11.7413,0,0,1-3.69,1.7l-53.69,14.39a11.73,11.73,0,0,1-9.67-1.62,11.9136,11.9136,0,0,1-4.26-5.17,11.6827,11.6827,0,0,1-.94-4.58,12.0912,12.0912,0,0,1,.41-3.09l14.39-53.69v-.01a11.7764,11.7764,0,0,1,19.75-5.28v-.01l4.84,4.83Z"/>
            <path d="M230.9407,34.37a67.3837,67.3837,0,0,1-5.19-8.43,4.8347,4.8347,0,0,1,6.35,7.26Z"/>
            <path d="M230.7007,12.97a2.8033,2.8033,0,0,1-.13-.83,2.3719,2.3719,0,0,1,.48-1.44,2.3364,2.3364,0,0,1,.87-.77,2.51,2.51,0,0,1,1.13-.26h8.29a2.4,2.4,0,0,1,1.38.43,2.7931,2.7931,0,0,1,.98,1.25,47.3339,47.3339,0,0,0,26.37,26.38,2.7569,2.7569,0,0,1,1.26.98,2.3689,2.3689,0,0,1,.43,1.37v8.3a2.5282,2.5282,0,0,1-.19.96,2.5652,2.5652,0,0,1-.91,1.1,2.443,2.443,0,0,1-1.38.42,2.5664,2.5664,0,0,1-.82-.14,59.8956,59.8956,0,0,1-23.29-14.46A60.0348,60.0348,0,0,1,230.7007,12.97Z"/>
            <path d="M246.8407,50.33l1.2-1.21a4.833,4.833,0,0,1,7.2,6.43A66.5269,66.5269,0,0,1,246.8407,50.33Z"/>
          </g>
        </g>
        <g id="up-left">
          <g>
            <path d="M0,49.3806v-8.3a12.1246,12.1246,0,0,1,2.14-6.87,12.4209,12.4209,0,0,1,5.63-4.46,37.7312,37.7312,0,0,0,20.98-20.98,12.487,12.487,0,0,1,4.46-5.63,11.975,11.975,0,0,1,6.87-2.14h8.3v9.67h-8.3a2.392,2.392,0,0,0-1.37.43,2.7269,2.7269,0,0,0-.98,1.25,47.3511,47.3511,0,0,1-26.38,26.38,2.7269,2.7269,0,0,0-1.25.98,2.3689,2.3689,0,0,0-.43,1.37v8.3a2.42,2.42,0,0,0,.42,1.38,2.4969,2.4969,0,0,0,1.1.91,2.5282,2.5282,0,0,0,.96.19,2.5664,2.5664,0,0,0,.82-.14A58.395,58.395,0,0,0,24,46.7106a4.5352,4.5352,0,0,0-.69.57,4.8345,4.8345,0,0,0,0,6.84l2.58,2.58a67.3291,67.3291,0,0,1-9.84,4.19,12.3178,12.3178,0,0,1-3.9.65,12.199,12.199,0,0,1-11.2-7.43A12.2892,12.2892,0,0,1,0,49.3806Z"/>
            <path d="M9.67,49.3806v-8.3a2.3689,2.3689,0,0,1,.43-1.37,2.7269,2.7269,0,0,1,1.25-.98,47.3511,47.3511,0,0,0,26.38-26.38,2.7269,2.7269,0,0,1,.98-1.25,2.392,2.392,0,0,1,1.37-.43h8.3a2.51,2.51,0,0,1,1.13.26,2.3364,2.3364,0,0,1,.87.77,2.3719,2.3719,0,0,1,.48,1.44,2.536,2.536,0,0,1-.14.83,67.176,67.176,0,0,1-5.13,11.23,2.958,2.958,0,0,0-.35.59c-.14.24-.28.48-.43.71a60.3659,60.3659,0,0,1-8.55,10.76,59.9148,59.9148,0,0,1-11.68,9.1,3.9783,3.9783,0,0,0-.56.34c-.01.01-.01.01-.02.01a58.395,58.395,0,0,1-11.03,5.01,2.5664,2.5664,0,0,1-.82.14,2.5282,2.5282,0,0,1-.96-.19,2.4969,2.4969,0,0,1-1.1-.91A2.42,2.42,0,0,1,9.67,49.3806Z"/>
            <path d="M23.31,54.1206a4.8345,4.8345,0,0,1,0-6.84,4.5352,4.5352,0,0,1,.69-.57c.01,0,.01,0,.02-.01.19-.11.38-.22.56-.34a4.8484,4.8484,0,0,1,5.57.92l4.22,4.22a67.3143,67.3143,0,0,1-8.48,5.2Z"/>
            <path d="M24.58,46.3606c-.18.12-.37.23-.56.34A3.9783,3.9783,0,0,1,24.58,46.3606Z"/>
            <path d="M24.58,46.3606a59.9148,59.9148,0,0,0,11.68-9.1,60.3659,60.3659,0,0,0,8.55-10.76c.15-.23.29-.47.43-.71a4.8092,4.8092,0,0,0,.89,5.6l4.2,4.2a69.0337,69.0337,0,0,1-7.23,8.51,70.1219,70.1219,0,0,1-8.73,7.4l-4.22-4.22A4.8484,4.8484,0,0,0,24.58,46.3606Z"/>
            <path d="M69.9,100.7106l-44.01-44.01a67.3143,67.3143,0,0,0,8.48-5.2l45.79,45.79a4.8345,4.8345,0,0,1,0,6.84l-8.27,8.27a2.123,2.123,0,0,0-.48.71,1.9938,1.9938,0,0,0-.15.77,2.26,2.26,0,0,0,.25,1.02,2.0929,2.0929,0,0,0,.65.76,2.3191,2.3191,0,0,0,.69.31l53.69,14.39a2.5922,2.5922,0,0,0,.58.08,1.9934,1.9934,0,0,0,1.15-.37,2.1208,2.1208,0,0,0,.8-.96,1.9332,1.9332,0,0,0,.17-.79,2.5922,2.5922,0,0,0-.08-.58l-14.39-53.69a1.9474,1.9474,0,0,0-.31-.68,2.0973,2.0973,0,0,0-.46-.48,2.3107,2.3107,0,0,0-1.32-.43,2.1979,2.1979,0,0,0-.77.15,2.1446,2.1446,0,0,0-.72.49l-8.26,8.26a4.8345,4.8345,0,0,1-6.84,0l-45.76-45.77a67.8547,67.8547,0,0,0,5.24-8.44l43.94,43.95,4.84-4.84v-.01a12.04,12.04,0,0,1,3.94-2.61,11.8589,11.8589,0,0,1,14.12,4.21,11.9363,11.9363,0,0,1,1.71,3.7l14.38,53.69a11.73,11.73,0,0,1-1.62,9.67,11.9136,11.9136,0,0,1-5.17,4.26,11.6949,11.6949,0,0,1-4.59.94,12.2087,12.2087,0,0,1-3.09-.41l-53.68-14.39a11.7413,11.7413,0,0,1-3.69-1.7,11.56,11.56,0,0,1-2.78-2.71,11.8577,11.8577,0,0,1-2.29-7.02,11.62,11.62,0,0,1,.85-4.39,11.7448,11.7448,0,0,1,2.61-3.93Z"/>
            <path d="M80.16,97.2906l-45.79-45.79a70.1219,70.1219,0,0,0,8.73-7.4,69.0337,69.0337,0,0,0,7.23-8.51l45.76,45.77a4.8345,4.8345,0,0,0,6.84,0l8.26-8.26a2.1446,2.1446,0,0,1,.72-.49,2.1979,2.1979,0,0,1,.77-.15,2.3107,2.3107,0,0,1,1.32.43,2.0973,2.0973,0,0,1,.46.48,1.9474,1.9474,0,0,1,.31.68l14.39,53.69a2.5922,2.5922,0,0,1,.08.58,1.9332,1.9332,0,0,1-.17.79,2.1208,2.1208,0,0,1-.8.96,1.9934,1.9934,0,0,1-1.15.37,2.5922,2.5922,0,0,1-.58-.08l-53.69-14.39a2.3191,2.3191,0,0,1-.69-.31,2.0929,2.0929,0,0,1-.65-.76,2.26,2.26,0,0,1-.25-1.02,1.9938,1.9938,0,0,1,.15-.77,2.123,2.123,0,0,1,.48-.71l8.27-8.27A4.8345,4.8345,0,0,0,80.16,97.2906Z"/>
            <path d="M46.13,31.3906a4.8092,4.8092,0,0,1-.89-5.6c.12-.19.24-.39.35-.59a4.1409,4.1409,0,0,1,.54-.65,4.8345,4.8345,0,0,1,6.84,0l2.6,2.6a67.8547,67.8547,0,0,1-5.24,8.44Z"/>
            <path d="M45.59,25.2006c-.11.2-.23.4-.35.59A2.958,2.958,0,0,1,45.59,25.2006Z"/>
            <path d="M45.59,25.2006a67.176,67.176,0,0,0,5.13-11.23,2.536,2.536,0,0,0,.14-.83,2.3719,2.3719,0,0,0-.48-1.44,2.3364,2.3364,0,0,0-.87-.77,2.51,2.51,0,0,0-1.13-.26v-9.67a12.03,12.03,0,0,1,5.54,1.32,12.138,12.138,0,0,1,5.97,14.73,67.8879,67.8879,0,0,1-4.32,10.1l-2.6-2.6a4.8345,4.8345,0,0,0-6.84,0A4.1409,4.1409,0,0,0,45.59,25.2006Z"/>
          </g>
        </g>
        <g id="down-right">
          <g>
            <path d="M142.4907,157.1559a12.0736,12.0736,0,0,1-.41-3.08,11.5628,11.5628,0,0,1,.95-4.59,11.9489,11.9489,0,0,1,4.25-5.17,11.753,11.753,0,0,1,9.68-1.62l53.69,14.38a11.9884,11.9884,0,0,1,3.69,1.71,11.6021,11.6021,0,0,1,3.76,4.32,11.9291,11.9291,0,0,1,1.31,5.41,11.7756,11.7756,0,0,1-3.47,8.32l-4.84,4.85,43.74,43.74a66.4153,66.4153,0,0,0-8.44,5.24l-45.56-45.56a4.8345,4.8345,0,0,1,0-6.84l8.26-8.27a2.0218,2.0218,0,0,0,.49-.71,2.2293,2.2293,0,0,0-.28-2.08,1.9468,1.9468,0,0,0-.48-.47,2.0022,2.0022,0,0,0-.69-.31l-53.68-14.39a2.6744,2.6744,0,0,0-.59-.08,2.1427,2.1427,0,0,0-.79.16,2.2656,2.2656,0,0,0-.96.81,1.9834,1.9834,0,0,0-.36,1.15,2.1194,2.1194,0,0,0,.08.58l14.38,53.69a2.1463,2.1463,0,0,0,.31.68,2.0266,2.0266,0,0,0,.76.66,2.1676,2.1676,0,0,0,1.03.24,1.9539,1.9539,0,0,0,1.48-.63l8.26-8.26a4.8285,4.8285,0,0,1,6.84,0l45.59,45.59a70.4572,70.4572,0,0,0-5.21,8.47l-43.8-43.8-4.84,4.84a11.6643,11.6643,0,0,1-8.32,3.47,11.91,11.91,0,0,1-7.03-2.29,11.7,11.7,0,0,1-2.71-2.77,12.1313,12.1313,0,0,1-1.7-3.7Z"/>
            <path d="M167.2907,209.6859a2.0266,2.0266,0,0,1-.76-.66,2.1463,2.1463,0,0,1-.31-.68l-14.38-53.69a2.1194,2.1194,0,0,1-.08-.58,1.9834,1.9834,0,0,1,.36-1.15,2.2656,2.2656,0,0,1,.96-.81,2.1427,2.1427,0,0,1,.79-.16,2.6744,2.6744,0,0,1,.59.08l53.68,14.39a2.0022,2.0022,0,0,1,.69.31,1.9468,1.9468,0,0,1,.48.47,2.2293,2.2293,0,0,1,.28,2.08,2.0218,2.0218,0,0,1-.49.71l-8.26,8.27a4.8345,4.8345,0,0,0,0,6.84l45.56,45.56a69.07,69.07,0,0,0-8.5,7.23,70.2,70.2,0,0,0-7.41,8.73l-45.59-45.59a4.8285,4.8285,0,0,0-6.84,0l-8.26,8.26a1.9539,1.9539,0,0,1-1.48.63A2.1676,2.1676,0,0,1,167.2907,209.6859Z"/>
            <path d="M227.8707,257.6859l-2.59-2.59a70.4572,70.4572,0,0,1,5.21-8.47l4.22,4.22a4.8484,4.8484,0,0,1,.92,5.57c-.12.18-.23.37-.34.56-.01.01-.01.01-.01.02a4.5352,4.5352,0,0,1-.57.69A4.8345,4.8345,0,0,1,227.8707,257.6859Z"/>
            <path d="M234.7107,250.8459l-4.22-4.22a70.2,70.2,0,0,1,7.41-8.73,69.07,69.07,0,0,1,8.5-7.23l4.2,4.2a4.8329,4.8329,0,0,0,5.65.87,60.2557,60.2557,0,0,0-20.62,20.68A4.8484,4.8484,0,0,0,234.7107,250.8459Z"/>
            <path d="M235.2807,256.9959a59.0314,59.0314,0,0,0-5.01,11.03,2.4939,2.4939,0,0,0-.14.83,2.46,2.46,0,0,0,.48,1.44,2.4082,2.4082,0,0,0,.88.76,2.3591,2.3591,0,0,0,1.13.27h8.29a2.3689,2.3689,0,0,0,1.37-.43,2.7439,2.7439,0,0,0,.98-1.26,47.3813,47.3813,0,0,1,26.38-26.38,2.7105,2.7105,0,0,0,1.25-.97,2.3288,2.3288,0,0,0,.43-1.38v-8.29a2.5026,2.5026,0,0,0-.18-.97,2.586,2.586,0,0,0-.54-.79h-.01a2.7668,2.7668,0,0,0-.83-.54,2.3587,2.3587,0,0,0-.91-.19v-9.67a12.2052,12.2052,0,0,1,8.5,3.48,12.0338,12.0338,0,0,1,3.65,8.68v8.29a12.09,12.09,0,0,1-2.15,6.88,12.4343,12.4343,0,0,1-5.63,4.46,37.6967,37.6967,0,0,0-20.97,20.97,12.3371,12.3371,0,0,1-4.47,5.63,12.0581,12.0581,0,0,1-6.87,2.15h-8.29a12.17,12.17,0,0,1-12.16-12.09v-.05a12.1813,12.1813,0,0,1,.64-3.91,68.5085,68.5085,0,0,1,4.18-9.85l2.59,2.59a4.8345,4.8345,0,0,0,6.84,0A4.5352,4.5352,0,0,0,235.2807,256.9959Z"/>
            <path d="M235.2907,256.9759c.11-.19.22-.38.34-.56A3.9783,3.9783,0,0,1,235.2907,256.9759Z"/>
            <path d="M250.6007,234.8659l-4.2-4.2a66.4153,66.4153,0,0,1,8.44-5.24l2.6,2.6a4.8345,4.8345,0,0,1,0,6.84,4.5352,4.5352,0,0,1-.69.57c-.16.09-.32.18-.48.29-.01-.01-.02.01-.02.01A4.8329,4.8329,0,0,1,250.6007,234.8659Z"/>
            <path d="M257.4407,228.0259l-2.6-2.6a69.1148,69.1148,0,0,1,10.11-4.33,12.2616,12.2616,0,0,1,3.9-.64v9.67a2.5792,2.5792,0,0,0-.83.14,58.083,58.083,0,0,0-11.27,5.17,4.5352,4.5352,0,0,0,.69-.57A4.8345,4.8345,0,0,0,257.4407,228.0259Z"/>
            <path d="M256.2707,235.7259c.16-.11.32-.2.48-.29A2.9172,2.9172,0,0,1,256.2707,235.7259Z"/>
            <path d="M268.0207,230.2659a2.5792,2.5792,0,0,1,.83-.14,2.3587,2.3587,0,0,1,.91.19,2.7668,2.7668,0,0,1,.83.54h.01a2.586,2.586,0,0,1,.54.79,2.5026,2.5026,0,0,1,.18.97v8.29a2.3288,2.3288,0,0,1-.43,1.38,2.7105,2.7105,0,0,1-1.25.97,47.3813,47.3813,0,0,0-26.38,26.38,2.7439,2.7439,0,0,1-.98,1.26,2.3689,2.3689,0,0,1-1.37.43h-8.29a2.3591,2.3591,0,0,1-1.13-.27,2.4082,2.4082,0,0,1-.88-.76,2.46,2.46,0,0,1-.48-1.44,2.4939,2.4939,0,0,1,.14-.83,59.0314,59.0314,0,0,1,5.01-11.03c0-.01,0-.01.01-.02a3.9783,3.9783,0,0,0,.34-.56,60.2557,60.2557,0,0,1,20.62-20.68s.01-.02.02-.01a2.9172,2.9172,0,0,0,.48-.29A58.083,58.083,0,0,1,268.0207,230.2659Z"/>
          </g>
        </g>
        <g id="down-left">
          <g>
            <path d="M0,241.9059v-8.29a12.22,12.22,0,0,1,.94-4.71,11.942,11.942,0,0,1,2.71-3.97,12.2052,12.2052,0,0,1,8.5-3.48v9.67a2.4064,2.4064,0,0,0-.92.19,2.7668,2.7668,0,0,0-.83.54,2.276,2.276,0,0,0-.54.79,2.5036,2.5036,0,0,0-.19.97v8.29a2.4,2.4,0,0,0,.43,1.38,2.7105,2.7105,0,0,0,1.25.97,47.3813,47.3813,0,0,1,26.38,26.38,2.8105,2.8105,0,0,0,.98,1.26,2.392,2.392,0,0,0,1.37.43h8.3a2.3882,2.3882,0,0,0,1.13-.27,2.3056,2.3056,0,0,0,.87-.76h.01a2.4468,2.4468,0,0,0,.47-1.44,2.4939,2.4939,0,0,0-.14-.83,58.395,58.395,0,0,0-5.01-11.03,4.5352,4.5352,0,0,0,.57.69,4.8345,4.8345,0,0,0,6.84,0l2.59-2.59a69.7009,69.7009,0,0,1,4.19,9.85,12.4621,12.4621,0,0,1,.64,3.91,12.0848,12.0848,0,0,1-2.31,7.09h.01a12.1044,12.1044,0,0,1-9.86,5.05h-8.3a12.0581,12.0581,0,0,1-6.87-2.15,12.382,12.382,0,0,1-4.46-5.63,37.727,37.727,0,0,0-20.97-20.97,12.4615,12.4615,0,0,1-5.64-4.46A12.1564,12.1564,0,0,1,0,241.9059Z"/>
            <path d="M9.67,241.9059v-8.29a2.5036,2.5036,0,0,1,.19-.97,2.276,2.276,0,0,1,.54-.79,2.7668,2.7668,0,0,1,.83-.54,2.4064,2.4064,0,0,1,.92-.19,2.5664,2.5664,0,0,1,.82.14,58.1687,58.1687,0,0,1,11.28,5.17,4.0858,4.0858,0,0,0,.48.29c.01-.01.02.01.02.01a60.1,60.1,0,0,1,11.51,9,59.9148,59.9148,0,0,1,9.1,11.68,3.9783,3.9783,0,0,0,.34.56c.01.01.01.01.01.02a58.395,58.395,0,0,1,5.01,11.03,2.4939,2.4939,0,0,1,.14.83,2.4468,2.4468,0,0,1-.47,1.44h-.01a2.3056,2.3056,0,0,1-.87.76,2.3882,2.3882,0,0,1-1.13.27h-8.3a2.392,2.392,0,0,1-1.37-.43,2.8105,2.8105,0,0,1-.98-1.26,47.3813,47.3813,0,0,0-26.38-26.38,2.7105,2.7105,0,0,1-1.25-.97A2.4,2.4,0,0,1,9.67,241.9059Z"/>
            <path d="M12.15,226.2959v-4.84a12.3077,12.3077,0,0,1,3.9.64,67.9777,67.9777,0,0,1,10.1,4.34l-2.59,2.59a4.8345,4.8345,0,0,0,0,6.84,6.1349,6.1349,0,0,0,.69.57,58.1687,58.1687,0,0,0-11.28-5.17,2.5664,2.5664,0,0,0-.82-.14Z"/>
            <path d="M23.56,235.8659a4.8345,4.8345,0,0,1,0-6.84l2.59-2.59a66.0325,66.0325,0,0,1,8.45,5.23l-4.2,4.2a4.8329,4.8329,0,0,1-5.65.87s-.01-.02-.02-.01c-.16-.11-.32-.2-.48-.29A6.1349,6.1349,0,0,1,23.56,235.8659Z"/>
            <path d="M24.25,236.4359c.16.09.32.18.48.29A4.0858,4.0858,0,0,1,24.25,236.4359Z"/>
            <path d="M36.26,245.7359a60.1,60.1,0,0,0-11.51-9,4.8329,4.8329,0,0,0,5.65-.87l4.2-4.2a70.5844,70.5844,0,0,1,8.5,7.23,70.1219,70.1219,0,0,1,7.4,8.73l-4.22,4.22a4.8484,4.8484,0,0,0-.92,5.57A59.9148,59.9148,0,0,0,36.26,245.7359Z"/>
            <path d="M26.15,226.4359l43.75-43.75-4.85-4.85a11.7448,11.7448,0,0,1-2.61-3.93,11.62,11.62,0,0,1-.85-4.39,11.92,11.92,0,0,1,1.3-5.41,11.63,11.63,0,0,1,3.77-4.32,11.9884,11.9884,0,0,1,3.69-1.71l53.68-14.38h.01a11.73,11.73,0,0,1,9.67,1.62,11.9708,11.9708,0,0,1,4.26,5.17,11.7148,11.7148,0,0,1,.53,7.67l-14.38,53.69a12.1525,12.1525,0,0,1-1.71,3.7,11.7,11.7,0,0,1-2.71,2.77,11.7768,11.7768,0,0,1-15.35-1.18l-4.84-4.84-43.8,43.8a69.2021,69.2021,0,0,0-5.21-8.47l45.59-45.59a4.8285,4.8285,0,0,1,6.84,0l8.26,8.26a2.1446,2.1446,0,0,0,.72.49,1.987,1.987,0,0,0,.77.14,2.1285,2.1285,0,0,0,1.02-.24,2.0659,2.0659,0,0,0,1.07-1.34l14.39-53.69a2.5922,2.5922,0,0,0,.08-.58,2.0585,2.0585,0,0,0-.36-1.15,2.2914,2.2914,0,0,0-.97-.81,2.1024,2.1024,0,0,0-.79-.16,2.6744,2.6744,0,0,0-.59.08l-53.68,14.39a1.9474,1.9474,0,0,0-.68.31,1.7889,1.7889,0,0,0-.48.47,2.2562,2.2562,0,0,0-.43,1.31,1.9938,1.9938,0,0,0,.15.77,2.123,2.123,0,0,0,.48.71l8.27,8.27a4.8345,4.8345,0,0,1,0,6.84l-45.56,45.56A66.0325,66.0325,0,0,0,26.15,226.4359Z"/>
            <path d="M45.36,257.4159a4.8484,4.8484,0,0,1,.92-5.57l4.22-4.22a69.2021,69.2021,0,0,1,5.21,8.47l-2.59,2.59a4.8345,4.8345,0,0,1-6.84,0,4.5352,4.5352,0,0,1-.57-.69c0-.01,0-.01-.01-.02C45.59,257.7859,45.48,257.5959,45.36,257.4159Z"/>
            <path d="M45.36,257.4159c.12.18.23.37.34.56A3.9783,3.9783,0,0,1,45.36,257.4159Z"/>
            <path d="M114.46,210.0259a1.9532,1.9532,0,0,1-.76.66,2.1285,2.1285,0,0,1-1.02.24,1.987,1.987,0,0,1-.77-.14,2.1446,2.1446,0,0,1-.72-.49l-8.26-8.26a4.8285,4.8285,0,0,0-6.84,0l-45.59,45.59a70.1219,70.1219,0,0,0-7.4-8.73,70.5844,70.5844,0,0,0-8.5-7.23l45.56-45.56a4.8345,4.8345,0,0,0,0-6.84l-8.27-8.27a2.123,2.123,0,0,1-.48-.71,1.9938,1.9938,0,0,1-.15-.77,2.2562,2.2562,0,0,1,.43-1.31,1.7889,1.7889,0,0,1,.48-.47,1.9474,1.9474,0,0,1,.68-.31l53.68-14.39a2.6744,2.6744,0,0,1,.59-.08,2.1024,2.1024,0,0,1,.79.16,2.2914,2.2914,0,0,1,.97.81,2.0585,2.0585,0,0,1,.36,1.15,2.5922,2.5922,0,0,1-.08.58l-14.39,53.69A1.9474,1.9474,0,0,1,114.46,210.0259Z"/>
          </g>
        </g>
      </g>
    </g>
  </g>
</svg>
