<?xml version="1.0" encoding="UTF-8"?>
<svg width="155px" height="147px" viewBox="0 0 155 147" version="1.1" xmlns="http://www.w3.org/2000/svg" xmlns:xlink="http://www.w3.org/1999/xlink">
    <!-- Generator: Sketch 64 (93537) - https://sketch.com -->
    <title>fistanimation-</title>
    <desc>Created with Sketch.</desc>
    <defs>
        <linearGradient x1="50%" y1="0%" x2="50%" y2="99.0214445%" id="linearGradient-1">
            <stop stop-color="#000000" stop-opacity="0" offset="0%"></stop>
            <stop stop-color="#000000" stop-opacity="0.02" offset="80%"></stop>
            <stop stop-color="#000000" stop-opacity="0.04" offset="100%"></stop>
        </linearGradient>
        <linearGradient x1="50%" y1="0%" x2="50%" y2="100%" id="linearGradient-2">
            <stop stop-color="#FFFFFF" stop-opacity="0.12" offset="0%"></stop>
            <stop stop-color="#FFFFFF" stop-opacity="0.06" offset="20%"></stop>
            <stop stop-color="#FFFFFF" stop-opacity="0" offset="100%"></stop>
        </linearGradient>
        <path d="M127.401211,20.393143 L140.07321,110.325672 C140.997916,116.888261 136.427508,122.957913 129.864919,123.882619 C129.310234,123.960777 128.750756,124 128.190592,124 L66.904795,124 L66.904795,124 C53,123.790256 49.5238013,118.921037 56.4761987,109.392343 C61.8261593,102.059888 76.4548526,98.3779856 100.362279,98.3466347 C113.779872,98.3290384 124.790935,87.7226779 125.310727,74.3151448 L127.401211,20.393143 L127.401211,20.393143 Z" id="path-3"></path>
        <filter x="-18.0%" y="-15.4%" width="133.9%" height="138.6%" filterUnits="objectBoundingBox" id="filter-4">
            <feOffset dx="0" dy="8" in="SourceAlpha" result="shadowOffsetOuter1"></feOffset>
            <feGaussianBlur stdDeviation="4" in="shadowOffsetOuter1" result="shadowBlurOuter1"></feGaussianBlur>
            <feComposite in="shadowBlurOuter1" in2="SourceAlpha" operator="out" result="shadowBlurOuter1"></feComposite>
            <feColorMatrix values="0 0 0 0 0   0 0 0 0 0   0 0 0 0 0  0 0 0 0.24 0" type="matrix" in="shadowBlurOuter1" result="shadowMatrixOuter1"></feColorMatrix>
            <feOffset dx="0" dy="0" in="SourceAlpha" result="shadowOffsetOuter2"></feOffset>
            <feGaussianBlur stdDeviation="4" in="shadowOffsetOuter2" result="shadowBlurOuter2"></feGaussianBlur>
            <feComposite in="shadowBlurOuter2" in2="SourceAlpha" operator="out" result="shadowBlurOuter2"></feComposite>
            <feColorMatrix values="0 0 0 0 0   0 0 0 0 0   0 0 0 0 0  0 0 0 0.12 0" type="matrix" in="shadowBlurOuter2" result="shadowMatrixOuter2"></feColorMatrix>
            <feMerge>
                <feMergeNode in="shadowMatrixOuter1"></feMergeNode>
                <feMergeNode in="shadowMatrixOuter2"></feMergeNode>
            </feMerge>
        </filter>
        <linearGradient x1="50%" y1="0%" x2="50%" y2="99.0214445%" id="linearGradient-5">
            <stop stop-color="#000000" stop-opacity="0" offset="0%"></stop>
            <stop stop-color="#000000" stop-opacity="0.02" offset="80%"></stop>
            <stop stop-color="#000000" stop-opacity="0.04" offset="100%"></stop>
        </linearGradient>
        <linearGradient x1="50%" y1="0%" x2="50%" y2="100%" id="linearGradient-6">
            <stop stop-color="#FFFFFF" stop-opacity="0.12" offset="0%"></stop>
            <stop stop-color="#FFFFFF" stop-opacity="0.06" offset="20%"></stop>
            <stop stop-color="#FFFFFF" stop-opacity="0" offset="100%"></stop>
        </linearGradient>
        <path d="M37.1111754,100.938271 C40.7928093,99.2921729 44.4744433,97.6460745 48.1560773,95.9999762 C51.9283232,97.7762646 55.7005692,99.5525529 59.4728152,101.328841 C65.456613,104.146513 72.3905691,104.122566 78.354762,101.26363 L89.335579,95.9999762 L89.335579,95.9999762 L99.9760125,101.105608 C106.119177,104.053301 113.284314,103.973922 119.360667,100.890855 L122.97724,99.0558505 C126.672005,97.181172 129,93.3894624 129,89.2463102 L129,22.1161349 C129,15.1431715 124.194892,9.08976201 117.403833,7.50744164 L95.1261504,2.3167295 C90.7671739,1.30108562 86.4101831,4.01139224 85.3945393,8.37036878 C85.2540612,8.97327732 85.1831283,9.59029673 85.1831283,10.2093547 L85.1831283,10.2093547 L85.1831283,10.2093547 L55.6068676,2.55721893 C51.3807097,1.4638037 47.0683436,4.00339341 45.9749284,8.2295513 C45.8076267,8.87618891 45.7229637,9.54142502 45.7229637,10.2093547 L45.7229637,10.2093547 L45.7229637,10.2093547 L32.4420797,4.90864519 C28.3532221,3.27668706 24.0553494,2.2273155 19.6744892,1.79130146 L13.9773614,1.22428321 C7.71749628,0.601257373 2.13781072,5.17081848 1.51478488,11.4306836 C1.48404391,11.7395542 1.4659411,12.0495522 1.46052179,12.3599014 L0.244778799,81.9821661 C0.0981052436,90.3817581 5.26607319,97.9601986 13.1391863,100.890855 L15.1575498,101.642163 C22.2846485,104.295126 30.1686625,104.042344 37.1111754,100.938271 Z" id="path-7"></path>
        <filter x="-12.2%" y="-14.0%" width="124.6%" height="134.5%" filterUnits="objectBoundingBox" id="filter-8">
            <feOffset dx="0" dy="8" in="SourceAlpha" result="shadowOffsetOuter1"></feOffset>
            <feGaussianBlur stdDeviation="4" in="shadowOffsetOuter1" result="shadowBlurOuter1"></feGaussianBlur>
            <feComposite in="shadowBlurOuter1" in2="SourceAlpha" operator="out" result="shadowBlurOuter1"></feComposite>
            <feColorMatrix values="0 0 0 0 0   0 0 0 0 0   0 0 0 0 0  0 0 0 0.24 0" type="matrix" in="shadowBlurOuter1" result="shadowMatrixOuter1"></feColorMatrix>
            <feOffset dx="0" dy="0" in="SourceAlpha" result="shadowOffsetOuter2"></feOffset>
            <feGaussianBlur stdDeviation="4" in="shadowOffsetOuter2" result="shadowBlurOuter2"></feGaussianBlur>
            <feComposite in="shadowBlurOuter2" in2="SourceAlpha" operator="out" result="shadowBlurOuter2"></feComposite>
            <feColorMatrix values="0 0 0 0 0   0 0 0 0 0   0 0 0 0 0  0 0 0 0.12 0" type="matrix" in="shadowBlurOuter2" result="shadowMatrixOuter2"></feColorMatrix>
            <feMerge>
                <feMergeNode in="shadowMatrixOuter1"></feMergeNode>
                <feMergeNode in="shadowMatrixOuter2"></feMergeNode>
            </feMerge>
        </filter>
    </defs>
    <g id="Symbols" stroke="none" stroke-width="1" fill="none" fill-rule="evenodd">
        <g id="fist-colored" transform="translate(7.000000, -3.000000)">
            <g id="fist" transform="translate(0.000000, 10.000000)">
                <g id="thtumb">
                    <use fill="black" fill-opacity="1" filter="url(#filter-4)" xlink:href="#path-3"></use>
                    <path stroke="url(#linearGradient-1)" stroke-width="0.5" d="M127.542939,23.1907466 L125.56054,74.3248297 C125.298045,81.0956338 122.386504,87.1591419 117.846616,91.5321705 C113.306727,95.9051992 107.138491,98.5877483 100.362607,98.5966345 C76.5938305,98.6278036 62.0035287,102.240942 56.6781563,109.539696 C54.9643307,111.888601 53.8888453,113.948828 53.4602797,115.723885 C53.0459682,117.439904 53.2421419,118.882383 54.0725189,120.045518 C55.783899,122.442701 60.0872475,123.647134 66.9085656,123.750028 L128.190592,123.75 C128.739086,123.75 129.286908,123.711594 129.830038,123.635064 C133.042972,123.182344 135.768237,121.470183 137.577088,119.067969 C139.385939,116.665755 140.278376,113.573488 139.825656,110.360554 L127.542939,23.1907466 Z" stroke-linejoin="square" fill="#0091FF" fill-rule="evenodd"></path>
                    <path stroke="url(#linearGradient-2)" stroke-width="0.5" d="M127.542939,23.1907466 L125.56054,74.3248297 C125.298045,81.0956338 122.386504,87.1591419 117.846616,91.5321705 C113.306727,95.9051992 107.138491,98.5877483 100.362607,98.5966345 C76.5938305,98.6278036 62.0035287,102.240942 56.6781563,109.539696 C54.9643307,111.888601 53.8888453,113.948828 53.4602797,115.723885 C53.0459682,117.439904 53.2421419,118.882383 54.0725189,120.045518 C55.783899,122.442701 60.0872475,123.647134 66.9085656,123.750028 L128.190592,123.75 C128.739086,123.75 129.286908,123.711594 129.830038,123.635064 C133.042972,123.182344 135.768237,121.470183 137.577088,119.067969 C139.385939,116.665755 140.278376,113.573488 139.825656,110.360554 L127.542939,23.1907466 Z" stroke-linejoin="square"></path>
                </g>
                <g id="hand">
                    <use fill="black" fill-opacity="1" filter="url(#filter-8)" xlink:href="#path-7"></use>
                    <path stroke="url(#linearGradient-5)" stroke-width="0.5" d="M1.7635558,11.455443 C1.73348954,11.7575345 1.71578405,12.0607286 1.71048368,12.3642663 L0.494740693,81.9865309 C0.422329548,86.1333185 1.66180886,90.0774092 3.89110861,93.3465114 C6.12040836,96.6156137 9.33952855,99.2097274 13.2263992,100.656561 L15.2447626,101.407869 C22.3104209,104.037961 30.1264692,103.787358 37.0091328,100.710045 L48.1587778,95.7249179 L59.5793191,101.102662 C65.4951192,103.888315 72.3502803,103.86464 78.2466983,101.038192 L89.3356335,95.7227118 L100.084165,100.880212 C106.157206,103.794258 113.240555,103.715785 119.247548,100.667911 L122.864121,98.8329064 C124.669518,97.9168703 126.140987,96.5324687 127.161108,94.8709523 C128.181229,93.209436 128.75,91.270805 128.75,89.2463102 L128.75,22.1161349 C128.75,18.6877612 127.568744,15.4854446 125.552754,12.9457278 C123.536764,10.406011 120.68604,8.52889404 117.347103,7.75091986 L95.0694198,2.56020772 C92.9571662,2.06805149 90.8453937,2.47864759 89.1386456,3.54034615 C87.4318975,4.6020447 86.1301737,6.31484572 85.6380175,8.42709934 C85.5157405,8.95189189 85.4486404,9.48779762 85.4237306,10.5298365 L55.5442481,2.79924951 C53.498004,2.26983379 51.4308896,2.61994209 49.7429823,3.61396533 C48.0550749,4.60798857 46.7463747,6.24592675 46.216959,8.2921708 C46.0706304,8.85774514 45.9905846,9.43812372 45.9612664,10.5736437 L32.3494076,5.1408345 C28.2822992,3.51755699 24.0072875,2.47376719 19.6497298,2.04007238 L13.952602,1.47305413 C10.8913656,1.16837834 7.99644195,2.13335738 5.79065845,3.93981446 C3.58487495,5.74627154 2.06823159,8.39420667 1.7635558,11.455443 Z" stroke-linejoin="square" fill="#0091FF" fill-rule="evenodd"></path>
                    <path stroke="url(#linearGradient-6)" stroke-width="0.5" d="M1.7635558,11.455443 C1.73348954,11.7575345 1.71578405,12.0607286 1.71048368,12.3642663 L0.494740693,81.9865309 C0.422329548,86.1333185 1.66180886,90.0774092 3.89110861,93.3465114 C6.12040836,96.6156137 9.33952855,99.2097274 13.2263992,100.656561 L15.2447626,101.407869 C22.3104209,104.037961 30.1264692,103.787358 37.0091328,100.710045 L48.1587778,95.7249179 L59.5793191,101.102662 C65.4951192,103.888315 72.3502803,103.86464 78.2466983,101.038192 L89.3356335,95.7227118 L100.084165,100.880212 C106.157206,103.794258 113.240555,103.715785 119.247548,100.667911 L122.864121,98.8329064 C124.669518,97.9168703 126.140987,96.5324687 127.161108,94.8709523 C128.181229,93.209436 128.75,91.270805 128.75,89.2463102 L128.75,22.1161349 C128.75,18.6877612 127.568744,15.4854446 125.552754,12.9457278 C123.536764,10.406011 120.68604,8.52889404 117.347103,7.75091986 L95.0694198,2.56020772 C92.9571662,2.06805149 90.8453937,2.47864759 89.1386456,3.54034615 C87.4318975,4.6020447 86.1301737,6.31484572 85.6380175,8.42709934 C85.5157405,8.95189189 85.4486404,9.48779762 85.4237306,10.5298365 L55.5442481,2.79924951 C53.498004,2.26983379 51.4308896,2.61994209 49.7429823,3.61396533 C48.0550749,4.60798857 46.7463747,6.24592675 46.216959,8.2921708 C46.0706304,8.85774514 45.9905846,9.43812372 45.9612664,10.5736437 L32.3494076,5.1408345 C28.2822992,3.51755699 24.0072875,2.47376719 19.6497298,2.04007238 L13.952602,1.47305413 C10.8913656,1.16837834 7.99644195,2.13335738 5.79065845,3.93981446 C3.58487495,5.74627154 2.06823159,8.39420667 1.7635558,11.455443 Z" stroke-linejoin="square"></path>
                </g>
            </g>
        </g>
    </g>
</svg>