<svg id="Layer_1" data-name="Layer 1" xmlns="http://www.w3.org/2000/svg" width="273" height="264" viewBox="0 0 273 264">
  <g>
    <g>
      <path d="M24.9914,144.3517c.6789-1.8775,3.7214-4.0141,13.7915-4.2417a9.5449,9.5449,0,0,0,.303-2.0144c-9.55.148-14.664,1.9488-15.9754,5.576-1.0293,2.8466.5618,6.4459,3.9383,10.6221l1.3527-1.4624C25.6094,149.3706,24.2332,146.4488,24.9914,144.3517Z" fill="#fff"/>
      <path d="M39.0809,163.46l-2.121.8141c5.07,4.4975,11.1416,9.3763,17.5929,14.5054l-.4472-2.9123C48.7945,171.6326,43.5952,167.4208,39.0809,163.46Z" fill="#fff"/>
      <path d="M89.9449,143.9381,54.3366,157.6048l5.7085,37.1758-30.85,29.8105A12.5,12.5,0,0,0,46.5685,242.57l35.5-34.3047a12.5045,12.5045,0,0,0,3.669-10.8867l-5.938-38.67a12.4672,12.4672,0,0,0,2.4712,3.1978L111.3586,188.93,125.39,236.636c.112.3806.2442.7493.3881,1.1106q-1.5651.0564-3.1446.0934c-4.6705.1127-9.415.107-14.1322-.03-19.1962-.56-28.3862-3.0615-28.7807-4.66-.0034-.0147.0229-1.5728,8.5918-3.91,5.3325-1.4546,8.3847-3.8887,9.0713-7.2353.9747-4.75-2.8818-10.7435-9.4226-17.4928a15.55,15.55,0,0,1-.8913,2.0207c5.6785,5.96,9.14,11.2449,8.3549,15.07-.523,2.5474-3.0928,4.4678-7.6387,5.7075-7.4941,2.044-10.5806,3.9927-10.0073,6.3179,1.1855,4.8066,21.8393,5.9238,30.6645,6.1807,2.5684.0742,5.1446.1113,7.7149.1113q3.6464,0,7.2558-.1016,1.6866-.0454,3.3575-.1116a12.487,12.487,0,0,0,22.1941-1.9232c1.1289-.16,2.2417-.326,3.3234-.5028,2.3692-.3872,4.6208-.8138,6.7266-1.2788,6.8936-1.5224,7.7305-8.47,8.4688-14.5991.8242-6.8433,1.5361-12.7529,8.94-12.7529v-2c-9.1778,0-10.1065,7.71-10.9258,14.5136-.7236,6.0005-1.4062,11.6685-6.915,12.8853-1.8412.4067-3.8048.78-5.8529,1.127q-1.5222.2575-3.1135.4914a12.4409,12.4409,0,0,0-.2431-6.0866l-15-51a12.5054,12.5054,0,0,0-3.4844-5.6308l-23.9753-22.2743.8689-3.2882.9115-3.45Z" fill="#fff"/>
      <circle cx="112.5881" cy="66.1835" r="22.5" transform="translate(18.037 156.2747) rotate(-74.0649)" fill="#fff"/>
      <path d="M204.9849,146.3912l.7383-.8271-2.7388-2.4458-.7383.8271.961.8579-.8911.9976-2.3955-2.14.8906-.9973.9609.8582.7383-.8272-2.7388-2.4458-.7383.8269.96.8582-.8906.9973-2.3955-2.14.8906-.9974.9609.8582.7383-.8269-2.7388-2.4461-.7387.8272.9609.8582-.8906.9973-2.3955-2.14.8906-.9973.9609.8579.7383-.8269-2.7388-2.4458-.7387.8269.9609.8582-.8906.9973-2.3955-2.14.8906-.9973.9609.8582.7383-.8272-2.7387-2.4458-.7388.8272.9609.8581-.8906.9973-2.396-2.14.8911-.9973.96.8581.7387-.8271-2.7387-2.4458-.7388.8271.9609.8579-.8906.9974-.9819-.877-3.4409,3.06H169.3548a10.2612,10.2612,0,0,1,4.6814,8.001h7.2724l15.8238,7.5781,8.5908,4.8733-1.5772-6.6555-1.0127-.9043.8907-.9973Z" fill="#fff"/>
      <path d="M89.5191,133.6378l-13.1952-5.0643,1.0262,2.3946A10.297,10.297,0,0,1,59.832,141.4432H53.4584v-1.4224h5.4229a10.33,10.33,0,0,1-.4667-.9375L58.1,138.35H53.4584v-1.4224h4.0321l-.7162-1.6713H53.4584v-1.4224h2.7063L49.498,118.2778l-24.0844-9.2435c-5.3589-2.0567-6.5542-.292-2.6567,3.9219l15.7441,17.021a11.5013,11.5013,0,0,1,0,15.3225L22.7569,162.32c-3.8975,4.2139-2.7022,5.9785,2.6567,3.9219l64.1055-24.6035h63.6147l.8277-2.5467a10.274,10.274,0,0,1,4.1833-5.4543Z" fill="#fff"/>
      <path d="M41.7789,94.4271l18.75,43.75a8,8,0,0,0,14.707-6.3028l-16.41-38.291a48.5177,48.5177,0,0,1,5.8525-3.7516c.8977-.4828,1.8054-.9243,2.71-1.3075L64.25,100.4015l10.81,25.2243,14.8843,5.7127H112.024l3.3012-12.4937,3.55,12.4937H139.239l-4.3165-2.06L123.3459,88.5327a24.6717,24.6717,0,0,1-10.73,2.4529A24.8233,24.8233,0,0,1,89.1346,74.23L79.81,71.7666a7.7364,7.7364,0,0,0-1.7-.2472c-5.777-1.1491-11.5985.0751-16.7811,2.2168a62.1968,62.1968,0,0,0-17.76,11.7905A8.0024,8.0024,0,0,0,41.7789,94.4271Z" fill="#fff"/>
      <path d="M166.23,134.6673a8,8,0,0,0-10.081,5.1357l-1.9992,6.152-2.0985-.985.3353-1.0319H128.491l29.1132,13.8912c.03.0142.0606.0233.0905.0371.1642.0756.3343.1418.5055.207.1065.0407.2119.0859.3191.1218.02.0065.0377.0155.0574.0219.0424.0137.0853.0176.1278.0306a7.9413,7.9413,0,0,0,.9666.2317c.0879.0155.1751.0313.2629.0438a7.9462,7.9462,0,0,0,1.11.0878l.0066,0h.0011l.0189-.0015a7.9809,7.9809,0,0,0,1.16-.0918c.1375-.0206.27-.0581.4057-.0859.251-.0511.5008-.1042.7454-.179.1478-.0452.29-.1032.4342-.1568.2262-.0835.45-.1709.6677-.2746.1409-.0671.2763-.1422.4132-.2174.2106-.1156.4161-.2378.6162-.3724.13-.0875.2557-.1787.3806-.2737.19-.145.3728-.2992.5506-.462.1189-.1087.236-.2179.3485-.3341.1634-.1689.3154-.349.4647-.5338.1067-.1319.2143-.2613.313-.4006.1361-.1925.2566-.3982.377-.6052.0863-.1485.1776-.2919.2549-.4473.0208-.0418.0483-.0778.0685-.12a8.0408,8.0408,0,0,0,.3619-.9115c.0071-.0214.0186-.04.0257-.0616l.089-.2741,2.619-8.0589A8,8,0,0,0,166.23,134.6673Z" fill="#fff"/>
    </g>
    <g>
      <path d="M247.151,169.4542c.0015-.0543.0019-.1083,0-.1622V152.256l-16.6826,4.588v16.1305a4.2138,4.2138,0,0,0-3.3317.4442c-1.8246,1.0322-2.6633,3.0012-1.8732,4.3978s2.91,1.692,4.7345.66a3.8639,3.8639,0,0,0,2.1574-3.4549V163.5422l13.3085-3.66v7.2425a4.21,4.21,0,0,0-3.34.4421c-1.8246,1.0322-2.6633,3.0012-1.8732,4.3978s2.91,1.692,4.7343.66a4,4,0,0,0,2.1646-3.141h.0014Zm-14.9956-7.6616V158.13l13.3085-3.66v3.6629Z" fill="#fff"/>
      <path d="M255.3559,184.6061l-7.7331-3.6177-3.0738,16.2873a4.2134,4.2134,0,0,0-3.3562-.1814c-1.9844.6759-3.1737,2.4552-2.6563,3.9742s2.5456,2.2022,4.53,1.5263a3.8637,3.8637,0,0,0,2.7607-2.9948l2.7544-14.5948,5.7186,2.2217.6109-1.5725-.0388-.015Z" fill="#fff"/>
      <path d="M215.2117,164.7289l-8.5219.5169,5.082,15.7765a4.2131,4.2131,0,0,0-3.035,1.4442c-1.42,1.542-1.6149,3.6733-.4346,4.76s3.2885.7183,4.7088-.8236a3.8642,3.8642,0,0,0,.9942-3.95l-4.5539-14.137,6.0852-.7807-.2147-1.6733-.0413.0053Z" fill="#fff"/>
    </g>
    <g>
      <rect x="175.9448" y="200.7257" width="50.6667" height="41.9167" fill="#fff"/>
      <g>
        <g>
          <rect x="179.6115" y="217.184" width="2.5" height="2.5"/>
          <rect x="184.7157" y="217.184" width="2.5" height="2.5"/>
          <rect x="189.8198" y="217.184" width="2.5" height="2.5"/>
          <rect x="194.924" y="217.184" width="2.5" height="2.5"/>
          <rect x="200.0282" y="217.184" width="2.5" height="2.5"/>
          <rect x="205.1323" y="217.184" width="2.5" height="2.5"/>
          <rect x="210.2365" y="217.184" width="2.5" height="2.5"/>
          <rect x="215.3407" y="217.184" width="2.5" height="2.5"/>
          <rect x="220.4448" y="217.184" width="2.5" height="2.5"/>
        </g>
        <g>
          <rect x="179.6115" y="221.934" width="2.5" height="2.5"/>
          <rect x="184.7157" y="221.934" width="2.5" height="2.5"/>
          <rect x="189.8198" y="221.934" width="2.5" height="2.5"/>
          <rect x="194.924" y="221.934" width="2.5" height="2.5"/>
          <rect x="200.0282" y="221.934" width="2.5" height="2.5"/>
          <rect x="205.1323" y="221.934" width="2.5" height="2.5"/>
          <rect x="210.2365" y="221.934" width="2.5" height="2.5"/>
          <rect x="215.3407" y="221.934" width="2.5" height="2.5"/>
          <rect x="220.4448" y="221.934" width="2.5" height="2.5"/>
        </g>
        <g>
          <rect x="179.6115" y="226.684" width="2.5" height="2.5"/>
          <rect x="184.7157" y="226.684" width="2.5" height="2.5"/>
          <rect x="189.8198" y="226.684" width="2.5" height="2.5"/>
          <rect x="194.924" y="226.684" width="2.5" height="2.5"/>
          <rect x="200.0282" y="226.684" width="2.5" height="2.5"/>
          <rect x="205.1323" y="226.684" width="2.5" height="2.5"/>
          <rect x="210.2365" y="226.684" width="2.5" height="2.5"/>
          <rect x="215.3407" y="226.684" width="2.5" height="2.5"/>
          <rect x="220.4448" y="226.684" width="2.5" height="2.5"/>
        </g>
        <g>
          <rect x="179.6115" y="231.434" width="2.5" height="2.5"/>
          <rect x="184.7157" y="231.434" width="2.5" height="2.5"/>
          <rect x="189.8198" y="231.434" width="2.5" height="2.5"/>
          <rect x="194.924" y="231.434" width="2.5" height="2.5"/>
          <rect x="194.924" y="236.184" width="2.5" height="2.5"/>
          <rect x="200.0282" y="231.434" width="2.5" height="2.5"/>
          <rect x="205.1323" y="231.434" width="2.5" height="2.5"/>
          <rect x="210.2365" y="231.434" width="2.5" height="2.5"/>
          <rect x="215.3407" y="231.434" width="2.5" height="2.5"/>
          <rect x="220.4448" y="231.434" width="2.5" height="2.5"/>
        </g>
        <g>
          <rect x="179.6115" y="236.184" width="2.5" height="2.5"/>
          <rect x="184.7157" y="236.184" width="2.5" height="2.5"/>
          <rect x="189.8198" y="236.184" width="2.5" height="2.5"/>
          <rect x="200.0282" y="236.184" width="2.5" height="2.5"/>
          <rect x="205.1323" y="236.184" width="2.5" height="2.5"/>
          <rect x="210.2365" y="236.184" width="2.5" height="2.5"/>
          <rect x="215.3407" y="236.184" width="2.5" height="2.5"/>
          <rect x="220.4448" y="236.184" width="2.5" height="2.5"/>
        </g>
      </g>
      <circle cx="183.2782" cy="208.4757" r="3.75"/>
      <rect x="182.7782" y="203.809" width="1" height="3.75" fill="#fff"/>
      <circle cx="193.5907" cy="208.4757" r="3.75"/>
      <rect x="193.0907" y="203.809" width="1" height="3.75" fill="#fff"/>
      <rect x="215.1323" y="197.1424" width="7.3334" height="2" fill="#fff"/>
      <rect x="205.3823" y="197.1424" width="7.3334" height="2" fill="#fff"/>
    </g>
  </g>
</svg>
