<svg id="Layer_1" data-name="Layer 1" xmlns="http://www.w3.org/2000/svg" width="246" height="256" viewBox="0 0 246 256">
  <g>
    <path d="M99.0619,167.5171a15.1761,15.1761,0,0,1-2.4893-.21,28.9271,28.9271,0,0,1-7.4384-1.6719c-.174-.056-.3574-.115-.5483-.177l14.1014,26.2454-27.7588,43.83A12.5,12.5,0,1,0,96.05,248.9092l31.667-50a12.5,12.5,0,0,0,.45-12.6045L117.26,166.0059l-17.0038,1.4614C99.8519,167.5005,99.4555,167.5171,99.0619,167.5171Z" fill="#fff"/>
    <path d="M89.8383,163.4454a26.6249,26.6249,0,0,0,6.9687,1.5683,12.5317,12.5317,0,0,0,3.252.1616l36.4619-3.1328,4.8916,40.6709a12.5,12.5,0,1,0,24.82-2.9843l-6.334-52.667A12.4882,12.4882,0,0,0,146.4183,136.1l-35.8076,3.0767a164.7947,164.7947,0,0,1,9.1994-19.0456l-11.0685-17.8055a10.2994,10.2994,0,1,1,17.4941-10.875l4.8462,7.7947c2.1914-7.3207.9306-15.2181-4.6225-18.7654-7.4161-4.7343-20.6221-4.2807-30.0577,7.9971-12.873,16.9565-18.4414,28.94-23.0625,50.8223C71.18,155.5572,81.1137,160.6387,89.8383,163.4454Z" fill="#fff"/>
    <path d="M124.2826,92.6646a8,8,0,0,0-13.5879,8.4473l15.334,24.666a7.9995,7.9995,0,0,0,12.2676,1.61c7.2275-6.78,16.6933-12.9326,20.59-13.5127a8,8,0,0,0,14.2617-7.2031,14.1742,14.1742,0,0,0-10.288-8.5107c-9.0127-1.8477-20.4141,5.2461-28.1524,11.2715Z" fill="#fff"/>
    <circle cx="149.9661" cy="63.1347" r="22.5" transform="translate(-3.7586 9.8005) rotate(-3.6967)" fill="#fff"/>
  </g>
</svg>
