<svg xmlns="http://www.w3.org/2000/svg" width="2331.8724" height="3435.6545" viewBox="0 0 2331.8724 3435.6545">
  <g id="Layer_2" data-name="Layer 2">
    <g id="Fuzz">
      <rect id="Body" x="59.2535" width="2194.1176" height="3435.6545" rx="252.2058" fill="#eae5e5"/>
      <g id="Text">
        <g id="Output">
          <path d="M308.2666,1642.3955A26.9679,26.9679,0,0,1,297.544,1631.38a34.4347,34.4347,0,0,1-3.8086-16.4942v-24.1406a34.4368,34.4368,0,0,1,3.8086-16.4941,26.9742,26.9742,0,0,1,10.7226-11.0157,34.7822,34.7822,0,0,1,31.9922,0,26.9868,26.9868,0,0,1,10.7227,11.0157,34.45,34.45,0,0,1,3.8086,16.4941v24.1406a34.4474,34.4474,0,0,1-3.8086,16.4942,26.9805,26.9805,0,0,1-10.7227,11.0156,34.7822,34.7822,0,0,1-31.9922,0Zm24.4629-12.1a14.2427,14.2427,0,0,0,5.6543-6.0059,19.4967,19.4967,0,0,0,1.9922-8.9941v-24.961a19.5,19.5,0,0,0-1.9922-8.9941,14.2479,14.2479,0,0,0-5.6543-6.0059,18.0477,18.0477,0,0,0-16.9336,0,14.2363,14.2363,0,0,0-5.6543,6.0059,19.4871,19.4871,0,0,0-1.9922,8.9941v24.961a19.4842,19.4842,0,0,0,1.9922,8.9941,14.2312,14.2312,0,0,0,5.6543,6.0059,18.0469,18.0469,0,0,0,16.9336,0Z" fill="#03196b"/>
          <path d="M383.4424,1642.5713a24.5534,24.5534,0,0,1-10.43-10.84q-3.575-7.1191-3.5742-17.1386v-54.375h14.0039v54.7851q0,8.32,4.3066,12.8906t12.1582,4.57q7.91,0,12.2461-4.57t4.336-12.8906v-54.7851h14.0039v54.375q0,10.0194-3.6035,17.1386a24.7251,24.7251,0,0,1-10.459,10.84q-6.8554,3.7221-16.5235,3.7207A34.0488,34.0488,0,0,1,383.4424,1642.5713Z" fill="#03196b"/>
          <path d="M437.5244,1560.2178h61.2891v13.4179H437.5244Zm23.6719,6.9726h13.9453v78.2227H461.1963Z" fill="#03196b"/>
          <path d="M509.36,1560.2178h14.0039v85.1953H509.36Zm6.7383,38.73h27.246a11.2053,11.2053,0,0,0,5.9473-1.5527,10.5748,10.5748,0,0,0,3.9844-4.4238,14.62,14.62,0,0,0,1.4355-6.6211,15.0121,15.0121,0,0,0-1.4062-6.68,10.5248,10.5248,0,0,0-3.9844-4.4531,11.1972,11.1972,0,0,0-5.9766-1.5821h-27.246v-13.4179h26.8359a28.0154,28.0154,0,0,1,13.7109,3.2519,22.9712,22.9712,0,0,1,9.1992,9.17,30.2251,30.2251,0,0,1,0,27.3926,22.8213,22.8213,0,0,1-9.1992,9.1113,28.2209,28.2209,0,0,1-13.7109,3.2227H516.0987Z" fill="#03196b"/>
          <path d="M595.7276,1642.5713a24.5529,24.5529,0,0,1-10.43-10.84q-3.575-7.1191-3.5742-17.1386v-54.375h14.0039v54.7851q0,8.32,4.3066,12.8906t12.1582,4.57q7.91,0,12.2461-4.57t4.3359-12.8906v-54.7851h14.0039v54.375q0,10.0194-3.6035,17.1386a24.724,24.724,0,0,1-10.459,10.84q-6.8555,3.7221-16.5234,3.7207A34.0488,34.0488,0,0,1,595.7276,1642.5713Z" fill="#03196b"/>
          <path d="M649.81,1560.2178h61.2891v13.4179H649.81Zm23.6719,6.9726h13.9453v78.2227H673.4815Z" fill="#03196b"/>
        </g>
        <g id="Input">
          <path d="M1675.5772,1654.5244H1661.28v-85.1953h14.2969Z" fill="#03196b"/>
          <path d="M1694.9131,1569.3291h15.2344l36.68,65.5664-1.4063,1.5234v-67.09h13.5938v85.1367h-15.3516l-36.5625-64.57,1.4063-1.5235v66.0938h-13.5938Z" fill="#03196b"/>
          <path d="M1778.9366,1569.3291h14.0039v85.1953h-14.0039Zm6.7382,38.73h27.2461a11.2032,11.2032,0,0,0,5.9473-1.5527,10.5721,10.5721,0,0,0,3.9844-4.4238,14.614,14.614,0,0,0,1.4355-6.6211,15.0124,15.0124,0,0,0-1.4062-6.68,10.5228,10.5228,0,0,0-3.9844-4.4531,11.195,11.195,0,0,0-5.9766-1.5821h-27.2461v-13.4179h26.836a28.0138,28.0138,0,0,1,13.7109,3.2519,22.9659,22.9659,0,0,1,9.1992,9.17,30.2249,30.2249,0,0,1,0,27.3925,22.8173,22.8173,0,0,1-9.1992,9.1114,28.2193,28.2193,0,0,1-13.7109,3.2226h-26.836Z" fill="#03196b"/>
          <path d="M1865.3037,1651.6826a24.5561,24.5561,0,0,1-10.43-10.84q-3.5744-7.1191-3.5743-17.1387v-54.375h14.0039v54.7851q0,8.32,4.3067,12.8907t12.1582,4.57q7.91,0,12.2461-4.57t4.3359-12.8907v-54.7851h14.0039v54.375q0,10.02-3.6035,17.1387a24.7249,24.7249,0,0,1-10.459,10.84q-6.8554,3.7221-16.5234,3.7207A34.0506,34.0506,0,0,1,1865.3037,1651.6826Z" fill="#03196b"/>
          <path d="M1919.3858,1569.3291h61.289v13.4179h-61.289Zm23.6719,6.9726h13.9453v78.2227h-13.9453Z" fill="#03196b"/>
        </g>
        <g id="Level">
          <path d="M393.1246,863.1654H409.35v86.103H393.1246Zm7.2246,70.4694h50.4537v15.6336H400.3492Z" fill="#03196b"/>
          <path d="M462.6465,863.1654h16.2257v86.103H462.6465Zm5.8626,0h51.8157V878.799H468.5091Zm0,35.5308h45.3017V914.33H468.5091Zm0,34.9386h51.8157v15.6336H468.5091Z" fill="#03196b"/>
          <path d="M526.2466,863.1654h16.7l18.2983,57.4415,18.2984-57.4415h16.6994l-28.6615,86.103H554.9081Z" fill="#03196b"/>
          <path d="M606.9014,863.1654h16.2258v86.103H606.9014Zm5.8626,0H664.58V878.799H612.764Zm0,35.5308h45.3018V914.33H612.764Zm0,34.9386H664.58v15.6336H612.764Z" fill="#03196b"/>
          <path d="M679.3842,863.1654H695.61v86.103H679.3842Zm7.2246,70.4694h50.4537v15.6336H686.6088Z" fill="#03196b"/>
        </g>
        <g id="Dot">
          <circle cx="804.8271" cy="804.8038" r="35.8018" transform="translate(-118.5038 1470.3231) rotate(-80.7825)" fill="#03196b"/>
          <circle cx="1532.9638" cy="806.109" r="35.8019" transform="translate(396.2158 2112.8582) rotate(-76.7175)" fill="#03196b"/>
          <circle cx="330.4955" cy="804.8038" r="35.8019" transform="translate(-528.7113 941.5519) rotate(-76.7175)" fill="#03196b"/>
          <circle cx="2007.2954" cy="806.109" r="35.8019" transform="translate(761.5682 2574.5009) rotate(-76.7175)" fill="#03196b"/>
          <circle cx="1768.7568" cy="123.6767" r="35.8019" transform="translate(1363.3535 1849.7835) rotate(-80.7825)" fill="#03196b"/>
          <circle cx="567.6613" cy="123.6767" r="35.8019" transform="translate(316.8711 647.7373) rotate(-76.7175)" fill="#03196b"/>
        </g>
        <g id="Check">
          <path d="M1023.2034,159.4493a21.2141,21.2141,0,0,1-8.2786-8.8615,28.769,28.769,0,0,1-2.9383-13.2924V118.6863a28.7683,28.7683,0,0,1,2.9383-13.2923,21.37,21.37,0,0,1,8.2786-8.8849,23.9256,23.9256,0,0,1,12.3828-3.1483,23.2916,23.2916,0,0,1,10.7271,2.4953,22.62,22.62,0,0,1,8.1853,7.066,26.5143,26.5143,0,0,1,4.454,10.5871h-9.7476a15.1313,15.1313,0,0,0-2.9616-5.6666,14.5157,14.5157,0,0,0-4.8739-3.8478,13.6677,13.6677,0,0,0-13.0591.653,13.3145,13.3145,0,0,0-4.8506,5.62,19.34,19.34,0,0,0-1.7255,8.4185v18.6091a19.3774,19.3774,0,0,0,1.7255,8.3953,13.1277,13.1277,0,0,0,4.8506,5.62,13.2809,13.2809,0,0,0,7.2758,1.9822,13.8969,13.8969,0,0,0,5.8066-1.2593,13.6614,13.6614,0,0,0,4.8506-3.7312,14.799,14.799,0,0,0,2.9616-5.8766h9.7476a26.324,26.324,0,0,1-4.4774,10.5873,22.812,22.812,0,0,1-8.2086,7.0659,23.1844,23.1844,0,0,1-10.68,2.4952A24.0649,24.0649,0,0,1,1023.2034,159.4493Z" fill="#03196b"/>
          <path d="M1077.2543,94.0605h9.5144v67.8141h-9.5144Zm5.9232,29.896h37.6382v9.0482h-37.6382Zm32.6011-29.896h9.5145v67.8141h-9.5145Z" fill="#03196b"/>
          <path d="M1146.8593,94.0605h9.5146v67.8141h-9.5146Zm4.6174,0h38.9442v9.0481h-38.9442Zm0,29.6162h33.8138v9.0481h-33.8138Zm0,29.15h38.9442v9.0481h-38.9442Z" fill="#03196b"/>
          <path d="M1218.5394,159.4493a21.217,21.217,0,0,1-8.2785-8.8615,28.7678,28.7678,0,0,1-2.9384-13.2924V118.6863a28.7671,28.7671,0,0,1,2.9384-13.2923,21.3727,21.3727,0,0,1,8.2785-8.8849,23.926,23.926,0,0,1,12.3829-3.1483,23.2919,23.2919,0,0,1,10.7271,2.4953,22.6192,22.6192,0,0,1,8.1852,7.066,26.516,26.516,0,0,1,4.4542,10.5871h-9.7478a15.12,15.12,0,0,0-2.9616-5.6666,14.5147,14.5147,0,0,0-4.8739-3.8478,13.6675,13.6675,0,0,0-13.059.653,13.3179,13.3179,0,0,0-4.8506,5.62,19.34,19.34,0,0,0-1.7256,8.4185v18.6091a19.3774,19.3774,0,0,0,1.7256,8.3953,13.1311,13.1311,0,0,0,4.8506,5.62,13.2837,13.2837,0,0,0,7.2758,1.9822,13.8964,13.8964,0,0,0,5.8065-1.2593,13.6544,13.6544,0,0,0,4.8506-3.7312,14.7886,14.7886,0,0,0,2.9616-5.8766h9.7478a26.3282,26.3282,0,0,1-4.4774,10.5873,22.81,22.81,0,0,1-8.2086,7.0659,23.1836,23.1836,0,0,1-10.68,2.4952A24.0652,24.0652,0,0,1,1218.5394,159.4493Z" fill="#03196b"/>
          <path d="M1272.591,94.0605h9.5144v67.8141h-9.5144Zm7.4623,38.058,29.9427-38.058h11.7065l-43.0484,52.33Zm11.2868-6.4363,7.5089-6.9494,25.6985,43.1418h-11.66Z" fill="#03196b"/>
        </g>
        <path d="M1841.66,127.9675a375.1379,375.1379,0,0,1,99.8245,25.5717,379.3937,379.3937,0,0,1,89.9958,52.2673,384.1314,384.1314,0,0,1,123.46,168.927,387.8444,387.8444,0,0,1,23.1038,104.6571,394.4559,394.4559,0,0,1-6.3748,107.9916,399.9062,399.9062,0,0,1-98.82,193.6186l-42.6324-42.2194a345.11,345.11,0,0,0,59.7442-73.6178,351.9234,351.9234,0,0,0,50.62-184.1127,354.0718,354.0718,0,0,0-14.1115-96.862,358.9753,358.9753,0,0,0-40.4546-90.2628,366.6327,366.6327,0,0,0-147.6194-133.5527A371.3756,371.3756,0,0,0,1841.66,127.9675Z" fill="#03196b"/>
        <g>
          <path d="M1090.672,646.2506h13.9454v85.1953h-12.4219v-63.457l.82,3.75-16.0547,47.1094h-9.2578l-16.0547-45.9375.9375-4.9219v63.457H1040.047V646.2506h14.1211l18.1641,53.32Z" fill="#03196b"/>
          <path d="M1131.4533,729.1608a21.9708,21.9708,0,0,1-9.0527-9.0528,28.5077,28.5077,0,0,1-3.1934-13.7988V671.3873a28.4676,28.4676,0,0,1,3.1934-13.8281,22.0176,22.0176,0,0,1,9.0527-9.0234,31.5433,31.5433,0,0,1,27.5391,0,22.0365,22.0365,0,0,1,9.0532,9.0234,28.4732,28.4732,0,0,1,3.1933,13.8281v34.9219a28.5133,28.5133,0,0,1-3.1933,13.7988,21.99,21.99,0,0,1-9.0532,9.0528,31.5442,31.5442,0,0,1-27.5391,0Zm20.332-11.66a10.3823,10.3823,0,0,0,4.2774-4.5117,15.2935,15.2935,0,0,0,1.4648-6.9141V671.5631a15.1592,15.1592,0,0,0-1.4648-6.8555,10.3876,10.3876,0,0,0-4.2774-4.5117,14.4024,14.4024,0,0,0-13.125,0,10.5617,10.5617,0,0,0-4.3066,4.5117,14.9026,14.9026,0,0,0-1.4942,6.8555v34.5117a15.0342,15.0342,0,0,0,1.4942,6.9141,10.5562,10.5562,0,0,0,4.3066,4.5117,14.4024,14.4024,0,0,0,13.125,0Z" fill="#03196b"/>
          <path d="M1184.6569,646.2506h13.418v85.1953h-13.418Zm8.2031,72.3633h16.5235q5.8578,0,9.0527-3.0469,3.1934-3.0462,3.1934-8.7305V670.86q0-5.6829-3.1934-8.7305t-9.0527-3.0469H1192.86v-12.832h16.6407a31.1677,31.1677,0,0,1,13.9453,2.8711,20.0192,20.0192,0,0,1,8.8476,8.35,26.9459,26.9459,0,0,1,3.0469,13.2715v36.2109a27.0958,27.0958,0,0,1-3.0176,13.1543,19.9326,19.9326,0,0,1-8.8183,8.4375,31.18,31.18,0,0,1-14.0625,2.9H1192.86Z" fill="#03196b"/>
          <path d="M1248.7585,646.2506h13.4179v85.1953h-13.4179Zm5.9765,0h40.6055v12.8906H1254.735Zm0,36.5039h35.918v12.7734h-35.918Zm0,35.8008h40.6055v12.8906H1254.735Z" fill="#03196b"/>
        </g>
        <path d="M970.7926,863.1656h11.9532v85.1953H970.7926Zm5.8594,0h47.7539v11.3672H976.652Zm0,37.9688h41.3086v11.3672H976.652Z" fill="#03196b"/>
        <path d="M1340.0026,945.3434a26.6144,26.6144,0,0,1-10.5176-11.0157,35.1058,35.1058,0,0,1-3.7207-16.4941V893.693a35.1091,35.1091,0,0,1,3.7207-16.4942,26.62,26.62,0,0,1,10.5176-11.0156,33.5906,33.5906,0,0,1,31.4063,0,26.6254,26.6254,0,0,1,10.5175,11.0156,35.1079,35.1079,0,0,1,3.7207,16.4942v24.1406a35.1046,35.1046,0,0,1-3.7207,16.4941,26.62,26.62,0,0,1-10.5175,11.0157,33.5906,33.5906,0,0,1-31.4063,0Zm24.99-10.2539a15.9719,15.9719,0,0,0,6.211-6.7383,22.1913,22.1913,0,0,0,2.1972-10.1074v-24.961a22.1969,22.1969,0,0,0-2.1972-10.1074,15.9766,15.9766,0,0,0-6.211-6.7383,19.36,19.36,0,0,0-18.5742,0,15.97,15.97,0,0,0-6.2109,6.7383,22.1957,22.1957,0,0,0-2.1973,10.1074v24.961a22.19,22.19,0,0,0,2.1973,10.1074,15.9648,15.9648,0,0,0,6.2109,6.7383,19.36,19.36,0,0,0,18.5742,0Z" fill="#03196b"/>
        <path d="M1192.5446,798.86h11.1914v85.1953h-11.66V820.2462l.586,3.75-20.9766,48.2227h-8.32l-20.9766-47.0508.586-4.9219v63.8086h-11.66V798.86h11.1914l25.02,56.25Z" fill="#03196b"/>
        <g id="Boots">
          <path d="M2007.2954,858.1612h5.47V897.343h-5.47Zm3.2337,34.0887h10.6174q4.1761,0,6.09-1.59a5.4936,5.4936,0,0,0,1.9133-4.4733v-.0808a7.8324,7.8324,0,0,0-.6872-3.4224,4.7588,4.7588,0,0,0-2.1692-2.1962,8.241,8.241,0,0,0-3.8-.768h-11.9647v-4.9584h11.9647a6.5642,6.5642,0,0,0,4.5946-1.4282,6.5016,6.5016,0,0,0-.1751-8.6232,7.8677,7.8677,0,0,0-5.174-1.4552h-11.21v-5.0931h12.2073a14.0214,14.0214,0,0,1,6.36,1.2935,8.6021,8.6021,0,0,1,3.8266,3.6649,11.8623,11.8623,0,0,1,1.2665,5.659,9.2517,9.2517,0,0,1-.7815,3.7861,7.8134,7.8134,0,0,1-2.3848,3.0181,8.9368,8.9368,0,0,1-3.9748,1.6843,8.63,8.63,0,0,1,4.096,1.6842,8.7889,8.7889,0,0,1,2.6409,3.328,10.21,10.21,0,0,1,.9162,4.3116v.0809a11.0049,11.0049,0,0,1-1.4013,5.6051,9.4273,9.4273,0,0,1-4.0152,3.7457,13.3364,13.3364,0,0,1-6.09,1.32h-12.6654Z" fill="#03196b"/>
          <path d="M2047.8515,895.9552a12.2344,12.2344,0,0,1-4.8371-5.0661,16.14,16.14,0,0,1-1.7111-7.5858V872.2009a16.1409,16.1409,0,0,1,1.7111-7.5857,12.237,12.237,0,0,1,4.8371-5.0662,15.4486,15.4486,0,0,1,14.4439,0,12.2476,12.2476,0,0,1,4.8371,5.0662,16.1506,16.1506,0,0,1,1.7112,7.5857v11.1024a16.15,16.15,0,0,1-1.7112,7.5858,12.245,12.245,0,0,1-4.8371,5.0661,15.4486,15.4486,0,0,1-14.4439,0Zm11.4932-4.7158a7.3456,7.3456,0,0,0,2.8564-3.099,10.2054,10.2054,0,0,0,1.0106-4.6484v-11.48a10.2081,10.2081,0,0,0-1.0106-4.6485,7.3477,7.3477,0,0,0-2.8564-3.0989,8.9034,8.9034,0,0,0-8.5424,0,7.3408,7.3408,0,0,0-2.8564,3.0989,10.2081,10.2081,0,0,0-1.0106,4.6485v11.48a10.2054,10.2054,0,0,0,1.0106,4.6484,7.3387,7.3387,0,0,0,2.8564,3.099,8.9034,8.9034,0,0,0,8.5424,0Z" fill="#03196b"/>
          <path d="M2082.3984,895.9552a12.2338,12.2338,0,0,1-4.8371-5.0661,16.139,16.139,0,0,1-1.7112-7.5858V872.2009a16.14,16.14,0,0,1,1.7112-7.5857,12.2364,12.2364,0,0,1,4.8371-5.0662,15.4486,15.4486,0,0,1,14.4439,0,12.2457,12.2457,0,0,1,4.8371,5.0662,16.1469,16.1469,0,0,1,1.7111,7.5857v11.1024a16.1462,16.1462,0,0,1-1.7111,7.5858,12.2431,12.2431,0,0,1-4.8371,5.0661,15.4486,15.4486,0,0,1-14.4439,0Zm11.4931-4.7158a7.3444,7.3444,0,0,0,2.8564-3.099,10.2054,10.2054,0,0,0,1.0106-4.6484v-11.48a10.2081,10.2081,0,0,0-1.0106-4.6485,7.3464,7.3464,0,0,0-2.8564-3.0989,8.9034,8.9034,0,0,0-8.5424,0,7.3421,7.3421,0,0,0-2.8564,3.0989,10.2081,10.2081,0,0,0-1.0106,4.6485v11.48a10.2054,10.2054,0,0,0,1.0106,4.6484,7.34,7.34,0,0,0,2.8564,3.099,8.9034,8.9034,0,0,0,8.5424,0Z" fill="#03196b"/>
          <path d="M2106.8937,858.1612h27.6483v5.2279h-27.6483Zm11.0755,3.2068h5.4973v35.975h-5.4973Z" fill="#03196b"/>
          <path d="M2145.2671,897.2083a20.23,20.23,0,0,1-4.7293-1.6169,19.98,19.98,0,0,1-4.11-2.6947l3.4223-4.2039a15.48,15.48,0,0,0,4.9314,2.91,17.1416,17.1416,0,0,0,5.8477.97,11.76,11.76,0,0,0,6.6021-1.5764,5.0655,5.0655,0,0,0,2.3445-4.46V886.51a4.7155,4.7155,0,0,0-1.0645-3.2472,6.3633,6.3633,0,0,0-2.7486-1.7785,30.5842,30.5842,0,0,0-4.352-1.0645.5584.5584,0,0,0-.1752-.0269.5426.5426,0,0,1-.1752-.027l-.4042-.0808a41.959,41.959,0,0,1-6.4-1.5225,9.0111,9.0111,0,0,1-4.2173-3.099,10.2166,10.2166,0,0,1-1.7516-6.4v-.0269a11.3663,11.3663,0,0,1,1.63-6.2114,10.2411,10.2411,0,0,1,4.7563-3.9209,20.6019,20.6019,0,0,1,11.6548-.8893,20.5826,20.5826,0,0,1,4.0152,1.3609,23.1433,23.1433,0,0,1,3.8939,2.277l-3.1259,4.3656a18.3018,18.3018,0,0,0-4.46-2.4658,12.788,12.788,0,0,0-4.46-.8219,10.5212,10.5212,0,0,0-6.2383,1.6034,5.2686,5.2686,0,0,0-2.2232,4.5407v.0269a4.3238,4.3238,0,0,0,1.1453,3.18,6.9246,6.9246,0,0,0,2.8564,1.7111,42.9664,42.9664,0,0,0,4.7563,1.1453,1.8267,1.8267,0,0,0,.2021.04q.0942.0138.2021.04.1347.0273.2964.0539c.1078.0182.2061.0362.2964.0539a32.5468,32.5468,0,0,1,5.942,1.7247,9.2723,9.2723,0,0,1,3.9882,3.22,10.21,10.21,0,0,1,1.6034,6.0767v.0539a10.7966,10.7966,0,0,1-1.6977,6.1306,10.5806,10.5806,0,0,1-4.9179,3.88,20.2976,20.2976,0,0,1-7.7744,1.3339A25.7339,25.7339,0,0,1,2145.2671,897.2083Z" fill="#03196b"/>
        </g>
      </g>
      <path id="Foot" d="M295.9376,2333.1677H2035.9349a76.8759,76.8759,0,0,1,76.8759,76.8759v825.1419a76.8759,76.8759,0,0,1-76.8759,76.8759H295.9375a76.8759,76.8759,0,0,1-76.8759-76.8759V2410.0437A76.876,76.876,0,0,1,295.9376,2333.1677Z" fill="#03196b"/>
      <g id="Knob">
        <g>
          <g>
            <rect x="551.0678" y="264.902" width="30.4415" height="141.9119" fill="#03196b"/>
            <circle cx="567.6613" cy="487.0963" r="281.9056" fill="#03196b"/>
            <path d="M445.6053,325.1356a77.8119,77.8119,0,0,1-27.0732-4.8312,227.5224,227.5224,0,0,0-54.3075,70.6636,77.987,77.987,0,0,1-22.7783,114.2393,225.4655,225.4655,0,0,0,18.5387,76.7578c.19-.0014.38-.0072.57-.0072a78.0251,78.0251,0,0,1,76.2784,94.2172,225.78,225.78,0,0,0,69.1368,33.0636,77.9739,77.9739,0,0,1,121.0694.6578,225.66,225.66,0,0,0,68.5561-31.6339,78.0231,78.0231,0,0,1,75.805-96.3047q2.0193,0,4.0137.1015a225.4111,225.4111,0,0,0,18.4616-74.9831A77.991,77.991,0,0,1,769.8708,388.26a227.5984,227.5984,0,0,0-54.0357-68.8976,78.04,78.04,0,0,1-104.5036-50.8592,228.1643,228.1643,0,0,0-90.9306.753A78.0069,78.0069,0,0,1,445.6053,325.1356Z" fill="#eae5e5"/>
            <circle cx="567.6613" cy="487.0963" r="151.5604" transform="translate(-178.1649 544.0644) rotate(-45)" fill="#03196b"/>
            <path d="M579.5816,335.8579H552.9955V268.3235c4.09-.3205,8.4374-.5361,13.0195-.599,4.7594-.0653,9.28.1407,13.5179.366C579.5519,290.7129,579.5626,313.2355,579.5816,335.8579Z" fill="#03196b"/>
          </g>
          <g>
            <rect x="1753.536" y="264.902" width="30.4416" height="141.9119" fill="#03196b"/>
            <circle cx="1770.1296" cy="487.0963" r="281.9055" fill="#03196b"/>
            <path d="M1648.0736,325.1356A77.8119,77.8119,0,0,1,1621,320.3044a227.5224,227.5224,0,0,0-54.3075,70.6636,77.987,77.987,0,0,1-22.7783,114.2393,225.4632,225.4632,0,0,0,18.5387,76.7578c.19-.0014.38-.0072.57-.0072a78.0255,78.0255,0,0,1,76.2784,94.2172,225.7807,225.7807,0,0,0,69.1367,33.0636,77.974,77.974,0,0,1,121.07.6578,225.66,225.66,0,0,0,68.556-31.6339,78.0235,78.0235,0,0,1,75.805-96.3047q2.0194,0,4.0138.1015a225.4086,225.4086,0,0,0,18.4615-74.9831A77.9909,77.9909,0,0,1,1972.3391,388.26a227.6,227.6,0,0,0-54.0357-68.8976A78.04,78.04,0,0,1,1813.8,268.5033a228.1638,228.1638,0,0,0-90.93.753A78.0071,78.0071,0,0,1,1648.0736,325.1356Z" fill="#eae5e5"/>
            <circle cx="1770.1296" cy="487.0963" r="151.5604" transform="translate(174.0299 1394.3378) rotate(-45)" fill="#03196b"/>
            <path d="M1782.05,335.8579h-26.586V268.3235c4.0894-.3205,8.4374-.5361,13.0194-.599,4.76-.0653,9.2805.1407,13.518.366C1782.02,290.7129,1782.0308,313.2355,1782.05,335.8579Z" fill="#03196b"/>
          </g>
          <g>
            <path d="M1401.6312,1125.868a236.1759,236.1759,0,0,0-7.8064-38.2754l-10.5405,4.4349-22.0092-52.3091,10.2033-4.2931a237.933,237.933,0,0,0-21.7387-31.4022l-8.9157,8.9157L1300.6952,972.81l8.1319-8.1318a237.6916,237.6916,0,0,0-26.6572-17.4531l-4.4156,10.6027L1225.3651,936.01l4.3609-10.4711a236.1905,236.1905,0,0,0-33.9285-6.8113v13.9535h-56.7507V918.3737a236.3233,236.3233,0,0,0-35.84,6.8714l4.4832,10.765-52.389,21.8177-4.6395-11.14a237.72,237.72,0,0,0-29.482,19.4123l6.71,6.71-40.1286,40.1288-7.1-7.1a237.8975,237.8975,0,0,0-20.2087,29.4883l10.4377,4.3917L948.88,1092.0275l-10.8007-4.5444a236.169,236.169,0,0,0-7.8382,38.3849H942.6v56.7506H930.2412a236.168,236.168,0,0,0,7.8382,38.385l10.8007-4.5444,22.0091,52.3091-10.4377,4.3917a237.89,237.89,0,0,0,20.2087,29.4883l7.1-7.1,40.1286,40.1289-6.71,6.71a237.7307,237.7307,0,0,0,29.482,19.4122l4.6395-11.14,52.389,21.8177-4.4832,10.7652a236.36,236.36,0,0,0,35.84,6.8713v-14.3076h56.7507v13.9535a236.1905,236.1905,0,0,0,33.9285-6.8113l-4.3609-10.4711,52.3892-21.8177,4.4156,10.6028a237.7055,237.7055,0,0,0,26.6572-17.4531l-8.1319-8.1317,40.1288-40.1289,8.9156,8.9157a237.9308,237.9308,0,0,0,21.7388-31.4022l-10.2033-4.2931,22.0092-52.3091,10.5405,4.435a236.1761,236.1761,0,0,0,7.8064-38.2756h-14.184V1125.868Z" fill="#03196b"/>
            <circle cx="1165.9362" cy="1154.2433" r="181.416" fill="#eae5e5"/>
            <rect x="1157.8345" y="932.6812" width="19.3821" height="49.463" fill="#03196b"/>
          </g>
          <circle cx="1168.267" cy="259.6268" r="57.3938" transform="translate(-10.4259 466.8392) rotate(-22.5)" fill="#03196b"/>
          <g id="Cursor">
            <g id="Cursor-2" data-name="Cursor">
              <g id="Cursor_L" data-name="Cursor L">
                <path d="M157.6417,1657.4719a8.4948,8.4948,0,0,1-7.4751-4.6358l-22.3275-42.0577-.0087-.0164-.0046-.0087-.004-.0076-.0059-.0111-.0027-.0053-.0063-.0118-.0023-.0045-.0065-.0126-.0019-.0038-.0064-.0122-.0021-.0043-.0063-.0122-.0021-.0042-.0063-.012-.0023-.0045-.0065-.0127-.0019-.0035-.0065-.0129-.0016-.0036-.0069-.0133-.0015-.0032-.0067-.0135-.0015-.0029-.0071-.0138-.0012-.0027-.0069-.0138-.0013-.0026-.0069-.0143-.0013-.0022-.0071-.0144-.001-.0021-.0071-.0149-.0009-.0015-.0073-.0151-.0006-.0014-.0076-.0155,0-.0009-.0077-.0158,0-.0007a9.5873,9.5873,0,0,1-.9271-4.6538v-.0009l.0008-.0156,0-.0026.0008-.0141,0-.0042.0006-.0129,0-.0053.0007-.0116,0-.0069.0006-.0111,0-.0069.0007-.0111.0006-.0071.0006-.0109,0-.0074.0007-.01.0006-.008.0006-.01.0007-.0083.0006-.01.0006-.0089.0006-.0087.0009-.01,0-.0078.0008-.01.0007-.0078.0008-.01.0006-.008.0006-.01.0007-.0078.0008-.01.0006-.0076.0011-.0107,0-.0073.0011-.0111.0006-.0067.0008-.0116.0006-.0066.0011-.0116.0006-.0065.0011-.0117,0-.0065.0012-.0118,0-.0062.0012-.0118.0006-.0067.0011-.0115.0006-.0065.0011-.0118.0008-.0064.001-.0118.0007-.006.0012-.0125.0007-.0058.0012-.0126.0006-.0052.0013-.0129.0006-.0053.0013-.0129.0006-.0053.0015-.0127.0006-.0056.0013-.0127.0006-.0053.0015-.0129.0006-.0053.0014-.0129.0007-.0052.0014-.0131.0007-.0049.0016-.0138,0-.0042.0016-.0138.0007-.0044.0016-.0136.0005-.0047.0016-.0133.0007-.0049.0016-.0131.0007-.0051.0016-.0132.0007-.0051.0018-.0133.0005-.0045.0019-.0138.0006-.0042.0019-.0145,0-.0035.0021-.0147,0-.0036.0021-.0146,0-.0034.0021-.0147,0-.0035.0021-.0147,0-.0033.0021-.0145.0007-.0038.002-.0149.0005-.0031.0023-.0151,0-.0029.0025-.0165,0-.0013.0025-.0165,0-.0017.0025-.0169,0-.0012.0028-.0166,0-.0016.0027-.0171v-.0009l.0027-.016,0-.0025.003-.0173v0l.0029-.0175v-.0005q.015-.0908.0316-.1811l0-.0015.0029-.0165.0007-.0026.0027-.0149.0012-.0063.0021-.0118.0015-.0075.0021-.01.0017-.0086.0016-.0094.0017-.0086.0019-.0092.0017-.0089.0019-.0091.0016-.0091.0017-.0085.0021-.01.0017-.008.0019-.01.0016-.0078.0021-.01.0015-.0074.0023-.0111.0015-.0064.0023-.0116.0012-.0065.0025-.0113.0013-.0064.0025-.0112.0013-.0066.0027-.0121.001-.0055.0027-.0125.0013-.0053.0027-.0129.0011-.0047.0029-.0131.001-.0047.003-.0138.0008-.0035.0031-.0143.0009-.0037.0033-.0141.0007-.0035.0033-.0138.0008-.0042.0034-.014.0006-.0034.0034-.0147.0008-.0029.0034-.0149.0006-.0026.0035-.0152.0007-.0026.0037-.0156.0005-.0018.0037-.0158,0-.0017.004-.0163,0-.0013.0038-.0163,0-.0015.0042-.0167v0l.0044-.0174h0a9.459,9.459,0,0,1,.6709-1.85l.0008-.0015.0073-.0149.0076-.0158,0,0q.0649-.1326.1343-.263l22.3275-42.0574a8.31,8.31,0,0,1,11.68-3.4584,9.4217,9.4217,0,0,1,3.2544,12.4119l-15.114,28.47h91.7038a9.1279,9.1279,0,0,1,0,18.222H149.9868l15.114,28.47a9.5157,9.5157,0,0,1,1.1079,4.4741,9.2226,9.2226,0,0,1-4.3623,7.9378A8.1453,8.1453,0,0,1,157.6417,1657.4719Z" fill="#03196b"/>
              </g>
              <g id="Cursor_R" data-name="Cursor R">
                <path d="M2128.01,1657.4719a8.4943,8.4943,0,0,1-7.475-4.6358l-22.3275-42.0577-.0088-.0164-.0046-.0087-.0038-.0076-.0058-.0111-.003-.0053-.0062-.0118-.0021-.0045-.0067-.0126-.0021-.0038-.0063-.0122-.0021-.0043-.0063-.0122-.0021-.0042-.0063-.012-.0021-.0045-.0066-.0127-.0017-.0035-.0067-.0129-.0017-.0036-.0067-.0133-.0017-.0032-.0067-.0135-.0016-.0029-.0067-.0138-.0013-.0027-.0071-.0138-.0013-.0026-.0071-.0143-.0008-.0022-.0071-.0144-.0013-.0021-.0071-.0149-.0008-.0015-.0076-.0151,0-.0014-.0075-.0155-.0005-.0009-.0079-.0158v-.0007a9.5837,9.5837,0,0,1-.9269-4.6538v-.0009l.0009-.0156v-.0026l.0008-.0141v-.0042l.0009-.0129,0-.0053,0-.0116,0-.0069.0009-.0111,0-.0069.0008-.0111,0-.0071,0-.0109.0009-.0074,0-.01.0008-.008.0005-.01.0008-.0083,0-.01.0009-.0089,0-.0087.0008-.01,0-.0078.0009-.01,0-.0078.0008-.01.0009-.008.0008-.01,0-.0078.0009-.01.0008-.0076.0008-.0107,0-.0073.0009-.0111.0008-.0067.0009-.0116.0008-.0066.0008-.0116,0-.0065.0013-.0117,0-.0065.0013-.0118,0-.0062.0013-.0118,0-.0067.0012-.0115,0-.0065.0013-.0118.0008-.0064.0013-.0118,0-.006.0013-.0125,0-.0058.0017-.0126,0-.0052.0012-.0129,0-.0053.0016-.0129,0-.0053.0013-.0127.0008-.0056.0013-.0127.0008-.0053.0013-.0129.0008-.0053.0013-.0129,0-.0052.0017-.0131,0-.0049.0017-.0138.0008-.0042.0017-.0138,0-.0044.0017-.0136,0-.0047.0017-.0133.0008-.0049.0017-.0131,0-.0051.0017-.0132.0008-.0051.0017-.0133,0-.0045.0021-.0138,0-.0042.0021-.0145,0-.0035.0017-.0147.0008-.0036.0017-.0146.0009-.0034.0016-.0147.0009-.0035.0021-.0147,0-.0033.0021-.0145,0-.0038.0021-.0149,0-.0031.0025-.0151,0-.0029.0021-.0165,0-.0013.0026-.0165,0-.0017.0025-.0169v-.0012l.0025-.0166,0-.0016.0025-.0171,0-.0009.0026-.016,0-.0025.0025-.0173,0,0,.0025-.0175,0-.0005q.0146-.0908.0314-.1811v-.0015l.0034-.0165,0-.0026.0029-.0149.0009-.0063.0025-.0118.0012-.0075.0021-.01.0017-.0086.0017-.0094.0017-.0086.0016-.0092.0017-.0089.0021-.0091.0017-.0091.0016-.0085.0021-.01.0017-.008.0021-.01.0013-.0078.0021-.01.0016-.0074.0025-.0111.0013-.0064.0021-.0116.0017-.0065.0021-.0113.0016-.0064.0021-.0112.0017-.0066.0025-.0121.0013-.0055.0025-.0125.0012-.0053.003-.0129.0008-.0047.0029-.0131.0009-.0047.0033-.0138.0009-.0035.0029-.0143.0008-.0037.0034-.0141.0008-.0035.0029-.0138.0013-.0042.0029-.014.0009-.0034.0033-.0147.0008-.0029.0034-.0149.0008-.0026.0034-.0152.0008-.0026.0038-.0156,0-.0018.0038-.0158,0-.0017.0038-.0163,0-.0013.0037-.0163.0005-.0015.0042-.0167v0l.0041-.0174h.0005a9.4321,9.4321,0,0,1,.6706-1.85l.0008-.0015.0072-.0149.0079-.0158v0q.0646-.1326.1344-.263l22.3275-42.0574a8.31,8.31,0,0,1,11.68-3.4584,9.4219,9.4219,0,0,1,3.2544,12.4119l-15.1137,28.47h91.7033a9.1278,9.1278,0,0,1,0,18.222h-91.7037l15.1141,28.47a9.5147,9.5147,0,0,1,1.1081,4.4741,9.2231,9.2231,0,0,1-4.3625,7.9378A8.1448,8.1448,0,0,1,2128.01,1657.4719Z" fill="#03196b"/>
              </g>
            </g>
          </g>
          <path d="M2305.0639,1802.3592H2262.995V1356.572h42.0689a26.8085,26.8085,0,0,1,26.8085,26.8085v392.17A26.8085,26.8085,0,0,1,2305.0639,1802.3592Z" fill="#03196b"/>
          <path d="M26.8085,1802.3592H68.8774V1356.572H26.8085A26.8085,26.8085,0,0,0,0,1383.3805v392.17A26.8085,26.8085,0,0,0,26.8085,1802.3592Z" fill="#03196b"/>
        </g>
      </g>
      <text transform="translate(664.7651 2166.2871)" font-size="500" fill="#03196b" font-family="HoodsonScriptFreeDemo-Regular, Hoodson Script Free Demo">E<tspan x="225.4941" y="0" letter-spacing="0.016em">f</tspan><tspan x="381.9883" y="0" letter-spacing="0em">fects</tspan></text>
      <text transform="translate(1714.493 918.3737)" font-size="168" fill="#03196b" font-family="HoodsonScriptFreeDemo-Regular, Hoodson Script Free Demo">fx</text>
    </g>
  </g>
</svg>
