<svg xmlns="http://www.w3.org/2000/svg" width="870" height="870.0066" viewBox="0 0 870 870.0066">
  <g id="Layer_2" data-name="Layer 2">
    <g id="Layer_1-2" data-name="Layer 1">
      <path d="M435,0C195.1422,0,0,194.2944,0,435A433.5573,433.5573,0,0,0,140.7465,755.3688c166.2157,152.736,422.0077,152.9648,588.5394,0A433.6048,433.6048,0,0,0,870,435C870,194.6676,675.244,0,435,0ZM706.875,730.9929V705.4888c0-239.7817-543.75-239.7817-543.75,0v25.5041A400.8463,400.8463,0,0,1,33.108,435C33.108,213.0372,213.0372,33.0922,435,33.0922c221.9793,0,401.9077,179.945,401.9077,401.9078A400.8,400.8,0,0,1,706.875,730.9929ZM435,147.5457A165.4928,165.4928,0,1,0,600.4929,313.0386,165.4807,165.4807,0,0,0,435,147.5457Z" fill="#fff"/>
    </g>
  </g>
</svg>
