<?xml version="1.0" encoding="UTF-8"?>
<svg width="100px" height="100px" viewBox="0 0 100 100" version="1.1" xmlns="http://www.w3.org/2000/svg" xmlns:xlink="http://www.w3.org/1999/xlink">
    <!-- Generator: Sketch 64 (93537) - https://sketch.com -->
    <title>build-nav-icon-ic/body-mod</title>
    <desc>Created with Sketch.</desc>
    <defs>
        <circle id="path-1" cx="50" cy="50" r="50"></circle>
        <filter x="-4.0%" y="-4.0%" width="108.0%" height="110.0%" filterUnits="objectBoundingBox" id="filter-2">
            <feOffset dx="0" dy="2" in="SourceAlpha" result="shadowOffsetOuter1"></feOffset>
            <feGaussianBlur stdDeviation="1" in="shadowOffsetOuter1" result="shadowBlurOuter1"></feGaussianBlur>
            <feColorMatrix values="0 0 0 0 0   0 0 0 0 0   0 0 0 0 0  0 0 0 0.24 0" type="matrix" in="shadowBlurOuter1" result="shadowMatrixOuter1"></feColorMatrix>
            <feOffset dx="0" dy="0" in="SourceAlpha" result="shadowOffsetOuter2"></feOffset>
            <feGaussianBlur stdDeviation="1" in="shadowOffsetOuter2" result="shadowBlurOuter2"></feGaussianBlur>
            <feColorMatrix values="0 0 0 0 0   0 0 0 0 0   0 0 0 0 0  0 0 0 0.12 0" type="matrix" in="shadowBlurOuter2" result="shadowMatrixOuter2"></feColorMatrix>
            <feMerge>
                <feMergeNode in="shadowMatrixOuter1"></feMergeNode>
                <feMergeNode in="shadowMatrixOuter2"></feMergeNode>
            </feMerge>
        </filter>
    </defs>
    <g id="ic/body-mod" stroke="none" stroke-width="1" fill="none" fill-rule="evenodd">
        <g>
            <g id="Oval">
                <use fill="black" fill-opacity="1" filter="url(#filter-2)" xlink:href="#path-1"></use>
                <use fill="#03196B" fill-rule="evenodd" xlink:href="#path-1"></use>
            </g>
            <path d="M64.7642647,83.3040971 C64.9442039,83.2399874 65.0409093,83.0470258 64.9834437,82.8667574 L64.5764687,82.024977 C64.4710677,81.867947 64.2579977,81.8229063 64.0967984,81.9235799 L63.8970914,82.0195763 L63.8996421,82.0256746 C63.6496725,81.4982566 63.3872226,80.9826526 63.1472964,80.4230333 C61.7779974,77.2294296 60.3009537,74.5077972 60.3009537,73.0306534 C60.535528,70.5101951 64.026039,66.2396579 62.7928842,61.6522603 L62.7928842,61.6522603 C62.4506107,60.6253953 61.9046903,60.2380115 61.6685446,60.237989 L61.6685446,60.237989 C61.5358849,60.3486572 61.5900192,60.4720169 61.5820026,60.7967307 C61.5933897,62.4125586 60.8789175,68.0679111 56.4792603,68.3840963 L56.4792603,68.3840963 C55.9776813,68.3840963 55.4413033,68.3723499 55.4413033,68.3723499 L55.4413033,68.3723499 C55.4413033,68.3723499 54.2100843,67.8500626 53.6282718,66.8200921 C53.3501825,66.4441086 53.1279486,66.0307567 52.9683209,65.5925931 L52.333194,21.6463778 L52.333194,21.6463778 L52.333194,21.4544074 L52.3327157,21.4544074 L52.3327157,20.110502 C52.3327157,20.110502 52.3538502,18.8399328 52.3582228,18.1937682 C52.5151826,17.5934866 58.1400918,8.35595398 58.4453117,7.79390439 C58.7461817,7.22800685 59.7141764,6.39450736 58.1401374,5.39286781 C57.1948805,4.86904406 56.0418498,4.86904406 55.096593,5.39286781 C55.096593,5.39286781 54.2535603,6.39948046 53.0786392,7.807406 L53.0504903,7.78490332 L53.2220939,7.57607839 C53.2341385,7.56143957 53.2397996,7.54267031 53.2378304,7.52390486 C53.2358611,7.50513941 53.226423,7.4879171 53.211595,7.47603145 L52.9654286,7.27850287 C52.8649072,7.19792704 52.7173292,7.21303256 52.6356582,7.3122569 L52.3170926,7.69995568 C52.2778909,7.74763167 52.2594662,7.80874399 52.2658729,7.86984455 C52.2722796,7.9309451 52.3029928,7.98702716 52.3512539,8.02574956 L52.5974431,8.22325564 C52.6122609,8.23515082 52.6312551,8.24074079 52.6502451,8.23879521 C52.6692352,8.23684964 52.6866646,8.22752797 52.6986972,8.2128819 L52.8703236,8.00405698 L52.8967872,8.02527701 C52.5599795,8.42895269 52.1993272,8.86152182 51.8259897,9.30973032 L51.7824227,9.27478365 L51.9540263,9.06595872 C51.9660663,9.05131388 51.9717243,9.03254249 51.9697553,9.01377519 C51.9677863,8.99500788 51.9583516,8.97778243 51.9435274,8.96588928 L51.697361,8.7683832 C51.5968396,8.68780737 51.4492616,8.70291288 51.3675906,8.80213723 L51.049025,9.1897685 C50.9674012,9.28906115 50.9826957,9.43493405 51.0831863,9.51558489 L51.3293755,9.71309096 C51.3441933,9.72498614 51.3631875,9.73057611 51.3821775,9.72863054 C51.4011676,9.72668496 51.418597,9.71736329 51.4306296,9.70271722 L51.602256,9.4938698 L51.6443655,9.52762383 C51.3032307,9.93717271 50.953214,10.3579729 50.6024001,10.7802133 L50.5829054,10.7644615 L50.754509,10.5556365 C50.7665477,10.5409954 50.7722052,10.5222276 50.7702361,10.503464 C50.7682671,10.4847003 50.7588329,10.4674787 50.7440101,10.4555896 L50.497821,10.2580835 C50.3973264,10.1774457 50.2497038,10.1925568 50.1680733,10.2918375 L49.8495305,10.6796263 C49.7679067,10.778919 49.7832012,10.9247919 49.8836918,11.0054427 L50.129881,11.2029488 C50.1447017,11.2148414 50.1636977,11.2204276 50.1826878,11.2184778 C50.201678,11.216528 50.2191058,11.207202 50.2311351,11.1925525 L50.4027387,10.9837276 L50.4210719,10.9984219 C50.0719662,11.4187045 49.7235892,11.8386947 49.3839347,12.2488286 L49.3532807,12.2233106 L49.5289836,12.0178611 C49.5413144,12.0034579 49.5473451,11.9848024 49.5457475,11.9660034 C49.5441499,11.9472044 49.535055,11.9298038 49.5204661,11.9176341 L49.2782624,11.71538 C49.1793481,11.6328937 49.0315083,11.6451591 48.9478999,11.7427882 L48.621705,12.1242988 C48.5382123,12.2219812 48.550629,12.3680366 48.6494439,12.4505877 L48.8916704,12.6528193 C48.9062498,12.6649973 48.925129,12.6709524 48.944153,12.669374 C48.963177,12.6677956 48.9807867,12.6588131 48.9931067,12.6444033 L49.1688324,12.4389313 L49.2029937,12.4674872 C48.8259896,12.9230091 48.4619212,13.3638817 48.1219479,13.776851 L48.0786769,13.7429845 L48.2478892,13.5322693 C48.2597638,13.5174946 48.2652091,13.4986627 48.2630264,13.4799196 C48.2608437,13.4611764 48.251212,13.4440587 48.2362516,13.4323349 L47.9878533,13.2375741 C47.8864443,13.158055 47.7389953,13.1748194 47.6585156,13.2750186 L47.3442316,13.6662278 C47.3055811,13.7143461 47.287862,13.7756659 47.2949734,13.8366942 C47.3020849,13.8977226 47.333444,13.953459 47.3821507,13.9916391 L47.6305489,14.1863999 C47.6616954,14.2108075 47.7069669,14.2056605 47.7316891,14.174901 L47.9009242,13.9641859 L47.9414623,13.9959597 C47.5563733,14.4645781 47.2065843,14.8921291 46.9104286,15.2568752 L46.8729878,15.2292644 L47.0358461,15.0137111 C47.0472739,14.9985961 47.0521539,14.9796133 47.0494117,14.9609418 C47.0466694,14.9422704 47.0365298,14.9254412 47.0212251,14.9141593 L46.7671105,14.7267119 C46.6633659,14.650191 46.5164851,14.6712462 46.4390254,14.7737425 L46.1366295,15.1739528 C46.0994345,15.2231734 46.0835532,15.2849783 46.0924797,15.3457694 C46.1014062,15.4065605 46.1344092,15.4613574 46.1842276,15.498104 L46.4383649,15.6855513 C46.4536608,15.6968358 46.4728674,15.7016534 46.4917586,15.698944 C46.5106498,15.6962346 46.5276776,15.6862203 46.5390952,15.6711046 L46.7019763,15.4555289 L46.7315828,15.4774465 C46.54053,15.7137247 46.377535,15.917374 46.2487697,16.080721 C46.0777954,16.2985811 46.0666948,16.5999796 46.2211901,16.8295429 C46.7816633,17.6674529 47.4292022,18.2995758 48.2619409,19.310734 L48.2525579,20.110502 L48.2525579,21.4543399 L48.2520796,21.4543399 L48.2520796,21.6463103 L48.2530817,21.6463103 L48.2025458,25.137287 L48.2025458,25.137287 L48.2017942,25.1881655 L48.2017942,25.1881655 L48.1551071,28.4140606 L48.1551071,28.4140606 L48.1543783,28.4649391 L48.1543783,28.4649391 L48.1101053,31.5241568 L48.1101053,31.5241568 L48.1093537,31.5750354 L48.1093537,31.5750354 L48.0675858,34.4597447 L48.0675858,34.4597447 L48.0668571,34.5106232 L48.0668571,34.5106232 L48.0274805,37.2306354 L48.0274805,37.2306354 L48.0267517,37.2814915 L48.0267517,37.2814915 L47.9896297,39.8459201 L47.9896297,39.8459201 L47.988901,39.8967761 L47.988901,39.8967761 L47.9540109,42.3144872 L47.9540109,42.3144872 L47.9532821,42.3653658 L47.9532821,42.3653658 L47.9203051,44.6445053 L47.9203051,44.6445053 L47.9195763,44.6953614 L47.9195763,44.6953614 L47.8884895,46.8436703 L47.8884895,46.8436703 L47.8877607,46.8945489 L47.8877607,46.8945489 L47.8584503,48.9194081 L47.8584503,48.9194081 L47.8576988,48.9702866 L47.8576988,48.9702866 L47.8300737,50.8786944 L47.8300737,50.8786944 L47.8293449,50.929573 L47.8293449,50.929573 L47.803314,52.7280101 L47.803314,52.7280101 L47.8025852,52.7788662 L47.8025852,52.7788662 L47.7780574,54.4735435 L47.7780574,54.4735435 L47.7773058,54.5244221 L47.7773058,54.5244221 L47.75419,56.1210776 L47.75419,56.1210776 L47.7534385,56.1719337 L47.7534385,56.1719337 L47.7316663,57.6761707 L47.7316663,57.6761707 L47.7309376,57.7270493 L47.7309376,57.7270493 L47.7104408,59.1439084 L47.7104408,59.1439084 L47.7096892,59.194787 L47.7096892,59.194787 L47.6903767,60.5291963 L47.6903767,60.5291963 L47.6896479,60.5800748 L47.6896479,60.5800748 L47.6714286,61.8368274 L47.6714286,61.8368274 L47.6706998,61.8877059 L47.6706998,61.8877059 L47.6642547,62.3334616 C47.4254719,62.7118536 47.1415124,63.0605068 46.8184891,63.3719156 C45.9053803,64.1474481 45.1438337,64.0943868 45.1438337,64.0943868 C42.84578,64.0943868 40.1132856,61.6476473 39.9588993,55.3599243 C39.946328,54.7850032 40.0057003,53.9404549 39.7771384,53.9322639 C38.6912644,54.5846167 38.1916212,55.441699 37.628233,57.3600755 C37.5564715,57.6873096 37.5005836,58.0112807 37.4574264,58.3321915 L37.456766,58.3315615 C37.4547163,58.3473133 37.4531221,58.3629077 37.4511635,58.3786371 C37.4077255,58.7119469 37.3783772,59.0417537 37.3631185,59.3680577 C37.3610688,59.4069648 37.359429,59.4457145 37.357721,59.4844641 C37.3569239,59.5051665 37.3559446,59.525914 37.3552158,59.5465715 C37.1529354,64.6624671 39.8392892,68.5386448 39.786658,71.2311811 C39.7856332,71.2777392 39.7840618,71.3240047 39.7814655,71.3698427 C39.7769107,75.6588546 36.7309977,79.8244618 36.1175746,84.2211266 C35.9905862,85.132905 35.9663734,86.0557902 36.0453803,86.972845 L36.0526909,86.968592 C36.3029566,90.2550868 37.9811876,94.4445243 45.1438337,95.7029645 L45.1438337,95.7029645 C45.1438337,95.7029645 46.5029981,96 50.2843812,96 C54.0657642,96 55.4412805,95.8541601 55.4412805,95.8541601 L55.4412805,95.8541601 C64.6132262,94.7732211 64.9062391,90.5616634 64.955067,85.6040517 L64.955067,85.6040517 C64.8893248,84.8636034 64.7326093,84.1338151 64.4883781,83.4307873 L64.4895168,83.4334876 L64.7642647,83.3040971 Z" id="Path-Copy-2" fill="#EAE5E5" fill-rule="nonzero"></path>
        </g>
    </g>
</svg>