<?xml version="1.0" encoding="UTF-8"?>
<svg width="100px" height="100px" viewBox="0 0 100 100" version="1.1" xmlns="http://www.w3.org/2000/svg" xmlns:xlink="http://www.w3.org/1999/xlink">
    <!-- Generator: Sketch 64 (93537) - https://sketch.com -->
    <title>build-nav-icon-ic/fx-mod</title>
    <desc>Created with Sketch.</desc>
    <defs>
        <circle id="path-1" cx="50" cy="50" r="50"></circle>
        <filter x="-4.0%" y="-4.0%" width="108.0%" height="110.0%" filterUnits="objectBoundingBox" id="filter-2">
            <feOffset dx="0" dy="2" in="SourceAlpha" result="shadowOffsetOuter1"></feOffset>
            <feGaussianBlur stdDeviation="1" in="shadowOffsetOuter1" result="shadowBlurOuter1"></feGaussianBlur>
            <feColorMatrix values="0 0 0 0 0   0 0 0 0 0   0 0 0 0 0  0 0 0 0.24 0" type="matrix" in="shadowBlurOuter1" result="shadowMatrixOuter1"></feColorMatrix>
            <feOffset dx="0" dy="0" in="SourceAlpha" result="shadowOffsetOuter2"></feOffset>
            <feGaussianBlur stdDeviation="1" in="shadowOffsetOuter2" result="shadowBlurOuter2"></feGaussianBlur>
            <feColorMatrix values="0 0 0 0 0   0 0 0 0 0   0 0 0 0 0  0 0 0 0.12 0" type="matrix" in="shadowBlurOuter2" result="shadowMatrixOuter2"></feColorMatrix>
            <feMerge>
                <feMergeNode in="shadowMatrixOuter1"></feMergeNode>
                <feMergeNode in="shadowMatrixOuter2"></feMergeNode>
            </feMerge>
        </filter>
    </defs>
    <g id="ic/fx-mod" stroke="none" stroke-width="1" fill="none" fill-rule="evenodd">
        <g transform="translate(0.000000, 1.000000)">
            <g id="Oval-Copy-7">
                <use fill="black" fill-opacity="1" filter="url(#filter-2)" xlink:href="#path-1"></use>
                <use fill="#03196B" fill-rule="evenodd" xlink:href="#path-1"></use>
            </g>
            <g id="ic-pedal-Artboard-4-copy" transform="translate(23.000000, 10.000000)" fill-rule="nonzero">
                <path d="M6.86226336,0 L46.1377343,0 C47.6925036,0 49.1835939,0.626459094 50.282982,1.7415651 C51.3823701,2.85667112 52,4.36907969 52,5.94607805 L52,75.0539196 C52,78.3378491 49.3753743,81 46.1377343,81 L6.86226568,81 C3.62462575,81 1,78.3378491 1,75.0539196 L1,5.94607805 C1,2.66214982 3.62462471,0 6.86226336,0 Z" id="Body" fill="#EAE5E5"></path>
                <g id="Text" transform="translate(5.000000, 1.000000)" fill="#03196B">
                    <g id="Output" transform="translate(1.587198, 29.889659)">
                        <path d="M0.350732762,1.98714004 C0.24253767,1.92651028 0.154280276,1.83564496 0.0967195565,1.72562095 C0.034599903,1.60464978 0.00358821394,1.47005434 0.00649566532,1.33403555 L0.00649566532,0.76091855 C0.00359071408,0.624900784 0.0346022741,0.490306717 0.0967195565,0.369335526 C0.154286948,0.259315761 0.24254263,0.168451372 0.350732762,0.107814066 C0.588369361,-0.0155273948 0.870975901,-0.0155273948 1.1086125,0.107814066 C1.2167903,0.168465925 1.30504077,0.25932665 1.36262097,0.369335526 C1.42472577,0.490311298 1.45573659,0.624902151 1.45284486,0.76091855 L1.45284486,1.33403555 C1.45573959,1.47005302 1.42472861,1.60464537 1.36262097,1.72562095 C1.30504553,1.83563505 1.21679077,1.92649682 1.10860539,1.98714004 C0.870968794,2.1104815 0.588362254,2.1104815 0.350725655,1.98714004 L0.350732762,1.98714004 Z M0.930247026,1.69987643 C0.987952865,1.66662973 1.03455698,1.61702049 1.06419466,1.5572916 C1.09671988,1.49091579 1.112903,1.41769639 1.11138891,1.34376453 L1.11138891,0.75117058 C1.11289995,0.677239017 1.09671699,0.604020335 1.06419466,0.537643508 C1.03455088,0.477918876 0.987948259,0.428311224 0.930247026,0.395058676 C0.804829653,0.328290245 0.654515609,0.328290245 0.529098236,0.395058676 C0.471386724,0.428298185 0.424780771,0.477909379 0.395150605,0.537643508 C0.362616987,0.60401637 0.346433407,0.677237836 0.347956351,0.75117058 L0.347956351,1.34376453 C0.346430729,1.41769754 0.362614448,1.49091963 0.395150605,1.5572916 C0.424774781,1.61702991 0.471382199,1.66664267 0.529098236,1.69987643 C0.654514776,1.76664822 0.804830486,1.76664822 0.930247026,1.69987643 L0.930247026,1.69987643 Z" id="Shape"></path>
                        <path d="M2.13161109,1.99131367 C2.02441183,1.93355005 1.93799427,1.84354103 1.88452944,1.73396347 C1.828071,1.62128808 1.79985836,1.48566009 1.79985836,1.3270795 L1.79985836,0.0361738472 L2.13160398,0.0361738472 L2.13160398,1.3368156 C2.13160398,1.46849787 2.16561107,1.57050889 2.23362525,1.64284867 C2.30163943,1.71518845 2.39764672,1.7513536 2.52164713,1.7513441 C2.64656984,1.7513441 2.74327124,1.71517896 2.81175131,1.64284867 C2.88023138,1.57051839 2.91447063,1.46850736 2.91446905,1.3368156 L2.91446905,0.0361738472 L3.24622177,0.0361738472 L3.24622177,1.3270795 C3.24622177,1.4856585 3.21776672,1.62128649 3.1608566,1.73396347 C3.10698605,1.84348471 3.02037605,1.93344404 2.91308795,1.99131367 C2.80482055,2.05022407 2.67434264,2.0796682 2.52165423,2.07964604 C2.38630256,2.08347823 2.25216624,2.05310062 2.13161109,1.99131367 Z" id="Path"></path>
                        <path d="M3.4127875,0.0361762213 L4.86469662,0.0361762213 L4.86469662,0.354727816 L3.4127875,0.354727816 L3.4127875,0.0361762213 Z M3.97356336,0.201711279 L4.30391129,0.201711279 L4.30391129,2.05878026 L3.97356336,2.05878026 L3.97356336,0.201711279 Z" id="Shape"></path>
                        <path d="M5.11454758,0.0361762213 L5.4462932,0.0361762213 L5.4462932,2.05878026 L5.11454758,2.05878026 L5.11454758,0.0361762213 Z M5.27417465,0.955657158 L5.9196192,0.955657158 C5.9690926,0.956770854 6.01789164,0.944002995 6.06050786,0.918794828 C6.10135785,0.893568226 6.13411926,0.857115152 6.15489637,0.813770305 C6.17835668,0.764764768 6.19000484,0.710922512 6.18890267,0.656580136 C6.19009819,0.601855032 6.17869945,0.54758935 6.15559047,0.497991635 C6.13498011,0.454352913 6.10219577,0.417632717 6.06120197,0.392271507 C6.01846026,0.366683565 5.96939556,0.353667251 5.9196192,0.354711197 L5.27417465,0.354711197 L5.27417465,0.0361596027 L5.90990413,0.0361596027 C6.02296745,0.0337403935 6.13477227,0.060315241 6.23470872,0.113362289 C6.32673616,0.163408293 6.40240308,0.238998298 6.45263332,0.331065367 C6.55627672,0.535397274 6.55627672,0.777055523 6.45263332,0.98138743 C6.40235273,1.07306276 6.32666456,1.14818998 6.23470872,1.19769692 C6.13463303,1.2503012 6.02288463,1.27662413 5.90990413,1.27420638 L5.27417465,1.27420638 L5.27417465,0.955657158 Z" id="Shape"></path>
                        <path d="M7.16054476,1.99131367 C7.05334501,1.93355069 6.96692728,1.8435415 6.9134631,1.73396347 C6.85700467,1.62128808 6.82879203,1.48566009 6.82879203,1.3270795 L6.82879203,0.0361738472 L7.16053765,0.0361738472 L7.16053765,1.3368156 C7.16053765,1.46849787 7.19454474,1.57050889 7.26255892,1.64284867 C7.3305731,1.71518845 7.42658039,1.7513536 7.5505808,1.7513441 C7.67550351,1.7513441 7.77220491,1.71517896 7.84068498,1.64284867 C7.90916505,1.57051839 7.94340351,1.46850736 7.94340035,1.3368156 L7.94340035,0.0361738472 L8.27514597,0.0361738472 L8.27514597,1.3270795 C8.27514597,1.4856585 8.24669091,1.62128649 8.1897808,1.73396347 C8.13591168,1.84348572 8.04930131,1.93344544 7.94201215,1.99131367 C7.83374316,2.05022407 7.70326605,2.0796682 7.5505808,2.07964604 C7.41523151,2.08347703 7.28109778,2.05309945 7.16054476,1.99131367 L7.16054476,1.99131367 Z" id="Path"></path>
                        <path d="M8.44172117,0.0361762213 L9.89363029,0.0361762213 L9.89363029,0.354727816 L8.44172117,0.354727816 L8.44172117,0.0361762213 Z M9.00248992,0.201711279 L9.33285444,0.201711279 L9.33285444,2.05878026 L9.00248992,2.05878026 L9.00248992,0.201711279 Z" id="Shape"></path>
                    </g>
                    <g id="Input" transform="translate(33.970766, 30.127067)">
                        <polygon id="Path" points="0.358090726 2.03767232 0.0194040827 2.03767232 0.0194040827 0.0150682817 0.358090726 0.0150682817"></polygon>
                        <polygon id="Path" points="0.816148841 0.015077778 1.17704441 0.015077778 2.04597586 1.57167615 2.01266129 1.60784287 2.01266129 0.0150730299 2.33469183 0.0150730299 2.33469183 2.03628585 1.97101986 2.03628585 1.10487193 0.50334281 1.13818649 0.467173711 1.13818649 2.03629298 0.816155948 2.03629298"></polygon>
                        <path d="M2.8066249,0.015077778 L3.13837051,0.015077778 L3.13837051,2.03767232 L2.8066249,2.03767232 L2.8066249,0.015077778 Z M2.9662496,0.934558715 L3.61170363,0.934558715 C3.66117733,0.93567507 3.7099771,0.922907024 3.75259229,0.897696384 C3.7934446,0.872472579 3.8262067,0.836018735 3.8469808,0.792671862 C3.87044615,0.743668061 3.88209458,0.689824585 3.8809871,0.635481693 C3.88218236,0.580756613 3.87078363,0.526490988 3.8476749,0.476893192 C3.82706682,0.433252952 3.79428195,0.396532169 3.75328639,0.371173064 C3.71054579,0.3455825 3.66148032,0.332565984 3.61170363,0.333612754 L2.9662496,0.333612754 L2.9662496,0.0150611595 L3.60198856,0.0150611595 C3.71505205,0.012640264 3.82685729,0.0392152108 3.92679315,0.0922638462 C4.01882489,0.142304067 4.09449326,0.217895527 4.14471774,0.309966924 C4.24836111,0.514298002 4.24836111,0.755955534 4.14471774,0.960286613 C4.09444189,1.05196612 4.01875257,1.12709531 3.92679315,1.17659848 C3.82671782,1.2292035 3.71496903,1.2555257 3.60198856,1.25310556 L2.9662496,1.25310556 L2.9662496,0.934558715 Z" id="Shape"></path>
                        <path d="M4.85261971,1.97021522 C4.74542308,1.91244813 4.65900646,1.82244008 4.60553805,1.71286502 C4.54908752,1.60018963 4.52086462,1.46456085 4.52086462,1.30597868 L4.52086462,0.0150730299 L4.85261023,0.0150730299 L4.85261023,1.31571478 C4.85261023,1.44739705 4.88661811,1.54940887 4.95463387,1.62175023 C5.02264963,1.69409159 5.11865692,1.73025674 5.24265575,1.73024566 C5.36757846,1.73024566 5.46427986,1.69408051 5.53275993,1.62175023 C5.60124,1.54941995 5.63547846,1.44740813 5.6354753,1.31571478 L5.6354753,0.0150730299 L5.96722092,0.0150730299 L5.96722092,1.30597868 C5.96722092,1.46456718 5.93876586,1.60019596 5.88185575,1.71286502 C5.82798546,1.82238645 5.74137539,1.91234585 5.6340871,1.97021522 C5.52581969,2.02912563 5.39534257,2.05856975 5.24265575,2.0585476 C5.10730664,2.06237675 4.97317336,2.03199927 4.85261971,1.97021522 L4.85261971,1.97021522 Z" id="Path"></path>
                        <path d="M6.13379849,0.015077778 L7.58570524,0.015077778 L7.58570524,0.333629373 L6.13379849,0.333629373 L6.13379849,0.015077778 Z M6.69457434,0.180612836 L7.02493175,0.180612836 L7.02493175,2.03767232 L6.69457434,2.03767232 L6.69457434,0.180612836 Z" id="Shape"></path>
                    </g>
                    <g id="Level" transform="translate(3.932460, 18.589041)">
                        <path d="M0.015715625,0.0112341435 L0.400094607,0.0112341435 L0.400094607,2.0553877 L0.015715625,2.0553877 L0.015715625,0.0112341435 Z M0.186862903,1.68423362 L1.38208664,1.68423362 L1.38208664,2.0553877 L0.186862903,2.0553877 L0.186862903,1.68423362 Z" id="Shape"></path>
                        <path d="M1.6626558,0.0112341435 L2.04703478,0.0112341435 L2.04703478,2.0553877 L1.6626558,2.0553877 L1.6626558,0.0112341435 Z M1.80153795,0.0112341435 L3.02902681,0.0112341435 L3.02902681,0.382388215 L1.80153795,0.382388215 L1.80153795,0.0112341435 Z M1.80153795,0.854763533 L2.87472278,0.854763533 L2.87472278,1.2259176 L1.80153795,1.2259176 L1.80153795,0.854763533 Z M1.80153795,1.68423362 L3.02902681,1.68423362 L3.02902681,2.0553877 L1.80153795,2.0553877 L1.80153795,1.68423362 Z" id="Shape"></path>
                        <polygon id="Path" points="3.16931139 0.0112341435 3.56492631 0.0112341435 3.99840418 1.37494094 4.43188443 0.0112341435 4.82747329 0.0112341435 4.14850806 2.0553877 3.84828846 2.0553877"></polygon>
                        <path d="M5.07997984,0.0112341435 L5.46436593,0.0112341435 L5.46436593,2.0553877 L5.07997984,2.0553877 L5.07997984,0.0112341435 Z M5.218862,0.0112341435 L6.44635086,0.0112341435 L6.44635086,0.382388215 L5.218862,0.382388215 L5.218862,0.0112341435 Z M5.218862,0.854763533 L6.29203972,0.854763533 L6.29203972,1.2259176 L5.218862,1.2259176 L5.218862,0.854763533 Z M5.218862,1.68423362 L6.44635086,1.68423362 L6.44635086,2.0553877 L5.218862,2.0553877 L5.218862,1.68423362 Z" id="Shape"></path>
                        <path d="M6.79706704,0.0112341435 L7.18144602,0.0112341435 L7.18144602,2.0553877 L6.79706704,2.0553877 L6.79706704,0.0112341435 Z M6.96821431,1.68423362 L8.16343805,1.68423362 L8.16343805,2.0553877 L6.96821431,2.0553877 L6.96821431,1.68423362 Z" id="Shape"></path>
                    </g>
                    <g id="Dot" transform="translate(1.421371, 0.000000)">
                        <ellipse id="Oval" transform="translate(12.279842, 17.214733) rotate(-80.782500) translate(-12.279842, -17.214733) " cx="12.2798423" cy="17.214733" rx="1" ry="1"></ellipse>
                        <ellipse id="Oval" transform="translate(29.529021, 17.245691) rotate(-76.717500) translate(-29.529021, -17.245691) " cx="29.5290208" cy="17.245691" rx="1" ry="1"></ellipse>
                        <ellipse id="Oval" transform="translate(1.043151, 17.214709) rotate(-76.717500) translate(-1.043151, -17.214709) " cx="1.04315069" cy="17.2147094" rx="1" ry="1"></ellipse>
                        <ellipse id="Oval" transform="translate(40.765699, 17.245689) rotate(-76.717500) translate(-40.765699, -17.245689) " cx="40.7656989" cy="17.2456886" rx="1" ry="1"></ellipse>
                        <ellipse id="Oval" transform="translate(35.114882, 1.044232) rotate(-80.782500) translate(-35.114882, -1.044232) " cx="35.1148818" cy="1.044232" rx="1" ry="1"></ellipse>
                        <ellipse id="Oval" transform="translate(6.661487, 1.044222) rotate(-76.717500) translate(-6.661487, -1.044222) " cx="6.66148664" cy="1.04422236" rx="1" ry="1"></ellipse>
                    </g>
                    <g id="Check" transform="translate(18.596270, 0.308630)">
                        <path d="M0.278167036,1.58486653 C0.193761256,1.53535814 0.125604021,1.46224401 0.0820510081,1.37448749 C0.0339912204,1.27639226 0.0101206729,1.16817197 0.0124441028,1.05891537 L0.0124441028,0.617120563 C0.0101204057,0.507864693 0.0339909768,0.399645111 0.0820510081,0.301550812 C0.125693087,0.21371229 0.193816176,0.140441814 0.278167036,0.0906162351 C0.367379281,0.039513738 0.468775824,0.0136780851 0.571509577,0.0158730946 C0.65972374,0.01497713 0.746866359,0.0352918145 0.825629385,0.0751134969 C0.902846831,0.114498362 0.969383137,0.172060479 1.01953518,0.242865945 C1.07260902,0.317915455 1.10862501,0.403710297 1.12504829,0.494212101 L0.894132359,0.494212101 C0.880574944,0.444872574 0.856654699,0.399005523 0.823973488,0.35968252 C0.792512433,0.321242482 0.753124504,0.290079568 0.708513155,0.268332694 C0.609454028,0.220525762 0.492955596,0.226363695 0.399149395,0.283835432 C0.348998968,0.316492562 0.309146885,0.36276591 0.284241028,0.417258692 C0.255832037,0.479964199 0.241861782,0.54827087 0.243364768,0.617120563 L0.243364768,1.05891537 C0.241974499,1.12757725 0.25594153,1.19567996 0.284241028,1.25822645 C0.308936547,1.31285427 0.348834924,1.35918137 0.399149395,1.39164971 C0.450858815,1.42369642 0.510725905,1.44004176 0.571509577,1.43870871 C0.618975892,1.43879766 0.665900084,1.428599 0.709065121,1.40881193 C0.753559114,1.38837271 0.792847519,1.35808569 0.823973488,1.32023028 C0.857511549,1.27959152 0.881490612,1.2319077 0.894132359,1.18071513 L1.12504829,1.18071513 C1.10860085,1.27130644 1.07238158,1.35713621 1.01898085,1.43206604 C0.968539221,1.50281656 0.901840132,1.5603549 0.824523085,1.59981611 C0.746129667,1.6395565 0.659367485,1.65987088 0.571519052,1.65905414 C0.468852445,1.66125435 0.367499027,1.63562246 0.278167036,1.58486653 L0.278167036,1.58486653 Z" id="Path"></path>
                        <path d="M1.5586067,0.0324845279 L1.79729026,0.0324845279 L1.79729026,1.64244508 L1.5586067,1.64244508 L1.5586067,0.0324845279 Z M1.70719941,0.742239294 L2.65141235,0.742239294 L2.65141235,0.957050742 L1.70719941,0.957050742 L1.70719941,0.742239294 Z M2.52504884,0.0324845279 L2.76373491,0.0324845279 L2.76373491,1.64244508 L2.52504884,1.64244508 L2.52504884,0.0324845279 Z" id="Shape"></path>
                        <path d="M3.20751547,0.0324845279 L3.47073431,0.0324845279 L3.47073431,1.64244508 L3.20751547,1.64244508 L3.20751547,0.0324845279 Z M3.3352546,0.0324845279 L4.41264368,0.0324845279 L4.41264368,0.247293603 L3.3352546,0.247293603 L3.3352546,0.0324845279 Z M3.3352546,0.73559662 L4.27070425,0.73559662 L4.27070425,0.950405694 L3.3352546,0.950405694 L3.3352546,0.73559662 Z M3.3352546,1.42764075 L4.41264368,1.42764075 L4.41264368,1.64244983 L3.3352546,1.64244983 L3.3352546,1.42764075 Z" id="Shape"></path>
                        <path d="M4.90558236,1.58486653 C4.82117997,1.53535463 4.75302439,1.46224138 4.7094687,1.37448749 C4.66140704,1.27639283 4.63753562,1.16817227 4.63985943,1.05891537 L4.63985943,0.617120563 C4.63753535,0.507864389 4.6614068,0.399644537 4.7094687,0.301550812 C4.75311319,0.213714728 4.82123469,0.140445066 4.90558236,0.0906162351 C4.99479548,0.0395137666 5.09619277,0.0136781312 5.19892727,0.0158730946 C5.2871414,0.0149774074 5.37428396,0.0352920769 5.45304708,0.0751134969 C5.53026408,0.114498047 5.59679969,0.17206026 5.6469505,0.242865945 C5.70002488,0.31791568 5.73604239,0.403710286 5.75247308,0.494212101 L5.52155242,0.494212101 C5.50800272,0.444869528 5.48408166,0.39900091 5.45139355,0.35968252 C5.41993302,0.321241944 5.38054496,0.290078929 5.33593322,0.268332694 C5.23687491,0.220525741 5.12037716,0.226363684 5.02657182,0.283835432 C4.97642434,0.316495943 4.93657308,0.362768334 4.91166346,0.417258692 C4.88325365,0.47996401 4.86928259,0.548270688 4.87078483,0.617120563 L4.87078483,1.05891537 C4.8693953,1.12757743 4.88336314,1.19568015 4.91166346,1.25822645 C4.93636287,1.31285178 4.97626038,1.35917788 5.02657182,1.39164971 C5.07828277,1.4236929 5.1381488,1.44003795 5.19893201,1.43870871 C5.24639756,1.43879769 5.29332099,1.42859902 5.33648518,1.40881193 C5.38098217,1.38837769 5.42027161,1.35808987 5.45139355,1.32023028 C5.48493872,1.27959617 5.50891864,1.23191066 5.52155242,1.18071513 L5.75247308,1.18071513 C5.73602248,1.27130549 5.6998035,1.3571346 5.64640565,1.43206604 C5.5959654,1.50281782 5.52926597,1.56035646 5.45194788,1.59981611 C5.37355472,1.6395572 5.28679237,1.65987162 5.19894385,1.65905414 C5.09627408,1.66125572 4.99491726,1.63562379 4.90558236,1.58486653 L4.90558236,1.58486653 Z" id="Path"></path>
                        <path d="M6.18604335,0.0324845279 L6.41143488,0.0324845279 L6.41143488,1.64244508 L6.18604335,1.64244508 L6.18604335,0.0324845279 Z M6.36282162,0.936011651 L7.0721497,0.0324845279 L7.34947102,0.0324845279 L6.32967525,1.27484026 L6.36282162,0.936011651 Z M6.63020045,0.783208781 L6.80808266,0.61822451 L7.41686769,1.64244508 L7.14064793,1.64244508 L6.63020045,0.783208781 Z" id="Shape"></path>
                    </g>
                    <path d="M38.2632685,1.14609393 C39.0756463,1.23847829 39.8714169,1.44276937 40.6280627,1.75318639 C41.3922182,2.06669966 42.1096185,2.4842496 42.7600196,2.99405357 C44.0864316,4.03390886 45.0988962,5.42223548 45.6847273,7.00451461 C45.9810249,7.80335384 46.1652224,8.63955012 46.2320451,9.48915722 C46.2994345,10.3466542 46.2486181,11.2093674 46.0810292,12.0529635 C45.7391745,13.7724123 44.9289046,15.3634152 43.7400312,16.6496227 L42.7300903,15.6473007 C43.2798461,15.1327462 43.7561098,14.5446159 44.1454015,13.8995557 C44.9394312,12.5811543 45.354429,11.0684767 45.3445648,9.52857406 C45.3399064,8.75023337 45.2274,7.97631275 45.0102702,7.22899331 C44.7910199,6.47379397 44.4685091,5.75264616 44.0519203,5.0860828 C43.2003334,3.7262133 41.9900399,2.62887895 40.5548881,1.91543572 C39.8299672,1.55456138 39.0588197,1.29567198 38.2632685,1.14609393 Z" id="Path"></path>
                    <g id="Group" transform="translate(19.259577, 13.413548)">
                        <polygon id="Path" points="1.21315907 0.0369976528 1.54351885 0.0369976528 1.54351885 2.05960169 1.24925005 2.05960169 1.24925005 0.553082146 1.26867545 0.642110123 0.888356855 1.76052466 0.669044052 1.76052466 0.288715978 0.669931959 0.310924899 0.553082146 0.310924899 2.05960169 0.0138796875 2.05960169 0.0138796875 0.0369976528 0.348401714 0.0369976528 0.778700454 1.30285677"></polygon>
                        <path d="M2.17924834,2.0053516 C2.08805936,1.95663505 2.01340457,1.88181785 1.96479425,1.79043094 C1.91248017,1.68934926 1.88646044,1.57667363 1.88914415,1.46283648 L1.88914415,0.633762859 C1.88630169,0.519687316 1.91232712,0.406747733 1.96479425,0.305472791 C2.01356914,0.214384515 2.08819916,0.139835025 2.17924834,0.0912501143 C2.38522828,-0.00890739237 2.62565635,-0.00890739237 2.83163629,0.0912501143 C2.92267373,0.139855007 2.99730241,0.214399049 3.04610222,0.305472791 C3.09856308,0.406749962 3.12458737,0.519688108 3.12174995,0.633762859 L3.12174995,1.46283648 C3.12442866,1.57667284 3.09841006,1.68934704 3.04610222,1.79043094 C2.99746642,1.88180297 2.92281312,1.95661456 2.83163629,2.0053516 C2.62565562,2.10550593 2.38522901,2.10550593 2.17924834,2.0053516 L2.17924834,2.0053516 Z M2.66090358,1.72853395 C2.70480441,1.70404102 2.74016676,1.66666091 2.76223311,1.62142261 C2.78642977,1.57017289 2.79831387,1.5139565 2.79693352,1.45727639 L2.79693352,0.637936491 C2.79821454,0.581712904 2.78632999,0.525970891 2.76223311,0.47518148 C2.74016007,0.429947826 2.70479942,0.39256951 2.66090358,0.368070142 C2.56328487,0.317992973 2.44759739,0.317992973 2.34997868,0.368070142 C2.30598756,0.392667247 2.27042962,0.429999251 2.24795741,0.47518148 C2.22340118,0.525836665 2.2112659,0.581634748 2.21256053,0.637936491 L2.21256053,1.45727164 C2.21116453,1.51402965 2.22329936,1.57030256 2.24795741,1.62141786 C2.27042291,1.66660481 2.30598254,1.70393859 2.34997868,1.7285292 C2.44759739,1.77860637 2.56328487,1.77860637 2.66090358,1.7285292 L2.66090358,1.72853395 Z" id="Shape"></path>
                        <path d="M3.43961588,0.0369976528 L3.7585838,0.0369976528 L3.7585838,2.05960169 L3.43961588,2.05960169 L3.43961588,0.0369976528 Z M3.63461705,1.75495982 L4.02740782,1.75495982 C4.12024085,1.75495982 4.19197337,1.73084788 4.24260539,1.682624 C4.29321364,1.6344112 4.31851776,1.56532153 4.31851776,1.475355 L4.31851776,0.621244339 C4.31851776,0.531299968 4.29321364,0.462210302 4.24260539,0.41397534 C4.19199714,0.365740379 4.12026462,0.341628437 4.02740782,0.341639516 L3.63461705,0.341639516 L3.63461705,0.0369976528 L4.03020575,0.0369976528 C4.14449249,0.033870116 4.25795351,0.0571994926 4.36170846,0.105159845 C4.45070909,0.147848974 4.52421134,0.217127341 4.57203046,0.303395472 C4.62278486,0.400496003 4.64772443,0.508985284 4.64446029,0.618471414 L4.64446029,1.47814692 C4.6473058,1.58662092 4.62262926,1.6940511 4.57272697,1.79044044 C4.52554253,1.87745888 4.45222969,1.94751482 4.36310148,1.99075339 C4.25855229,2.03936263 4.14408798,2.06293708 4.02881273,2.05960169 L3.63462894,2.05960169 L3.63461705,1.75495982 Z" id="Shape"></path>
                        <path d="M4.95815176,0.0369976528 L5.30528778,0.0369976528 L5.30528778,2.05960169 L4.95815176,2.05960169 L4.95815176,0.0369976528 Z M5.11277047,0.0369976528 L6.16327997,0.0369976528 L6.16327997,0.343030727 L5.11277047,0.343030727 L5.11277047,0.0369976528 Z M5.11277047,0.903629209 L6.04200913,0.903629209 L6.04200913,1.20687986 L5.11277047,1.20687986 L5.11277047,0.903629209 Z M5.11277047,1.75356861 L6.16327997,1.75356861 L6.16327997,2.05960169 L5.11277047,2.05960169 L5.11277047,1.75356861 Z" id="Shape"></path>
                    </g>
                    <path d="M17.6328507,18.6002803 L17.9160162,18.6002803 L17.9160162,20.6228843 L17.6328507,20.6228843 L17.6328507,18.6002803 Z M17.7716571,18.6002803 L18.9029238,18.6002803 L18.9029238,18.8701466 L17.7716571,18.8701466 L17.7716571,18.6002803 Z M17.7716571,19.5016897 L18.7502378,19.5016897 L18.7502378,19.7715561 L17.7716571,19.7715561 L17.7716571,19.5016897 Z" id="Shape"></path>
                    <path d="M26.379257,20.5512465 C26.2725572,20.4902577 26.1859584,20.3993613 26.1301001,20.289725 C26.0693238,20.1683435 26.0390656,20.0339169 26.0419585,19.898142 L26.0419585,19.325025 C26.0390684,19.1892496 26.0693264,19.0548229 26.1301001,18.9334396 C26.1859652,18.8238087 26.2725624,18.7329148 26.379257,18.6719205 C26.6119874,18.5485791 26.8905266,18.5485791 27.123257,18.6719205 C27.2299461,18.7329211 27.3165409,18.8238134 27.3724115,18.9334396 C27.4331863,19.0548225 27.4634443,19.1892495 27.4605531,19.325025 L27.4605531,19.898142 C27.4634471,20.033917 27.4331889,20.1683439 27.3724115,20.289725 C27.3165474,20.3993565 27.229951,20.4902512 27.123257,20.5512465 C26.8905266,20.6745879 26.6119874,20.6745879 26.379257,20.5512465 Z M26.971258,20.3078108 C27.0348427,20.2700347 27.0859937,20.214421 27.1183935,20.1478382 C27.1543618,20.0730777 27.1721965,19.9908586 27.1704442,19.9078805 L27.1704442,19.3152865 C27.1721914,19.2323089 27.1543571,19.1500909 27.1183935,19.0753288 C27.0859883,19.0087497 27.0348386,18.9531374 26.971258,18.9153562 C26.8341623,18.8402415 26.6683398,18.8402415 26.5312442,18.9153562 C26.4676586,18.9531305 26.4165079,19.0087448 26.3841109,19.0753288 C26.3481456,19.1500904 26.3303103,19.2323086 26.332058,19.3152865 L26.332058,19.9078805 C26.3303052,19.9908589 26.3481407,20.0730783 26.3841109,20.1478382 C26.4165019,20.2144263 26.467654,20.2700421 26.5312442,20.3078108 C26.6683398,20.3829255 26.8341623,20.3829255 26.971258,20.3078108 L26.971258,20.3078108 Z" id="Shape"></path>
                    <polygon id="Path" points="22.8860388 17.0735953 23.1511719 17.0735953 23.1511719 19.096216 22.8749521 19.096216 22.8749521 17.5813397 22.8888342 17.6703676 22.3918992 18.8152199 22.1948024 18.8152199 21.6978674 17.6981919 21.7117495 17.5813397 21.7117495 19.096216 21.4355297 19.096216 21.4355297 17.0735953 21.7006391 17.0735953 22.2933508 18.409015"></polygon>
                    <g id="Boots" transform="translate(42.167339, 18.470337)">
                        <path d="M0.0197617944,0.0111866637 L0.260275256,0.0111866637 L0.260275256,1.21086432 L0.0197617944,1.21086432 L0.0197617944,0.0111866637 Z M0.161946142,1.05492258 L0.628788486,1.05492258 C0.751202656,1.05492258 0.840460851,1.03869491 0.89656307,1.00623958 C0.953691641,0.972191776 0.98479121,0.9215595 0.980690018,0.869275017 L0.980690018,0.866801064 C0.98206627,0.83073371 0.971737832,0.794914963 0.950474141,0.762013208 C0.930294223,0.732841414 0.896734941,0.709181504 0.855095384,0.694769435 C0.802878355,0.677790485 0.745598731,0.66972917 0.688011078,0.671254628 L0.161928554,0.671254628 L0.161928554,0.519437159 L0.688011078,0.519437159 C0.76087281,0.523191515 0.833068028,0.507564433 0.890033592,0.475708192 C0.983734043,0.399010415 0.980428928,0.285666827 0.882334523,0.211681007 C0.816363772,0.17869332 0.73582867,0.162920491 0.65483605,0.167125347 L0.161928554,0.167125347 L0.161928554,0.0111866637 L0.698686886,0.0111866637 C0.795067552,0.00897692551 0.890848696,0.0225418525 0.97833325,0.0507913539 C1.04997592,0.0749363472 1.10885454,0.114203991 1.14658715,0.163004133 C1.18544926,0.216662736 1.20458346,0.276197832 1.20227459,0.336272739 C1.20267142,0.376167853 1.19096175,0.415671393 1.16791238,0.452196448 C1.14456432,0.488602964 1.10851918,0.520368517 1.06305379,0.54460535 C1.01172426,0.571482381 0.951716892,0.589189049 0.888283603,0.596175648 C0.953736276,0.602162961 1.01581348,0.619937321 1.0683829,0.647742884 C1.11847355,0.674585047 1.1583448,0.709573068 1.18450209,0.749640378 C1.21157381,0.791077454 1.22532247,0.836131801 1.224787,0.881653971 L1.224787,0.884130986 C1.22656509,0.944137358 1.20529381,1.00338539 1.16317246,1.05574927 C1.12196998,1.10533024 1.06051363,1.14525301 0.986625908,1.170436 C0.903203316,1.19844366 0.811440419,1.21229373 0.718851323,1.21085208 L0.161959332,1.21085208 L0.161946142,1.05492258 Z" id="Shape"></path>
                        <path d="M1.11192298,1.14776515 C1.0212948,1.11232088 0.947743911,1.05948154 0.900315068,0.995744915 C0.848689546,0.9251871 0.822991959,0.847042469 0.825459825,0.768115164 L0.825459825,0.434961568 C0.822994271,0.356035383 0.848691753,0.277892101 0.900315068,0.207334817 C0.947748678,0.143599744 1.0212983,0.0907602678 1.11192298,0.0553115835 C1.3095799,-0.0163860402 1.54614125,-0.0163860402 1.74379817,0.0553115835 C1.83440607,0.0907749967 1.90795024,0.143610563 1.95540608,0.207334817 C2.00701463,0.27789583 2.0327127,0.35603632 2.0302657,0.434961568 L2.0302657,0.768115164 C2.03271448,0.847041495 2.00701634,0.925183247 1.95540608,0.995744915 C1.907955,1.05947071 1.83440955,1.11230615 1.74379817,1.14776515 C1.54614125,1.21946277 1.3095799,1.21946277 1.11192298,1.14776515 L1.11192298,1.14776515 Z M1.61471433,1.00625649 C1.66871549,0.984296724 1.71215671,0.951968234 1.73967284,0.913263714 C1.77022248,0.86980626 1.78537083,0.822012597 1.78388341,0.773777551 L1.78388341,0.429299181 C1.78536705,0.381063422 1.77021891,0.333269382 1.73967284,0.289810017 C1.71215153,0.251108705 1.66871144,0.218782101 1.61471433,0.196820242 C1.49828001,0.153153645 1.35744552,0.153153645 1.2410112,0.196820242 C1.18700285,0.218772582 1.14355925,0.251101798 1.11605268,0.289810017 C1.08550662,0.333269382 1.07035847,0.381063422 1.07184211,0.429299181 L1.07184211,0.773783552 C1.0703547,0.822018598 1.08550305,0.869812261 1.11605268,0.913269715 C1.14355406,0.951981146 1.18699879,0.98431225 1.2410112,1.00626249 C1.35744552,1.04992909 1.49828001,1.04992909 1.61471433,1.00626249 L1.61471433,1.00625649 Z" id="Shape"></path>
                        <path d="M1.9303312,1.14776515 C1.83970216,1.11232172 1.76615102,1.05948215 1.71872348,0.995744915 C1.66709481,0.925187776 1.64139564,0.847042841 1.64386393,0.768115164 L1.64386393,0.434961568 C1.64139813,0.356035023 1.66709719,0.277891467 1.71872348,0.207334817 C1.76615579,0.143599131 1.83970565,0.0907594333 1.9303312,0.0553115835 C2.12798795,-0.0163860402 2.36454909,-0.0163860402 2.56220584,0.0553115835 C2.65281666,0.0907723588 2.72636175,0.143608625 2.77381356,0.207334817 C2.82542676,0.277894571 2.85112365,0.356036117 2.84866874,0.434961568 L2.84866874,0.768115164 C2.85112561,0.84704171 2.82542863,0.925184547 2.77381356,0.995744915 C2.72636651,1.05947265 2.65282015,1.11230879 2.56220584,1.14776515 C2.36454909,1.21946277 2.12798795,1.21946277 1.9303312,1.14776515 L1.9303312,1.14776515 Z M2.43311773,1.00625649 C2.4871208,0.984298379 2.5305626,0.951969435 2.55807614,0.913263714 C2.58862575,0.86980626 2.60377408,0.822012597 2.60228667,0.773777551 L2.60228667,0.429299181 C2.6037703,0.381063422 2.58862218,0.333269382 2.55807614,0.289810017 C2.53055762,0.251107404 2.48711691,0.218780309 2.43311773,0.196820242 C2.31668352,0.153153645 2.17584915,0.153153645 2.05941493,0.196820242 C2.00540875,0.218774377 1.96196585,0.2511031 1.93445653,0.289810017 C1.90391049,0.333269382 1.88876236,0.381063422 1.890246,0.429299181 L1.890246,0.773783552 C1.88875858,0.822018598 1.90390692,0.869812261 1.93445653,0.913269715 C1.96196066,0.951979843 2.0054047,0.984310454 2.05941493,1.00626249 C2.17584915,1.04992909 2.31668352,1.04992909 2.43311773,1.00626249 L2.43311773,1.00625649 Z" id="Shape"></path>
                        <path d="M2.37919733,0.0111344322 L3.58432553,0.0111344322 L3.58432553,0.171246525 L2.37919733,0.171246525 L2.37919733,0.0111344322 Z M2.86195386,0.109347378 L3.101569,0.109347378 L3.101569,1.21113443 L2.86195386,1.21113443 L2.86195386,0.109347378 Z" id="Shape"></path>
                        <path d="M3.28824461,0.938143574 C3.24945994,0.930038286 3.21182786,0.917144408 3.17620978,0.899757085 C3.1412518,0.882529 3.10854983,0.861041715 3.07884587,0.835782769 L3.1599185,0.735978846 C3.19423365,0.766087447 3.23385211,0.789516754 3.27674098,0.805064556 C3.3212326,0.820744445 3.36810973,0.828537122 3.41527016,0.828093126 C3.46994098,0.831294931 3.52434089,0.818277613 3.57167072,0.790668139 C3.6076293,0.767758722 3.62876869,0.727457697 3.62721079,0.684784199 L3.62721079,0.684145572 C3.62871835,0.656192634 3.61972122,0.628687961 3.6019933,0.607054467 C3.58433494,0.587529896 3.56188769,0.572973813 3.53688029,0.564831465 C3.50317743,0.553892811 3.46871941,0.545446128 3.43378352,0.53955939 C3.4324428,0.539126416 3.43104169,0.538910825 3.42963311,0.538920763 C3.42822394,0.538936552 3.42682176,0.538719995 3.42548271,0.538279762 L3.41590741,0.536361506 C3.36450373,0.528308123 3.31381033,0.516222534 3.26429451,0.500216147 C3.22446317,0.486136879 3.18969459,0.460532569 3.16438871,0.426643428 C3.13407402,0.382033695 3.11947202,0.328565413 3.12289415,0.274702349 L3.12289415,0.274063721 C3.12135423,0.222211406 3.13476067,0.171013226 3.16150806,0.126600156 C3.18863608,0.0847117124 3.22797673,0.0522106915 3.27418251,0.0335148783 C3.3622508,-8.79624081e-05 3.45814304,-0.00742069728 3.55027908,0.0124021906 C3.58301031,0.0198619309 3.61488541,0.0306889663 3.64539723,0.0447110366 C3.6778285,0.0596771452 3.70872341,0.0777823822 3.73764183,0.0987688237 L3.66359078,0.202411632 C3.63126891,0.178055719 3.59570581,0.158351386 3.55793553,0.143871583 C3.52415841,0.131110966 3.48837745,0.124502888 3.45228029,0.124359025 C3.40025996,0.121252755 3.34857651,0.134565456 3.30449798,0.162425014 C3.26976192,0.187018569 3.24991311,0.227645848 3.25183145,0.270224835 L3.25183145,0.270863462 C3.25027946,0.298675552 3.26007254,0.32592555 3.27896305,0.346359186 C3.297886,0.365214154 3.32111303,0.379158212 3.34662979,0.386982058 C3.38364216,0.39818274 3.42126127,0.407260896 3.45930423,0.414172389 C3.46088102,0.414578942 3.46247945,0.41489599 3.46409189,0.415122021 C3.46557959,0.415340436 3.46717547,0.41565698 3.46887954,0.416071652 C3.47100685,0.416503735 3.47334738,0.416930278 3.47590111,0.417351281 C3.47845484,0.417783364 3.48078352,0.418210698 3.48292268,0.41863091 C3.53103471,0.427768817 3.57816867,0.441479335 3.62368579,0.459576657 C3.6617207,0.475655263 3.69446484,0.502149513 3.71816431,0.536022012 C3.74564626,0.578912113 3.75893738,0.629392924 3.75614808,0.680287693 L3.75614808,0.681567322 C3.75763165,0.733029195 3.74361731,0.783746202 3.71593039,0.827112631 C3.68726396,0.868898324 3.64664932,0.901010789 3.59942772,0.91922691 C3.54069417,0.941750864 3.47812225,0.95250994 3.41525595,0.950894755 C3.37259024,0.951110319 3.33001982,0.946836503 3.28824461,0.938143574 Z" id="Path"></path>
                    </g>
                    <g id="fx" transform="translate(35.084173, 16.998408)">
                        <path d="M1.21725262,2.75701836 C1.21725262,3.43903201 0.831186946,4.10510609 0.445168649,4.10510609 C0.126795766,4.10510609 0.0193140625,3.7581059 0.0193140625,3.47094439 C0.0193140625,3.14788204 0.0750199597,2.5655726 0.226272782,1.96729986 C0.134753075,1.9912377 0.0750199597,2.00718439 0.0750199597,2.00718439 C0.0593872662,1.97324361 0.0499533078,1.93676891 0.0471658266,1.8994914 C0.0471658266,1.82770161 0.186481502,1.7798378 0.281978679,1.73197399 C0.457105796,1.13370599 0.711815474,0.455668922 0.723752621,0.212389888 C0.723752621,0.128622872 0.676004032,0.092736288 0.676004032,0.0568330858 C0.676004032,0.0448700999 0.695903226,0.0209441281 0.707835635,0.0209441281 C0.942648488,0.0209441281 1.19337833,0.168512153 1.19337833,0.363946366 C1.19337833,0.527475326 0.978459929,1.0020989 0.799355343,1.46077103 C0.938668649,1.40493031 1.0659998,1.34111743 1.15358705,1.34111743 C1.22918977,1.34111743 1.25306406,1.3929697 1.25306406,1.47273639 C1.25306406,1.65620524 1.18542102,1.77187039 1.14562974,1.77187039 C1.11375076,1.77187039 1.12971275,1.74395597 1.09385393,1.74395597 C1.00188875,1.75689133 0.911301225,1.77825255 0.823229637,1.80777122 C1.0102939,1.91944316 1.21725262,2.24649396 1.21725262,2.75701836 Z M0.875003075,2.57753796 C0.875003075,2.46187044 0.81129249,2.01117759 0.648149899,2.01117759 C0.544645665,2.44592138 0.409359577,3.02025391 0.409359577,3.43903438 C0.409359577,3.4868982 0.409359577,3.53077593 0.413339415,3.57463942 C0.679981502,3.50284252 0.875003075,3.01626783 0.875003075,2.57753796 L0.875003075,2.57753796 Z" id="Shape"></path>
                        <path d="M1.79431502,2.05105975 L1.73064945,1.7479373 C1.72666961,1.75591183 1.60327092,2.05105975 1.54756502,2.15076396 C1.52766583,2.18666479 1.45206547,1.84764151 1.45206547,1.84365305 C1.52369073,1.68013359 1.60725076,1.44082402 1.60725076,1.18555825 C1.60725076,1.04197631 1.56347964,0.894396414 1.55552233,0.834569614 C1.55552233,0.782729217 1.63510489,0.758791375 1.73462928,0.758791375 C1.80227233,0.758791375 2.03311719,0.774754685 2.03311719,0.898387241 C2.03311719,0.926311163 2.08484561,1.26532495 2.14453135,1.56446132 C2.41515565,1.12573146 2.68577994,0.587290256 2.80917863,0.587290256 C2.89274103,0.587290256 3.04001401,0.671043028 3.04001401,0.714918388 C3.04001401,0.730869828 3.02807686,0.75080972 3.01613972,0.75080972 C2.98032591,0.754795799 2.61415706,1.32115617 2.23609607,1.93537798 C2.30772132,2.22652795 2.34353276,2.38208476 2.41913548,2.38208476 C2.56640847,2.38208476 2.76540988,1.96329716 2.83305292,1.84364356 C2.8967185,1.84364356 2.97634844,1.96329716 2.97634844,2.04306622 C2.95247414,2.16271982 2.41515565,2.91254905 2.20824194,2.91254905 C2.05301164,2.91254905 1.96149194,2.63335732 1.91369597,2.48179609 C1.78664383,2.72504606 1.6801472,2.97853434 1.59532308,3.23960222 C1.59362128,3.25802435 1.57796689,3.27197433 1.55951164,3.27152564 C1.46003463,3.27152564 1.36051971,3.08007121 1.36051971,2.96839214 C1.36079484,2.93481412 1.36479854,2.90137111 1.37245685,2.86868081 C1.39233236,2.77296268 1.56745948,2.4379421 1.79431502,2.05105975 Z" id="Path"></path>
                    </g>
                    <g id="effects" transform="translate(0.000000, 33.427037)">
                        <path d="M7.76890811,3.53757292 C7.84469561,3.04374542 8.1858436,2.07512579 8.77332939,1.18246958 C7.04873261,0.76463161 4.16808745,3.15772022 4.16808745,6.23451046 C4.165202,6.4521495 4.19068625,6.66923448 4.2438939,6.88026004 C4.77453906,6.61438215 5.38099068,6.4244558 6.12010358,6.3674589 C7.23824874,6.27249573 8.204781,6.67134106 8.204781,7.69694334 C8.204781,7.9438476 7.97736164,8.30472191 7.84470035,8.30472191 C7.80431747,8.30529952 7.76541979,8.28947657 7.73686321,8.2608555 C7.70830663,8.23223443 7.69252151,8.19325106 7.69310166,8.15278083 L7.69310166,8.07681029 C7.69310166,7.75393549 7.1624565,7.69695759 6.8592307,7.69695759 C5.62737586,7.69695759 2.00759884,10.2989628 2.21606184,13.033907 C2.2918683,14.116499 3.20155993,14.4773639 3.82694894,14.4773639 C5.68420701,14.4773639 8.96285499,10.6028402 9.68302576,8.95049048 C10.0052174,8.95049048 10.4221387,9.57723319 10.3652838,9.88112959 C9.58826769,11.7803931 6.25276961,16.3196328 3.33421648,16.3196328 C1.09792616,16.3196328 0.150345514,15.0281455 0.0176842238,13.4327381 C-0.19080247,11.0586587 1.70437777,8.85551307 2.87937777,7.71593598 C2.53826295,7.3740828 2.02655519,6.80430375 2.02655519,5.94962093 C2.02655519,2.53095853 5.47576295,-0.507874927 9.20924491,0.0808967542 C9.58827717,0.137874659 10.9906965,0.612690531 10.7064223,1.03054037 C9.39876104,2.96780337 8.96285973,3.59454608 8.7733436,4.62014836 C8.75439199,4.77208944 8.67858553,4.81006284 8.60279803,4.79108208 C8.12896981,4.71510679 7.67415005,4.06935245 7.76890811,3.53757292 Z" id="Path"></path>
                        <path d="M14.1932775,13.2998039 C14.1932775,16.5475611 12.3549568,19.7193453 10.5166361,19.7193453 C9.00050711,19.7193453 8.48881356,18.0669718 8.48881356,16.6994903 C8.48881356,15.1610868 8.75413614,12.3881479 9.47429743,9.53925267 C9.03842455,9.65320848 8.75415035,9.72917902 8.75415035,9.72917902 C8.75415035,9.72917902 8.62147485,9.44428949 8.62147485,9.21636363 C8.62147485,8.87451045 9.2847813,8.64658458 9.73962001,8.41867297 C10.573491,5.56975399 11.7863942,2.34101793 11.843268,1.18246008 C11.843268,0.783614749 11.6158344,0.612681035 11.6158344,0.441747321 C11.6158344,0.384769416 11.7105925,0.270813607 11.7674473,0.270813607 C12.8855925,0.270813607 14.0795583,0.973541098 14.0795583,1.90418021 C14.0795583,2.68289723 13.0561712,4.94301366 12.2033486,7.12716667 C12.8666551,6.86126978 13.4731067,6.55738763 13.8900422,6.55738763 C14.2501039,6.55738763 14.3638325,6.80429188 14.3638325,7.18414458 C14.3638325,8.05780578 14.0416409,8.60859219 13.8521247,8.60859219 C13.7005261,8.60859219 13.7763183,8.4756295 13.605768,8.4756295 C13.5299615,8.4756295 12.6960906,8.62757058 12.3170583,8.77953066 C13.2077794,9.31132681 14.1932775,10.8687371 14.1932775,13.2998039 Z M12.5634198,12.4451353 C12.5634198,11.8943489 12.260194,9.7481669 11.4831779,9.7481669 C10.9904359,11.8183641 10.3460811,14.5533035 10.3460811,16.5475611 C10.3460811,16.7754727 10.3460811,16.9843798 10.3650327,17.1933106 C11.634786,16.8514385 12.5634198,14.5343251 12.5634198,12.4451353 L12.5634198,12.4451353 Z" id="Shape"></path>
                        <path d="M20.1249096,13.2998039 C20.1249096,16.5475611 18.2865913,19.7193453 16.4482707,19.7193453 C14.9321416,19.7193453 14.4204481,18.0669718 14.4204481,16.6994903 C14.4204481,15.1610868 14.6857707,12.3881479 15.405932,9.53925267 C14.9700591,9.65320848 14.6857849,9.72917902 14.6857849,9.72917902 C14.6857849,9.72917902 14.5531094,9.44428949 14.5531094,9.21636363 C14.5531094,8.87451045 15.2164158,8.64658458 15.6712545,8.41867297 C16.5051255,5.56975399 17.7180287,2.34101793 17.7749002,1.18246008 C17.7749002,0.783614749 17.547469,0.612681035 17.547469,0.441747321 C17.547469,0.384769416 17.642227,0.270813607 17.6990819,0.270813607 C18.817227,0.270813607 20.0111905,0.973541098 20.0111905,1.90418021 C20.0111905,2.68289723 18.9878034,4.94301366 18.1349808,7.12716667 C18.7982872,6.86126978 19.4047389,6.55738763 19.8216743,6.55738763 C20.1817384,6.55738763 20.2954647,6.80429188 20.2954647,7.18414458 C20.2954647,8.05780578 19.9732754,8.60859219 19.7837593,8.60859219 C19.6321582,8.60859219 19.7079528,8.4756295 19.5374002,8.4756295 C19.4615937,8.4756295 18.6277227,8.62757058 18.2486905,8.77953066 C19.1394139,9.31132681 20.1249096,10.8687371 20.1249096,13.2998039 Z M18.4950543,12.4451353 C18.4950543,11.8943489 18.1918285,9.7481669 17.4148124,9.7481669 C16.9220705,11.8183641 16.2777156,14.5533035 16.2777156,16.5475611 C16.2777156,16.7754727 16.2777156,16.9843798 16.2966672,17.1933106 C17.5664206,16.8514385 18.4950543,14.5343251 18.4950543,12.4451353 Z" id="Shape"></path>
                        <path d="M28.3877631,9.78616642 C28.3877631,10.0710559 27.9708134,10.7737834 27.6486502,11.3245698 C26.7010696,12.9389438 25.1280857,14.5153325 23.5929766,14.5153325 C21.5841056,14.5153325 20.8070895,13.2048407 20.8070895,11.0966582 C20.8070895,9.95707639 21.8873315,3.57554395 24.2752347,3.57554395 C25.4312831,3.57554395 27.2127347,4.65813838 27.2127347,5.98760858 C27.2127347,6.97522559 25.7155573,9.93807664 24.4837024,9.93807664 C23.9720089,9.93807664 23.5550734,9.67217975 23.2707992,9.36829759 C23.232896,9.5392313 23.2139444,9.76714292 23.2139444,10.0140472 C23.2139444,11.0016642 23.536136,12.4640971 24.4458229,12.5400676 C25.6397603,12.5400676 27.2127584,9.90009137 27.7055145,8.95045962 C27.7055098,8.95048574 28.3877631,9.29233892 28.3877631,9.78616642 Z M23.4224263,8.13379294 C23.536136,8.36170456 23.7067005,8.5706093 23.9151682,8.58961618 C24.3510553,8.58961618 25.2607328,6.97521847 25.3933941,5.43681979 C25.1849263,5.07595973 24.957507,4.77207757 24.7679908,4.77207757 C24.5405762,4.77207757 23.7825117,6.310481 23.4224263,8.13379294 Z" id="Shape"></path>
                        <path d="M34.8500262,9.78616642 C34.8500262,10.0710559 34.4330765,10.7737834 34.1109133,11.3245698 C33.1633327,12.9389438 31.5903488,14.5153325 30.0552421,14.5153325 C28.0463711,14.5153325 27.269355,13.2048407 27.269355,11.0966582 C27.269355,9.95707639 28.3495969,3.57554395 30.7375002,3.57554395 C31.5145163,3.57554395 32.0262098,3.89843299 32.3862905,4.33524934 C32.5000167,4.12633036 32.556855,3.97438928 32.7463711,3.97438928 C33.1633184,3.97438928 34.1108991,4.79107258 34.1108991,5.22790318 C34.1108991,5.77868959 32.6326733,7.58298991 32.6137217,8.00082788 C32.6137217,8.00082788 32.6137217,8.11480268 32.500012,8.11480268 C32.3863023,8.11480268 31.6471894,7.77293525 31.6471894,6.93724507 C31.6471894,6.63336291 31.8556572,5.96862069 31.9504152,5.58876799 C31.722984,5.17091578 31.4387098,4.77208469 31.2302539,4.77208469 C30.9080765,4.77208469 29.7141249,7.48803148 29.7141249,9.93808138 C29.7141249,11.8183522 30.2637217,12.5400866 30.9080765,12.5400866 C32.1020163,12.5400866 33.675012,9.90011036 34.1677681,8.95047861 C34.1677729,8.95048574 34.8500262,9.29233892 34.8500262,9.78616642 Z" id="Path"></path>
                        <path d="M38.6969833,1.90418733 C38.6969833,2.07512104 38.1094833,3.82246245 38.0147253,4.14531825 C38.0894555,4.16105526 38.165846,4.16743492 38.2421446,4.16431088 C38.3748059,4.16431088 38.5264188,4.14531825 38.6780317,4.14531825 C38.7348723,4.14531825 38.7727898,4.16431088 38.7727898,4.25927406 C38.7727898,4.79106783 38.3558401,5.17092053 37.8441607,5.17092053 C37.7873059,5.17092053 37.7114852,5.17092053 37.6546446,5.1519279 C36.801822,7.35509253 35.7215659,9.95706452 35.7215659,10.9447053 C35.7215659,11.1726169 35.7215659,11.3435506 35.8542272,11.3435506 C36.2901143,11.3435506 37.976822,8.91249334 37.9199814,8.91249334 C38.0715801,8.91249334 38.5832879,9.44428712 38.5832879,9.82413982 C38.5832879,10.1470146 35.7026285,14.4963446 34.5655317,14.4963446 C33.7884966,14.4963446 33.4284112,13.3377773 33.4284112,12.2172284 C33.4284112,10.374931 34.5465564,7.71593835 35.399379,4.96200629 C34.8498012,4.82905785 34.6223629,5.30387372 34.4897158,5.30387372 C34.3570687,5.30387372 34.2622822,5.13294001 34.2622822,4.9050094 C34.2622822,4.35422299 34.7929274,3.78444394 35.399379,3.76546317 L35.7215706,3.76546317 C35.8352803,3.27165467 36.4606835,1.46735435 36.4606835,1.18246483 C36.4606835,0.783619497 36.2332499,0.612685783 36.2332499,0.441752069 C36.2332499,0.384774164 36.328008,0.270818355 36.3848629,0.270818355 C37.5030222,0.270818355 38.6969833,0.973543472 38.6969833,1.90418733 Z" id="Path"></path>
                        <path d="M43.3021186,10.1470075 C43.3021186,12.4261474 42.7145997,14.5153373 40.9141965,14.5153373 C38.6779061,14.5153373 37.7492629,10.3369338 37.7492629,9.31132681 C37.7492629,8.55162141 38.1093435,8.20976823 38.3557287,8.20976823 C38.393632,8.20976823 38.4315352,8.20976823 38.4694384,8.2477535 C39.3412126,7.14618067 40.3645997,5.43684353 41.1226642,4.46821915 C41.4448558,3.44261687 42.0892154,3.36664633 42.6956481,3.36664633 C43.0367771,3.36664633 43.4537126,3.59455795 43.4537126,3.99340328 C43.4537126,4.35424435 43.1504868,4.6011676 43.1504868,5.7977036 C43.1504963,7.37408754 43.3021186,8.58962092 43.3021186,10.1470075 Z M40.364595,12.0842705 C41.0089498,12.0842705 41.1795143,9.90011748 41.1795143,8.15278083 C41.1795143,7.33609753 41.1416111,6.63337003 41.1037079,6.27250997 C40.5541111,7.20314908 39.530724,8.85552731 39.0569337,9.59622108 C39.0569337,9.93809325 39.5117724,12.0842705 40.364595,12.0842705 Z" id="Shape"></path>
                    </g>
                </g>
                <path d="M6.78617152,55 L47.2138401,55 C48.200309,55 49,55.8086943 49,56.8062694 L49,76.1937306 C49,77.1913057 48.200309,78 47.2138401,78 L6.7861692,78 C6.31244853,78 5.85812938,77.8097008 5.52315741,77.4709593 C5.18818544,77.1322178 5,76.6727847 5,76.1937306 L5,56.8062717 C5,56.327217 5.18818568,55.8677833 5.52315809,55.5290414 C5.85813049,55.1902995 6.31245023,55 6.78617152,55 Z" id="Foot" fill="#03196B"></path>
                <g id="Knob" transform="translate(0.000000, 5.000000)">
                    <g id="Group">
                        <g transform="translate(6.742392, 0.483801)">
                            <rect id="Rectangle" fill="#03196B" x="6.26162152" y="1.38712282" width="1" height="3.26938862"></rect>
                            <ellipse id="Oval" fill="#03196B" cx="6.6528099" cy="6.50606998" rx="6.64586712" ry="6.49458546"></ellipse>
                            <path d="M3.77536455,2.77479395 C3.5575414,2.77501875 3.34141827,2.73732959 3.13711937,2.66349201 C2.60471065,3.11836051 2.16960215,3.67162564 1.85683112,4.29145112 C2.17284887,4.70066138 2.29493265,5.22230828 2.19235003,5.72507645 C2.08976742,6.22784462 1.77229008,6.66384203 1.31983733,6.92331404 C1.35793615,7.53330172 1.50588679,8.13193363 1.75688341,8.69167228 C1.76136262,8.69164003 1.76584183,8.69150641 1.77032105,8.69150641 C2.32495421,8.6918404 2.8498229,8.93671986 3.19881744,9.35797677 C3.54781198,9.77923368 3.68366875,10.3318886 3.5685688,10.862097 C4.06347687,11.2049144 4.6147112,11.4625328 5.19845478,11.6238215 C5.54983476,11.20553 6.07545999,10.9643363 6.6292404,10.9672766 C7.1830208,10.9702169 7.7059331,11.216978 8.05264123,11.638976 C8.62943533,11.4864683 9.17581594,11.2400884 9.66884441,10.91018 C9.53681415,10.3748513 9.66315824,9.80991696 10.0116806,9.37722376 C10.360203,8.94453055 10.8924472,8.69182243 11.4559318,8.69149719 C11.4876682,8.69149719 11.519209,8.69227665 11.550554,8.69383557 C11.7962333,8.14676392 11.9434696,7.56236588 11.9857825,6.96636314 C11.4941275,6.71539194 11.1446919,6.26092556 11.0348442,5.72959888 C10.9249964,5.19827219 11.0664785,4.64688037 11.4198671,4.22906609 C11.1043667,3.62438585 10.671732,3.08531834 10.1459771,2.64178546 C9.66181718,2.83464782 9.11655533,2.81709314 8.64643485,2.59350775 C8.17631438,2.36992237 7.82574362,1.96142652 7.6823189,1.47009014 C6.97380913,1.33525443 6.24477611,1.34115416 5.53864852,1.48743787 C5.30755799,2.2508604 4.59003294,2.7747183 3.77536455,2.77479395 Z" id="Path" fill="#EAE5E5"></path>
                            <circle id="Oval" fill="#03196B" transform="translate(6.652812, 6.506069) rotate(-45.000000) translate(-6.652812, -6.506069) " cx="6.65281162" cy="6.50606944" r="3.53257658"></circle>
                            <path d="M6.93381912,3.02181598 L6.30706665,3.02181598 L6.30706665,1.46594788 C6.40347578,1.45856415 6.50597664,1.45359712 6.61399871,1.45214802 C6.7262006,1.45064363 6.83277282,1.45538949 6.93268045,1.46057999 C6.93312838,1.98175839 6.93338063,2.50063758 6.93381912,3.02181598 Z" id="Path" fill="#03196B"></path>
                        </g>
                        <g transform="translate(35.079297, 0.483801)">
                            <rect id="Rectangle" fill="#03196B" x="6.27265924" y="1.38712282" width="1" height="3.26938862"></rect>
                            <ellipse id="Oval" fill="#03196B" cx="6.66384998" cy="6.50606998" rx="6.64586477" ry="6.49458315"></ellipse>
                            <path d="M3.78640463,2.77479395 C3.56858148,2.77501875 3.35245835,2.73732959 3.14815945,2.66349201 C2.61575073,3.11836051 2.18064223,3.67162564 1.8678712,4.29145112 C2.18388894,4.70066138 2.30597273,5.22230828 2.20339011,5.72507645 C2.10080749,6.22784462 1.78333016,6.66384203 1.33087741,6.92331404 C1.3689751,7.53330189 1.51692579,8.13193399 1.76792349,8.69167228 C1.7724027,8.69164003 1.77688191,8.69150641 1.78136112,8.69150641 C2.33599306,8.69184383 2.86085944,8.93672421 3.20985321,9.35798018 C3.55884697,9.77923615 3.69470514,10.3318891 3.57960887,10.862097 C4.0745164,11.2049139 4.62574985,11.4625323 5.2094925,11.6238215 C5.56087284,11.2055257 6.08650118,10.9643291 6.64028521,10.9672694 C7.19406924,10.9702098 7.71698463,11.2169737 8.0636931,11.638976 C8.6404833,11.4864702 9.18686061,11.2400934 9.67988684,10.9101892 C9.54786046,10.3748609 9.67420604,9.80992868 10.0227276,9.37723648 C10.3712492,8.94454428 10.903491,8.69183522 11.4669743,8.69150641 C11.4987138,8.69150641 11.5302553,8.69228587 11.5615988,8.69384478 C11.8072784,8.14677337 11.954514,7.56237514 11.9968249,6.96637235 C11.505165,6.7154035 11.1557249,6.26093581 11.0458755,5.72960618 C10.9360261,5.19827655 11.0775099,4.64688131 11.4309025,4.22906609 C11.1154033,3.62438963 10.682772,3.08532472 10.1570219,2.64179237 C9.67286155,2.83465295 9.1276001,2.81709651 8.65748059,2.59350985 C8.18736109,2.36992318 7.83679174,1.9614266 7.69336841,1.47009014 C6.98485943,1.33525443 6.25582718,1.34115415 5.54970039,1.48743787 C5.31860727,2.25086357 4.60107686,2.77472188 3.78640463,2.77479395 Z" id="Path" fill="#EAE5E5"></path>
                            <circle id="Oval" fill="#03196B" transform="translate(6.663851, 6.506070) rotate(-45.000000) translate(-6.663851, -6.506070) " cx="6.66385144" cy="6.5060697" r="3.53257658"></circle>
                            <path d="M6.94486627,3.02181598 L6.31810673,3.02181598 L6.31810673,1.46594788 C6.4145135,1.45856415 6.51701672,1.45359712 6.62503643,1.45214802 C6.73725246,1.45064363 6.84382233,1.45538949 6.94372053,1.46057999 C6.94416845,1.98175839 6.94442778,2.50063758 6.94486627,3.02181598 Z" id="Path" fill="#03196B"></path>
                        </g>
                        <g transform="translate(21.924561, 16.910007)">
                            <path d="M11.1313116,4.79598675 C11.0949891,4.49759327 11.0334338,4.20265313 10.9472773,3.91419208 L10.698799,4.016364 L10.1799366,2.81125875 L10.4204773,2.71235364 C10.2697621,2.45817356 10.0983816,2.21624476 9.90799186,1.98890482 L9.69780604,2.19430612 L8.75177775,1.26981253 L8.94348564,1.08247084 C8.74344495,0.934856466 8.53349401,0.800525651 8.31504758,0.680383585 L8.21095071,0.924650252 L6.97588598,0.422010655 L7.07869331,0.18077581 C6.81635921,0.109426658 6.5490227,0.0569793248 6.27883583,0.0238560115 L6.27883583,0.345318934 L4.94094964,0.345318934 L4.94094964,0.015700504 C4.65555506,0.0471077117 4.37307285,0.100033596 4.09602893,0.174004896 L4.20171946,0.422010655 L2.96665945,0.924650252 L2.85728418,0.668005184 C2.61458544,0.800041126 2.38226775,0.949527675 2.16225204,1.1152288 L2.32043892,1.26981483 L1.37441535,2.19430842 L1.20703429,2.03073751 C1.03101848,2.24519244 0.871763637,2.47228546 0.730618303,2.71009359 L0.976684955,2.81127027 L0.457824904,4.01637552 L0.2032006,3.91168092 C0.116650324,4.2009435 0.0548430656,4.49673339 0.0183883412,4.79599827 L0.309782255,4.79599827 L0.309782255,6.1034275 L0.0183883412,6.1034275 C0.0548145398,6.40269317 0.116621801,6.69848386 0.20317231,6.98774716 L0.457796614,6.88305256 L0.976656665,8.08815781 L0.730590013,8.18933449 C0.871734782,8.42714297 1.03098965,8.65423602 1.207006,8.86869057 L1.37438706,8.70511965 L2.32041063,9.62961555 L2.16222375,9.78420158 C2.38224007,9.94990117 2.6145577,10.0993869 2.85725589,10.2314229 L2.96663116,9.97477783 L4.20169117,10.4774174 L4.09600064,10.7254278 C4.3730454,10.799395 4.65552735,10.8523201 4.94092135,10.8837299 L4.94092135,10.5541091 L6.27880754,10.5541091 L6.27880754,10.8755721 C6.54899441,10.8424488 6.81633092,10.7900014 7.07866502,10.7186523 L6.97585769,10.4774174 L8.21092242,9.97477783 L8.31501929,10.2190468 C8.53346521,10.0989039 8.7434161,9.96457313 8.94345735,9.81695954 L8.75174946,9.62962016 L9.69777775,8.70512426 L9.90796121,8.91052556 C10.0983519,8.68318584 10.2697332,8.44125702 10.420449,8.18707675 L10.1799083,8.08817163 L10.6987707,6.88306638 L10.947249,6.9852406 C11.0334057,6.69677805 11.094961,6.40183636 11.1313116,6.10344132 L10.7968984,6.10344132 L10.7968984,4.7960121 L11.1313116,4.79598675 Z" id="Path" fill="#03196B"></path>
                            <ellipse id="Oval" fill="#EAE5E5" cx="5.57484998" cy="5.44970137" rx="4.27684526" ry="4.17949028"></ellipse>
                            <rect id="Rectangle" fill="#03196B" x="5.38385405" y="0.345318934" width="1" height="1.13953636"></rect>
                        </g>
                        <ellipse id="Oval" fill="#03196B" transform="translate(27.554359, 1.749390) rotate(-22.500000) translate(-27.554359, -1.749390) " cx="27.5543586" cy="1.74939042" rx="1.34858153" ry="1.32680353"></ellipse>
                        <g id="Cursor" transform="translate(2.993999, 26.286537)" fill="#03196B">
                            <g id="Cursor-2">
                                <g id="Cursor_L">
                                    <path d="M0.735073939,2.36781339 C0.660577004,2.36701773 0.592689863,2.32587482 0.558849979,2.2610131 L0.032483712,1.29208121 L0.0322786112,1.29170338 L0.0321701672,1.29150295 L0.032075868,1.29132786 L0.0319367767,1.29107214 L0.0318731247,1.29095004 L0.0317246035,1.29067819 L0.0316703815,1.29057451 L0.0315171453,1.29028423 L0.0314723532,1.29019669 L0.0313214745,1.28991562 L0.0312719674,1.28981656 L0.0311234462,1.28953549 L0.0310739391,1.28943873 L0.0309254179,1.28916228 L0.0308711959,1.2890586 L0.0307179597,1.28876602 L0.0306731676,1.28868539 L0.0305199314,1.28838819 L0.0304822117,1.28830526 L0.0303195456,1.28799885 L0.0302841835,1.28792513 L0.0301262323,1.28761411 L0.0300908701,1.2875473 L0.0299234891,1.28722937 L0.0298951993,1.28716717 L0.0297325332,1.28684924 L0.029701886,1.28678934 L0.0295392199,1.2864599 L0.0295085727,1.28640922 L0.0293411916,1.28607747 L0.0293176168,1.28602909 L0.0291502357,1.28568582 L0.0291290184,1.28565126 L0.0289569224,1.28530338 L0.0289427775,1.28527113 L0.0287636091,1.28491404 L0.0287636091,1.2848933 L0.0285820832,1.2845293 L0.0285820832,1.28451317 C0.0122184187,1.25112922 0.00470282168,1.21426166 0.00672588941,1.1772982 L0.00672588941,1.17727747 L0.00674474925,1.17691807 L0.00674474925,1.17685817 L0.00676360909,1.17653333 L0.00676360909,1.17643657 L0.00677775396,1.17613938 L0.00677775396,1.17601728 L0.00679425632,1.17575004 L0.00679425632,1.17559107 L0.0068084012,1.17533535 L0.0068084012,1.17517639 L0.00682490356,1.17492066 L0.00683904844,1.17475709 L0.00685319331,1.17450598 L0.00685319331,1.17433549 L0.00686969567,1.17410511 L0.00688384055,1.17392081 L0.00689798543,1.17369042 L0.00691448778,1.17349921 L0.00692863266,1.17328035 L0.00694277754,1.17307531 L0.00695692242,1.17287487 L0.00697813973,1.17264449 L0.00697813973,1.17246479 L0.00699699957,1.17223441 L0.00701350193,1.17205472 L0.00703236177,1.17182433 L0.00704650664,1.17164003 L0.00706065152,1.17140965 L0.00707715388,1.17122995 L0.00709601372,1.17099957 L0.00711015859,1.17082448 L0.00713609087,1.17057797 L0.00713609087,1.17040979 L0.00716202315,1.17015407 L0.00717616802,1.16999971 L0.00719502786,1.16973247 L0.00720917274,1.16958042 L0.00723510501,1.16931317 L0.00724924989,1.16916343 L0.00727518217,1.16889388 L0.00727518217,1.16874413 L0.00730347192,1.16847228 L0.00730347192,1.16832945 L0.00733176168,1.1680576 L0.00734590656,1.16790324 L0.00737183883,1.1676383 L0.00738598371,1.16748855 L0.00741191599,1.1672167 L0.00743077583,1.16706926 L0.00745435062,1.16679741 L0.00747085298,1.16665918 L0.00749914273,1.1663712 L0.00751564509,1.16623758 L0.00754393485,1.1659473 L0.00755807973,1.1658275 L0.00758872696,1.16553031 L0.00760287184,1.16540821 L0.00763351907,1.16511102 L0.00764766395,1.16498891 L0.00768302615,1.16469633 L0.00769717102,1.16456731 L0.00772781826,1.16427473 L0.00774196314,1.16415263 L0.00777732533,1.16385544 L0.00779147021,1.16373333 L0.00782447492,1.16343614 L0.00784097728,1.16331634 L0.007873982,1.16301454 L0.00789048435,1.16290166 L0.00792820403,1.16258373 L0.00793999143,1.16248697 L0.0079777111,1.16216904 L0.00799421346,1.16206767 L0.00803193313,1.16175436 L0.00804372053,1.16164608 L0.00808144021,1.16133967 L0.00809794256,1.16122678 L0.00813566224,1.16092498 L0.00815216459,1.16080749 L0.00818988427,1.16050338 L0.00820638663,1.16038589 L0.00824882126,1.16007948 L0.00824882126,1.15997581 L0.00829361337,1.15965788 L0.00830775825,1.15956112 L0.00835255036,1.15922707 L0.00835255036,1.15914644 L0.00840205744,1.15880778 L0.00840205744,1.15872484 L0.00845156451,1.15838848 L0.00845156451,1.15831015 L0.00850107158,1.15797149 L0.00850107158,1.15789086 L0.00855057865,1.1575522 L0.00855057865,1.15747617 L0.00860008573,1.15714212 L0.00861658808,1.15705457 L0.00866373768,1.1567113 L0.00867552508,1.15663988 L0.00872974711,1.15629201 L0.00872974711,1.1562252 L0.0087886841,1.15584507 L0.0087886841,1.15581512 L0.00884762109,1.15543499 L0.00884762109,1.15539582 L0.00890655808,1.15500648 L0.00890655808,1.15497883 L0.00897256751,1.1545964 L0.00897256751,1.15455954 L0.00903621946,1.15416559 L0.00903621946,1.15414485 L0.00909987141,1.15377624 L0.00909987141,1.15371865 L0.0091705958,1.15332009 L0.0091705958,1.15332009 L0.00923896271,1.15291692 L0.00923896271,1.15291692 C0.00947471067,1.15152234 0.00972303186,1.15013161 0.00998392628,1.14874471 L0.00998392628,1.14871015 L0.0100522932,1.14833002 L0.0100687955,1.14827012 L0.0101324475,1.14792685 L0.0101607372,1.14778171 L0.0102102443,1.14750986 L0.0102456065,1.14733708 L0.0102951136,1.1471067 L0.0103351907,1.14690857 L0.0103729104,1.14669201 L0.0104129876,1.14649388 L0.0104577797,1.14628193 L0.0104978568,1.14607689 L0.0105426489,1.14586724 L0.0105803686,1.1456576 L0.0106204458,1.14546177 L0.0106699529,1.14523139 L0.01071003,1.14504708 L0.0107548221,1.1448167 L0.0107925418,1.14463701 L0.0108420489,1.14440662 L0.0108774111,1.14423614 L0.0109316331,1.14398042 L0.0109669953,1.14383297 L0.0110212173,1.14356573 L0.0110495071,1.14341598 L0.0111084441,1.14315565 L0.0111390913,1.14300821 L0.0111980283,1.14275018 L0.0112286755,1.14259813 L0.0112923275,1.14231937 L0.0113159023,1.14219266 L0.0113795542,1.14190468 L0.0114102015,1.14178258 L0.0114738534,1.14148539 L0.0114997857,1.14137711 L0.0115681526,1.14107531 L0.0115917274,1.14096703 L0.0116624518,1.1406491 L0.0116813116,1.14056847 L0.0117543935,1.14023902 L0.0117756108,1.14015378 L0.0118534076,1.13982894 L0.01186991,1.13974831 L0.0119477068,1.13943038 L0.0119665667,1.13933362 L0.012046721,1.13901109 L0.0120608658,1.13893276 L0.0121410201,1.1385941 L0.01215988,1.13852729 L0.0122400343,1.13818402 L0.0122541792,1.13812412 L0.012336691,1.13777394 L0.0123531933,1.13771404 L0.0124404201,1.13735464 L0.0124522075,1.13731317 L0.0125394342,1.13694917 L0.0125394342,1.13691001 L0.0126337334,1.13653449 L0.0126337334,1.13650454 L0.0127233176,1.13612901 L0.0127233176,1.13609446 L0.0128223318,1.13570972 L0.0128223318,1.13570972 L0.0129260609,1.13530886 L0.0129260609,1.13530886 C0.0166674638,1.12060324 0.0219682533,1.1063191 0.0287423918,1.09268826 L0.0287612516,1.09265371 L0.0289333476,1.09231044 L0.0291125161,1.09194644 L0.0291125161,1.09194644 C0.0301340906,1.08990986 0.0311894556,1.08789018 0.0322786112,1.0858874 L0.558644878,0.116962419 C0.582850264,0.0692562391 0.626293588,0.0335569414 0.678540306,0.0184390516 C0.730787024,0.00332116176 0.787116284,0.0101506857 0.8339985,0.037287257 C0.932300795,0.0982273944 0.965777903,0.222998794 0.910720317,0.323234557 L0.554410844,0.979130886 L2.71630926,0.979130886 C2.82986099,0.985892808 2.91840912,1.07785877 2.91840912,1.18903153 C2.91840912,1.30020429 2.82986099,1.39217026 2.71630926,1.39893218 L0.55461123,1.39893218 L0.910920703,2.05482851 C0.928139096,2.08657598 0.93710838,2.12197267 0.93703922,2.15790353 C0.937859952,2.2322457 0.898857976,2.30159962 0.834198886,2.34077581 C0.804290099,2.3584343 0.770017504,2.36778258 0.735073939,2.36781339 Z" id="Path"></path>
                                </g>
                                <g id="Cursor_R" transform="translate(46.442349, 0.000000)">
                                    <path d="M0.743765967,2.36781339 C0.669269113,2.36701946 0.601381828,2.32587591 0.567544363,2.2610131 L0.0411780969,1.29208121 L0.0409706387,1.29170338 L0.0408621946,1.29150295 L0.0407726104,1.29132786 L0.0406358766,1.29107214 L0.0405651522,1.29095004 L0.0404189884,1.29067819 L0.0403694814,1.29057451 L0.0402115302,1.29028423 L0.0401620231,1.29019669 L0.0400135019,1.28991562 L0.0399639949,1.28981656 L0.0398154736,1.28953549 L0.0397659666,1.28943873 L0.0396174453,1.28916228 L0.0395679383,1.2890586 L0.0394123446,1.28876602 L0.0393722675,1.28868539 L0.0392143163,1.28838819 L0.0391742392,1.28830526 L0.039016288,1.28799885 L0.0389762109,1.28792513 L0.0388182598,1.28761411 L0.0387805401,1.2875473 L0.0386225889,1.28722937 L0.0385919417,1.28716717 L0.0384245607,1.28684924 L0.0383939134,1.28678934 L0.0382265324,1.2864599 L0.0382076725,1.28640922 L0.0380402915,1.28607747 L0.0380096442,1.28602909 L0.0378422632,1.28568582 L0.0378234033,1.28565126 L0.0376442349,1.28530338 L0.0376442349,1.28527113 L0.0374674239,1.28491404 L0.0374556365,1.2848933 L0.0372693956,1.2845293 L0.0372693956,1.28451317 C0.0209038791,1.25112994 0.0133897288,1.21426152 0.0154179168,1.1772982 L0.0154179168,1.17727747 L0.0154391342,1.17691807 L0.0154391342,1.17685817 L0.015457994,1.17653333 L0.015457994,1.17643657 L0.0154792113,1.17613938 L0.0154792113,1.17601728 L0.0154792113,1.17575004 L0.0154792113,1.17559107 L0.0155004286,1.17533535 L0.0155004286,1.17517639 L0.0155192885,1.17492066 L0.0155192885,1.17475709 L0.0155192885,1.17450598 L0.0155405058,1.17433549 L0.0155405058,1.17410511 L0.0155593656,1.17392081 L0.0155593656,1.17369042 L0.0155782255,1.17349921 L0.0155782255,1.17328035 L0.0155994428,1.17307531 L0.0155994428,1.17287487 L0.0156183026,1.17264449 L0.0156183026,1.17246479 L0.0156395199,1.17223441 L0.0156395199,1.17205472 L0.0156583798,1.17182433 L0.0156795971,1.17164003 L0.0156984569,1.17140965 L0.0156984569,1.17122995 L0.0157196742,1.17099957 L0.0157385341,1.17082448 L0.0157573939,1.17057797 L0.0157573939,1.17040979 L0.0157786112,1.17015407 L0.0157974711,1.16999971 L0.0158186884,1.16973247 L0.0158375482,1.16958042 L0.0158564081,1.16931317 L0.0158564081,1.16916343 L0.0158870553,1.16889388 L0.0158870553,1.16874413 L0.0159177025,1.16847228 L0.0159177025,1.16832945 L0.0159483498,1.1680576 L0.0159483498,1.16790324 L0.0159766395,1.1676383 L0.0159766395,1.16748855 L0.0160072868,1.1672167 L0.0160261466,1.16706926 L0.0160567938,1.16679741 L0.0160567938,1.16665918 L0.0160874411,1.1663712 L0.0160874411,1.16623758 L0.0161275182,1.1659473 L0.0161275182,1.1658275 L0.016155808,1.16553031 L0.0161675954,1.16540821 L0.016205315,1.16511102 L0.016205315,1.16498891 L0.0162359623,1.16469633 L0.0162548221,1.16456731 L0.0162854694,1.16427473 L0.0163043292,1.16415263 L0.0163349764,1.16385544 L0.0163538363,1.16373333 L0.0163844835,1.16343614 L0.0163844835,1.16331634 L0.0164245607,1.16301454 L0.0164245607,1.16290166 L0.0164646378,1.16258373 L0.0164834976,1.16248697 L0.0165235748,1.16216904 L0.0165235748,1.16206767 L0.016563652,1.16175436 L0.016563652,1.16164608 L0.0166037291,1.16133967 L0.0166225889,1.16122678 L0.0166626661,1.16092498 L0.0166626661,1.16080749 L0.0167027432,1.16050338 L0.0167216031,1.16038589 L0.0167616802,1.16007948 L0.0167616802,1.15997581 L0.0168111873,1.15965788 L0.0168111873,1.15956112 L0.0168606944,1.15922707 L0.0168606944,1.15914644 L0.0169007715,1.15880778 L0.0169196314,1.15872484 L0.0169597085,1.15838848 L0.0169809258,1.15831015 L0.0170186455,1.15797149 L0.0170398628,1.15789086 L0.0170893699,1.1575522 L0.0170893699,1.15747617 L0.017138877,1.15714212 L0.017138877,1.15705457 L0.0171883841,1.1567113 L0.0171883841,1.15663988 L0.017247321,1.15629201 L0.017247321,1.1562252 L0.0172968281,1.15584507 L0.0172968281,1.15581512 L0.0173581226,1.15543499 L0.0173581226,1.15539582 L0.0174170596,1.15500648 L0.0174170596,1.15497883 L0.0174759966,1.1545964 L0.0174759966,1.15455954 L0.0175349336,1.15416559 L0.0175349336,1.15414485 L0.017596228,1.15377624 L0.017596228,1.15371865 L0.017655165,1.15332009 L0.017655165,1.15332009 L0.017714102,1.15291692 L0.017714102,1.15291692 C0.0179419917,1.15152234 0.0181887412,1.15013161 0.0184543506,1.14874471 L0.0184543506,1.14871015 L0.0185345049,1.14833002 L0.0185345049,1.14827012 L0.0186028718,1.14792685 L0.0186240892,1.14778171 L0.0186830261,1.14750986 L0.0187113159,1.14733708 L0.018760823,1.1471067 L0.0188009001,1.14690857 L0.0188409773,1.14669201 L0.0188810544,1.14649388 L0.0189187741,1.14628193 L0.0189588513,1.14607689 L0.0190083583,1.14586724 L0.0190484355,1.1456576 L0.0190861552,1.14546177 L0.0191356622,1.14523139 L0.0191757394,1.14504708 L0.0192252465,1.1448167 L0.0192558937,1.14463701 L0.0193054008,1.14440662 L0.0193431204,1.14423614 L0.0194020574,1.14398042 L0.0194327047,1.14383297 L0.0194822117,1.14356573 L0.0195222889,1.14341598 L0.019571796,1.14315565 L0.0196095156,1.14300821 L0.0196590227,1.14275018 L0.0196990999,1.14259813 L0.0197580369,1.14231937 L0.0197886841,1.14219266 L0.0198476211,1.14190468 L0.0198759108,1.14178258 L0.0199466352,1.14148539 L0.0199654951,1.14137711 L0.020033862,1.14107531 L0.0200550793,1.14096703 L0.0201328761,1.1406491 L0.0201540934,1.14056847 L0.0202224604,1.14023902 L0.0202413202,1.14015378 L0.0203214745,1.13982894 L0.0203403343,1.13974831 L0.0204087012,1.13943038 L0.0204393485,1.13933362 L0.0205077154,1.13901109 L0.0205289327,1.13893276 L0.0206067295,1.1385941 L0.0206255894,1.13852729 L0.0207057437,1.13818402 L0.0207246035,1.13812412 L0.0208047578,1.13777394 L0.0208236177,1.13771404 L0.0209132019,1.13735464 L0.0209132019,1.13731317 L0.0210027861,1.13694917 L0.0210027861,1.13691001 L0.0210923703,1.13653449 L0.0210923703,1.13650454 L0.0211795971,1.13612901 L0.0211913845,1.13609446 L0.0212903986,1.13570972 L0.0212903986,1.13570972 L0.0213870553,1.13530886 L0.0213988427,1.13530886 C0.0251335449,1.12060219 0.0304321257,1.10631761 0.0372081012,1.09268826 L0.037226961,1.09265371 L0.0373966995,1.09231044 L0.0375829404,1.09194644 L0.0375829404,1.09194644 C0.0385998,1.08990986 0.0396559508,1.08789018 0.0407513931,1.0858874 L0.56711766,0.116962419 C0.591323046,0.0692562391 0.63476637,0.0335569414 0.687013088,0.0184390516 C0.739259806,0.00332116176 0.795589065,0.0101506857 0.842471282,0.037287257 C0.940771584,0.0982288176 0.974248233,0.22299851 0.919193099,0.323234557 L0.562890699,0.979130886 L2.72477733,0.979130886 C2.83834398,0.98587364 2.92691365,1.07784539 2.92691365,1.18903153 C2.92691365,1.30021768 2.83834398,1.39218943 2.72477733,1.39893218 L0.562881269,1.39893218 L0.919193099,2.05482851 C0.936414038,2.08657523 0.945385003,2.12197217 0.945316331,2.15790353 C0.946133726,2.23224604 0.907130434,2.30159912 0.842471282,2.34077581 C0.812684761,2.35836312 0.778567069,2.36770872 0.743765967,2.36781339 Z" id="Path"></path>
                                </g>
                            </g>
                        </g>
                        <path d="M54.3541142,31.9922868 L53.3623485,31.9922868 L53.3623485,21.7221713 L54.3541142,21.7221713 C54.5217324,21.7221713 54.6824853,21.7872417 54.8010092,21.9030676 C54.9195331,22.0188935 54.9861192,22.1759872 54.9861192,22.3397898 L54.9861192,31.3746638 C54.9861192,31.5384672 54.9195349,31.695562 54.8010109,31.8113889 C54.6824868,31.9272159 54.5217332,31.9922868 54.3541142,31.9922868 L54.3541142,31.9922868 Z" id="Path" fill="#03196B"></path>
                        <path d="M0.64470703,31.9922868 L1.63647278,31.9922868 L1.63647278,21.7221713 L0.64470703,21.7221713 C0.295660345,21.7221713 0.0127021003,21.9986885 0.0127021003,22.3397898 L0.0127021003,31.3746638 C0.0127021003,31.5384672 0.0792863402,31.695562 0.197810391,31.8113889 C0.316334442,31.9272159 0.477088084,31.9922868 0.64470703,31.9922868 L0.64470703,31.9922868 Z" id="Path" fill="#03196B"></path>
                    </g>
                </g>
            </g>
        </g>
    </g>
</svg>