<?xml version="1.0" encoding="UTF-8"?>
<svg width="100px" height="100px" viewBox="0 0 100 100" version="1.1" xmlns="http://www.w3.org/2000/svg" xmlns:xlink="http://www.w3.org/1999/xlink">
    <!-- Generator: Sketch 64 (93537) - https://sketch.com -->
    <title>build-nav-icon-ic/fx-mod-active</title>
    <desc>Created with Sketch.</desc>
    <defs>
        <circle id="path-1" cx="50" cy="50" r="50"></circle>
        <filter x="-4.0%" y="-4.0%" width="108.0%" height="110.0%" filterUnits="objectBoundingBox" id="filter-2">
            <feOffset dx="0" dy="2" in="SourceAlpha" result="shadowOffsetOuter1"></feOffset>
            <feGaussianBlur stdDeviation="1" in="shadowOffsetOuter1" result="shadowBlurOuter1"></feGaussianBlur>
            <feColorMatrix values="0 0 0 0 0   0 0 0 0 0   0 0 0 0 0  0 0 0 0.24 0" type="matrix" in="shadowBlurOuter1" result="shadowMatrixOuter1"></feColorMatrix>
            <feOffset dx="0" dy="0" in="SourceAlpha" result="shadowOffsetOuter2"></feOffset>
            <feGaussianBlur stdDeviation="1" in="shadowOffsetOuter2" result="shadowBlurOuter2"></feGaussianBlur>
            <feColorMatrix values="0 0 0 0 0   0 0 0 0 0   0 0 0 0 0  0 0 0 0.12 0" type="matrix" in="shadowBlurOuter2" result="shadowMatrixOuter2"></feColorMatrix>
            <feMerge>
                <feMergeNode in="shadowMatrixOuter1"></feMergeNode>
                <feMergeNode in="shadowMatrixOuter2"></feMergeNode>
            </feMerge>
        </filter>
    </defs>
    <g id="ic/fx-mod-active" stroke="none" stroke-width="1" fill="none" fill-rule="evenodd">
        <g transform="translate(0.000000, 1.000000)">
            <g id="Oval-Copy-7">
                <use fill="black" fill-opacity="1" filter="url(#filter-2)" xlink:href="#path-1"></use>
                <use fill="#EAE5E5" fill-rule="evenodd" xlink:href="#path-1"></use>
            </g>
            <g id="ic-pedal-Artboard-4" transform="translate(23.000000, 9.000000)" fill-rule="nonzero">
                <path d="M7.34880862,0.00725632233 L47.1832835,0.00725632233 C48.7601813,0.00725632233 50.2724935,0.633676529 51.3875286,1.74871165 C52.5025637,2.86374676 53.1289839,4.37605892 53.1289839,5.95295671 L53.1289839,75.0564113 C53.1289839,78.3401309 50.4670032,81.0021117 47.1832835,81.0021117 L7.34881097,81.0021117 C4.06509002,81.0021117 1.40310823,78.3401299 1.40310823,75.0564089 L1.40310823,5.95295671 C1.40310823,2.66923706 4.06508897,0.00725632233 7.34880862,0.00725632233 Z" id="Body" fill="#03196B"></path>
                <g id="Text" transform="translate(5.327904, 1.885984)" fill="#EAE5E5">
                    <g id="Output" transform="translate(1.579511, 29.680669)">
                        <path d="M0.366116588,1.97324582 C0.258445445,1.91304 0.17061545,1.82281 0.113333476,1.71355529 C0.0515146456,1.59342996 0.020653135,1.45977562 0.0235465066,1.32470789 L0.0235465066,0.755598157 C0.020655623,0.620531436 0.0515170053,0.48687846 0.113333476,0.366753108 C0.17062209,0.257502608 0.258450381,0.167273549 0.366116588,0.107060223 C0.602602399,-0.0154188263 0.883840378,-0.0154188263 1.12032619,0.107060223 C1.22798274,0.167286914 1.31580841,0.257512439 1.37311166,0.366753108 C1.43491571,0.486883009 1.46577635,0.620532793 1.46289863,0.755598157 L1.46289863,1.32470789 C1.46577934,1.45977431 1.43491854,1.59342558 1.37311166,1.71355529 C1.31581504,1.82280017 1.22798767,1.91302662 1.12032619,1.97324582 C0.883840378,2.09572487 0.602602399,2.09572487 0.366116588,1.97324582 L0.366116588,1.97324582 Z M0.942824475,1.68799078 C1.00025087,1.65497654 1.04662929,1.60571417 1.07612345,1.54640291 C1.10849116,1.48049121 1.12459591,1.40778377 1.12308916,1.33436884 L1.12308916,0.745918345 C1.12459288,0.672503717 1.10848828,0.599796985 1.07612345,0.533884269 C1.04662323,0.474577235 1.00024628,0.425316443 0.942824475,0.392296399 C0.818014453,0.325994818 0.668428325,0.325994818 0.543618303,0.392296399 C0.486186266,0.425303495 0.43980601,0.474567804 0.410319331,0.533884269 C0.377943262,0.599793047 0.361838053,0.672502544 0.363353622,0.745918345 L0.363353622,1.33436884 C0.361835388,1.4077849 0.377940735,1.48049502 0.410319331,1.54640291 C0.439800048,1.60572353 0.486181764,1.65498939 0.543618303,1.68799078 C0.668427496,1.75429569 0.818015282,1.75429569 0.942824475,1.68799078 L0.942824475,1.68799078 Z" id="Shape"></path>
                        <path d="M2.1383802,1.97739027 C2.03170006,1.92003054 1.94570099,1.83065087 1.89249507,1.72183948 C1.83630847,1.60995192 1.80823403,1.47527225 1.80823403,1.31780047 L1.80823403,0.0359209173 L2.13837312,0.0359209173 L2.13837312,1.3274685 C2.13837312,1.45823003 2.17221553,1.55952779 2.23990034,1.63136177 C2.30758516,1.70319574 2.40312752,1.73910802 2.52652743,1.73909859 C2.65084519,1.73909859 2.7470783,1.70318631 2.81522675,1.63136177 C2.8833752,1.55953722 2.91744864,1.45823946 2.91744706,1.3274685 L2.91744706,0.0359209173 L3.24759323,0.0359209173 L3.24759323,1.31780047 C3.24759323,1.47527068 3.21927597,1.60995035 3.16264145,1.72183948 C3.10903177,1.83059494 3.0228412,1.91992527 2.91607265,1.97739027 C2.80832798,2.03588877 2.67848193,2.06512702 2.5265345,2.06510502 C2.39183829,2.06891041 2.25835154,2.0387452 2.1383802,1.97739027 Z" id="Path"></path>
                        <path d="M3.41335234,0.0359232748 L4.85823039,0.0359232748 L4.85823039,0.352247535 L3.41335234,0.352247535 L3.41335234,0.0359232748 Z M3.9714102,0.2003009 L4.30017017,0.2003009 L4.30017017,2.04438513 L3.9714102,2.04438513 L3.9714102,0.2003009 Z" id="Shape"></path>
                        <path d="M5.10687141,0.0359232748 L5.4370105,0.0359232748 L5.4370105,2.04438513 L5.10687141,2.04438513 L5.10687141,0.0359232748 Z M5.26572546,0.948975139 L5.90804436,0.948975139 C5.95727818,0.950081049 6.00584091,0.937402464 6.04825075,0.912370553 C6.08890292,0.887320338 6.12150567,0.851122145 6.14218217,0.808080369 C6.16552887,0.759417482 6.17712062,0.705951695 6.17602379,0.651989284 C6.17721352,0.597646822 6.16586998,0.543760568 6.14287291,0.494509644 C6.12236236,0.451176048 6.08973678,0.414712602 6.04894149,0.389528718 C6.00640677,0.364119689 5.95757967,0.351194386 5.90804436,0.352231033 L5.26572546,0.352231033 L5.26572546,0.0359067724 L5.89837634,0.0359067724 C6.01089213,0.0335044784 6.12215552,0.0598935129 6.22160802,0.112569653 C6.3131898,0.162265731 6.3884903,0.237327206 6.43847728,0.328750536 C6.54161878,0.531653741 6.54161878,0.771622299 6.43847728,0.974525504 C6.38844019,1.06555983 6.31311855,1.14016176 6.22160802,1.18932255 C6.12201695,1.24155901 6.01080971,1.26769789 5.89837634,1.26529704 L5.26572546,1.26529704 L5.26572546,0.948975139 Z" id="Shape"></path>
                        <path d="M7.14296057,1.97739027 C7.03627995,1.92003118 6.9502807,1.83065133 6.89707544,1.72183948 C6.84089041,1.60995192 6.8128144,1.47527225 6.8128144,1.31780047 L6.8128144,0.0359209173 L7.14295349,0.0359209173 L7.14295349,1.3274685 C7.14295349,1.45823003 7.1767959,1.55952779 7.24448071,1.63136177 C7.31216552,1.70319574 7.40770789,1.73910802 7.5311078,1.73909859 C7.65542556,1.73909859 7.75165867,1.70318631 7.81980712,1.63136177 C7.88795557,1.55953722 7.92202822,1.45823946 7.92202508,1.3274685 L7.92202508,0.0359209173 L8.25216417,0.0359209173 L8.25216417,1.31780047 C8.25216417,1.47527068 8.22384691,1.60995035 8.16721239,1.72183948 C8.11360414,1.83059595 8.02741319,1.91992666 7.92064359,1.97739027 C7.81290049,2.03588877 7.68305522,2.06512702 7.5311078,2.06510502 C7.39641396,2.06890922 7.2629298,2.03874404 7.14296057,1.97739027 L7.14296057,1.97739027 Z" id="Path"></path>
                        <path d="M8.4179327,0.0359232748 L9.86281076,0.0359232748 L9.86281076,0.352247535 L8.4179327,0.352247535 L8.4179327,0.0359232748 Z M8.97599293,0.2003009 L9.30475054,0.2003009 L9.30475054,2.04438513 L8.97599293,2.04438513 L8.97599293,0.2003009 Z" id="Shape"></path>
                    </g>
                    <g id="Input" transform="translate(33.829833, 29.916417)">
                        <polygon id="Path" points="0.349873553 2.02342477 0.0128270467 2.02342477 0.0128270467 0.0149629233 0.349873553 0.0149629233"></polygon>
                        <polygon id="Path" points="0.805713459 0.0149723532 1.16486134 0.0149723532 2.02958487 1.56068688 1.99643163 1.59660073 1.99643163 0.0149676382 2.3169027 0.0149676382 2.3169027 2.02204801 1.95499186 2.02204801 1.09303836 0.499823403 1.1261916 0.463907201 1.1261916 2.02205508 0.805720532 2.02205508"></polygon>
                        <path d="M2.78654093,0.0149723532 L3.11668003,0.0149723532 L3.11668003,2.02342477 L2.78654093,2.02342477 L2.78654093,0.0149723532 Z M2.94539263,0.928024218 L3.58771389,0.928024218 C3.63694801,0.929132768 3.68551145,0.916453996 3.72792027,0.891419631 C3.76857476,0.866372192 3.8011782,0.830173236 3.82185169,0.787129447 C3.84520342,0.738468285 3.85679543,0.685001286 3.85569331,0.631038363 C3.85688279,0.576695924 3.84553926,0.522809728 3.82254243,0.473558723 C3.80203415,0.430223619 3.76940805,0.39375959 3.72861102,0.368577797 C3.68607739,0.343166164 3.63724953,0.33024066 3.58771389,0.331280111 L2.94539263,0.331280111 L2.94539263,0.0149558508 L3.57804586,0.0149558508 C3.69056183,0.0125518825 3.80182564,0.0389410154 3.90127754,0.0916187312 C3.99286361,0.141309068 4.06816555,0.216371987 4.11814681,0.307799614 C4.22128827,0.510701996 4.22128827,0.750669843 4.11814681,0.953572225 C4.06811442,1.0446107 3.99279164,1.11921458 3.90127754,1.16837162 C3.80168684,1.22060882 3.69047921,1.24674699 3.57804586,1.24434376 L2.94539263,1.24434376 L2.94539263,0.928024218 Z" id="Shape"></path>
                        <path d="M4.82263716,1.95643935 C4.71595965,1.89907616 4.62996151,1.80969746 4.57675204,1.70088856 C4.52057644,1.589001 4.49248864,1.45432055 4.49248864,1.29684719 L4.49248864,0.0149676382 L4.82262773,0.0149676382 L4.82262773,1.30651522 C4.82262773,1.43727675 4.85647092,1.5385753 4.92415731,1.61041084 C4.99184369,1.68224639 5.08738606,1.71815867 5.2107844,1.71814766 C5.33510216,1.71814766 5.43133526,1.68223539 5.49948371,1.61041084 C5.56763216,1.5385863 5.60170481,1.43728776 5.60170167,1.30651522 L5.60170167,0.0149676382 L5.93184076,0.0149676382 L5.93184076,1.29684719 C5.93184076,1.45432683 5.9035235,1.58900729 5.84688898,1.70088856 C5.79327957,1.8096442 5.70708892,1.8989746 5.60032019,1.95643935 C5.49257551,2.01493785 5.36273025,2.0441761 5.2107844,2.04415409 C5.07609074,2.04795647 4.94260702,2.0177914 4.82263716,1.95643935 L4.82263716,1.95643935 Z" id="Path"></path>
                        <path d="M6.09762109,0.0149723532 L7.54249679,0.0149723532 L7.54249679,0.331296614 L6.09762109,0.331296614 L6.09762109,0.0149723532 Z M6.65568131,0.179349979 L6.98443892,0.179349979 L6.98443892,2.02342477 L6.65568131,2.02342477 L6.65568131,0.179349979 Z" id="Shape"></path>
                    </g>
                    <g id="Level" transform="translate(3.936991, 18.459066)">
                        <path d="M0.00915645092,0.0111555937 L0.391674025,0.0111555937 L0.391674025,2.04101629 L0.00915645092,2.04101629 L0.00915645092,0.0111555937 Z M0.179474925,1.67245735 L1.36891063,1.67245735 L1.36891063,2.04101629 L0.179474925,2.04101629 L0.179474925,1.67245735 Z" id="Shape"></path>
                        <path d="M1.64811402,0.0111555937 L2.03063866,0.0111555937 L2.03063866,2.04101629 L1.64811402,2.04101629 L1.64811402,0.0111555937 Z M1.78632362,0.0111555937 L3.0078682,0.0111555937 L3.0078682,0.379714531 L1.78632362,0.379714531 L1.78632362,0.0111555937 Z M1.78632362,0.84878697 L2.85430197,0.84878697 L2.85430197,1.21734591 L1.78632362,1.21734591 L1.78632362,0.84878697 Z M1.78632362,1.67245735 L3.0078682,1.67245735 L3.0078682,2.04101629 L1.78632362,2.04101629 L1.78632362,1.67245735 Z" id="Shape"></path>
                        <polygon id="Path" points="3.14747107 0.0111555937 3.54117017 0.0111555937 3.97254886 1.36532726 4.40392992 0.0111555937 4.79761252 0.0111555937 4.12192349 2.04101629 3.82316952 2.04101629"></polygon>
                        <path d="M5.04890099,0.0111555937 L5.43142092,0.0111555937 L5.43142092,2.04101629 L5.04890099,2.04101629 L5.04890099,0.0111555937 Z M5.18711059,0.0111555937 L6.40865517,0.0111555937 L6.40865517,0.379714531 L5.18711059,0.379714531 L5.18711059,0.0111555937 Z M5.18711059,0.84878697 L6.25510073,0.84878697 L6.25510073,1.21734591 L5.18711059,1.21734591 L5.18711059,0.84878697 Z M5.18711059,1.67245735 L6.40865517,1.67245735 L6.40865517,2.04101629 L5.18711059,2.04101629 L5.18711059,1.67245735 Z" id="Shape"></path>
                        <path d="M6.75766824,0.0111555937 L7.14018581,0.0111555937 L7.14018581,2.04101629 L6.75766824,2.04101629 L6.75766824,0.0111555937 Z M6.92798671,1.67245735 L8.11742242,1.67245735 L8.11742242,2.04101629 L6.92798671,2.04101629 L6.92798671,1.67245735 Z" id="Shape"></path>
                    </g>
                    <g id="Dot" transform="translate(1.438063, 0.000000)">
                        <circle id="Oval" transform="translate(12.213893, 17.094365) rotate(-80.782500) translate(-12.213893, -17.094365) " cx="12.213893" cy="17.094365" r="1"></circle>
                        <circle id="Oval" transform="translate(29.379539, 17.125108) rotate(-76.717500) translate(-29.379539, -17.125108) " cx="29.379539" cy="17.125108" r="1"></circle>
                        <circle id="Oval" transform="translate(1.031613, 17.094343) rotate(-76.717500) translate(-1.031613, -17.094343) " cx="1.03161332" cy="17.094343" r="1"></circle>
                        <circle id="Oval" transform="translate(40.561802, 17.125106) rotate(-76.717500) translate(-40.561802, -17.125106) " cx="40.561802" cy="17.1251056" r="1"></circle>
                        <circle id="Oval" transform="translate(34.938348, 1.036929) rotate(-80.782500) translate(-34.938348, -1.036929) " cx="34.9383484" cy="1.03692918" r="1"></circle>
                        <circle id="Oval" transform="translate(6.622742, 1.036919) rotate(-76.717500) translate(-6.622742, -1.036919) " cx="6.62274171" cy="1.03691873" r="1"></circle>
                    </g>
                    <g id="Check" transform="translate(18.529790, 0.306472)">
                        <path d="M0.270336905,1.57378504 C0.186339872,1.52462282 0.118512697,1.4520199 0.0751705958,1.36487698 C0.0273435442,1.26746764 0.0035885931,1.16000403 0.00590077154,1.05151136 L0.00590077154,0.612805615 C0.0035883272,0.504313669 0.0273433018,0.396850766 0.0751705958,0.299442349 C0.118601332,0.212218 0.186394525,0.139459835 0.270336905,0.0899826404 C0.359117128,0.0392374553 0.460022644,0.013582447 0.562258894,0.0157621089 C0.650045869,0.0148724089 0.736766487,0.0350450518 0.815148093,0.0745882983 C0.891991602,0.113697782 0.958205697,0.170857421 1.00811487,0.24116781 C1.0609317,0.315692569 1.09677327,0.400887528 1.11311702,0.490756537 L0.883319331,0.490756537 C0.86982757,0.441761996 0.846023162,0.39621565 0.813500214,0.357167595 C0.782191514,0.318996334 0.742994326,0.288051313 0.698599014,0.266456494 C0.600019594,0.218983831 0.484085322,0.224780945 0.39073339,0.281850836 C0.340825824,0.314279625 0.30116673,0.360229427 0.276381483,0.414341192 C0.248110066,0.476608257 0.234207464,0.544437323 0.235703172,0.612805615 L0.235703172,1.05151136 C0.234319635,1.11969316 0.248219029,1.18731969 0.276381483,1.24942885 C0.300957411,1.30367471 0.340662574,1.34967788 0.39073339,1.3819192 C0.4421924,1.41374184 0.501769575,1.42997289 0.562258894,1.42864916 C0.609495348,1.42873749 0.656192302,1.41861014 0.699148307,1.39896142 C0.743426831,1.37866512 0.782524977,1.34858987 0.813500214,1.31099914 C0.846875862,1.27064453 0.870738804,1.22329412 0.883319331,1.17245949 L1.11311702,1.17245949 C1.09674923,1.26241738 1.06070536,1.34764703 1.00756322,1.42205294 C0.957365868,1.49230876 0.890989778,1.54944479 0.81404715,1.58863009 C0.736033363,1.62809261 0.649691339,1.64826495 0.562268324,1.64745392 C0.460098894,1.64963875 0.359236293,1.62418608 0.270336905,1.57378504 L0.270336905,1.57378504 Z" id="Path"></path>
                        <path d="M1.54457587,0.0322573939 L1.76887591,0.0322573939 L1.76887591,1.63096099 L1.54457587,1.63096099 L1.54457587,0.0322573939 Z M1.6842141,0.737049507 L2.57153879,0.737049507 L2.57153879,0.95035898 L1.68422589,0.95035898 L1.6842141,0.737049507 Z M2.4527784,0.0322573939 L2.6770808,0.0322573939 L2.6770808,1.63096099 L2.4527784,1.63096099 L2.4527784,0.0322573939 Z" id="Shape"></path>
                        <path d="M3.18549957,0.0322573939 L3.40980433,0.0322573939 L3.40980433,1.63096099 L3.18549957,1.63096099 L3.18549957,0.0322573939 Z M3.29435384,0.0322573939 L4.21245542,0.0322573939 L4.21245542,0.245564509 L3.29435384,0.245564509 L3.29435384,0.0322573939 Z M3.29435384,0.730453279 L4.09150729,0.730453279 L4.09150729,0.943760394 L3.29435384,0.943760394 L3.29435384,0.730453279 Z M3.29435384,1.41765859 L4.21245542,1.41765859 L4.21245542,1.63096571 L3.29435384,1.63096571 L3.29435384,1.41765859 Z" id="Shape"></path>
                        <path d="M4.87534333,1.57378504 C4.79134968,1.52461933 4.72352415,1.45201729 4.68017938,1.36487698 C4.63235047,1.26746821 4.60859465,1.16000434 4.6109072,1.05151136 L4.6109072,0.612805615 C4.60859438,0.504313368 4.63235023,0.396850196 4.68017938,0.299442349 C4.72361251,0.212220421 4.79140413,0.139463065 4.87534333,0.0899826404 C4.96412443,0.0392374837 5.06503069,0.0135824927 5.16726768,0.0157621089 C5.25505463,0.0148726843 5.34177518,0.0350453123 5.42015688,0.0745882983 C5.49699995,0.113697469 5.56321335,0.170857203 5.6131213,0.24116781 C5.66593866,0.315692793 5.70178174,0.400887517 5.71812816,0.490756537 L5.48832576,0.490756537 C5.47484168,0.441758971 5.45103646,0.396211069 5.41850664,0.357167595 C5.38719847,0.318995799 5.34800115,0.288050678 5.30360544,0.266456494 C5.20502684,0.21898381 5.08909325,0.224780934 4.99574218,0.281850836 C4.94583754,0.314282982 4.90617927,0.360231834 4.88139027,0.414341192 C4.85311804,0.476608069 4.83921463,0.544437143 4.8407096,0.612805615 L4.8407096,1.05151136 C4.8393268,1.11969334 4.853227,1.18731987 4.88139027,1.24942885 C4.90597007,1.30367223 4.94567437,1.34967442 4.99574218,1.3819192 C5.04720271,1.41373834 5.10677883,1.4299691 5.16726768,1.42864916 C5.21450338,1.42873752 5.26119957,1.41861016 5.30415474,1.39896142 C5.34843624,1.37867006 5.38753542,1.34859402 5.41850664,1.31099914 C5.45188937,1.27064915 5.47575316,1.22329706 5.48832576,1.17245949 L5.71812816,1.17245949 C5.70175722,1.26241644 5.66571364,1.34764542 5.61257437,1.42205294 C5.56237839,1.49231002 5.49600196,1.54944634 5.41905829,1.58863009 C5.34104121,1.62809514 5.25469475,1.64826757 5.16726768,1.64745392 C5.06510068,1.64963712 4.96424078,1.62418452 4.87534333,1.57378504 Z" id="Path"></path>
                        <path d="M6.1495988,0.0322573939 L6.37389884,0.0322573939 L6.37389884,1.63096099 L6.1495988,1.63096099 L6.1495988,0.0322573939 Z M6.325521,0.929466995 L7.03141406,0.0322573939 L7.30739241,0.0322573939 L6.29253515,1.26592649 L6.325521,0.929466995 Z M6.59160502,0.777732533 L6.7686258,0.613901843 L7.37446271,1.63096099 L7.09958058,1.63096099 L6.59160502,0.777732533 Z" id="Shape"></path>
                    </g>
                    <path d="M38.0950652,1.13808037 C38.9035089,1.22981877 39.6954258,1.43268143 40.4484074,1.74092799 C41.2088625,2.05224916 41.9227886,2.46687956 42.5700401,2.97311895 C43.8900288,4.0057035 44.8975903,5.38432284 45.4805844,6.95553858 C45.7754472,7.74879227 45.9587527,8.57914181 46.0252518,9.4228084 C46.0923149,10.2743097 46.0417446,11.1309908 45.8749672,11.9686884 C45.5347646,13.6761159 44.7284144,15.2559946 43.545294,16.5332075 L42.5402486,15.5378937 C43.0873422,15.0269371 43.5612995,14.442919 43.948706,13.8023691 C44.7388905,12.493186 45.1518786,10.9910852 45.1420622,9.46194964 C45.1374263,8.68905115 45.0254648,7.92054184 44.8093864,7.17844771 C44.5911979,6.42852877 44.2702489,5.71242328 43.8556775,5.05052057 C43.0082145,3.70015936 41.803782,2.61049765 40.3755802,1.90204286 C39.654172,1.5436924 38.8867613,1.28661318 38.0950652,1.13808037 Z" id="Path"></path>
                    <g id="Group" transform="translate(19.189884, 13.319760)">
                        <polygon id="Path" points="1.20080111 0.0367389627 1.52956108 0.0367389627 1.52956108 2.04520081 1.23671732 2.04520081 1.23671732 0.549214959 1.25604865 0.637620446 0.877562366 1.74821496 0.659311616 1.74821496 0.280825332 0.66524775 0.302926704 0.549214959 0.302926704 2.04520081 0.00731997428 2.04520081 0.00731997428 0.0367389627 0.340222032 0.0367389627 0.768436991 1.29374711"></polygon>
                        <path d="M2.16221196,1.99133005 C2.07146457,1.94295413 1.99717132,1.86866005 1.9487964,1.77791213 C1.89673566,1.67753721 1.87084192,1.56564943 1.87351264,1.45260823 L1.87351264,0.629331547 C1.87068394,0.516053628 1.89658334,0.403903726 1.9487964,0.303336905 C1.99733509,0.212885524 2.0716037,0.138857289 2.16221196,0.0906120874 C2.36719442,-0.00884511129 2.60645818,-0.00884511129 2.81144063,0.0906120874 C2.90203721,0.138877131 2.9763045,0.212899957 3.02486798,0.303336905 C3.07707479,0.40390594 3.10297305,0.516054414 3.10014938,0.629331547 L3.10014938,1.45260823 C3.10281512,1.56564864 3.07692252,1.67753502 3.02486798,1.77791213 C2.97646771,1.86864528 2.90217592,1.94293378 2.81144063,1.99133005 C2.60645745,2.09078409 2.36719514,2.09078409 2.16221196,1.99133005 L2.16221196,1.99133005 Z M2.64153472,1.71644792 C2.68522295,1.69212625 2.72041406,1.65500751 2.74237355,1.61008551 C2.76645303,1.55919414 2.77827959,1.50337081 2.77690592,1.44708701 L2.77690592,0.633475997 C2.77818073,0.577645528 2.76635373,0.522293267 2.74237355,0.47185898 C2.7204074,0.426941602 2.68521798,0.389824637 2.64153472,0.365496571 C2.54438874,0.315769545 2.4292615,0.315769545 2.33211552,0.365496571 C2.28833743,0.389921692 2.25295169,0.426992667 2.2305883,0.47185898 C2.20615098,0.52215998 2.19407447,0.577567919 2.19536284,0.633475997 L2.19536284,1.4470823 C2.1939736,1.50344345 2.20604965,1.5593229 2.2305883,1.6100808 C2.25294501,1.6549518 2.28833243,1.69202454 2.33211552,1.71644321 C2.4292615,1.76617023 2.54438874,1.76617023 2.64153472,1.71644321 L2.64153472,1.71644792 Z" id="Shape"></path>
                        <path d="M3.416476,0.0367389627 L3.73280261,0.0367389627 L3.73280261,2.04520081 L3.416476,2.04520081 L3.416476,0.0367389627 Z M3.60986241,1.74268903 L3.99940056,1.74268903 C4.09146485,1.74268903 4.16260337,1.71874568 4.21281612,1.67085898 C4.26300371,1.62298328 4.2880983,1.5543767 4.28809987,1.46503922 L4.28809987,0.616900557 C4.28809987,0.527585084 4.26300529,0.458978497 4.21281612,0.411080797 C4.16262695,0.363183098 4.09148843,0.339239749 3.99940056,0.33925075 L3.60986241,0.33925075 L3.60986241,0.0367389627 L4.00216352,0.0367389627 C4.11550639,0.0336362507 4.2280296,0.056806567 4.33092585,0.104436348 C4.41918948,0.146826992 4.49208308,0.215620959 4.53950622,0.301285898 C4.58984032,0.397707496 4.61457338,0.505438212 4.61133626,0.614158808 L4.61133626,1.4678234 C4.61415821,1.57553895 4.58968602,1.68221797 4.54019696,1.77793335 C4.49340323,1.86434335 4.42069749,1.93390945 4.33230733,1.97684569 C4.22862389,2.02511506 4.11510744,2.04852467 4.00078676,2.0452126 L3.60986241,2.0452126 L3.60986241,1.74268903 Z" id="Shape"></path>
                        <path d="M4.92765345,0.0367389627 L5.24397771,0.0367389627 L5.24397771,2.04520081 L4.92765345,2.04520081 L4.92765345,0.0367389627 Z M5.06855294,0.0367389627 L6.02581933,0.0367389627 L6.02581933,0.340632233 L5.06855294,0.340632233 L5.06855294,0.0367389627 Z M5.06855294,0.897310973 L5.91531247,0.897310973 L5.91531247,1.19844128 L5.06855294,1.19844128 L5.06855294,0.897310973 Z M5.06855294,1.74130754 L6.02581933,1.74130754 L6.02581933,2.04520081 L5.06855294,2.04520081 L5.06855294,1.74130754 Z" id="Shape"></path>
                    </g>
                    <path d="M17.5645529,18.4702259 L17.8463566,18.4702259 L17.8463566,20.4786877 L17.5645529,20.4786877 L17.5645529,18.4702259 Z M17.7026871,18.4702259 L18.8284826,18.4702259 L18.8284826,18.7382053 L17.7026871,18.7382053 L17.7026871,18.4702259 Z M17.7026871,19.3653326 L18.6765289,19.3653326 L18.6765289,19.633312 L17.7026871,19.633312 L17.7026871,19.3653326 Z" id="Shape"></path>
                    <path d="M26.2686035,20.4075508 C26.1624205,20.3469884 26.0762411,20.2567276 26.0206532,20.1478579 C25.9601712,20.0273251 25.9300596,19.8938384 25.9329385,19.7590129 L25.9329385,19.1899031 C25.9300624,19.0550771 25.9601738,18.9215903 26.0206532,18.8010557 C26.0762478,18.6921913 26.1624256,18.601933 26.2686035,18.5413652 C26.5002069,18.4188862 26.7773973,18.4188862 27.0090006,18.5413652 C27.115173,18.6019393 27.2013486,18.692196 27.2569486,18.8010557 C27.317429,18.9215899 27.3475405,19.055077 27.3446633,19.1899031 L27.3446633,19.7590129 C27.3475433,19.8938386 27.3174316,20.0273255 27.2569486,20.1478579 C27.201355,20.2567228 27.115178,20.346982 27.0090006,20.4075508 C26.7773973,20.5300298 26.5002069,20.5300298 26.2686035,20.4075508 L26.2686035,20.4075508 Z M26.8577377,20.1658172 C26.9210145,20.1283053 26.9719178,20.0730804 27.0041607,20.0069631 C27.0399548,19.9327254 27.0577031,19.8510812 27.0559593,19.7686832 L27.0559593,19.1802327 C27.0576981,19.0978353 27.0399501,19.0161922 27.0041607,18.9419529 C26.9719124,18.8758393 26.9210104,18.8206158 26.8577377,18.7830988 C26.7213059,18.7085093 26.5562864,18.7085093 26.4198547,18.7830988 C26.3565771,18.820609 26.3056741,18.8758344 26.273434,18.9419529 C26.2376428,19.0161917 26.2198939,19.097835 26.2216331,19.1802327 L26.2216331,19.7686832 C26.2198888,19.8510815 26.237638,19.932726 26.273434,20.0069631 C26.3056681,20.0730857 26.3565725,20.1283126 26.4198547,20.1658172 C26.5562864,20.2404067 26.7213059,20.2404067 26.8577377,20.1658172 L26.8577377,20.1658172 Z" id="Shape"></path>
                    <polygon id="Path" points="22.7923112 16.9542227 23.0561509 16.9542227 23.0561509 18.9626845 22.7812688 18.9626845 22.7812688 17.4584098 22.7950836 17.5468153 22.3005645 18.6836556 22.1044222 18.6836556 21.6099031 17.5744426 21.623718 17.4584098 21.623718 18.9626845 21.3488358 18.9626845 21.3488358 16.9542227 21.6126708 16.9542227 22.2025122 18.280305"></polygon>
                    <g id="Boots" transform="translate(41.986712, 18.341192)">
                        <path d="M0.0131830261,0.011447568 L0.212758026,0.011447568 L0.212758026,1.01117895 L0.0131830261,1.01117895 L0.0131830261,0.011447568 Z M0.131165782,0.881227496 L0.518534654,0.881227496 C0.620114802,0.881227496 0.694180113,0.867704441 0.740730586,0.840658331 C0.788135145,0.812285161 0.813941171,0.770091598 0.810538054,0.726521196 L0.810538054,0.724459568 C0.81168005,0.69440344 0.803109644,0.664554484 0.785465304,0.637136355 C0.768720266,0.612826526 0.740873202,0.593109935 0.706321229,0.581099877 C0.662992205,0.566950753 0.615462304,0.56023299 0.567676805,0.561504205 L0.131140243,0.561504205 L0.131140243,0.434989648 L0.567676805,0.434989648 C0.62813654,0.438118277 0.68804321,0.425095709 0.735312508,0.398548842 C0.813063946,0.334634028 0.810321404,0.240181037 0.728923919,0.178526187 C0.674182233,0.151036448 0.607355233,0.137892424 0.54014859,0.141396471 L0.131140243,0.141396471 L0.131140243,0.011447568 L0.5765464,0.011447568 C0.656521847,0.0096061195 0.735999817,0.0209102253 0.808593383,0.0444514765 C0.868041553,0.0645723042 0.916898283,0.0972953404 0.948208318,0.137962125 C0.9804556,0.182677628 0.99633292,0.232290208 0.994417045,0.282352631 C0.994746334,0.315598559 0.985029797,0.348518176 0.965903725,0.378955721 C0.9465298,0.409294485 0.916620009,0.435765779 0.878893403,0.45596314 C0.836300814,0.478360666 0.786507469,0.493116222 0.733871336,0.498938388 C0.788183128,0.503927816 0.839693997,0.518739782 0.883315431,0.541911085 C0.924880015,0.564279554 0.957964672,0.593436238 0.979669657,0.626825663 C1.00213342,0.66135656 1.01354188,0.698901849 1.01309756,0.736836991 L1.01309756,0.73890117 C1.01457299,0.78890648 0.996922358,0.838279837 0.961970601,0.881916406 C0.927781306,0.923233884 0.876785614,0.95650286 0.815474525,0.977488683 C0.746251523,1.0008284 0.670107842,1.01237012 0.593278593,1.01116874 L0.131176728,1.01116874 L0.131165782,0.881227496 Z" id="Shape"></path>
                        <path d="M1.05266304,0.956769434 C0.97746094,0.927232547 0.916429349,0.883199759 0.877073501,0.830085907 C0.834235302,0.771287728 0.812911772,0.706167201 0.814959576,0.640394447 L0.814959576,0.362766451 C0.812913691,0.29699463 0.834237133,0.231875228 0.877073501,0.173077492 C0.916433305,0.119964931 0.97746384,0.0759320342 1.05266304,0.0463914639 C1.21667623,-0.0133565559 1.41297182,-0.0133565559 1.57698501,0.0463914639 C1.65217029,0.0759443082 1.71319631,0.119973947 1.75257455,0.173077492 C1.79539867,0.231878336 1.8167226,0.296995411 1.81469211,0.362766451 L1.81469211,0.640394447 C1.81672408,0.70616639 1.79540009,0.771284517 1.75257455,0.830085907 C1.71320025,0.883190739 1.65217318,0.927220268 1.57698501,0.956769434 C1.41297182,1.01651745 1.21667623,1.01651745 1.05266304,0.956769434 L1.05266304,0.956769434 Z M1.46987289,0.838845552 C1.51468236,0.820545747 1.55072933,0.793605339 1.57356187,0.761351572 C1.59891156,0.725137027 1.61148147,0.685308975 1.61024723,0.645113103 L1.61024723,0.358047795 C1.61147834,0.317851329 1.5989086,0.278022963 1.57356187,0.241806825 C1.55072503,0.209555732 1.514679,0.182616895 1.46987289,0.164315346 C1.37325717,0.127926515 1.25639451,0.127926515 1.1597788,0.164315346 C1.11496336,0.182608963 1.07891442,0.209549976 1.05608982,0.241806825 C1.03074308,0.278022963 1.01817335,0.317851329 1.01940445,0.358047795 L1.01940445,0.645118104 C1.01817021,0.685313976 1.03074012,0.725142029 1.05608982,0.761356574 C1.07891011,0.793616099 1.11496,0.820558686 1.1597788,0.838850553 C1.25639451,0.875239384 1.37325717,0.875239384 1.46987289,0.838850553 L1.46987289,0.838845552 Z" id="Shape"></path>
                        <path d="M1.86710025,0.956769434 C1.79189743,0.927233243 1.73086563,0.88320027 1.69151086,0.830085907 C1.64867005,0.771288291 1.62734521,0.706167512 1.62939336,0.640394447 L1.62939336,0.362766451 C1.62734728,0.29699433 1.64867203,0.2318747 1.69151086,0.173077492 C1.73086959,0.11996442 1.79190033,0.0759313387 1.86710025,0.0463914639 C2.0311133,-0.0133565559 2.22740871,-0.0133565559 2.39142176,0.0463914639 C2.46660946,0.0759421099 2.52763624,0.119972332 2.56701115,0.173077492 C2.60983912,0.231877287 2.63116207,0.296995242 2.62912502,0.362766451 L2.62912502,0.640394447 C2.63116369,0.706166569 2.60984067,0.771285601 2.56701115,0.830085907 C2.52764019,0.883192354 2.46661236,0.927222467 2.39142176,0.956769434 C2.22740871,1.01651745 2.0311133,1.01651745 1.86710025,0.956769434 L1.86710025,0.956769434 Z M2.2843061,0.838845552 C2.32911715,0.820547126 2.3651646,0.79360634 2.38799499,0.761351572 C2.41334466,0.725137027 2.42591456,0.685308975 2.42468032,0.645113103 L2.42468032,0.358047795 C2.42591142,0.317851329 2.4133417,0.278022963 2.38799499,0.241806825 C2.36516047,0.209554648 2.32911392,0.182615402 2.2843061,0.164315346 C2.18769047,0.127926515 2.07082791,0.127926515 1.97421228,0.164315346 C1.92939865,0.182610459 1.89335028,0.209551061 1.87052339,0.241806825 C1.84517668,0.278022963 1.83260696,0.317851329 1.83383806,0.358047795 L1.83383806,0.645118104 C1.83260382,0.685313976 1.84517372,0.725142029 1.87052339,0.761356574 C1.89334597,0.793615014 1.92939528,0.820557189 1.97421228,0.838850553 C2.07082791,0.875239384 2.18769047,0.875239384 2.2843061,0.838850553 L2.2843061,0.838845552 Z" id="Shape"></path>
                        <path d="M2.36119267,0.0114390244 L3.36119267,0.0114390244 L3.36119267,0.144865768 L2.36119267,0.144865768 L2.36119267,0.0114390244 Z M2.76177788,0.0932831459 L2.96060746,0.0932831459 L2.96060746,1.01143902 L2.76177788,1.01143902 L2.76177788,0.0932831459 Z" id="Shape"></path>
                        <path d="M3.26583776,0.963807317 C3.22724092,0.955480301 3.18979108,0.9422337 3.15434548,0.924370732 C3.1195609,0.906670487 3.0870213,0.884595428 3.05746485,0.858646341 L3.13814488,0.756112195 C3.17229385,0.787044443 3.21172046,0.811114679 3.25440163,0.827087805 C3.2986778,0.843196631 3.34532791,0.851202484 3.39225997,0.850746341 C3.44666604,0.854035735 3.5008025,0.840662317 3.54790313,0.812297561 C3.58368758,0.788761437 3.6047246,0.747357942 3.60317424,0.703517073 L3.60317424,0.702860976 C3.6046745,0.674143361 3.59572094,0.645886274 3.57807887,0.623660976 C3.56050602,0.603602293 3.53816748,0.588648016 3.51328118,0.580282927 C3.47974153,0.569045036 3.44545038,0.560367286 3.41068367,0.554319512 C3.40934945,0.553874694 3.40795512,0.553653205 3.40655336,0.553663415 C3.40515101,0.553679635 3.40375563,0.553457155 3.40242306,0.553004878 L3.39289413,0.551034146 C3.34173938,0.542760456 3.29129146,0.530344256 3.24201543,0.5139 C3.20237698,0.499435581 3.16777678,0.473130842 3.14259344,0.438314634 C3.11242555,0.392484563 3.09789427,0.337553609 3.10129983,0.282217073 L3.10129983,0.281560976 C3.09976736,0.228290194 3.11310888,0.175691443 3.13972675,0.130063415 C3.1667234,0.0870290759 3.20587352,0.0536389609 3.25185555,0.0344317073 C3.33949736,-9.03686972e-05 3.43492523,-0.00762369699 3.52661509,0.0127414634 C3.55918781,0.0204052715 3.59090855,0.03152849 3.62127261,0.0459341463 C3.65354683,0.061309666 3.68429213,0.0799101877 3.71307051,0.101470732 L3.63937805,0.20794878 C3.60721272,0.18292659 3.57182183,0.162683228 3.53423446,0.147807317 C3.5006209,0.134697621 3.46501322,0.127908774 3.42909087,0.127760976 C3.37732245,0.124569731 3.32588929,0.138246612 3.28202422,0.166868293 C3.24745637,0.192134627 3.22770368,0.2338733 3.22961273,0.277617073 L3.22961273,0.278273171 C3.22806825,0.306846085 3.23781391,0.33484153 3.25661294,0.355834146 C3.27544425,0.375204909 3.2985588,0.389530418 3.32395199,0.397568293 C3.36078513,0.409075379 3.39822206,0.418401876 3.4360808,0.425502439 C3.43764995,0.425920113 3.43924063,0.426245834 3.44084526,0.426478049 C3.44232576,0.426702439 3.44391392,0.427027642 3.44560973,0.427453659 C3.44772675,0.427897561 3.45005594,0.428335772 3.4525973,0.428768293 C3.45513866,0.429212195 3.45745607,0.42965122 3.45958487,0.430082927 C3.50746391,0.439470809 3.55436961,0.453556391 3.59966631,0.47214878 C3.63751703,0.488667231 3.67010261,0.515886254 3.69368731,0.550685366 C3.72103618,0.594748763 3.73426293,0.646610521 3.73148714,0.698897561 L3.73148714,0.700212195 C3.73296352,0.753081853 3.71901705,0.805186269 3.69146421,0.849739024 C3.66293659,0.892667802 3.62251864,0.925658732 3.57552572,0.944373171 C3.5170766,0.967513288 3.45480768,0.978566688 3.39224582,0.976907317 C3.34978278,0.977129632 3.30741453,0.972738898 3.26583776,0.963807317 Z" id="Path"></path>
                    </g>
                    <g id="fx" transform="translate(34.937848, 16.879554)">
                        <path d="M1.20487484,2.73774111 C1.20487484,3.41498607 0.820702315,4.07640291 0.43652979,4.07640291 C0.119684526,4.07640291 0.0127586798,3.73182898 0.0127586798,3.44667531 C0.0127586798,3.12587184 0.068197171,2.54763395 0.218693956,1.95354436 C0.127617445,1.97731483 0.068197171,1.99315002 0.068197171,1.99315002 C0.052640181,1.95944656 0.0432519078,1.92322689 0.0404779254,1.88621003 C0.0404779254,1.8149222 0.179097728,1.76739306 0.274153665,1.71986391 C0.44840913,1.12577904 0.701882983,0.452482855 0.713764681,0.210904844 C0.713764681,0.127723532 0.666244964,0.0920878697 0.666244964,0.0564357051 C0.666244964,0.0445563652 0.686047793,0.0207976854 0.697924775,0.0207976854 C0.931600514,0.0207976854 1.18111616,0.167333905 1.18111616,0.361401629 C1.18111616,0.523787184 0.967238534,0.995092156 0.789022503,1.45055722 C0.927642306,1.39510694 1.05437805,1.33174025 1.14151757,1.33174025 C1.21675418,1.33174025 1.24053172,1.38322996 1.24053172,1.46243892 C1.24053172,1.64462495 1.17319031,1.75948135 1.13359173,1.75948135 C1.1018907,1.75948135 1.11775418,1.73176211 1.08209258,1.73176211 C0.990571496,1.74460441 0.900421633,1.76581633 0.812776468,1.79513116 C0.998939563,1.90602229 1.20487484,2.23078633 1.20487484,2.73774111 Z M0.864282683,2.55951565 C0.864282683,2.44465688 0.800901843,1.9971153 0.638525718,1.9971153 C0.53554865,2.42881933 0.40089177,2.99913609 0.40089177,3.41498843 C0.40089177,3.46251757 0.40089177,3.50608851 0.404849979,3.54964531 C0.670205529,3.47835041 0.864282683,2.99517788 0.864282683,2.55951565 Z" id="Shape"></path>
                        <path d="M1.77916395,2.0367186 L1.71578547,1.7357156 C1.7118249,1.74363438 1.58904736,2.0367186 1.53360887,2.13572568 C1.51378718,2.17137548 1.43855058,1.83472267 1.43855058,1.83076211 C1.50982662,1.66838598 1.59300793,1.43074968 1.59300793,1.17726875 C1.59300793,1.03469074 1.54944878,0.888142735 1.54153,0.828734248 C1.54153,0.777256322 1.62072482,0.753485855 1.71975547,0.753485855 C1.78709687,0.753485855 2.0167979,0.769337548 2.0167979,0.892105658 C2.0167979,0.919834333 2.0682994,1.25647771 2.1276961,1.5535225 C2.39701222,1.11786027 2.66632598,0.583183883 2.78910351,0.583183883 C2.87228247,0.583183883 3.01881869,0.66635105 3.01881869,0.709919631 C3.01881869,0.725759537 3.00693935,0.745560009 2.99506001,0.745560009 C2.95942199,0.749518217 2.59504994,1.31191856 2.21879619,1.92184569 C2.2900958,2.21095992 2.32573382,2.36542906 2.40097042,2.36542906 C2.54753022,2.36542906 2.74554436,1.94956965 2.81288577,1.83075268 C2.87624303,1.83075268 2.95546142,1.94956965 2.95546142,2.02878097 C2.93170274,2.14759794 2.39701222,2.89218431 2.19107694,2.89218431 C2.03662195,2.89218431 1.94552186,2.61494471 1.89798093,2.46444321 C1.77153449,2.70598815 1.66555249,2.95770478 1.58114745,3.21695071 C1.579455,3.23524459 1.56387573,3.24909764 1.54550943,3.24865097 C1.44649529,3.24865097 1.34748114,3.05853515 1.34748114,2.94763695 C1.34775494,2.9142937 1.35173925,2.88108453 1.35936048,2.8486228 C1.37912559,2.75357394 1.55340934,2.42089584 1.77916395,2.0367186 Z" id="Path"></path>
                    </g>
                    <g id="effects" transform="translate(0.000000, 33.193313)">
                        <path d="M7.74836605,3.51283798 C7.8238054,3.02246335 8.16328247,2.06061637 8.74793742,1.17420167 C7.03169224,0.759285255 4.164997,3.13564123 4.164997,6.19091835 C4.16213121,6.40703534 4.18749196,6.62260171 4.24043635,6.83215281 C4.76851179,6.56813395 5.37203836,6.37953558 6.10756022,6.32293721 C7.22029061,6.22863802 8.18214231,6.6246946 8.18214231,7.6431258 C8.18214231,7.88830369 7.95582426,8.24665474 7.8238054,8.24665474 C7.78361564,8.24723217 7.74490264,8.23152156 7.71648126,8.20310018 C7.68805988,8.1746788 7.67234927,8.1359658 7.6729267,8.09577604 L7.6729267,8.02033669 C7.6729267,7.69971946 7.14485126,7.64313995 6.84309387,7.64313995 C5.61720446,7.64313995 2.01495671,10.2269518 2.22242199,12.942773 C2.29786134,14.0177955 3.20313352,14.3761372 3.82550814,14.3761372 C5.67377218,14.3761372 8.93654286,10.5287045 9.6532261,8.88790806 C9.97384333,8.88790806 10.3887598,9.51026854 10.3321802,9.81204008 C9.55892692,11.6980238 6.23958144,16.2055249 3.33516181,16.2055249 C1.10970103,16.2055249 0.166687955,14.9230677 0.0346903129,13.3388155 C-0.172767895,10.9813358 1.71321582,8.79359473 2.88252572,7.66198564 C2.54304865,7.32252272 2.03383305,6.7567276 2.03383305,5.90802079 C2.03383305,2.51326189 5.46633755,-0.504323832 9.18173961,0.0803311187 C9.55893635,0.13691063 10.9545643,0.608406558 10.6716667,1.02333476 C9.37033798,2.94705229 8.93654758,3.56941277 8.74794921,4.58784398 C8.72908937,4.73872267 8.65365002,4.77643056 8.57821067,4.75758251 C8.10670767,4.68213845 7.65406687,4.04089927 7.74836605,3.51283798 Z" id="Path"></path>
                        <path d="M14.1416245,13.2068108 C14.1416245,16.4318594 12.3122203,19.5814664 10.4827996,19.5814664 C8.97401264,19.5814664 8.46479704,17.9406464 8.46479704,16.5827263 C8.46479704,15.0550795 8.72883476,12.3015291 9.44550857,9.47255358 C9.01173232,9.5857126 8.72883476,9.66115195 8.72883476,9.66115195 C8.72883476,9.66115195 8.5968159,9.37825439 8.5968159,9.1519222 C8.5968159,8.81245928 9.2569102,8.58612709 9.70954629,8.35980904 C10.5393791,5.5308099 11.7464087,2.32464938 11.8029882,1.17419224 C11.8029882,0.778135662 11.5766702,0.608397128 11.5766702,0.438658594 C11.5766702,0.382079083 11.6709694,0.26892006 11.7275489,0.26892006 C12.8402793,0.26892006 14.0284631,0.966734033 14.0284631,1.89086605 C14.0284631,2.66413823 13.0100319,4.90845178 12.1613393,7.07733305 C12.8214336,6.81329533 13.4249483,6.51153793 13.8398648,6.51153793 C14.1982017,6.51153793 14.3113607,6.75671582 14.3113607,7.13391256 C14.3113607,8.00146507 13.9907435,8.54840034 13.8021451,8.54840034 C13.6512664,8.54840034 13.7267057,8.41636734 13.5569672,8.41636734 C13.4815279,8.41636734 12.651695,8.56724604 12.2744983,8.71814359 C13.1609106,9.24622139 14.1416245,10.7927422 14.1416245,13.2068108 Z M12.5196785,12.3581181 C12.5196785,11.8111828 12.2179211,9.68000707 11.4446678,9.68000707 C10.954312,11.7357293 10.3130776,14.4515459 10.3130776,16.4318594 C10.3130776,16.6581775 10.3130776,16.8656239 10.3319374,17.0730939 C11.5955347,16.7336121 12.5196785,14.4327002 12.5196785,12.3581181 L12.5196785,12.3581181 Z" id="Shape"></path>
                        <path d="M20.0445319,13.2068108 C20.0445319,16.4318594 18.2151277,19.5814664 16.385707,19.5814664 C14.8769201,19.5814664 14.3677045,17.9406464 14.3677045,16.5827263 C14.3677045,15.0550795 14.6317422,12.3015291 15.348416,9.47255358 C14.9146397,9.5857126 14.6317422,9.66115195 14.6317422,9.66115195 C14.6317422,9.66115195 14.4997233,9.37825439 14.4997233,9.1519222 C14.4997233,8.81245928 15.1598176,8.58612709 15.6124537,8.35980904 C16.4422865,5.5308099 17.6493161,2.32464938 17.7058956,1.17419224 C17.7058956,0.778135662 17.4795776,0.608397128 17.4795776,0.438658594 C17.4795776,0.382079083 17.5738768,0.26892006 17.6304563,0.26892006 C18.7431867,0.26892006 19.9313706,0.966734033 19.9313706,1.89086605 C19.9313706,2.66413823 18.9129393,4.90845178 18.0642467,7.07733305 C18.724341,6.81329533 19.3278558,6.51153793 19.7427722,6.51153793 C20.1011091,6.51153793 20.2142681,6.75671582 20.2142681,7.13391256 C20.2142681,8.00146507 19.8936509,8.54840034 19.7050525,8.54840034 C19.5541738,8.54840034 19.6296132,8.41636734 19.4598746,8.41636734 C19.3844353,8.41636734 18.5546024,8.56724604 18.1774057,8.71814359 C19.063818,9.24622139 20.0445319,10.7927422 20.0445319,13.2068108 Z M18.4225859,12.3581181 C18.4225859,11.8111828 18.1208285,9.68000707 17.3475752,9.68000707 C16.8572195,11.7357293 16.215985,14.4515459 16.215985,16.4318594 C16.215985,16.6581775 16.215985,16.8656239 16.2348448,17.0730939 C17.4984421,16.7336121 18.4225859,14.4327002 18.4225859,12.3581181 L18.4225859,12.3581181 Z" id="Shape"></path>
                        <path d="M28.2673832,9.71774089 C28.2673832,10.0006384 27.8524668,10.6984524 27.5318495,11.2453877 C26.5888577,12.8484739 25.0234912,14.4138403 23.4958444,14.4138403 C21.496671,14.4138403 20.7234224,13.1125116 20.7234224,11.0190697 C20.7234224,9.88745585 21.7984473,3.55054351 24.1747938,3.55054351 C25.3252628,3.55054351 27.0980922,4.62556837 27.0980922,5.94574282 C27.0980922,6.92645435 25.608165,9.86858894 24.3822756,9.86858894 C23.8730459,9.86858894 23.4581436,9.60455122 23.175246,9.30279383 C23.1375122,9.47253236 23.1186665,9.69885041 23.1186665,9.94402829 C23.1186665,10.9247398 23.4392838,12.3769473 24.3445559,12.4523866 C25.5327257,12.4523866 27.098111,9.83086927 27.5884621,8.88787741 C27.5884338,8.88790334 28.2673832,9.22736627 28.2673832,9.71774089 Z M23.3260823,8.07692092 C23.4392413,8.30323896 23.6089799,8.51068303 23.8164381,8.52955701 C24.2502143,8.52955701 25.1555054,6.92644728 25.2875054,5.39880519 C25.0800471,5.04046828 24.8537432,4.73871089 24.6651449,4.73871089 C24.4388268,4.73871089 23.6844333,6.26635769 23.3260823,8.07692092 Z" id="Shape"></path>
                        <path d="M34.6983755,9.71774089 C34.6983755,10.0006384 34.2834449,10.6984524 33.9628418,11.2453877 C33.01985,12.8484739 31.4544835,14.4138403 29.9268084,14.4138403 C27.9276657,14.4138403 27.1544123,13.1125116 27.1544123,11.0190697 C27.1544123,9.88745585 28.2294231,3.55054351 30.6057625,3.55054351 C31.3790159,3.55054351 31.8882315,3.87117488 32.2465684,4.30493699 C32.3597462,4.09747878 32.4163069,3.94660009 32.6049053,3.94660009 C33.0198358,3.94660009 33.9628277,4.75757308 33.9628277,5.19134934 C33.9628277,5.73828461 32.4917604,7.52996914 32.4729006,7.94488556 C32.4729006,7.94488556 32.4729006,8.05806344 32.3597415,8.05806344 C32.2465825,8.05806344 31.5110489,7.71858637 31.5110489,6.88873939 C31.5110489,6.586982 31.7185071,5.9268877 31.8128063,5.54969096 C31.5864741,5.13476039 31.3035765,4.73871796 31.0961324,4.73871796 C30.7755152,4.73871796 29.5873455,7.43567467 29.5873455,9.86859366 C29.5873455,11.7357175 30.1342808,12.4524055 30.7755152,12.4524055 C31.9636708,12.4524055 33.5290514,9.83088813 34.0194213,8.88789627 C34.0194261,8.88790334 34.6983755,9.22736627 34.6983755,9.71774089 Z" id="Path"></path>
                        <path d="M38.5267008,1.89087312 C38.5267008,2.06061166 37.9420459,3.79573553 37.8477467,4.1163339 C37.922115,4.13196089 37.9981356,4.13829594 38.0740647,4.13519374 C38.2060836,4.13519374 38.3569623,4.1163339 38.507841,4.1163339 C38.5644063,4.1163339 38.6021402,4.13519374 38.6021402,4.22949293 C38.6021402,4.75756837 38.1872096,5.13476511 37.6780081,5.13476511 C37.6214286,5.13476511 37.5459751,5.13476511 37.4894098,5.11590527 C36.6407171,7.30366524 35.5656922,9.88744406 35.5656922,10.8681792 C35.5656922,11.0944972 35.5656922,11.2642357 35.6977111,11.2642357 C36.1314874,11.2642357 37.810027,8.8501766 37.7534616,8.8501766 C37.9043262,8.8501766 38.4135559,9.37825204 38.4135559,9.75544878 C38.4135559,10.076066 35.5468465,14.3949852 34.4152563,14.3949852 C33.6419841,14.3949852 33.2836425,13.2445186 33.2836425,12.1318048 C33.2836425,10.3023888 34.3963729,7.661988 35.2450656,4.92731162 C34.6981492,4.79529276 34.4718123,5.26678868 34.3398075,5.26678868 C34.2078028,5.26678868 34.1134754,5.09705015 34.1134754,4.87071324 C34.1134754,4.32377797 34.6415508,3.75798285 35.2450656,3.7391348 L35.565697,3.7391348 C35.678856,3.24877904 36.3012306,1.45709451 36.3012306,1.17419696 C36.3012306,0.778140377 36.0748984,0.608401843 36.0748984,0.438663309 C36.0748984,0.382083798 36.1691976,0.268924775 36.2257771,0.268924775 C37.3385216,0.268924775 38.5267008,0.966736391 38.5267008,1.89087312 Z" id="Path"></path>
                        <path d="M43.1095351,10.0760589 C43.1095351,12.339263 42.5248613,14.413845 40.7331768,14.413845 C38.507716,14.413845 37.5835699,10.2646573 37.5835699,9.24622139 C37.5835699,8.4918279 37.9419068,8.15236498 38.1870988,8.15236498 C38.2248185,8.15236498 38.2625381,8.15236498 38.3002578,8.19008465 C39.1678103,7.0962141 40.1862415,5.39882876 40.940635,4.43697707 C41.2612664,3.41854586 41.9025056,3.34310652 42.5060015,3.34310652 C42.8454786,3.34310652 43.260395,3.56942456 43.260395,3.96548114 C43.260395,4.32379919 42.9586376,4.56899593 42.9586376,5.75716567 C42.958647,7.32252743 43.1095351,8.52956172 43.1095351,10.0760589 Z M40.1862368,11.9997765 C40.8274713,11.9997765 40.9972098,9.8308952 40.9972098,8.09577604 C40.9972098,7.28480304 40.9594901,6.58698907 40.9217705,6.22865216 C40.3748352,7.15278418 39.356404,8.79360887 38.8849081,9.52912366 C38.8849081,9.86860544 39.3375441,11.9997765 40.1862368,11.9997765 Z" id="Shape"></path>
                    </g>
                </g>
                <path d="M6.81233605,55 L47.8324181,55 C48.8333424,55 49.6447518,55.8114094 49.6447518,56.8123337 L49.6447518,76.264886 C49.6447518,77.2658102 48.8333424,78.0772197 47.8324181,78.0772197 L6.81233369,78.0772197 C5.81140943,78.0772197 5,77.2658102 5,76.264886 L5,56.812336 C5,55.8114105 5.81141049,55 6.81233605,55 Z" id="Foot" fill="#EAE5E5"></path>
                <g id="Knob" transform="translate(0.000000, 4.337763)">
                    <g id="Group" transform="translate(6.742392, 0.495071)">
                        <rect id="Rectangle" fill="#EAE5E5" x="6.25513845" y="1.41943378" width="1" height="3.34554415"></rect>
                        <circle id="Oval" fill="#EAE5E5" cx="6.64632683" cy="6.65761916" r="6.64586712"></circle>
                        <path d="M3.76888148,2.83942863 C3.55105833,2.83965866 3.3349352,2.80109159 3.13063631,2.72553408 C2.59822758,3.19099806 2.16311908,3.75715067 1.85034805,4.39141406 C2.1663656,4.81015656 2.28844901,5.34395468 2.18586594,5.85843412 C2.08328287,6.37291355 1.76580503,6.81906668 1.31335191,7.0845823 C1.35145073,7.70877873 1.49940136,8.32135488 1.75039799,8.8941318 C1.7548772,8.8940988 1.75935641,8.89396207 1.76383562,8.89396207 C2.31846879,8.89430384 2.84333747,9.1448874 3.19233201,9.57595686 C3.54132655,10.0070263 3.67718333,10.5725546 3.56208337,11.1151134 C4.05699145,11.4659162 4.60822577,11.7295354 5.19196935,11.894581 C5.54334934,11.4665461 6.06897456,11.2197341 6.62275497,11.2227429 C7.17653538,11.2257517 7.69944767,11.4782607 8.04615581,11.9100885 C8.62295237,11.7540291 9.16933542,11.5019102 9.66236605,11.1643163 C9.5303358,10.616518 9.65667988,10.0384243 10.0052023,9.59565218 C10.3537246,9.15288003 10.8859689,8.89428545 11.4494535,8.89395264 C11.4811899,8.89395264 11.5127306,8.89475025 11.5440757,8.89634548 C11.7897515,8.33653313 11.9369854,7.73852571 11.979297,7.12864359 C11.4876375,6.87182859 11.1381974,6.40677501 11.0283477,5.86306912 C10.9184979,5.31936323 11.0599807,4.7551241 11.4133723,4.32757587 C11.0978754,3.70881152 10.6652447,3.15718731 10.139494,2.7033219 C9.65533396,2.90067407 9.11007314,2.88270827 8.63995422,2.65391355 C8.1698353,2.42511882 7.81926632,2.00710743 7.67584291,1.50432662 C6.96733313,1.36635011 6.23830011,1.37238727 5.53217252,1.52207844 C5.30108383,2.30328907 4.58355444,2.83935343 3.76888148,2.83942863 Z" id="Path" fill="#03196B"></path>
                        <circle id="Oval" fill="#EAE5E5" transform="translate(6.646326, 6.657619) rotate(-45.000000) translate(-6.646326, -6.657619) " cx="6.64632603" cy="6.65761878" r="3.57300557"></circle>
                        <path d="M6.92734548,3.09220467 L6.30058358,3.09220467 L6.30058358,1.50009494 C6.39699271,1.49253922 6.49949357,1.48745649 6.60751565,1.48597364 C6.71971753,1.4844342 6.82628976,1.48929061 6.92619739,1.49460201 C6.92664531,2.02792049 6.92689756,2.5588862 6.92734548,3.09220467 Z" id="Path" fill="#EAE5E5"></path>
                    </g>
                    <g id="Group" transform="translate(35.079297, 0.495071)">
                        <rect id="Rectangle" fill="#EAE5E5" x="6.26617617" y="1.41943378" width="1" height="3.34554415"></rect>
                        <circle id="Oval" fill="#EAE5E5" cx="6.65736691" cy="6.65761916" r="6.64586477"></circle>
                        <path d="M3.77992156,2.83942863 C3.56209841,2.83965866 3.34597528,2.80109159 3.14167638,2.72553408 C2.60926766,3.19099806 2.17415916,3.75715067 1.86138813,4.39141406 C2.17740587,4.81015626 2.29948966,5.34395415 2.19690704,5.85843356 C2.09432443,6.37291296 1.77684709,6.81906628 1.32439434,7.0845823 C1.36249204,7.7087789 1.51044272,8.32135524 1.76144042,8.8941318 C1.76591963,8.8940988 1.77039884,8.89396207 1.77487805,8.89396207 C2.32950999,8.89430735 2.85437637,9.14489185 3.20337014,9.57596035 C3.5523639,10.0070288 3.68822207,10.572555 3.5731258,11.1151134 C4.06803333,11.4659157 4.61926678,11.7295349 5.20300943,11.894581 C5.55438987,11.466546 6.08001547,11.219734 6.63379622,11.2227428 C7.18757698,11.2257517 7.71048964,11.4782606 8.05719824,11.9100885 C8.63398844,11.7540303 9.18036575,11.5019146 9.67339198,11.1643258 C9.5413656,10.6165278 9.66771119,10.0384363 10.0162327,9.5956652 C10.3647543,9.15289408 10.8969961,8.89429854 11.4604794,8.89396207 C11.492219,8.89396207 11.5237605,8.89475968 11.5551039,8.89635491 C11.8007835,8.33654028 11.9480191,7.73852937 11.99033,7.12864359 C11.4986702,6.87182879 11.14923,6.40677496 11.0393807,5.8630688 C10.9295313,5.31936264 11.071015,4.75512347 11.4244076,4.32757587 C11.1089085,3.70881437 10.6762771,3.15719275 10.150527,2.70332898 C9.6663667,2.90068196 9.12110524,2.88271657 8.65098574,2.65392178 C8.18086623,2.425127 7.83029688,2.00711511 7.68687355,1.50433369 C6.97836839,1.36635878 6.24934031,1.37239593 5.54321732,1.52208551 C5.3121242,2.30329408 4.59459379,2.83935488 3.77992156,2.83942863 L3.77992156,2.83942863 Z" id="Path" fill="#03196B"></path>
                        <circle id="Oval" fill="#EAE5E5" transform="translate(6.657366, 6.657619) rotate(-45.000000) translate(-6.657366, -6.657619) " cx="6.65736585" cy="6.65761903" r="3.57300557"></circle>
                        <path d="M6.9383832,3.09220467 L6.31162366,3.09220467 L6.31162366,1.50009494 C6.40803043,1.49253922 6.51053365,1.48745649 6.61855336,1.48597364 C6.73075761,1.4844342 6.83732748,1.48929061 6.93723746,1.49460201 C6.93768538,2.02792049 6.93793528,2.5588862 6.9383832,3.09220467 Z" id="Path" fill="#EAE5E5"></path>
                    </g>
                    <g id="Group" transform="translate(21.924561, 17.303901)">
                        <path d="M11.1248285,4.9077021 C11.088506,4.60235799 11.0269507,4.30054765 10.9407943,4.00536734 L10.6923041,4.1099192 L10.1734417,2.87674282 L10.4139824,2.77553386 C10.2632672,2.51543304 10.0918867,2.26786887 9.901497,2.03523339 L9.69131119,2.2454192 L8.7452829,1.29939091 L8.93699078,1.10768538 C8.7369501,0.956632551 8.52699916,0.8191727 8.30855272,0.696232105 L8.20445585,0.946188598 L6.96939113,0.431840763 L7.07219846,0.184986712 C6.80986436,0.111975589 6.54252784,0.0583065731 6.27234098,0.0244117017 L6.27234098,0.353362623 L4.93445478,0.353362623 L4.93445478,0.0160662237 C4.64906021,0.0482050155 4.36657799,0.102363729 4.08953408,0.17805808 L4.1952246,0.431840763 L2.96016459,0.946188598 L2.85078933,0.683565366 C2.60809058,0.818676889 2.37577289,0.971645504 2.15575718,1.14120639 L2.31394406,1.29939327 L1.36792049,2.24542156 L1.20053943,2.07804051 C1.02452362,2.29749085 0.865268781,2.52987366 0.724123446,2.77322117 L0.970190099,2.87675461 L0.451330047,4.10993099 L0.196705744,4.00279769 C0.110155468,4.2987982 0.0483482092,4.60147808 0.0119052722,4.90771389 L0.303287398,4.90771389 L0.303287398,6.24559773 L0.0119052722,6.24559773 C0.0483314708,6.55183435 0.110138732,6.85451503 0.196689241,7.15051629 L0.451313545,7.04338298 L0.970173596,8.27655937 L0.724106944,8.3800928 C0.865251713,8.62344067 1.02450658,8.85582352 1.20052293,9.07527347 L1.36790399,8.90789241 L2.31392756,9.85392306 L2.15574068,10.0121099 C2.37575701,10.1816693 2.60807464,10.334637 2.85077282,10.4697486 L2.96014809,10.2071254 L4.1952081,10.7214732 L4.08951993,10.9752465 C4.36656469,11.0509367 4.64904664,11.1050945 4.93444063,11.137236 L4.93444063,10.7999372 L6.27232683,10.7999372 L6.27232683,11.1288881 C6.5425137,11.0949933 6.80985021,11.0413242 7.07218431,10.9683131 L6.96937698,10.7214591 L8.20444171,10.2071112 L8.30853858,10.4570701 C8.5269845,10.3341286 8.73693538,10.1966688 8.93697664,10.0456168 L8.74526875,9.85391363 L9.69129704,8.90788298 L9.9014805,9.1180688 C10.0918712,8.88543354 10.2632525,8.63786935 10.4139683,8.37776832 L10.1734276,8.27655937 L10.69229,7.04338298 L10.9407801,7.14793721 C11.0269368,6.85275535 11.0884921,6.55094343 11.1248285,6.24559773 L10.7904295,6.24559773 L10.7904295,4.90771389 L11.1248285,4.9077021 Z" id="Path" fill="#EAE5E5"></path>
                        <circle id="Oval" fill="#03196B" cx="5.56836691" cy="5.57664402" r="4.27684526"></circle>
                        <rect id="Rectangle" fill="#EAE5E5" x="5.37737098" y="0.353362623" width="1" height="1.16608015"></rect>
                    </g>
                    <circle id="Oval" fill="#EAE5E5" transform="translate(27.547875, 1.790139) rotate(-22.500000) translate(-27.547875, -1.790139) " cx="27.5478753" cy="1.79013877" r="1.35304715"></circle>
                    <g id="Cursor" transform="translate(2.993999, 26.898843)" fill="#EAE5E5">
                        <g id="Cursor-2">
                            <g id="Cursor_L">
                                <path d="M0.72859087,2.42296807 C0.654093935,2.42215387 0.586206794,2.3800526 0.55236691,2.31368003 L0.0260006429,1.32217831 L0.0257955422,1.32179168 L0.0256870982,1.32158658 L0.025592799,1.32140742 L0.0254537077,1.32114574 L0.0253900557,1.32102079 L0.0252415345,1.32074261 L0.0251873125,1.32063652 L0.0250340763,1.32033948 L0.0249892842,1.32024989 L0.0248384055,1.31996228 L0.0247888984,1.31986091 L0.0246403772,1.3195733 L0.0245908701,1.31947428 L0.0244423489,1.31919138 L0.0243881269,1.3190853 L0.0242348907,1.3187859 L0.0241900986,1.31870339 L0.0240368624,1.31839927 L0.0239991427,1.3183144 L0.0238364766,1.31800086 L0.0238011144,1.31792542 L0.0236431633,1.31760716 L0.0236078011,1.31753879 L0.0234404201,1.31721346 L0.0234121303,1.31714981 L0.0232494642,1.31682447 L0.023218817,1.31676318 L0.0230561509,1.31642606 L0.0230255036,1.3163742 L0.0228581226,1.31603472 L0.0228345478,1.31598521 L0.0226671667,1.31563395 L0.0226459494,1.31559859 L0.0224738534,1.31524261 L0.0224597085,1.3152096 L0.0222805401,1.31484419 L0.0222805401,1.31482297 L0.0220990141,1.31445049 L0.0220990141,1.31443399 C0.00573534966,1.28027241 -0.00178024733,1.24254607 0.000242820403,1.2047216 L0.000242820403,1.20470039 L0.00026168024,1.20433262 L0.00026168024,1.20427132 L0.000280540077,1.20393892 L0.000280540077,1.20383991 L0.000294684955,1.20353579 L0.000294684955,1.20341084 L0.000311187312,1.20313738 L0.000311187312,1.20297471 L0.00032533219,1.20271303 L0.00032533219,1.20255036 L0.000341834548,1.20228868 L0.000355979426,1.2021213 L0.000370124303,1.20186434 L0.000370124303,1.20168988 L0.000386626661,1.20145414 L0.000400771539,1.20126554 L0.000414916417,1.20102979 L0.000431418774,1.20083412 L0.000445563652,1.20061016 L0.00045970853,1.20040034 L0.000473853408,1.20019524 L0.000495070724,1.19995949 L0.000495070724,1.19977561 L0.000513930562,1.19953986 L0.000530432919,1.19935598 L0.000549292756,1.19912023 L0.000563437634,1.19893163 L0.000577582512,1.19869589 L0.000594084869,1.198512 L0.000612944706,1.19827625 L0.000627089584,1.19809709 L0.00065302186,1.19784483 L0.00065302186,1.19767274 L0.000678954136,1.19741106 L0.000693099014,1.19725311 L0.000711958851,1.19697964 L0.000726103729,1.19682405 L0.000752036005,1.19655058 L0.000766180883,1.19639734 L0.000792113159,1.19612152 L0.000792113159,1.19596828 L0.000820402915,1.1956901 L0.000832190313,1.19554393 L0.000860480069,1.19526575 L0.000874624946,1.1951078 L0.000900557222,1.19483669 L0.0009147021,1.19468345 L0.000940634376,1.19440527 L0.000959494213,1.19425439 L0.00098306901,1.19397621 L0.000999571367,1.19383476 L0.00102786112,1.19354008 L0.00104436348,1.19340334 L0.00107265324,1.1931063 L0.00108679811,1.19298371 L0.00111744535,1.1926796 L0.00113159023,1.19255465 L0.00116223746,1.19225054 L0.00117638234,1.19212559 L0.00121174453,1.19182619 L0.00122588941,1.19169417 L0.00125653665,1.19139477 L0.00127068153,1.19126982 L0.00130604372,1.19096571 L0.0013201886,1.19084076 L0.00135319331,1.19053665 L0.00136969567,1.19041406 L0.00140270039,1.19010523 L0.00141920274,1.18998971 L0.00145692242,1.18966438 L0.00145692242,1.18956537 L0.00149464209,1.18924003 L0.00151114445,1.18913631 L0.00154886412,1.18881569 L0.00154886412,1.18870489 L0.0015865838,1.18839134 L0.00160308616,1.18827583 L0.00164080583,1.187967 L0.00165730819,1.18784676 L0.00169502786,1.18753558 L0.00171153022,1.18741535 L0.00175396485,1.1871018 L0.00175396485,1.18699571 L0.00179875697,1.18667038 L0.00181290184,1.18657137 L0.00185769396,1.18622953 L0.00185769396,1.18614702 L0.00190720103,1.18580047 L0.00190720103,1.1857156 L0.0019567081,1.18537141 L0.0019567081,1.18529126 L0.00200621517,1.18494471 L0.00200621517,1.18486219 L0.00205572225,1.18451565 L0.00205572225,1.18443785 L0.00210522932,1.18409601 L0.00212173168,1.18400643 L0.00216888127,1.18365517 L0.00218066867,1.18358208 L0.0022348907,1.1832261 L0.0022348907,1.18315774 L0.00229382769,1.18276875 L0.00229382769,1.18273811 L0.00235276468,1.18234912 L0.00235276468,1.18230904 L0.00241170167,1.18191063 L0.00241170167,1.18188234 L0.0024777111,1.181491 L0.0024777111,1.18145328 L0.00254136305,1.18105015 L0.00254136305,1.18102893 L0.002605015,1.18065174 L0.002605015,1.1805928 L0.00267573939,1.18018495 L0.00267573939,1.18018495 L0.0027441063,1.1797724 L0.0027441063,1.1797724 C0.00297985426,1.17834534 0.00322817545,1.1769222 0.00348906987,1.175503 L0.00348906987,1.17546764 L0.00355743678,1.17507865 L0.00357393913,1.17501736 L0.00363759108,1.1746661 L0.00366588084,1.17451757 L0.00371538791,1.17423939 L0.00375075011,1.17406258 L0.00380025718,1.17382683 L0.00384033433,1.17362409 L0.00387805401,1.17340249 L0.00391813116,1.17319974 L0.00396292327,1.17298285 L0.00400300043,1.17277304 L0.00404779254,1.17255851 L0.00408551222,1.17234398 L0.00412558937,1.17214359 L0.00417509644,1.17190784 L0.0042151736,1.17171925 L0.00425996571,1.1714835 L0.00429768538,1.17129961 L0.00434719246,1.17106387 L0.00438255465,1.17088941 L0.00443677668,1.17062773 L0.00447213888,1.17047685 L0.00452636091,1.17020339 L0.00455465066,1.17005015 L0.00461358766,1.16978375 L0.00464423489,1.16963288 L0.00470317188,1.16936884 L0.00473381912,1.16921324 L0.00479747107,1.16892799 L0.00482104586,1.16879833 L0.00488469781,1.16850364 L0.00491534505,1.1683787 L0.004978997,1.16807458 L0.00500492928,1.16796378 L0.00507329619,1.16765495 L0.00509687098,1.16754415 L0.00516759537,1.16721882 L0.00518645521,1.16713631 L0.00525953708,1.16679919 L0.00528075439,1.16671196 L0.00535855122,1.16637955 L0.00537505358,1.16629704 L0.00545285041,1.16597171 L0.00547171024,1.1658727 L0.00555186455,1.16554265 L0.00556600943,1.16546249 L0.00564616374,1.16511595 L0.00566502357,1.16504758 L0.00574517788,1.16469631 L0.00575932276,1.16463502 L0.00584183455,1.16427668 L0.00585833691,1.16421539 L0.00594556365,1.16384762 L0.00595735105,1.16380519 L0.0060445778,1.1634327 L0.0060445778,1.16339263 L0.00613887698,1.16300836 L0.00613887698,1.16297771 L0.00622846121,1.16259344 L0.00622846121,1.16255808 L0.00632747535,1.16216438 L0.00632747535,1.16216438 L0.00643120446,1.16175418 L0.00643120446,1.16175418 C0.0101726074,1.14670602 0.0154733969,1.13208915 0.0222475354,1.11814081 L0.0222663952,1.11810544 L0.0224384912,1.11775418 L0.0226176597,1.1173817 L0.0226176597,1.1173817 C0.0236376625,1.11529769 0.0246930276,1.11323096 0.0257837548,1.11118153 L0.552150021,0.119686884 C0.576355408,0.0708694597 0.619798732,0.0343386002 0.67204545,0.0188685617 C0.724292168,0.00339852326 0.780621427,0.0103871308 0.827503643,0.038155808 C0.925805939,0.100515455 0.959283047,0.228193218 0.904225461,0.330763823 L0.547915988,1.00193828 L2.7098144,1.00193828 C2.82336614,1.00885771 2.91191426,1.10296588 2.91191426,1.21672825 C2.91191426,1.33049061 2.82336614,1.42459879 2.7098144,1.43151822 L0.548128161,1.43151822 L0.904437634,2.10269267 C0.921656027,2.13517965 0.930625311,2.17140085 0.930556151,2.20816867 C0.931376883,2.28424252 0.892374907,2.35521194 0.827715817,2.39530069 C0.79780703,2.4133705 0.763534435,2.42293654 0.72859087,2.42296807 Z" id="Path"></path>
                            </g>
                            <g id="Cursor_R" transform="translate(46.442349, 0.000000)">
                                <path d="M0.737282898,2.42296807 C0.662786044,2.42215564 0.594898759,2.38005372 0.561061294,2.31368003 L0.0346950279,1.32217831 L0.0344875697,1.32179168 L0.0343791256,1.32158658 L0.0342895414,1.32140742 L0.0341528075,1.32114574 L0.0340820832,1.32102079 L0.0339359194,1.32074261 L0.0338864123,1.32063652 L0.0337284612,1.32033948 L0.0336789541,1.32024989 L0.0335304329,1.31996228 L0.0334809258,1.31986091 L0.0333324046,1.3195733 L0.0332828976,1.31947428 L0.0331343763,1.31919138 L0.0330848693,1.3190853 L0.0329292756,1.3187859 L0.0328891985,1.31870339 L0.0327312473,1.31839927 L0.0326911702,1.3183144 L0.032533219,1.31800086 L0.0324931419,1.31792542 L0.0323351907,1.31760716 L0.0322974711,1.31753879 L0.0321395199,1.31721346 L0.0321088727,1.31714981 L0.0319414916,1.31682447 L0.0319108444,1.31676318 L0.0317434634,1.31642606 L0.0317246035,1.3163742 L0.0315572225,1.31603472 L0.0315265752,1.31598521 L0.0313591942,1.31563395 L0.0313403343,1.31559859 L0.0311611659,1.31524261 L0.0311611659,1.3152096 L0.0309843549,1.31484419 L0.0309725675,1.31482297 L0.0307863266,1.31445049 L0.0307863266,1.31443399 C0.0144208101,1.28027314 0.00690665984,1.24254593 0.00893484784,1.2047216 L0.00893484784,1.20470039 L0.00895606515,1.20433262 L0.00895606515,1.20427132 L0.00897492499,1.20393892 L0.00897492499,1.20383991 L0.00899614231,1.20353579 L0.00899614231,1.20341084 L0.00899614231,1.20313738 L0.00899614231,1.20297471 L0.00901735962,1.20271303 L0.00901735962,1.20255036 L0.00903621946,1.20228868 L0.00903621946,1.2021213 L0.00903621946,1.20186434 L0.00905743678,1.20168988 L0.00905743678,1.20145414 L0.00907629661,1.20126554 L0.00908808401,1.20102979 L0.00910694385,1.20083412 L0.00910694385,1.20061016 L0.00912816117,1.20040034 L0.00912816117,1.20019524 L0.009147021,1.19995949 L0.009147021,1.19977561 L0.00916823832,1.19953986 L0.00916823832,1.19935598 L0.00918709816,1.19912023 L0.00920831547,1.19893163 L0.00922717531,1.19869589 L0.00922717531,1.198512 L0.00924839263,1.19827625 L0.00926725246,1.19809709 L0.0092861123,1.19784483 L0.0092861123,1.19767274 L0.00930732962,1.19741106 L0.00932618946,1.19725311 L0.00934740677,1.19697964 L0.00936626661,1.19682405 L0.00938512645,1.19655058 L0.00938512645,1.19639734 L0.00941577368,1.19612152 L0.00941577368,1.19596828 L0.00944642092,1.1956901 L0.00944642092,1.19554393 L0.00947706815,1.19526575 L0.00947706815,1.1951078 L0.00950535791,1.19483669 L0.00950535791,1.19468345 L0.00953600514,1.19440527 L0.00955486498,1.19425439 L0.00958551222,1.19397621 L0.00958551222,1.19383476 L0.00961615945,1.19354008 L0.00961615945,1.19340334 L0.00965623661,1.1931063 L0.00965623661,1.19298371 L0.00968452636,1.1926796 L0.00969631376,1.19255465 L0.00973403343,1.19225054 L0.00973403343,1.19212559 L0.00976468067,1.19182619 L0.00978354051,1.19169417 L0.00981418774,1.19139477 L0.00983304758,1.19126982 L0.00986369481,1.19096571 L0.00988255465,1.19084076 L0.00991320189,1.19053665 L0.00991320189,1.19041406 L0.00995327904,1.19010523 L0.00995327904,1.18998971 L0.00999335619,1.18966438 L0.010012216,1.18956537 L0.0100522932,1.18924003 L0.0100522932,1.18913631 L0.0100923703,1.18881569 L0.0100923703,1.18870489 L0.0101324475,1.18839134 L0.0101513073,1.18827583 L0.0101913845,1.187967 L0.0101913845,1.18784676 L0.0102314616,1.18753558 L0.0102503215,1.18741535 L0.0102903986,1.1871018 L0.0102903986,1.18699571 L0.0103399057,1.18667038 L0.0103399057,1.18657137 L0.0103894128,1.18622953 L0.0103894128,1.18614702 L0.0104294899,1.18580047 L0.0104483498,1.1857156 L0.0104884269,1.18537141 L0.0105096442,1.18529126 L0.0105473639,1.18494471 L0.0105685812,1.18486219 L0.0106180883,1.18451565 L0.0106180883,1.18443785 L0.0106675954,1.18409601 L0.0106675954,1.18400643 L0.0107171024,1.18365517 L0.0107171024,1.18358208 L0.0107760394,1.1832261 L0.0107760394,1.18315774 L0.0108255465,1.18276875 L0.0108255465,1.18273811 L0.010886841,1.18234912 L0.010886841,1.18230904 L0.010945778,1.18191063 L0.010945778,1.18188234 L0.011004715,1.181491 L0.011004715,1.18145328 L0.011063652,1.18105015 L0.011063652,1.18102893 L0.0111249464,1.18065174 L0.0111249464,1.1805928 L0.0111838834,1.18018495 L0.0111838834,1.18018495 L0.0112428204,1.1797724 L0.0112428204,1.1797724 C0.0114707101,1.17834534 0.0117174596,1.1769222 0.011983069,1.175503 L0.011983069,1.17546764 L0.0120632233,1.17507865 L0.0120632233,1.17501736 L0.0121315902,1.1746661 L0.0121528075,1.17451757 L0.0122117445,1.17423939 L0.0122400343,1.17406258 L0.0122895414,1.17382683 L0.0123296185,1.17362409 L0.0123696957,1.17340249 L0.0124097728,1.17319974 L0.0124474925,1.17298285 L0.0124875697,1.17277304 L0.0125370767,1.17255851 L0.0125771539,1.17234398 L0.0126148736,1.17214359 L0.0126643806,1.17190784 L0.0127044578,1.17171925 L0.0127539649,1.1714835 L0.0127846121,1.17129961 L0.0128341192,1.17106387 L0.0128718388,1.17088941 L0.0129307758,1.17062773 L0.0129614231,1.17047685 L0.0130109301,1.17020339 L0.0130510073,1.17005015 L0.0131005144,1.16978375 L0.013138234,1.16963288 L0.0131877411,1.16936884 L0.0132278183,1.16921324 L0.0132867553,1.16892799 L0.0133174025,1.16879833 L0.0133763395,1.16850364 L0.0134046292,1.1683787 L0.0134753536,1.16807458 L0.0134942135,1.16796378 L0.0135625804,1.16765495 L0.0135837977,1.16754415 L0.0136615945,1.16721882 L0.0136828118,1.16713631 L0.0137511787,1.16679919 L0.0137700386,1.16671196 L0.0138501929,1.16637955 L0.0138690527,1.16629704 L0.0139374196,1.16597171 L0.0139680669,1.1658727 L0.0140364338,1.16554265 L0.0140576511,1.16546249 L0.0141354479,1.16511595 L0.0141543078,1.16504758 L0.0142344621,1.16469631 L0.0142533219,1.16463502 L0.0143334762,1.16427668 L0.014352336,1.16421539 L0.0144419203,1.16384762 L0.0144419203,1.16380519 L0.0145315045,1.1634327 L0.0145315045,1.16339263 L0.0146210887,1.16300836 L0.0146210887,1.16297771 L0.0147083155,1.16259344 L0.0147083155,1.16255808 L0.0148073296,1.16216438 L0.0148073296,1.16216438 L0.0149039863,1.16175418 L0.0149157737,1.16175418 C0.0186504759,1.14670494 0.0239490567,1.13208762 0.0307250321,1.11814081 L0.030743892,1.11810544 L0.0309136305,1.11775418 L0.0310998714,1.1173817 L0.0310998714,1.1173817 C0.0321151593,1.11529769 0.0331713102,1.11323096 0.034268324,1.11118153 L0.560634591,0.119686884 C0.584839977,0.0708694597 0.628283301,0.0343386002 0.680530019,0.0188685617 C0.732776737,0.00339852326 0.789105996,0.0103871308 0.835988213,0.038155808 C0.934288515,0.100516911 0.967765164,0.228192927 0.91271003,0.330763823 L0.55640763,1.00193828 L2.71829426,1.00193828 C2.83186091,1.00883809 2.92043058,1.10295219 2.92043058,1.21672825 C2.92043058,1.33050431 2.83186091,1.4246184 2.71829426,1.43151822 L0.5563982,1.43151822 L0.91271003,2.10269267 C0.929930969,2.13517888 0.938901934,2.17140034 0.938833262,2.20816867 C0.939650657,2.28424288 0.900647365,2.35521144 0.835988213,2.39530069 C0.806201692,2.41329767 0.772084,2.42286096 0.737282898,2.42296807 Z" id="Path"></path>
                            </g>
                        </g>
                    </g>
                    <path d="M53.3558654,22.2281569 L54.3476312,22.2281569 C54.6966778,22.2281569 54.9796361,22.5111151 54.9796361,22.8601618 L54.9796361,32.1054897 C54.9796361,32.4545364 54.6966778,32.7374946 54.3476312,32.7374946 L53.3558654,32.7374946 L53.3558654,22.2281569 L53.3558654,22.2281569 Z" id="Path" fill="#EAE5E5"></path>
                    <path d="M0.00621903129,22.2281592 L0.997984784,22.2281592 C1.34703147,22.2281592 1.62998971,22.5111175 1.62998971,22.8601642 L1.62998971,32.1054921 C1.62998971,32.4545388 1.34703147,32.737497 0.997984784,32.737497 L0.00621903129,32.737497 L0.00621903129,22.2281592 Z" id="Path" fill="#EAE5E5" transform="translate(0.818104, 27.482828) rotate(180.000000) translate(-0.818104, -27.482828) "></path>
                </g>
            </g>
        </g>
    </g>
</svg>