<?xml version="1.0" encoding="UTF-8"?>
<svg width="110px" height="110px" viewBox="0 0 110 110" version="1.1" xmlns="http://www.w3.org/2000/svg" xmlns:xlink="http://www.w3.org/1999/xlink">
    <!-- Generator: Sketch 64 (93537) - https://sketch.com -->
    <title>build-nav-icon-ic/knobs-switches-mod-active</title>
    <desc>Created with Sketch.</desc>
    <defs>
        <circle id="path-1" cx="50" cy="50" r="50"></circle>
        <filter x="-5.0%" y="-5.0%" width="110.0%" height="112.0%" filterUnits="objectBoundingBox" id="filter-2">
            <feMorphology radius="1" operator="dilate" in="SourceAlpha" result="shadowSpreadOuter1"></feMorphology>
            <feOffset dx="0" dy="2" in="shadowSpreadOuter1" result="shadowOffsetOuter1"></feOffset>
            <feGaussianBlur stdDeviation="1" in="shadowOffsetOuter1" result="shadowBlurOuter1"></feGaussianBlur>
            <feComposite in="shadowBlurOuter1" in2="SourceAlpha" operator="out" result="shadowBlurOuter1"></feComposite>
            <feColorMatrix values="0 0 0 0 0   0 0 0 0 0   0 0 0 0 0  0 0 0 0.24 0" type="matrix" in="shadowBlurOuter1" result="shadowMatrixOuter1"></feColorMatrix>
            <feMorphology radius="1" operator="dilate" in="SourceAlpha" result="shadowSpreadOuter2"></feMorphology>
            <feOffset dx="0" dy="0" in="shadowSpreadOuter2" result="shadowOffsetOuter2"></feOffset>
            <feGaussianBlur stdDeviation="1" in="shadowOffsetOuter2" result="shadowBlurOuter2"></feGaussianBlur>
            <feComposite in="shadowBlurOuter2" in2="SourceAlpha" operator="out" result="shadowBlurOuter2"></feComposite>
            <feColorMatrix values="0 0 0 0 0   0 0 0 0 0   0 0 0 0 0  0 0 0 0.12 0" type="matrix" in="shadowBlurOuter2" result="shadowMatrixOuter2"></feColorMatrix>
            <feMerge>
                <feMergeNode in="shadowMatrixOuter1"></feMergeNode>
                <feMergeNode in="shadowMatrixOuter2"></feMergeNode>
            </feMerge>
        </filter>
        <ellipse id="path-3" cx="7.39697629" cy="7.38930844" rx="6.9198289" ry="6.89804254"></ellipse>
        <path d="M10.8581322,0.593748535 C10.8433152,0.769330556 10.6914696,0.900570913 10.5168289,0.888737401 L0.434132947,0.888737401 C0.259482992,0.900598921 0.107620523,0.769344003 0.0928296402,0.593748535 L0.0928296402,0.5593527 C0.107646457,0.383777623 0.259501097,0.252552144 0.434132947,0.264414791 L10.5168289,0.264414791 C10.6914607,0.252552144 10.8433154,0.383777623 10.8581322,0.5593527 L10.8581322,0.593748535 Z" id="path-5"></path>
        <path d="M10.8581322,0.723586439 C10.8433152,0.89916846 10.6914696,1.03040882 10.5168289,1.01857531 L0.434132947,1.01857531 C0.259482992,1.03043683 0.107620523,0.899181907 0.0928296402,0.723586439 L0.0928296402,0.689190605 C0.107646457,0.513615528 0.259501097,0.382390049 0.434132947,0.394252696 L10.5168289,0.394252696 C10.6914607,0.382390049 10.8433154,0.513615528 10.8581322,0.689190605 L10.8581322,0.723586439 Z" id="path-7"></path>
        <path d="M10.8581322,0.533517607 C10.8433152,0.709099628 10.6914696,0.840339986 10.5168289,0.828506473 L0.434132947,0.828506473 C0.259482992,0.840367993 0.107620523,0.709113075 0.0928296402,0.533517607 L0.0928296402,0.499376557 C0.107620523,0.323781089 0.259482992,0.19252617 0.434132947,0.204387691 L10.5168289,0.204387691 C10.6914696,0.192554178 10.8433152,0.323794536 10.8581322,0.499376557 L10.8581322,0.533517607 Z" id="path-9"></path>
        <path d="M10.8581322,0.783817367 C10.8433154,0.959392444 10.6914607,1.09061792 10.5168289,1.07875528 L0.434132947,1.07875528 C0.259501097,1.09061792 0.107646457,0.959392444 0.0928296402,0.783817367 L0.0928296402,0.749421533 C0.107620523,0.573826065 0.259482992,0.442571146 0.434132947,0.454432667 L10.5168289,0.454432667 C10.6914696,0.442599154 10.8433152,0.573839512 10.8581322,0.749421533 L10.8581322,0.783817367 Z" id="path-11"></path>
        <path d="M10.8581322,0.464165414 C10.8432893,0.639727044 10.6914515,0.77093797 10.5168289,0.759103323 L0.434132947,0.759103323 C0.259501097,0.77096597 0.107646457,0.639740491 0.0928296402,0.464165414 L0.0928296402,0.429718623 C0.107646457,0.254143546 0.259501097,0.122918066 0.434132947,0.134780714 L10.5168289,0.134780714 C10.6914607,0.122918066 10.8433154,0.254143546 10.8581322,0.429718623 L10.8581322,0.464165414 Z" id="path-13"></path>
        <path d="M10.8581322,0.654183289 C10.8433152,0.82976531 10.6914696,0.961005668 10.5168289,0.949172155 L0.434132947,0.949172155 C0.259482992,0.961033676 0.107620523,0.829778757 0.0928296402,0.654183289 L0.0928296402,0.619787455 C0.107646457,0.444212378 0.259501097,0.312986899 0.434132947,0.324849546 L10.5168289,0.324849546 C10.6914515,0.313014899 10.8432893,0.444225825 10.8581322,0.619787455 L10.8581322,0.654183289 Z" id="path-15"></path>
        <path d="M10.8581322,0.334531336 C10.8432893,0.510092967 10.6914515,0.641303892 10.5168289,0.629469245 L0.434132947,0.629469245 C0.259501097,0.641331893 0.107646457,0.510106413 0.0928296402,0.334531336 L0.0928296402,0.300084545 C0.107646457,0.124509468 0.259501097,-0.00671601137 0.434132947,0.00514663594 L10.5168289,0.00514663594 C10.6914515,-0.00668801079 10.8432893,0.124522915 10.8581322,0.300084545 L10.8581322,0.334531336 Z" id="path-17"></path>
        <path d="M10.8581322,0.524854952 C10.8432893,0.700416583 10.6914515,0.831627508 10.5168289,0.819792862 L0.434132947,0.819792862 C0.259501097,0.831655509 0.107646457,0.700430029 0.0928296402,0.524854952 L0.0928296402,0.490408161 C0.107646457,0.314833085 0.259501097,0.183607605 0.434132947,0.195470252 L10.5168289,0.195470252 C10.6914515,0.183635605 10.8432893,0.314846531 10.8581322,0.490408161 L10.8581322,0.524854952 Z" id="path-19"></path>
        <ellipse id="path-21" cx="4.84311799" cy="4.6281059" rx="4.60671617" ry="4.62288009"></ellipse>
    </defs>
    <g id="ic/knobs-switches-mod-active" stroke="none" stroke-width="1" fill="none" fill-rule="evenodd">
        <g transform="translate(5.000000, 5.000000)" id="Oval-Copy-6" opacity="0.46">
            <g>
                <use fill="black" fill-opacity="1" filter="url(#filter-2)" xlink:href="#path-1"></use>
                <use stroke="#FFFFFF" stroke-width="2" fill-opacity="0.5" fill="#EAE5E5" fill-rule="evenodd" xlink:href="#path-1"></use>
            </g>
        </g>
        <g id="knobsnButtons" transform="translate(26.000000, 17.000000)">
            <g id="knob" transform="translate(36.000000, 0.000000)">
                <g id="Group" transform="translate(4.056945, 2.490196)">
                    <g id="Clipped" transform="translate(0.000000, 1.494118)">
                        <g transform="translate(2.028472, 1.992157)">
                            <mask id="mask-4" fill="white">
                                <use xlink:href="#path-3"></use>
                            </mask>
                            <g id="Oval"></g>
                        </g>
                        <ellipse id="Oval" fill="#03196B" fill-rule="nonzero" cx="7.14007028" cy="7.06020411" rx="6.9198289" ry="6.89804254"></ellipse>
                    </g>
                    <path d="M7.14001957,15.0577181 C3.48281881,15.0577181 0.51807182,12.1460484 0.51807182,8.5543218 C0.51807182,4.96259523 3.48281881,2.05092555 7.14001957,2.05092555 C10.7972203,2.05092555 13.7619673,4.96259523 13.7619673,8.5543218 C13.757887,12.1443872 10.7955289,15.0537108 7.14001957,15.0577181 L7.14001957,15.0577181 Z M7.14001957,2.2458083 C4.54192618,2.2458083 2.19965875,3.78284579 1.20541619,6.14020045 C0.211173629,8.49755511 0.760755722,11.2109846 2.59789243,13.0152171 C4.43502913,14.8194497 7.19792649,15.3591713 9.59824591,14.3827098 C11.9985653,13.4062484 13.5635827,11.105902 13.5635827,8.5543218 C13.5595863,5.07183361 10.6859906,2.24970573 7.14001957,2.2458083 Z" id="Shape" fill="#FFFFFF" fill-rule="nonzero"></path>
                    <path d="M7.11968413,9.62734732 C6.16031073,9.62619472 5.38288542,8.86266522 5.3817398,7.92046727 L5.3817398,2.28191614 L5.55258788,2.24491183 L5.55258788,7.92046727 C5.55258784,8.47027804 5.85125536,8.97832415 6.33608527,9.25322954 C6.82091517,9.52813493 7.41825025,9.52813493 7.90308015,9.25322954 C8.38791006,8.97832415 8.68657758,8.47027804 8.68657754,7.92046727 L8.68657754,2.2344032 L8.85737491,2.27140751 L8.85737491,7.92046727 C8.85639687,8.8626363 8.07902793,9.62622183 7.11968413,9.62734732 L7.11968413,9.62734732 Z" id="Path" fill="#FFFFFF" fill-rule="nonzero"></path>
                    <g transform="translate(5.578299, 0.000000)" fill-rule="nonzero" id="Path">
                        <path d="M1.56177152,0.394994913 C0.850049693,0.374548089 0.255839624,0.923872314 0.233629295,1.62281102 L0.233629295,6.96149274 C0.275957134,7.65139177 0.85799676,8.18960492 1.56174616,8.18960492 C2.26549556,8.18960492 2.84753519,7.65139177 2.88986303,6.96149274 L2.88986303,1.62281102 C2.8677076,0.923867951 2.27349526,0.374520644 1.56177152,0.394994913 Z" fill="#252965"></path>
                        <path d="M1.56177152,0.394994913 C0.850049693,0.374548089 0.255839624,0.923872314 0.233629295,1.62281102 L0.233629295,7.89486806 C0.275957134,8.58476709 0.85799676,9.12298023 1.56174616,9.12298023 C2.26549556,9.12298023 2.84753519,8.58476709 2.88986303,7.89486806 L2.88986303,1.62281102 C2.8677076,0.923867951 2.27349526,0.374520644 1.56177152,0.394994913 Z" fill="#03196B"></path>
                        <path d="M1.56177152,1.32837023 C0.850049693,1.30792341 0.255839624,1.85724763 0.233629295,2.55618634 L0.233629295,7.89486806 C0.275957134,8.58476709 0.85799676,9.12298023 1.56174616,9.12298023 C2.26549556,9.12298023 2.84753519,8.58476709 2.88986303,7.89486806 L2.88986303,2.55618634 C2.8677076,1.85724327 2.27349526,1.30789596 1.56177152,1.32837023 L1.56177152,1.32837023 Z" fill="#03196B"></path>
                    </g>
                </g>
                <path d="M20.7506121,16.339173 C23.3579477,11.7992035 22.2899897,6.07797478 18.2124044,2.74157172 C14.1348192,-0.594831351 8.21221513,-0.593491021 4.13619598,2.74475727 C0.0601768243,6.08300556 -1.00509627,11.8047171 1.60436944,16.3435059 L1.60436944,16.3435059 L1.60736143,16.3484863 C1.62505985,16.3791157 1.64012126,16.4109902 1.65807324,16.4414702 L1.6613188,16.4396275 L1.72546923,16.5481503 L3.70759092,15.4160573 L3.58649112,15.2113134 L1.81304852,16.2241259 C0.925645487,14.6782556 0.449684737,12.9375018 0.429224734,11.1630015 L2.48203868,11.1630015 L2.48203868,10.9260842 L0.428210498,10.9260842 C0.446264641,9.15329217 0.921598934,7.4139238 1.80980297,5.870488 L3.58659255,6.87757313 L3.70718522,6.67233116 L1.93029422,5.66509662 C2.85295984,4.14237667 4.14836285,2.87016501 5.69884073,1.9640177 L6.72479129,3.70904755 L6.9335718,3.59056402 L5.90782408,1.8458828 C7.47941311,0.973528259 9.25053087,0.506684743 11.055681,0.488974915 L11.055681,2.50603379 L11.2969171,2.50603379 L11.2969171,0.488974915 C13.1020673,0.506684743 14.873185,0.973528259 16.444774,1.8458828 L15.419077,3.59051421 L15.6278068,3.70899775 L16.6537574,1.9639679 C18.2042353,2.87011521 19.4996383,4.14232686 20.4223039,5.66504682 L18.6456157,6.67243077 L18.7662591,6.87767274 L20.5426937,5.8704382 C21.4308969,7.4138768 21.9062474,9.15324068 21.9243369,10.9260344 L19.8705087,10.9260344 L19.8705087,11.1629517 L21.9231198,11.1629517 C21.9028156,12.9361303 21.4276972,14.6756711 20.5416795,16.2207891 L18.8659078,15.27058 L18.7453152,15.475822 L20.6308309,16.5449628 L20.6922936,16.4403746 L20.694677,16.4417691 C20.7091806,16.4172157 20.7213007,16.3914671 20.7355507,16.3668142 L20.7514742,16.3397208 L20.7506121,16.339173 Z" id="Path" stroke="#03196B" stroke-width="0.5" fill="#03196B" fill-rule="nonzero"></path>
            </g>
            <g id="level">
                <g id="Group" transform="translate(23.789493, 0.000000)" fill-rule="nonzero">
                    <path d="M1.28518942,0.320161521 C0.733984291,0.320161521 0.287144247,0.770010589 0.287144247,1.32492754 L0.287144247,74.565124 C0.287144247,75.1200409 0.733984291,75.56989 1.28518942,75.56989 C1.83639455,75.56989 2.28323459,75.1200409 2.28323459,74.565124 L2.28323459,1.32492754 C2.28323459,1.05844702 2.17808371,0.802880853 1.99091393,0.614450673 C1.80374415,0.426020494 1.54988746,0.320161521 1.28518942,0.320161521 L1.28518942,0.320161521 Z" id="Path" fill="#03196B"></path>
                    <path d="M1.28518942,75.6304776 C0.701051961,75.6304776 0.227681941,75.153246 0.227012506,74.5651749 L0.227012506,1.32482562 C0.231034729,0.739336378 0.703627889,0.26683991 1.28521473,0.26683991 C1.86680156,0.26683991 2.33939472,0.739336378 2.34341695,1.32482562 L2.34341695,74.5650221 C2.34285897,75.1531843 1.8694174,75.6304776 1.28518942,75.6304776 L1.28518942,75.6304776 Z M1.28518942,0.380698189 C0.767512639,0.380698189 0.348013553,0.803662771 0.347427836,1.32482562 L0.347427836,74.5650221 C0.344954333,74.9039697 0.523152569,75.2182412 0.81432114,75.388438 C1.10548971,75.5586347 1.46493974,75.5586347 1.75610831,75.388438 C2.04727689,75.2182412 2.22547512,74.9039697 2.22300162,74.5650221 L2.22300162,1.32482562 C2.22241585,0.803642903 1.80288597,0.380698189 1.28518942,0.380698189 L1.28518942,0.380698189 Z" id="Shape" fill="#252965"></path>
                </g>
                <g id="Group" transform="translate(0.000000, 4.586111)" fill="#252965" fill-rule="nonzero">
                    <g>
                        <polygon id="Path" points="1.14204753 1.48788736 0.712672483 1.48788736 0.712672483 1.92020477 0.4292232 1.92020477 0.4292232 1.48788736 0 1.48788736 0 1.20665682 0.429425664 1.20665682 0.429425664 0.774186533 0.712874947 0.774186533 0.712874947 1.20650395 1.14224999 1.20650395"></polygon>
                        <path d="M2.20908223,2.17682318 L1.90255208,2.17682318 L1.90255208,0.954267835 C1.78067382,0.991585488 1.65347584,1.00822087 1.52617193,1.0034921 L1.52617193,0.744529681 C1.77793563,0.744529681 1.92193799,0.649036653 1.958179,0.458050599 L2.20908223,0.458050599 L2.20908223,2.17682318 Z" id="Path"></path>
                        <path d="M3.82828626,2.17682318 L2.68507457,2.17682318 C2.67946455,2.04973761 2.71141747,1.92383165 2.77689189,1.81502996 C2.81731798,1.75725641 2.86230977,1.70286179 2.91142906,1.65237588 C2.97684413,1.58465558 3.04639043,1.52110803 3.11966306,1.46210322 C3.19295494,1.4024498 3.25480762,1.34909804 3.3052211,1.30204794 C3.34961526,1.26182779 3.39027617,1.2176183 3.42669937,1.16996793 C3.45485472,1.13314359 3.47706143,1.09207689 3.49250009,1.04828311 C3.50615459,1.00666558 3.5129927,0.963088845 3.51274647,0.919260519 C3.51656658,0.856703105 3.49482499,0.795291532 3.45256412,0.749268662 C3.40512751,0.706259526 3.342386,0.684469318 3.27869835,0.688884864 C3.24796002,0.688770377 3.21754075,0.695159082 3.18941183,0.707636964 C3.16028717,0.720652799 3.13436577,0.739963801 3.11348791,0.764199002 C3.09013912,0.791968969 3.07159164,0.823491529 3.05862023,0.857449931 C3.04290861,0.89893701 3.03373758,0.942642317 3.03143947,0.986982095 L2.71868355,0.986982095 C2.72439132,0.907918411 2.74273052,0.830299354 2.77299446,0.757116008 C2.8001221,0.691334382 2.83993077,0.631617612 2.89011975,0.581416991 C2.93952169,0.532670969 2.99824162,0.494532034 3.06272012,0.46931205 C3.13284372,0.442140571 3.20746296,0.428651865 3.28259578,0.429565752 C3.3611713,0.428283667 3.43935057,0.441033235 3.51350571,0.467222821 C3.57667352,0.489836974 3.63454569,0.525290168 3.68352467,0.571378503 C3.72899795,0.615459029 3.76470324,0.668717753 3.78829967,0.727662983 C3.81285342,0.789856003 3.82516212,0.856261743 3.82454068,0.923184192 C3.82517881,0.983980375 3.81643621,1.04450767 3.79862532,1.10260305 C3.78092453,1.15841607 3.75474998,1.21113488 3.72103108,1.25888753 C3.675999,1.31849166 3.62718788,1.37510372 3.57490285,1.42836982 C3.49955569,1.50589674 3.42014397,1.57931142 3.33700792,1.64829933 C3.30937161,1.67173946 3.27394045,1.70323076 3.23071444,1.74277323 C3.18358541,1.78696601 3.14117493,1.83599818 3.10417458,1.88907017 L3.82828626,1.88907017 L3.82828626,2.17682318 Z" id="Path"></path>
                        <path d="M4.90352075,2.10578941 C4.86012142,2.13797473 4.81240396,2.16379558 4.76179611,2.18247938 C4.71132677,2.20066062 4.65808405,2.20980112 4.60448176,2.20948648 C4.52016659,2.21114791 4.43653918,2.19391644 4.35965244,2.15903926 C4.28978327,2.12637051 4.22861568,2.07747018 4.18118062,2.01636024 C4.13082924,1.95004822 4.09370299,1.87455164 4.07185018,1.79403576 C4.04597488,1.70042403 4.03338176,1.60359832 4.034445,1.50643563 C4.03293894,1.40445568 4.04794922,1.30291009 4.0788858,1.20579056 C4.10519186,1.12334998 4.14684806,1.04670524 4.20162946,0.979950057 C4.30404188,0.856538511 4.4560404,0.785881284 4.61576911,0.787435299 C4.6671226,0.78715745 4.71830757,0.793371823 4.7681231,0.805932614 C4.81538979,0.817981405 4.86091495,0.836118851 4.90357136,0.859895857 L4.90357136,0.301817076 L5.23373916,0.301817076 L5.23373916,2.177027 L4.90357136,2.177027 L4.90352075,2.10578941 Z M4.90352075,1.19243988 C4.83143804,1.11778662 4.73321978,1.0744639 4.62984034,1.07172 C4.55334462,1.07129914 4.48261419,1.11259592 4.44499092,1.17964972 C4.39227883,1.27999393 4.36833895,1.39312435 4.37584954,1.50638467 C4.36899479,1.61430401 4.39142524,1.72206814 4.44073918,1.81813832 C4.47718074,1.88383288 4.54660922,1.92397216 4.62133686,1.92254879 C4.73816081,1.9120883 4.84300464,1.84610781 4.90352075,1.74496437 L4.90352075,1.19243988 Z" id="Shape"></path>
                        <path d="M7.07782983,1.60722816 C7.08866786,1.76951144 7.02243289,1.92735655 6.8993074,2.03266641 C6.74249644,2.13989449 6.55432082,2.19068907 6.36525858,2.17682318 L5.64990345,2.17682318 L5.64990345,0.301613249 L6.33139651,0.301613249 C6.42309157,0.300567405 6.51449057,0.312279274 6.60300166,0.336416738 C6.67795968,0.356475541 6.74854411,0.390432835 6.81113442,0.436546833 C6.86717702,0.47850472 6.91280934,0.532955532 6.94445682,0.595633936 C7.00623042,0.728113979 7.0075243,0.881132062 6.94799993,1.01465163 C6.915869,1.07687027 6.86942888,1.13045434 6.81255167,1.17093611 C6.85532568,1.19110387 6.894816,1.21768249 6.92967696,1.24976627 C6.96201656,1.27986291 6.9898118,1.31455768 7.01218095,1.35274994 C7.03430267,1.39065433 7.05093746,1.4315433 7.06158211,1.47417998 C7.07247032,1.51767706 7.07792833,1.56237127 7.07782983,1.60722816 Z M5.99702759,1.04043577 L6.32997927,1.04043577 C6.41263811,1.04620404 6.495301,1.02926072 6.5691396,0.991415336 C6.62244952,0.954843328 6.65189457,0.892065782 6.64607583,0.827385424 C6.64672937,0.796619624 6.64070057,0.766081341 6.62841087,0.737905298 C6.61579429,0.711352873 6.59569033,0.689128587 6.57060746,0.674005481 C6.53845197,0.654976715 6.50303005,0.642202564 6.46618677,0.636348412 C6.41374486,0.627523696 6.36061884,0.623481715 6.30745517,0.624271653 L5.99702759,0.624271653 L5.99702759,1.04043577 Z M5.99702759,1.8543686 L6.36414503,1.8543686 C6.60210745,1.8543686 6.72108866,1.77198845 6.72108866,1.60722816 C6.72191345,1.56945642 6.71569848,1.53186369 6.70276569,1.49639714 C6.69006339,1.46459658 6.66786743,1.4375506 6.63924268,1.41899377 C6.60261801,1.39607797 6.56187583,1.38063401 6.51933351,1.37354032 C6.45738298,1.36259571 6.39453817,1.35761344 6.33164959,1.35866093 L5.99728067,1.35866093 L5.99702759,1.8543686 Z" id="Shape"></path>
                    </g>
                    <g transform="translate(1.012319, 16.815741)">
                        <polygon id="Path" points="1.45672685 1.38057235 1.0273518 1.38057235 1.0273518 1.81288977 0.74390252 1.81288977 0.74390252 1.38057235 0.314729936 1.38057235 0.314729936 1.09934182 0.744104984 1.09934182 0.744104984 0.667177271 1.02755427 0.667177271 1.02755427 1.09949469 1.45692931 1.09949469"></polygon>
                        <path d="M2.27543974,0.581518905 C2.24045878,0.581403215 2.20632454,0.592346969 2.1778522,0.612806375 C2.14544743,0.636391238 2.11832264,0.666563098 2.09823332,0.701369278 C2.07247656,0.745116127 2.05208147,0.791844517 2.03749419,0.840532276 C2.01911139,0.900383646 2.00611814,0.961779599 1.99867176,1.02397673 C2.042256,0.992491444 2.0893652,0.966272649 2.13902977,0.945859964 C2.18807508,0.925706158 2.24058751,0.915489661 2.29356024,0.915795457 C2.36773646,0.914664109 2.44117939,0.930703367 2.50822246,0.962675705 C2.57118828,0.993305836 2.62698107,1.03703876 2.67191442,1.09098491 C2.71797443,1.14675119 2.75326982,1.21069689 2.7759808,1.27952503 C2.80044213,1.35323847 2.8126861,1.43050235 2.81222182,1.50821911 C2.81264952,1.58634757 2.79951106,1.66395018 2.77339939,1.73752468 C2.74914861,1.80674076 2.71181569,1.87057527 2.66346156,1.92550428 C2.56319356,2.03825124 2.41926214,2.1016476 2.26896089,2.09926694 C2.18195016,2.10094334 2.09584029,2.08128644 2.01805766,2.04199151 C1.94400739,2.00314137 1.88051407,1.94665518 1.83310701,1.87745203 C1.7795151,1.79761076 1.7407092,1.7086694 1.71856313,1.61492264 C1.69101583,1.49990482 1.67780463,1.38188081 1.67923454,1.26357556 C1.67761456,1.12764925 1.69047705,0.991939916 1.71760142,0.858774807 C1.73790324,0.754444747 1.77642833,0.654567699 1.83138606,0.563785941 C1.87786966,0.488154379 1.94315625,0.426046428 2.02079092,0.383602726 C2.10275136,0.34132157 2.19389827,0.320303659 2.28596785,0.322454577 C2.34830098,0.321914757 2.41023528,0.332507933 2.46889387,0.353742047 C2.52495249,0.374210853 2.57642525,0.405662719 2.62033677,0.44627958 C2.66690796,0.490016628 2.70470983,0.542344221 2.73169185,0.600423874 C2.76318336,0.668744133 2.78430636,0.741437588 2.79435439,0.816073016 L2.47876398,0.816073016 C2.46060973,0.65973758 2.39283498,0.581552876 2.27543974,0.581518905 Z M2.25736984,1.18688559 C2.15148775,1.1946068 2.0531369,1.24486625 1.98444868,1.32635433 C1.98611145,1.39856011 1.99458552,1.47044348 2.00975665,1.54103529 C2.02132511,1.59722754 2.04048414,1.65155983 2.06669958,1.70251736 C2.08703554,1.74291775 2.11650861,1.77794762 2.15274669,1.80478764 C2.18554743,1.8283879 2.22495143,1.84087937 2.26526593,1.8404574 C2.29937601,1.84095429 2.33302085,1.8324513 2.36285347,1.81579431 C2.39209118,1.79879791 2.41719807,1.77545419 2.43634782,1.74746125 C2.45741655,1.71645856 2.47315815,1.68211061 2.48291449,1.64585341 C2.49388869,1.60528971 2.4993041,1.56340626 2.49901036,1.52136597 C2.49922395,1.47810675 2.49355291,1.43502179 2.48215525,1.39331155 C2.47210139,1.35515314 2.45572511,1.31897573 2.43371579,1.28630229 C2.41385494,1.2566688 2.3877833,1.2317783 2.35733633,1.21338312 C2.32702529,1.19557433 2.29246159,1.18643035 2.25736984,1.18693654 L2.25736984,1.18688559 Z" id="Shape"></path>
                        <path d="M3.89120188,1.99867823 C3.84780255,2.03086356 3.8000851,2.0566844 3.74947724,2.0753682 C3.69900791,2.09354945 3.64576518,2.10268994 3.59216289,2.1023753 C3.50785386,2.10402721 3.42423213,2.08681431 3.34733357,2.05197904 C3.27747765,2.01928868 3.21631472,1.97039207 3.16886175,1.90930002 C3.11851037,1.842988 3.08138413,1.76749142 3.05953131,1.68697554 C3.03365601,1.59336381 3.02106289,1.4965381 3.02212613,1.39937541 C3.02062007,1.29739546 3.03563036,1.19584987 3.06656693,1.09873034 C3.09285245,1.01628088 3.13451069,0.939632392 3.18931059,0.872889838 C3.29172301,0.749478292 3.44372153,0.678821065 3.60345024,0.68037508 C3.65480373,0.680097231 3.7059887,0.686311604 3.75580423,0.698872395 C3.80307092,0.710921186 3.84859609,0.729058632 3.8912525,0.752835638 L3.8912525,0.1947059 L4.2214203,0.1947059 L4.2214203,2.06991583 L3.8912525,2.06991583 L3.89120188,1.99867823 Z M3.89120188,1.0853287 C3.81911917,1.01067544 3.72090091,0.967352726 3.61752147,0.964608828 C3.54102575,0.964187964 3.47029532,1.00548475 3.43267205,1.07253855 C3.37995996,1.17288276 3.35602009,1.28601317 3.36353067,1.39927349 C3.35667592,1.50719283 3.37910638,1.61495697 3.42842031,1.71102715 C3.46486187,1.77672171 3.53429035,1.81686098 3.609018,1.81543761 C3.72585,1.8050013 3.83070383,1.73901452 3.89120188,1.63785319 L3.89120188,1.0853287 Z" id="Shape"></path>
                        <path d="M6.06551096,1.50011699 C6.07634899,1.66240027 6.01011402,1.82024537 5.88698853,1.92555524 C5.73018762,2.0328054 5.54200423,2.08360209 5.35293971,2.069712 L4.63758458,2.069712 L4.63758458,0.194502073 L5.31907764,0.194502073 C5.4107727,0.193456229 5.5021717,0.205168099 5.5906828,0.229305562 C5.66563302,0.24938568 5.73621367,0.283341158 5.79881556,0.329435657 C5.85485816,0.371393544 5.90049047,0.425844356 5.93213795,0.48852276 C5.99391351,0.621020218 5.99520737,0.774054521 5.93568107,0.907591413 C5.90353373,0.96978482 5.85709595,1.02334872 5.8002328,1.06382494 C5.84300681,1.0839927 5.88249713,1.11057131 5.9173581,1.14265509 C5.94969769,1.17275173 5.97749294,1.2074465 5.99986208,1.24563877 C6.02198381,1.28354316 6.03861859,1.32443212 6.04926324,1.3670688 C6.06015145,1.41056588 6.06560946,1.45526009 6.06551096,1.50011699 Z M4.98470872,0.933324593 L5.3176604,0.933324593 C5.40031925,0.939092865 5.48298213,0.922149543 5.55682073,0.88430416 C5.61013065,0.847732152 5.6395757,0.784954606 5.63375696,0.720274248 C5.6344105,0.689508449 5.62838171,0.658970165 5.616092,0.630794122 C5.60347542,0.604241697 5.58337146,0.582017411 5.55828859,0.566894305 C5.5261331,0.547865539 5.49071118,0.535091388 5.4538679,0.529237237 C5.40142599,0.52041252 5.34829997,0.516370539 5.2951363,0.517160477 L4.98470872,0.517160477 L4.98470872,0.933324593 Z M4.98470872,1.74725742 L5.35182616,1.74725742 C5.58978858,1.74725742 5.70876979,1.66487728 5.70876979,1.50011699 C5.70959543,1.46236179 5.70338034,1.4247856 5.69044682,1.38933692 C5.67775927,1.3575141 5.65556114,1.33044768 5.62692381,1.3118826 C5.59028806,1.28898943 5.54955046,1.2735472 5.50701464,1.26642914 C5.44506411,1.25548453 5.3822193,1.25050226 5.31933072,1.25154976 L4.9849618,1.25154976 L4.98470872,1.74725742 Z" id="Shape"></path>
                    </g>
                    <g transform="translate(2.530797, 33.631482)" id="Shape">
                        <path d="M0.72593386,0.144105806 C0.811682618,0.142184969 0.89650254,0.16230072 0.972382889,0.202553246 C1.04491218,0.244014989 1.10551642,0.30371052 1.14827329,0.375806337 C1.19940419,0.463003297 1.23535307,0.558357849 1.25456677,0.657750265 C1.27963579,0.784401955 1.29151046,0.91334124 1.28999793,1.04247404 C1.30404261,1.26999572 1.25497372,1.49696799 1.14827329,1.69803316 C1.0525086,1.83782263 0.894609369,1.92129198 0.72593386,1.92129198 C0.557258352,1.92129198 0.39935912,1.83782263 0.303594429,1.69803316 C0.197820217,1.49666565 0.149270495,1.26982648 0.163287033,1.04247404 C0.161830324,0.913367867 0.173533248,0.784451812 0.198212034,0.657750265 C0.216933702,0.558356164 0.252586387,0.46296966 0.303594429,0.375806337 C0.346351303,0.30371052 0.406955538,0.244014989 0.479484832,0.202553246 C0.555365181,0.16230072 0.640185102,0.142184969 0.72593386,0.144105806 L0.72593386,0.144105806 Z M0.72593386,1.66231245 C0.764641907,1.66311906 0.802628277,1.6516963 0.834555675,1.62964915 C0.869928064,1.60230484 0.89704107,1.56558725 0.912858539,1.52360807 C0.937131255,1.46225933 0.953182555,1.39793023 0.960589374,1.33231627 C0.972456843,1.23619552 0.977885014,1.13937966 0.976837092,1.042525 C0.977799002,0.944571147 0.972371422,0.846659396 0.960589374,0.749421533 C0.953029701,0.681687674 0.936992204,0.615188101 0.912858539,0.551505354 C0.896944775,0.507800101 0.869950045,0.469046781 0.834555675,0.439094672 C0.770357583,0.391658736 0.683083343,0.391370461 0.618577444,0.438381277 C0.58298805,0.468158892 0.555779314,0.506813357 0.539667189,0.550486219 C0.515019144,0.61405018 0.498734562,0.680586477 0.491227731,0.748402397 C0.479413802,0.846029937 0.473986198,0.944333622 0.474980013,1.04267787 C0.473931146,1.13975278 0.479359266,1.23678902 0.491227731,1.33313158 C0.498511409,1.39890939 0.514812889,1.463354 0.539667189,1.5246272 C0.555937986,1.56633783 0.583224803,1.60277729 0.618577444,1.63000585 C0.650132534,1.65179947 0.687674931,1.66309705 0.72593386,1.66231245 L0.72593386,1.66231245 Z"></path>
                        <path d="M2.37272358,1.82048233 C2.32930922,1.85257828 2.28159248,1.87831295 2.23099894,1.89691752 C2.18052679,1.91508243 2.12728397,1.9242057 2.07368459,1.92387366 C1.98937324,1.92555109 1.905746,1.90833706 1.82885527,1.8734774 C1.75899731,1.84079036 1.69783367,1.79189318 1.65038345,1.73079838 C1.60005165,1.66447411 1.56292737,1.58898154 1.54105301,1.5084739 C1.51518097,1.41484411 1.50258796,1.31800206 1.50364783,1.22082281 C1.50213635,1.1188425 1.51714676,1.01729603 1.54808863,0.920177741 C1.574374,0.83771277 1.61603192,0.76104755 1.67083229,0.694286284 C1.77326791,0.570911394 1.92525621,0.500277622 2.08497194,0.501822483 C2.13632543,0.501544634 2.1875104,0.507759006 2.23732593,0.520319798 C2.28460801,0.532320556 2.33013921,0.550460402 2.37277419,0.57428304 L2.37277419,0.0165100004 L2.70294199,0.0165100004 L2.70294199,1.89171993 L2.37277419,1.89171993 L2.37272358,1.82048233 Z M2.37272358,0.907132802 C2.30064602,0.832465329 2.20242865,0.789124722 2.09904317,0.786361965 C2.02253397,0.785940577 1.95179595,0.82726129 1.91419375,0.894342648 C1.86147823,0.994667232 1.83753786,1.10778235 1.84505237,1.22102664 C1.83818834,1.32896298 1.86061905,1.43674598 1.90994201,1.53283125 C1.94639691,1.59850614 2.01582279,1.63862432 2.09053969,1.63719075 C2.20735667,1.62674962 2.31220189,1.5607872 2.37272358,1.45965729 L2.37272358,0.907132802 Z"></path>
                        <path d="M4.54703266,1.32192109 C4.55787888,1.48419108 4.49164094,1.64202433 4.36851023,1.74730838 C4.21171568,1.8545765 4.02353178,1.90539128 3.83446141,1.8915161 L3.11910628,1.8915161 L3.11910628,0.0163061733 L3.80059934,0.0163061733 C3.89229201,0.0152443756 3.98369089,0.026939081 4.07220449,0.0510587051 C4.14715792,0.071155474 4.21773861,0.105128247 4.28033725,0.151239757 C4.33639125,0.193185444 4.38202603,0.247639202 4.41365965,0.31032686 C4.47543325,0.442806904 4.47672713,0.595824986 4.41720276,0.729344557 C4.38505543,0.791537964 4.33861765,0.845101865 4.2817545,0.88557808 C4.32450787,0.905782646 4.36399293,0.932357719 4.39887979,0.964408236 C4.43120773,0.994515842 4.45900152,1.02920879 4.48138378,1.06739191 C4.50349692,1.10531868 4.52013104,1.14622318 4.53078494,1.1888729 C4.54167886,1.23236891 4.54713696,1.27706384 4.54703266,1.32192109 Z M3.46623042,0.755128693 L3.7991821,0.755128693 C3.88183926,0.760871265 3.9644954,0.743929325 4.03834243,0.70610826 C4.09164384,0.669528937 4.12108638,0.60675674 4.11527866,0.542078348 C4.11593797,0.511295583 4.10990908,0.480739461 4.0976137,0.452547265 C4.08498209,0.426005027 4.06488168,0.403784667 4.03981029,0.388647449 C4.0076548,0.369618683 3.97223288,0.356844532 3.9353896,0.35099038 C3.88294273,0.342211214 3.82981929,0.338186482 3.776658,0.338964577 L3.46623042,0.338964577 L3.46623042,0.755128693 Z M3.46623042,1.56906152 L3.83334786,1.56906152 C4.07131028,1.56906152 4.19029149,1.48668138 4.19029149,1.32192109 C4.19111628,1.28414935 4.18490131,1.24655662 4.17196852,1.21109006 C4.15928076,1.1792808 4.13708148,1.15223079 4.10844551,1.1336867 C4.07182084,1.1107709 4.03107866,1.09532693 3.98853634,1.08823324 C3.92658782,1.07726849 3.8637427,1.07226914 3.80085242,1.0733029 L3.4664835,1.0733029 L3.46623042,1.56906152 Z"></path>
                    </g>
                    <g transform="translate(1.518478, 49.937656)">
                        <polygon id="Path" points="1.02563086 1.88030561 0.332192437 1.88030561 0.332192437 1.58343134 1.02563086 1.58343134"></polygon>
                        <path d="M1.7692803,0.865908758 C1.7343049,0.865778203 1.70017117,0.876703971 1.67169276,0.897145271 C1.63928799,0.920730134 1.61216321,0.950901995 1.59207388,0.985708175 C1.56631739,1.02947314 1.54592243,1.07621835 1.53133475,1.12492213 C1.51292672,1.18485363 1.49993313,1.24633647 1.49251232,1.30862136 C1.53607285,1.27709834 1.58318662,1.250877 1.63287033,1.2305046 C1.68191565,1.2103508 1.73442807,1.2001343 1.78740081,1.20044009 C1.86157937,1.19928505 1.93502758,1.21532546 2.00206303,1.24732034 C2.06503946,1.27793326 2.12083561,1.32166882 2.16575499,1.37562954 C2.21181006,1.43139923 2.24710492,1.49534395 2.26982137,1.56416967 C2.29428819,1.63789931 2.30653222,1.71518086 2.30606238,1.79291471 C2.30648593,1.87104282 2.29334759,1.94864471 2.26723995,2.02222027 C2.24297756,2.09143091 2.20564589,2.15526328 2.15730212,2.21019987 C2.05703413,2.32294683 1.91310271,2.38634319 1.76280146,2.38396253 C1.67578382,2.38564978 1.58966746,2.3659739 1.51189823,2.32663614 C1.43784796,2.287786 1.37435464,2.23129981 1.32694757,2.16209666 C1.27333803,2.08226519 1.23453067,1.99332049 1.21240369,1.89956727 C1.18485643,1.78456675 1.1716452,1.66655959 1.1730751,1.54827115 C1.17138461,1.41224831 1.18419628,1.27643549 1.21129014,1.14316466 C1.23159149,1.03885044 1.27011681,0.93899005 1.32507478,0.848226751 C1.37152906,0.772571137 1.43682278,0.71045641 1.51447964,0.668043537 C1.59643196,0.625739954 1.6875846,0.604720722 1.77965657,0.606895387 C1.84198666,0.606339227 1.90392087,0.616915135 1.96258259,0.6381319 C2.01862267,0.658639655 2.07008821,0.690087108 2.11402549,0.730669433 C2.16057409,0.774426605 2.19837257,0.826749512 2.22538057,0.884813728 C2.25685845,0.953139143 2.27798083,1.02583049 2.28804311,1.10046287 L1.9724527,1.10046287 C1.95439968,0.944093462 1.88667555,0.865908758 1.7692803,0.865908758 Z M1.75121041,1.47127544 C1.64533446,1.47897801 1.54698276,1.52921954 1.47828924,1.61069322 C1.47994912,1.68291604 1.48842321,1.7548166 1.50359721,1.82542514 C1.51517426,1.88161497 1.53433288,1.93594611 1.56054015,1.98690721 C1.58089058,2.02728383 1.61036174,2.06229398 1.64658725,2.08912654 C1.679388,2.11272679 1.718792,2.12521827 1.7591065,2.12479629 C1.7932093,2.12528508 1.8268479,2.11680123 1.85669404,2.10018416 C1.88607903,2.08321246 1.91131335,2.05982801 1.9305427,2.03174919 C1.95161135,2.00076494 1.96735317,1.96643372 1.97710937,1.93019231 C1.98808379,1.88961128 1.99349916,1.84771098 1.99320524,1.80565391 C1.99341882,1.76239469 1.98774778,1.71930973 1.97635013,1.67759949 C1.96627622,1.6394483 1.94990142,1.60327416 1.92791067,1.57059023 C1.90805295,1.54096769 1.88197989,1.51609324 1.85153121,1.49772202 C1.82110637,1.4798972 1.786406,1.47081999 1.75121041,1.47147927 L1.75121041,1.47127544 Z" id="Shape"></path>
                        <path d="M3.38504245,2.28322096 C3.34165678,2.3154411 3.2939367,2.34128053 3.24331781,2.35996188 C3.19284847,2.37814313 3.13960575,2.38728362 3.08600345,2.38696898 C3.00169061,2.38860489 2.91806871,2.37137455 2.84117413,2.33652176 C2.77131822,2.3038314 2.71015529,2.2549348 2.66270232,2.19384274 C2.61236436,2.12754119 2.57523914,2.05206399 2.55337188,1.97156922 C2.52749984,1.87793943 2.51490683,1.78109738 2.5159667,1.68391813 C2.51446515,1.58193849 2.52947533,1.48039363 2.5604075,1.38327306 C2.58671584,1.30083347 2.62837181,1.22418914 2.68315116,1.15743256 C2.78558678,1.03405767 2.93757508,0.9634239 3.09729081,0.964968761 C3.14864071,0.964699962 3.19982246,0.970896826 3.2496448,0.983415119 C3.29692159,0.995456126 3.34244985,1.01361193 3.38509306,1.03742932 L3.38509306,0.479146711 L3.71526086,0.479146711 L3.71526086,2.35435664 L3.38509306,2.35435664 L3.38504245,2.28322096 Z M3.38504245,1.36992238 C3.31296488,1.29525491 3.21474752,1.2519143 3.11136204,1.24915155 C3.03485284,1.24873016 2.96411482,1.29005087 2.92651262,1.35713223 C2.8737971,1.45745681 2.84985673,1.57057193 2.85737124,1.68381622 C2.8505072,1.79175256 2.87293792,1.89953556 2.92226088,1.99562083 C2.95870243,2.06131539 3.02813092,2.10145467 3.10285856,2.10003129 C3.21968251,2.08957081 3.32452634,2.02359032 3.38504245,1.92244687 L3.38504245,1.36992238 Z" id="Shape"></path>
                        <path d="M5.55935153,1.78465971 C5.57021416,1.94694715 5.5039747,2.10480296 5.3808291,2.21009796 C5.22402819,2.31734813 5.0358448,2.36814481 4.84678028,2.35425472 L4.13142515,2.35425472 L4.13142515,0.479044797 L4.81291821,0.479044797 C4.90461712,0.477989425 4.99601972,0.489718905 5.08452336,0.513899242 C5.15948138,0.533958046 5.23006581,0.56791534 5.29265612,0.614029338 C5.34871012,0.655975025 5.3943449,0.710428783 5.42597852,0.773116441 C5.48775211,0.905596484 5.489046,1.05861457 5.42952163,1.19213414 C5.39737768,1.25434384 5.35094002,1.30792507 5.29407337,1.34841862 C5.33685778,1.36856781 5.37635076,1.39514821 5.41119866,1.42724877 C5.44356174,1.4573233 5.47135994,1.49202176 5.49370265,1.53023245 C5.51583307,1.5681325 5.53246838,1.60902275 5.54310381,1.65166248 C5.55399511,1.69514166 5.5594532,1.73981941 5.55935153,1.78465971 Z M4.47854929,1.21791827 L4.81150096,1.21791827 C4.89415813,1.22366085 4.97681427,1.20671891 5.0506613,1.16889784 C5.10397098,1.132302 5.13341324,1.06951088 5.12759753,1.00481697 C5.12825184,0.974067562 5.12222285,0.943545709 5.10993257,0.915387803 C5.09731665,0.888821679 5.0772137,0.866580797 5.05212916,0.851437029 C5.01996346,0.832430225 4.98454578,0.819657602 4.94770847,0.81377996 C4.89526655,0.804955244 4.84214054,0.800913263 4.78897687,0.801703201 L4.47854929,0.801703201 L4.47854929,1.21791827 Z M4.47854929,2.03180015 L4.84566673,2.03180015 C5.08362915,2.03180015 5.20261036,1.94942 5.20261036,1.78465971 C5.2034312,1.74690486 5.19721626,1.70932956 5.18428739,1.67387964 C5.17159962,1.64207039 5.14940035,1.61502037 5.12076438,1.59647628 C5.08413971,1.57356048 5.04339753,1.55811651 5.00085521,1.55102282 C4.93890988,1.54003281 4.87606236,1.53503326 4.81317129,1.53609248 L4.47880237,1.53609248 L4.47854929,2.03180015 Z" id="Shape"></path>
                    </g>
                    <g transform="translate(0.506159, 66.753397)">
                        <polygon id="Path" points="0.710900925 1.71428838 0.0174625005 1.71428838 0.0174625005 1.41741411 0.710900925 1.41741411"></polygon>
                        <path d="M1.7029228,2.1882375 L1.39639265,2.1882375 L1.39639265,0.965733113 C1.27451439,1.00305077 1.1473164,1.01968615 1.02001249,1.01495737 L1.02001249,0.755944002 C1.27177619,0.755944002 1.41577855,0.66046796 1.45201957,0.469515877 L1.7029228,0.469515877 L1.7029228,2.1882375 Z" id="Path"></path>
                        <path d="M3.32212683,2.1882375 L2.17891513,2.1882375 C2.1732929,2.06115066 2.2052467,1.93524118 2.27073245,1.82644428 C2.31114293,1.76865868 2.35613573,1.71426283 2.40526963,1.6637902 C2.47064027,1.59602637 2.54017143,1.53246019 2.61345301,1.47346658 C2.68674489,1.41381317 2.74859757,1.36046141 2.79901105,1.3134113 C2.84341924,1.27318695 2.88408125,1.2289592 2.92048932,1.18128034 C2.94864358,1.14447391 2.97085042,1.10342414 2.98629004,1.05964648 C2.99994104,1.01802809 3.00677906,0.974451936 3.00653642,0.930623883 C3.01035653,0.868066469 2.98861494,0.806654897 2.94635407,0.760632027 C2.89890192,0.717614901 2.83614167,0.69582453 2.77243768,0.700248229 C2.74172229,0.700147477 2.71132576,0.706517669 2.68320178,0.718949371 C2.65408632,0.731981104 2.62816813,0.751289714 2.60727786,0.77551141 C2.58392813,0.803299603 2.56538085,0.834839051 2.55241018,0.868813295 C2.53669856,0.910300374 2.52752753,0.954005682 2.52522942,0.998345459 L2.21252412,0.998345459 C2.21823789,0.919266255 2.23657677,0.841631382 2.26683503,0.768428416 C2.29396377,0.702662402 2.33377272,0.642962532 2.38396032,0.592780356 C2.43336226,0.544034333 2.49208218,0.505895399 2.55656069,0.480675414 C2.62668429,0.453503936 2.70130352,0.440015229 2.77643634,0.440929117 C2.85500699,0.439656474 2.9331817,0.452388047 3.00734628,0.478535229 C3.07051711,0.501167141 3.12838909,0.536637568 3.17736523,0.582741868 C3.22283732,0.626803593 3.25854297,0.680045495 3.28214023,0.73897539 C3.30668926,0.801187566 3.31899766,0.867609017 3.31838125,0.934547556 C3.31901528,0.995343463 3.31027278,1.05587012 3.29246589,1.11396642 C3.27477542,1.16976785 3.24859991,1.22247141 3.21487165,1.27019994 C3.16984251,1.32982255 3.12103128,1.38645175 3.06874342,1.43973319 C2.99339626,1.51726011 2.91398454,1.59067478 2.83084848,1.6596627 C2.80321218,1.68310282 2.76778102,1.71459412 2.724555,1.75413659 C2.67742598,1.79832938 2.6350155,1.84736155 2.59801514,1.90043354 L3.32212683,1.90043354 L3.32212683,2.1882375 Z" id="Path"></path>
                        <path d="M4.39736131,2.11725469 C4.35394695,2.14935063 4.30623021,2.17508531 4.25563667,2.19368987 C4.20516734,2.21187112 4.15192462,2.22101161 4.09832232,2.22069697 C4.01400716,2.22235841 3.93037975,2.20512693 3.853493,2.17024975 C3.78363708,2.13755939 3.72247415,2.08866278 3.67502119,2.02757073 C3.62467017,1.96127735 3.58754363,1.88579749 3.56569075,1.80529721 C3.53981871,1.71166742 3.52722569,1.61482537 3.52828557,1.51764612 C3.52678402,1.41566648 3.5417942,1.31412161 3.57272636,1.21700105 C3.59903471,1.13456146 3.64069068,1.05791713 3.69547003,0.991160552 C3.79790565,0.867785661 3.94989394,0.79715189 4.10960968,0.79869675 C4.16095958,0.798427951 4.21214133,0.804624815 4.26196367,0.817143109 C4.30924046,0.829184116 4.35476872,0.847339921 4.39741193,0.871157308 L4.39741193,0.312925657 L4.72757973,0.312925657 L4.72757973,2.18813558 L4.39741193,2.18813558 L4.39736131,2.11725469 Z M4.39736131,1.20390516 C4.32528375,1.12923768 4.22706639,1.08589708 4.12368091,1.08313432 C4.04717171,1.08271293 3.97643369,1.12403364 3.93883148,1.191115 C3.88611597,1.29143959 3.8621756,1.4045547 3.8696901,1.51779899 C3.86282607,1.62573534 3.88525679,1.73351834 3.93457974,1.8296036 C3.9710213,1.89529816 4.04044979,1.93543744 4.11517743,1.93401406 C4.23200138,1.92355358 4.33684521,1.85757309 4.39736131,1.75642965 L4.39736131,1.20390516 Z" id="Shape"></path>
                        <path d="M6.5716704,1.61864248 C6.58253303,1.78092992 6.51629356,1.93878573 6.39314796,2.04408073 C6.23634706,2.1513309 6.04816367,2.20212758 5.85909914,2.1882375 L5.14374402,2.1882375 L5.14374402,0.31302757 L5.82523708,0.31302757 C5.91693359,0.311956249 6.00833606,0.323668563 6.09684223,0.347831059 C6.17180025,0.367889862 6.24238467,0.401847157 6.30497499,0.447961154 C6.36102899,0.489906841 6.40666377,0.544360599 6.43829738,0.607048257 C6.50007098,0.739528301 6.50136487,0.892546383 6.4418405,1.02606595 C6.40969655,1.08827566 6.36325889,1.14185689 6.30639224,1.18235043 C6.34917665,1.20249962 6.38866963,1.22908003 6.42351753,1.26118059 C6.45588061,1.29125512 6.48367881,1.32595357 6.50602152,1.36416427 C6.52815194,1.40206431 6.54478725,1.44295457 6.55542268,1.4855943 C6.56631815,1.52909001 6.57177628,1.57378514 6.5716704,1.61864248 Z M5.49086816,1.05190105 L5.82381983,1.05190105 C5.90647699,1.05764362 5.98913314,1.04070168 6.06298016,1.00288061 C6.11628985,0.966284776 6.14573211,0.903493654 6.1399164,0.838799745 C6.14056504,0.808034378 6.13453645,0.777497147 6.12225143,0.749319619 C6.10961983,0.72277738 6.08951942,0.70055702 6.06444803,0.685419803 C6.03228233,0.666412998 5.99686465,0.653640375 5.96002734,0.647762734 C5.90758542,0.638938017 5.85445941,0.634896036 5.80129574,0.635685974 L5.49086816,0.635685974 L5.49086816,1.05190105 Z M5.49086816,1.86583388 L5.85798559,1.86583388 C6.09594802,1.86583388 6.21492923,1.78343675 6.21492923,1.61864248 C6.21575007,1.58088764 6.20953513,1.54331233 6.19660625,1.50786242 C6.18391849,1.47605316 6.16171922,1.44900314 6.13308325,1.43045905 C6.09645858,1.40754325 6.05571639,1.39209928 6.01317408,1.38500559 C5.95122875,1.37401558 5.88838123,1.36901603 5.82549016,1.37007525 L5.49112124,1.37007525 L5.49086816,1.86583388 Z" id="Shape"></path>
                    </g>
                </g>
                <g id="Group" transform="translate(10.123189, 5.095679)">
                    <g transform="translate(0.000000, 24.968828)">
                        <path d="M11.1078712,0.766644928 C11.0930543,0.942226949 10.9412086,1.07346731 10.7665679,1.06163379 L0.683872011,1.06163379 C0.509222057,1.07349531 0.357359588,0.942240396 0.342568705,0.766644928 L0.342568705,0.732249094 C0.357385522,0.556674017 0.509240162,0.425448537 0.683872011,0.437311185 L10.7665679,0.437311185 C10.9411998,0.425448537 11.0930544,0.556674017 11.1078712,0.732249094 L11.1078712,0.766644928 Z" id="Path" fill="#252965" fill-rule="nonzero"></path>
                        <g opacity="0.25" style="mix-blend-mode: multiply;" id="Clipped">
                            <g>
                                <g transform="translate(2.530797, 2.547840)">
                                    <mask id="mask-6" fill="white">
                                        <use xlink:href="#path-5"></use>
                                    </mask>
                                    <g id="Path"></g>
                                </g>
                                <path d="M11.1078712,0.766644928 C11.0930543,0.942226949 10.9412086,1.07346731 10.7665679,1.06163379 L0.683872011,1.06163379 C0.509222057,1.07349531 0.357359588,0.942240396 0.342568705,0.766644928 L0.342568705,0.732249094 C0.357385522,0.556674017 0.509240162,0.425448537 0.683872011,0.437311185 L10.7665679,0.437311185 C10.9411998,0.425448537 11.0930544,0.556674017 11.1078712,0.732249094 L11.1078712,0.766644928 Z" id="Path" fill="#252965" fill-rule="nonzero"></path>
                            </g>
                        </g>
                        <path d="M10.7665173,1.11366068 L0.684125091,1.11366068 C0.478565014,1.12797424 0.299699926,0.973418121 0.282588812,0.766695885 L0.282588812,0.73214718 C0.299751958,0.525465734 0.478601294,0.370968621 0.684125091,0.385284301 L10.7665173,0.385284301 C10.9720411,0.370968621 11.1508905,0.525465734 11.1680536,0.73214718 L11.1680536,0.766695885 C11.1509425,0.973418121 10.9720774,1.12797424 10.7665173,1.11366068 L10.7665173,1.11366068 Z M0.684125091,0.489287112 C0.540216202,0.479254167 0.4149782,0.587427658 0.402953525,0.73214718 L0.402953525,0.766695885 C0.414951939,0.911428921 0.540206926,1.01961708 0.684125091,1.00955595 L10.7665173,1.00955595 C10.9104257,1.01961611 11.035666,0.9114212 11.0476383,0.766695885 L11.0476383,0.73214718 C11.0356397,0.58743538 10.9104164,0.479255149 10.7665173,0.489287112 L0.684125091,0.489287112 Z" id="Shape" fill="#252965" fill-rule="nonzero"></path>
                    </g>
                    <g transform="translate(0.000000, 16.815741)" fill="#252965" fill-rule="nonzero">
                        <path d="M11.1078712,0.576779923 C11.0930543,0.752361944 10.9412086,0.883602302 10.7665679,0.871768789 L0.683872011,0.871768789 C0.509222057,0.883630309 0.357359588,0.752375391 0.342568705,0.576779923 L0.342568705,0.542384089 C0.357385687,0.366802068 0.509231309,0.23556171 0.683872011,0.247395223 L10.7665679,0.247395223 C10.9411994,0.235589701 11.0930282,0.366815509 11.1078712,0.542384089 L11.1078712,0.576779923 Z" id="Path"></path>
                        <path d="M10.7665173,0.923795673 L0.684125091,0.923795673 C0.478583155,0.938110291 0.299725944,0.783583678 0.282588812,0.576881837 L0.282588812,0.542333132 C0.299699926,0.335610896 0.478565014,0.181054779 0.684125091,0.195368339 L10.7665173,0.195368339 C10.9720774,0.181054779 11.1509425,0.335610896 11.1680536,0.542333132 L11.1680536,0.576881837 C11.1509165,0.783583678 10.9720593,0.938110291 10.7665173,0.923795673 L10.7665173,0.923795673 Z M0.684125091,0.299473064 C0.540206926,0.289411934 0.414951939,0.397600096 0.402953525,0.542333132 L0.402953525,0.576881837 C0.4149782,0.721601359 0.540216202,0.82977485 0.684125091,0.819741905 L10.7665173,0.819741905 C10.9104164,0.829773868 11.0356397,0.721593637 11.0476383,0.576881837 L11.0476383,0.542333132 C11.035666,0.397607817 10.9104257,0.289412907 10.7665173,0.299473064 L0.684125091,0.299473064 Z" id="Shape"></path>
                    </g>
                    <g transform="translate(0.000000, 8.662655)">
                        <path d="M11.1078712,0.386914918 C11.0930543,0.562496939 10.9412086,0.693737297 10.7665679,0.681903784 L0.683872011,0.681903784 C0.509222057,0.693765304 0.357359588,0.562510386 0.342568705,0.386914918 L0.342568705,0.352519084 C0.357385522,0.176944007 0.509240162,0.0457185271 0.683872011,0.0575811744 L10.7665679,0.0575811744 C10.9411998,0.0457185271 11.0930544,0.176944007 11.1078712,0.352519084 L11.1078712,0.386914918 Z" id="Path" fill="#252965" fill-rule="nonzero"></path>
                        <g opacity="0.25" style="mix-blend-mode: multiply;" id="Clipped">
                            <g>
                                <g transform="translate(2.530797, 2.038272)">
                                    <mask id="mask-8" fill="white">
                                        <use xlink:href="#path-7"></use>
                                    </mask>
                                    <g id="Path"></g>
                                </g>
                                <path d="M11.1078712,0.386914918 C11.0930543,0.562496939 10.9412086,0.693737297 10.7665679,0.681903784 L0.683872011,0.681903784 C0.509222057,0.693765304 0.357359588,0.562510386 0.342568705,0.386914918 L0.342568705,0.352519084 C0.357385522,0.176944007 0.509240162,0.0457185271 0.683872011,0.0575811744 L10.7665679,0.0575811744 C10.9411998,0.0457185271 11.0930544,0.176944007 11.1078712,0.352519084 L11.1078712,0.386914918 Z" id="Path" fill="#252965" fill-rule="nonzero"></path>
                            </g>
                        </g>
                        <path d="M10.7665173,0.733879711 L0.684125091,0.733879711 C0.478601294,0.748195391 0.299751958,0.593698278 0.282588812,0.387016831 L0.282588812,0.352468127 C0.299725944,0.145766286 0.478583155,-0.00876032776 0.684125091,0.00555429027 L10.7665173,0.00555429027 C10.9720593,-0.00876032776 11.1509165,0.145766286 11.1680536,0.352468127 L11.1680536,0.386914918 C11.1509425,0.593637154 10.9720774,0.748193271 10.7665173,0.733879711 Z M0.684125091,0.109608059 C0.540206926,0.0995469289 0.414951939,0.207735091 0.402953525,0.352468127 L0.402953525,0.386914918 C0.4149782,0.53163444 0.540216202,0.639807931 0.684125091,0.629774986 L10.7665173,0.629774986 C10.9104164,0.639806949 11.0356397,0.531626719 11.0476383,0.386914918 L11.0476383,0.352366213 C11.035666,0.207640898 10.9104257,0.0994459885 10.7665173,0.109506145 L0.684125091,0.109608059 Z" id="Shape" fill="#252965" fill-rule="nonzero"></path>
                    </g>
                    <g>
                        <path d="M11.1078712,0.706414001 C11.0930543,0.881996022 10.9412086,1.01323638 10.7665679,1.00140287 L0.683872011,1.00140287 C0.509222057,1.01326439 0.357359588,0.882009469 0.342568705,0.706414001 L0.342568705,0.67227295 C0.357359588,0.496677482 0.509222057,0.365422564 0.683872011,0.377284084 L10.7665679,0.377284084 C10.9412086,0.365450571 11.0930543,0.496690929 11.1078712,0.67227295 L11.1078712,0.706414001 Z" id="Path" fill="#252965" fill-rule="nonzero"></path>
                        <g opacity="0.09" style="mix-blend-mode: multiply;" id="Clipped">
                            <g>
                                <g transform="translate(2.530797, 2.547840)">
                                    <mask id="mask-10" fill="white">
                                        <use xlink:href="#path-9"></use>
                                    </mask>
                                    <g id="Path"></g>
                                </g>
                                <path d="M11.1078712,0.706414001 C11.0930543,0.881996022 10.9412086,1.01323638 10.7665679,1.00140287 L0.683872011,1.00140287 C0.509222057,1.01326439 0.357359588,0.882009469 0.342568705,0.706414001 L0.342568705,0.67227295 C0.357359588,0.496677482 0.509222057,0.365422564 0.683872011,0.377284084 L10.7665679,0.377284084 C10.9412086,0.365450571 11.0930543,0.496690929 11.1078712,0.67227295 L11.1078712,0.706414001 Z" id="Path" fill="#252965" fill-rule="nonzero"></path>
                            </g>
                        </g>
                        <path d="M10.7665173,1.05342975 L0.684125091,1.05342975 C0.478583155,1.06774437 0.299725944,0.913217755 0.282588812,0.706515914 L0.282588812,0.671916253 C0.299725944,0.465214411 0.478583155,0.310687798 0.684125091,0.325002416 L10.7665173,0.325002416 C10.9720593,0.310687798 11.1509165,0.465214411 11.1680536,0.671916253 L11.1680536,0.706515914 C11.1509165,0.913217755 10.9720593,1.06774437 10.7665173,1.05342975 L10.7665173,1.05342975 Z M0.684125091,0.429056184 C0.540216202,0.41902324 0.4149782,0.52719673 0.402953525,0.671916253 L0.402953525,0.706515914 C0.4149782,0.851235437 0.540216202,0.959408927 0.684125091,0.949375983 L10.7665173,0.949375983 C10.9104164,0.959407946 11.0356397,0.851227715 11.0476383,0.706515914 L11.0476383,0.671916253 C11.0356397,0.527204452 10.9104164,0.419024221 10.7665173,0.429056184 L0.684125091,0.429056184 Z" id="Shape" fill="#252965" fill-rule="nonzero"></path>
                    </g>
                    <g transform="translate(0.000000, 33.631482)">
                        <path d="M11.1078712,0.447145845 C11.0930543,0.622727867 10.9412086,0.753968224 10.7665679,0.742134711 L0.683872011,0.742134711 C0.509222057,0.753996232 0.357359588,0.622741313 0.342568705,0.447145845 L0.342568705,0.412750011 C0.357385522,0.237174934 0.509240162,0.105949455 0.683872011,0.117812102 L10.7665679,0.117812102 C10.9411905,0.105977455 11.0930283,0.237188381 11.1078712,0.412750011 L11.1078712,0.447145845 Z" id="Path" fill="#252965" fill-rule="nonzero"></path>
                        <path d="M10.7665173,0.80282425 L0.684125091,0.80282425 C0.476101635,0.815114393 0.297018187,0.656528812 0.282588812,0.447247759 L0.282588812,0.412648098 C0.297018187,0.203367044 0.476101635,0.0447814633 0.684125091,0.0570716065 L10.7665173,0.0570716065 C10.9745408,0.0447814633 11.1536242,0.203367044 11.1680536,0.412648098 L11.1680536,0.447247759 C11.1536242,0.656528812 10.9745408,0.815114393 10.7665173,0.80282425 L10.7665173,0.80282425 Z M0.684125091,0.178297813 C0.542646093,0.166347635 0.417668159,0.27053663 0.402953525,0.412699054 L0.402953525,0.447298716 C0.417668159,0.58946114 0.542646093,0.693650135 0.684125091,0.681699957 L10.7665173,0.681699957 C10.9079862,0.693648871 11.0329493,0.589453503 11.0476383,0.447298716 L11.0476383,0.412699054 C11.0329493,0.270544267 10.9079862,0.166348899 10.7665173,0.178297813 L0.684125091,0.178297813 Z" id="Shape" fill="#252965" fill-rule="nonzero"></path>
                        <g opacity="0.25" style="mix-blend-mode: multiply;" id="Clipped">
                            <g>
                                <g transform="translate(2.530797, 2.038272)">
                                    <mask id="mask-12" fill="white">
                                        <use xlink:href="#path-11"></use>
                                    </mask>
                                    <g id="Path"></g>
                                </g>
                                <path d="M11.1078712,0.447145845 C11.0930544,0.622720922 10.9411998,0.753946402 10.7665679,0.742083755 L0.683872011,0.742083755 C0.509240162,0.753946402 0.357385522,0.622720922 0.342568705,0.447145845 L0.342568705,0.412750011 C0.357359588,0.237154543 0.509222057,0.105899625 0.683872011,0.117761145 L10.7665679,0.117761145 C10.9412086,0.105927632 11.0930543,0.23716799 11.1078712,0.412750011 L11.1078712,0.447145845 Z" id="Path" fill="#252965" fill-rule="nonzero"></path>
                            </g>
                        </g>
                    </g>
                    <g transform="translate(0.000000, 41.784569)">
                        <path d="M11.1078712,0.637061807 C11.0930283,0.812623438 10.9411905,0.943834363 10.7665679,0.931999717 L0.683872011,0.931999717 C0.509240162,0.943862364 0.357385522,0.812636884 0.342568705,0.637061807 L0.342568705,0.602615016 C0.357385522,0.427039939 0.509240162,0.29581446 0.683872011,0.307677107 L10.7665679,0.307677107 C10.9411998,0.29581446 11.0930544,0.427039939 11.1078712,0.602615016 L11.1078712,0.637061807 Z" id="Path" fill="#252965" fill-rule="nonzero"></path>
                        <path d="M10.7665173,0.984026601 L0.684125091,0.984026601 C0.478583155,0.998341219 0.299725944,0.843814605 0.282588812,0.637112764 L0.282588812,0.60256406 C0.299725944,0.395862218 0.478583155,0.241335605 0.684125091,0.255650223 L10.7665173,0.255650223 C10.9720593,0.241335605 11.1509165,0.395862218 11.1680536,0.60256406 L11.1680536,0.637112764 C11.1509165,0.843814605 10.9720593,0.998341219 10.7665173,0.984026601 Z M0.684125091,0.359703991 C0.540216202,0.349671046 0.4149782,0.457844537 0.402953525,0.60256406 L0.402953525,0.637112764 C0.4149782,0.781832287 0.540216202,0.890005777 0.684125091,0.879972832 L10.7665173,0.879972832 C10.9104164,0.890004796 11.0356397,0.781824565 11.0476383,0.637112764 L11.0476383,0.60256406 C11.0356397,0.457852259 10.9104164,0.349672028 10.7665173,0.359703991 L0.684125091,0.359703991 Z" id="Shape" fill="#252965" fill-rule="nonzero"></path>
                        <g opacity="0.25" style="mix-blend-mode: multiply;" id="Clipped">
                            <g>
                                <g transform="translate(2.530797, 2.547840)">
                                    <mask id="mask-14" fill="white">
                                        <use xlink:href="#path-13"></use>
                                    </mask>
                                    <g id="Path"></g>
                                </g>
                                <path d="M11.1078712,0.637061807 C11.0930283,0.812623438 10.9411905,0.943834363 10.7665679,0.931999717 L0.683872011,0.931999717 C0.509240162,0.943862364 0.357385522,0.812636884 0.342568705,0.637061807 L0.342568705,0.602615016 C0.357385522,0.427039939 0.509240162,0.29581446 0.683872011,0.307677107 L10.7665679,0.307677107 C10.9411998,0.29581446 11.0930544,0.427039939 11.1078712,0.602615016 L11.1078712,0.637061807 Z" id="Path" fill="#252965" fill-rule="nonzero"></path>
                            </g>
                        </g>
                    </g>
                    <g transform="translate(0.000000, 49.937656)">
                        <path d="M11.1078712,0.827079683 C11.0930543,1.0026617 10.9412086,1.13390206 10.7665679,1.12206855 L0.683872011,1.12206855 C0.509222057,1.13393007 0.357359588,1.00267515 0.342568705,0.827079683 L0.342568705,0.792683849 C0.357385522,0.617108772 0.509240162,0.485883292 0.683872011,0.497745939 L10.7665679,0.497745939 C10.9411905,0.485911293 11.0930283,0.617122218 11.1078712,0.792683849 L11.1078712,0.827079683 Z" id="Path" fill="#252965" fill-rule="nonzero"></path>
                        <path d="M10.7665173,1.17409543 L0.684125091,1.17409543 C0.478583155,1.18841005 0.299725944,1.03388344 0.282588812,0.827181596 L0.282588812,0.792632892 C0.299725944,0.585931051 0.478583155,0.431404437 0.684125091,0.445719055 L10.7665173,0.445719055 C10.9720593,0.431404437 11.1509165,0.585931051 11.1680536,0.792632892 L11.1680536,0.827181596 C11.1509165,1.03388344 10.9720593,1.18841005 10.7665173,1.17409543 Z M0.684125091,0.549976651 C0.540206926,0.539915521 0.414951939,0.648103683 0.402953525,0.792836719 L0.402953525,0.827385424 C0.4149782,0.972104946 0.540216202,1.08027844 0.684125091,1.07024549 L10.7665173,1.07024549 C10.9104164,1.08027746 11.0356397,0.972097224 11.0476383,0.827385424 L11.0476383,0.792836719 C11.035666,0.648111404 10.9104257,0.539916494 10.7665173,0.549976651 L0.684125091,0.549976651 Z" id="Shape" fill="#252965" fill-rule="nonzero"></path>
                        <g opacity="0.25" style="mix-blend-mode: multiply;" id="Clipped">
                            <g>
                                <g transform="translate(2.530797, 2.547840)">
                                    <mask id="mask-16" fill="white">
                                        <use xlink:href="#path-15"></use>
                                    </mask>
                                    <g id="Path"></g>
                                </g>
                                <path d="M11.1078712,0.827079683 C11.0930543,1.0026617 10.9412086,1.13390206 10.7665679,1.12206855 L0.683872011,1.12206855 C0.509222057,1.13393007 0.357359588,1.00267515 0.342568705,0.827079683 L0.342568705,0.792683849 C0.357385522,0.617108772 0.509240162,0.485883292 0.683872011,0.497745939 L10.7665679,0.497745939 C10.9411905,0.485911293 11.0930283,0.617122218 11.1078712,0.792683849 L11.1078712,0.827079683 Z" id="Path" fill="#252965" fill-rule="nonzero"></path>
                            </g>
                        </g>
                    </g>
                    <g transform="translate(0.000000, 58.600310)">
                        <path d="M11.1078712,0.50742773 C11.0930283,0.68298936 10.9411905,0.814200286 10.7665679,0.802365639 L0.683872011,0.802365639 C0.509240162,0.814228286 0.357385522,0.683002807 0.342568705,0.50742773 L0.342568705,0.472980939 C0.357385522,0.297405862 0.509240162,0.166180382 0.683872011,0.17804303 L10.7665679,0.17804303 C10.9411905,0.166208383 11.0930283,0.297419308 11.1078712,0.472980939 L11.1078712,0.50742773 Z" id="Path" fill="#252965" fill-rule="nonzero"></path>
                        <path d="M10.7665173,0.854392523 L0.684125091,0.854392523 C0.478583155,0.868707141 0.299725944,0.714180528 0.282588812,0.507478687 L0.282588812,0.472929982 C0.299725944,0.266228141 0.478583155,0.111701527 0.684125091,0.126016145 L10.7665173,0.126016145 C10.9720593,0.111701527 11.1509165,0.266228141 11.1680536,0.472929982 L11.1680536,0.507478687 C11.1509165,0.714180528 10.9720593,0.868707141 10.7665173,0.854392523 Z M0.684125091,0.230069914 C0.540216202,0.220036969 0.4149782,0.328210459 0.402953525,0.472929982 L0.402953525,0.507478687 C0.4149782,0.652198209 0.540216202,0.7603717 0.684125091,0.750338755 L10.7665173,0.750338755 C10.9104164,0.760370718 11.0356397,0.652190487 11.0476383,0.507478687 L11.0476383,0.472929982 C11.0356397,0.328218181 10.9104164,0.22003795 10.7665173,0.230069914 L0.684125091,0.230069914 Z" id="Shape" fill="#252965" fill-rule="nonzero"></path>
                        <g opacity="0.25" style="mix-blend-mode: multiply;" id="Clipped">
                            <g>
                                <g transform="translate(2.530797, 2.547840)">
                                    <mask id="mask-18" fill="white">
                                        <use xlink:href="#path-17"></use>
                                    </mask>
                                    <g id="Path"></g>
                                </g>
                                <path d="M11.1078712,0.50742773 C11.0930283,0.68298936 10.9411905,0.814200286 10.7665679,0.802365639 L0.683872011,0.802365639 C0.509240162,0.814228286 0.357385522,0.683002807 0.342568705,0.50742773 L0.342568705,0.472980939 C0.357385522,0.297405862 0.509240162,0.166180382 0.683872011,0.17804303 L10.7665679,0.17804303 C10.9411905,0.166208383 11.0930283,0.297419308 11.1078712,0.472980939 L11.1078712,0.50742773 Z" id="Path" fill="#252965" fill-rule="nonzero"></path>
                            </g>
                        </g>
                    </g>
                    <g transform="translate(0.000000, 66.753397)">
                        <path d="M11.1078712,0.697751346 C11.0930283,0.873312976 10.9411905,1.0045239 10.7665679,0.992689255 L0.683872011,0.992689255 C0.509240162,1.0045519 0.357385522,0.873326423 0.342568705,0.697751346 L0.342568705,0.663304555 C0.357385522,0.487729478 0.509240162,0.356503998 0.683872011,0.368366646 L10.7665679,0.368366646 C10.9411905,0.356531999 11.0930283,0.487742925 11.1078712,0.663304555 L11.1078712,0.697751346 Z" id="Path" fill="#252965" fill-rule="nonzero"></path>
                        <path d="M10.7665173,1.04425753 L0.684125091,1.04425753 C0.478583155,1.05857215 0.299725944,0.904045533 0.282588812,0.697343692 L0.282588812,0.662794987 C0.299725944,0.456093146 0.478583155,0.301566533 0.684125091,0.315881151 L10.7665173,0.315881151 C10.9720593,0.301566533 11.1509165,0.456093146 11.1680536,0.662794987 L11.1680536,0.697343692 C11.1509165,0.904045533 10.9720593,1.05857215 10.7665173,1.04425753 L10.7665173,1.04425753 Z M0.684125091,0.419934919 C0.540216202,0.409901974 0.4149782,0.518075465 0.402953525,0.662794987 L0.402953525,0.697343692 C0.4149782,0.842063214 0.540216202,0.950236705 0.684125091,0.94020376 L10.7665173,0.94020376 C10.9104164,0.950235723 11.0356397,0.842055492 11.0476383,0.697343692 L11.0476383,0.662794987 C11.0356397,0.518083186 10.9104164,0.409902955 10.7665173,0.419934919 L0.684125091,0.419934919 Z" id="Shape" fill="#252965" fill-rule="nonzero"></path>
                        <g opacity="0.25" style="mix-blend-mode: multiply;" id="Clipped">
                            <g>
                                <g transform="translate(2.530797, 2.547840)">
                                    <mask id="mask-20" fill="white">
                                        <use xlink:href="#path-19"></use>
                                    </mask>
                                    <g id="Path"></g>
                                </g>
                                <path d="M11.1078712,0.697751346 C11.0930283,0.873312976 10.9411905,1.0045239 10.7665679,0.992689255 L0.683872011,0.992689255 C0.509240162,1.0045519 0.357385522,0.873326423 0.342568705,0.697751346 L0.342568705,0.663304555 C0.357385522,0.487729478 0.509240162,0.356503998 0.683872011,0.368366646 L10.7665679,0.368366646 C10.9411905,0.356531999 11.0930283,0.487742925 11.1078712,0.663304555 L11.1078712,0.697751346 Z" id="Path" fill="#252965" fill-rule="nonzero"></path>
                            </g>
                        </g>
                    </g>
                </g>
                <g id="Group" transform="translate(18.221740, 38.217594)" fill-rule="nonzero">
                    <path d="M13.5242258,7.30735677 C13.2782707,7.30781252 13.0781167,7.10822296 13.0762241,6.86061858 L13.0762241,6.74041151 C13.0781167,6.49280713 13.2782707,6.29321757 13.5242258,6.29367332 L13.5727665,6.29367332 L13.5727665,0.992689255 C13.5689538,0.49753202 13.1687235,0.0983853664 12.6768643,0.0992115887 L1.02922459,0.0992115887 C0.537365357,0.0983853664 0.137135007,0.49753202 0.133322395,0.992689255 L0.133322395,6.29367332 L0.181863085,6.29367332 C0.427818113,6.29321757 0.627972181,6.49280713 0.6298648,6.74041151 L0.6298648,6.86061858 C0.627972181,7.10822296 0.427818113,7.30781252 0.181863085,7.30735677 L0.133322395,7.30735677 L0.133322395,12.6082899 C0.137107324,13.1034671 0.537345766,13.5026445 1.02922459,13.5018185 L12.676763,13.5018185 C13.1686419,13.5026445 13.5688803,13.1034671 13.5727665,12.6082899 L13.5727665,7.30735677 L13.5242258,7.30735677 Z" id="Path" fill="#03196B" style="mix-blend-mode: lighten;"></path>
                    <path d="M13.5242258,7.30735677 C13.2782707,7.30781252 13.0781167,7.10822296 13.0762241,6.86061858 L13.0762241,6.74041151 C13.0781167,6.49280713 13.2782707,6.29321757 13.5242258,6.29367332 L13.5727665,6.29367332 L13.5727665,0.992689255 C13.5689538,0.49753202 13.1687235,0.0983853664 12.6768643,0.0992115887 L1.02922459,0.0992115887 C0.537365357,0.0983853664 0.137135007,0.49753202 0.133322395,0.992689255 L0.133322395,6.29367332 L0.181863085,6.29367332 C0.427818113,6.29321757 0.627972181,6.49280713 0.6298648,6.74041151 L0.6298648,6.86061858 C0.627972181,7.10822296 0.427818113,7.30781252 0.181863085,7.30735677 L0.133322395,7.30735677 L0.133322395,12.6082899 C0.137107324,13.1034671 0.537345766,13.5026445 1.02922459,13.5018185 L12.676763,13.5018185 C13.1686419,13.5026445 13.5688803,13.1034671 13.5727665,12.6082899 L13.5727665,7.30735677 L13.5242258,7.30735677 Z" id="Path" fill="#03196B"></path>
                    <path d="M13.0762241,6.86061858 L13.0762241,6.74041151 C13.0781167,6.49280713 13.2782707,6.29321757 13.5242258,6.29367254 L0.181559389,6.29367254 C0.427514418,6.29321757 0.627668485,6.49280713 0.629561104,6.74041151 L0.629561104,6.86061858 C0.627668485,7.10822296 0.427514418,7.30781252 0.181559389,7.30735755 L13.5242258,7.30735755 C13.2782707,7.30781252 13.0781167,7.10822296 13.0762241,6.86061858 Z" id="Path" fill="#252965"></path>
                    <rect id="Rectangle" fill="#FFFFFF" x="0.133018699" y="7.30730582" width="13.4397478" height="1.4709697"></rect>
                    <rect id="Rectangle" fill="#FFFFFF" x="0.133018699" y="4.82265266" width="13.4397478" height="1.4709697"></rect>
                </g>
            </g>
            <g id="jack" transform="translate(38.000000, 55.000000)">
                <path d="M18.1007488,15.0624544 C18.0811731,15.4137395 17.8965099,15.7348175 17.6031964,15.9275596 L9.71969832,20.4951289 C9.40675319,20.6534359 9.03753872,20.6534359 8.72459359,20.4951289 L0.841095514,15.9275596 C0.547755097,15.7348287 0.363055394,15.4137538 0.343440031,15.0624544 L0.343440031,5.92762638 C0.363124269,5.57640213 0.547790207,5.25541029 0.841043954,5.0626764 L8.72454203,0.495158902 C9.03748716,0.336851863 9.40670163,0.336851863 9.71964676,0.495158902 L17.6031448,5.0626764 C17.8963666,5.25543345 18.0810084,5.57641656 18.1007488,5.92762638 L18.1007488,15.0624544 Z" id="Path" fill="#03196B" fill-rule="nonzero"></path>
                <path d="M16.6366558,10.4951439 C16.6366558,14.604278 13.3172219,17.9354626 9.22245531,17.9354626 C5.12768876,17.9354626 1.80804858,14.604485 1.80804858,10.4953508 C1.80804858,6.38621668 5.12727629,3.05499661 9.22204284,3.05482516 C11.188492,3.05482516 13.0744286,3.83859494 14.4649472,5.23393429 C15.8554657,6.62927365 16.6366558,8.52179487 16.6366558,10.4951439 Z" id="Path" fill="#FFFFFF" fill-rule="nonzero"></path>
                <path d="M2.74695309,10.4951439 C2.74695309,7.8668736 4.32447838,5.49734642 6.74417332,4.49150259 C9.16386826,3.48565877 11.9490932,4.04158945 13.8010628,5.90005719 C15.6530324,7.75852492 16.2070193,10.5535226 15.2046924,12.9817077 C14.2023655,15.4098928 11.8411234,16.9929532 9.22204284,16.9929532 C7.50473807,16.9929532 5.85776571,16.3083827 4.64344786,15.0898041 C3.42913002,13.8712255 2.74695309,12.2184743 2.74695309,10.4951439 Z" id="Path" fill="#03196B" fill-rule="nonzero"></path>
                <path d="M4.18423492,10.4951439 C4.18423492,8.45028666 5.41172022,6.60677925 7.29431635,5.82424627 C9.17691249,5.04171329 11.3438744,5.47426122 12.7847511,6.92019362 C14.2256278,8.36612603 14.6566633,10.5406913 13.8768664,12.429893 C13.0970696,14.3190947 11.260008,15.550887 9.22230063,15.550887 C6.43987736,15.550887 4.18423492,13.28733 4.18423492,10.4951439 L4.18423492,10.4951439 Z" id="Path" fill="#FFFFFF" fill-rule="nonzero"></path>
                <g id="Clipped" transform="translate(4.124786, 5.691482)">
                    <g transform="translate(2.577992, 2.587037)">
                        <mask id="mask-22" fill="white">
                            <use xlink:href="#path-21"></use>
                        </mask>
                        <g id="Oval"></g>
                    </g>
                    <path d="M5.0975142,9.42649059 C7.64173329,9.42649059 9.70423037,7.35675667 9.70423037,4.8036105 C9.70423037,2.67329552 8.26831242,0.87953391 6.31475519,0.343826384 C5.9270074,0.237497576 5.51886696,0.180730412 5.0975142,0.180730412 C2.55329511,0.180730412 0.490798026,2.25046433 0.490798026,4.8036105 C0.490798026,7.35675667 2.55329511,9.42649059 5.0975142,9.42649059 Z" id="Oval" fill="#03196B" fill-rule="nonzero"></path>
                </g>
                <rect id="Rectangle" stroke="#FFFFFF" stroke-width="0.5" fill="#252965" fill-rule="nonzero" x="7.1233515" y="13.5412248" width="4.19743424" height="2.37774581"></rect>
            </g>
            <g id="on_off" transform="translate(41.000000, 27.000000)" fill-rule="nonzero">
                <rect id="Rectangle" fill="#03196B" x="0.459273562" y="0.0375774489" width="12.4113928" height="22.855355"></rect>
                <path d="M8.82459524,11.7865903 C8.94716855,12.6823913 8.49856723,13.5599064 7.6988244,13.9887258 C6.89908158,14.4175453 5.91594577,14.3077228 5.23163234,13.7131249 C4.54731891,13.1185271 4.30536471,12.1638726 4.62444514,11.317407 C4.94352556,10.4709415 5.7567125,9.91021376 6.66514833,9.91025345 C7.78034031,9.84012552 8.743996,10.677443 8.82459524,11.7865903 L8.82459524,11.7865903 Z" id="Path" fill="#FFFFFF"></path>
                <path d="M8.5590594,11.724874 C8.64708216,12.5063995 8.24134345,13.2609147 7.53911936,13.6215631 C6.83689527,13.9822115 5.98387433,13.8741704 5.3948078,13.3499711 C4.80574126,12.8257718 4.60284117,11.9941683 4.88476051,11.2594985 C5.16667985,10.5248288 5.87492958,10.0395126 6.66514833,10.0395178 C7.65467403,9.98758738 8.50069896,10.7404492 8.5590594,11.724874 L8.5590594,11.724874 Z" id="Path" fill="#FFFFFF"></path>
                <path d="M8.07736485,11.6652877 C8.08524084,12.251161 7.73667466,12.7837176 7.19502583,13.0133689 C6.65337701,13.2430202 6.02598539,13.1242556 5.60688526,12.7127354 C5.18778513,12.3012152 5.06003056,11.6784914 5.2834952,11.1364107 C5.50695983,10.59433 6.03735915,10.2403177 6.62611543,10.2402859 C7.00844552,10.2377219 7.37613892,10.3864171 7.64830286,10.6536587 C7.92046681,10.9209002 8.07480568,11.2847956 8.07736485,11.6652877 L8.07736485,11.6652877 Z" id="Path" fill="#252965"></path>
                <path d="M8.0263571,11.1317487 C7.97206599,11.8276898 7.36470307,12.3502825 6.66489354,12.3031915 C6.3462169,12.305981 6.03508395,12.2067214 5.77743006,12.0200675 C5.48609949,11.816211 5.31003431,11.4862157 5.3035319,11.1318502 C5.30846515,10.8023073 5.46186048,10.4923932 5.72137759,10.2876507 C5.98801063,10.0725456 6.32172673,9.95680779 6.6649445,9.96040742 C7.36469805,9.91334361 7.97201298,10.4358693 8.0263571,11.1317487 Z" id="Path" fill="#FFFFFF"></path>
                <path d="M8.33826362,5.11180085 L8.0263571,11.1317487 L6.66489354,11.1317487 L6.66489354,12.3032487 C6.3462169,12.305981 6.03508395,12.2067214 5.77743006,12.0200675 C5.48609949,11.816211 5.31003431,11.4862157 5.3035319,11.1318502 L4.99142156,5.11190227 L8.33826362,5.11180085 Z" id="Path" fill="#FFFFFF"></path>
                <path d="M6.66489354,5.11180085 L6.66489354,12.3031473 C6.3462169,12.3058795 6.03508395,12.20662 5.77743006,12.019966 L5.72137759,10.2875493 L5.55322018,5.11180085 L6.66489354,5.11180085 Z" id="Path" fill="#FFFFFF"></path>
                <polygon id="Path" fill="#FFFFFF" points="8.02620423 11.1317487 6.66514833 11.2352008 6.66514833 5.11175014 8.33805979 5.11175014"></polygon>
                <g id="Group" transform="translate(3.057407, 2.028472)" fill="#FFFFFF">
                    <g transform="translate(0.000000, 15.213542)">
                        <path d="M0.101098274,1.4083683 C0.0946904685,1.19473933 0.132736302,0.982099233 0.212846518,0.783801688 C0.268430463,0.659995714 0.345617031,0.546970166 0.440827203,0.449965863 C0.530113366,0.356155845 0.637753025,0.281531031 0.757116008,0.23068801 C0.924672952,0.16360865 1.1040998,0.130838244 1.28467167,0.134335577 C1.60748083,0.119513575 1.92161998,0.240765192 2.14996895,0.468323537 C2.58204716,1.01020637 2.58314405,1.77660461 2.1526187,2.31971018 C1.92565971,2.5467111 1.6128749,2.66768706 1.29144892,2.65278533 C0.968122807,2.66860719 0.653029003,2.54830714 0.423298067,2.32133296 C0.197850482,2.07195362 0.081854481,1.74327479 0.101098274,1.4083683 Z M0.610258535,1.39188696 C0.593958395,1.61738552 0.662362721,1.84087615 0.802212769,2.01903988 C0.926934393,2.15474916 1.10313196,2.2321785 1.28793122,2.2324879 C1.47273049,2.23279546 1.64918806,2.15595479 1.77436644,2.02066266 C1.91377785,1.83919191 1.98123147,1.61302075 1.96387474,1.38524372 C1.98131032,1.16159958 1.91575406,0.939354087 1.77961499,0.76057568 C1.65049794,0.628484359 1.47305834,0.554173022 1.28788789,0.554639193 C1.10271743,0.555109765 0.92565969,0.630317769 0.797219003,0.763060559 C0.659380265,0.942688748 0.592826477,1.16653703 0.610258535,1.39188696 L0.610258535,1.39188696 Z" id="Shape"></path>
                        <polygon id="Path" points="3.12028817 2.61130307 3.12028817 0.175817835 4.7978367 0.175817835 4.7978367 0.587901978 3.61421235 0.587901978 3.61421235 1.16429238 4.63594698 1.16429238 4.63594698 1.57637652 3.61421235 1.57637652 3.61421235 2.61130307"></polygon>
                        <polygon id="Path" points="5.46481015 2.61130307 5.46481015 0.175817835 7.14225677 0.175817835 7.14225677 0.587901978 5.9588872 0.587901978 5.9588872 1.16429238 6.98031608 1.16429238 6.98031608 1.57637652 5.9588872 1.57637652 5.9588872 2.61130307"></polygon>
                    </g>
                    <g transform="translate(1.019136, 0.000000)">
                        <path d="M0.179113122,1.57465232 C0.172811775,1.36096513 0.2109792,1.14828966 0.291218063,0.949984279 C0.346770374,0.826185444 0.423922203,0.713160241 0.519096835,0.616148454 C0.608489538,0.522367585 0.716165084,0.447719442 0.83553851,0.396769177 C1.00302424,0.329689846 1.18238458,0.296918926 1.36289035,0.300416744 C1.68579087,0.285648389 2.00000953,0.406906265 2.22849336,0.634455417 C2.66033101,1.17641676 2.6613223,1.9426745 2.23088833,2.48574064 C2.00391291,2.71273218 1.69115489,2.83375304 1.36971856,2.81896792 C1.04646489,2.83464817 0.731470611,2.7144088 0.501669612,2.48761698 C0.276167391,2.23824984 0.160051976,1.90959649 0.179113122,1.57465232 Z M0.688273383,1.55801884 C0.671912757,1.78356351 0.74034213,2.00711278 0.880278573,2.18527318 C1.00500842,2.32099264 1.1812213,2.39842369 1.36603368,2.3987234 C1.55084605,2.39902137 1.72731084,2.32216061 1.8524832,2.18684525 C1.99195683,2.00540184 2.05945013,1.77921929 2.04209342,1.55142631 C2.05954284,1.32774907 1.99390593,1.10547602 1.85762983,0.926758272 C1.728513,0.794660486 1.55106681,0.72034915 1.36589188,0.7208248 C1.18071695,0.721305033 1.00366045,0.79653135 0.875233851,0.929293862 C0.737423614,1.10889747 0.670871669,1.33270345 0.688273383,1.55801884 Z" id="Shape"></path>
                        <polygon id="Path" points="3.19972981 2.77733353 3.19972981 0.34210185 3.68050714 0.34210185 4.68216479 1.96837879 4.68216479 0.34210185 5.14118357 0.34210185 5.14118357 2.77733353 4.64532303 2.77733353 3.65895241 1.18939472 3.65895241 2.77733353"></polygon>
                    </g>
                </g>
                <path d="M8.33826362,5.11180085 C8.33826362,5.78533477 7.93056838,6.39254535 7.30529215,6.6502814 C6.68001592,6.90801746 5.96030146,6.76552011 5.48176214,6.28923795 C5.00322283,5.8129558 4.86010284,5.09668848 5.11914113,4.47444194 C5.37817942,3.8521954 5.98836062,3.44651571 6.66514833,3.44657725 C7.10890844,3.44657725 7.53448717,3.62204257 7.84825862,3.93433403 C8.16203007,4.24662549 8.33826362,4.6701742 8.33826362,5.11180085 Z" id="Path" fill="#FFFFFF"></path>
                <path d="M7.92041793,4.89221873 C7.92041793,5.4118334 7.60585285,5.88026921 7.12346051,6.07908871 C6.64106818,6.27790821 6.08583043,6.16795585 5.71666153,5.80050378 C5.34749263,5.43305171 5.23709677,4.88046602 5.43695292,4.40042428 C5.63680907,3.92038254 6.10755751,3.60742428 6.6296824,3.60748581 C7.34256892,3.60759783 7.92041793,4.18275954 7.92041793,4.89221873 Z" id="Path" fill="#252965"></path>
            </g>
        </g>
    </g>
</svg>