<svg xmlns="http://www.w3.org/2000/svg" xmlns:xlink="http://www.w3.org/1999/xlink" width="40.998mm" height="52.7123mm" viewBox="0 0 116.2148 149.4207">
  <defs>
    <filter id="luminosity-noclip" x="84.9409" y="-8066.7377" width="27.2908" height="32766" filterUnits="userSpaceOnUse" color-interpolation-filters="sRGB">
      <feFlood flood-color="#fff" result="bg"/>
      <feBlend in="SourceGraphic" in2="bg"/>
    </filter>
    <mask id="mask" x="84.9409" y="-8066.7377" width="27.2908" height="32766" maskUnits="userSpaceOnUse">
      <g filter="url(#luminosity-noclip)"/>
    </mask>
    <radialGradient id="radial-gradient" cx="28.6915" cy="29.3367" r="14.4608" gradientTransform="translate(71.513 -1.2619) scale(0.9436 0.9578)" gradientUnits="userSpaceOnUse">
      <stop offset="0" stop-color="#fff"/>
      <stop offset="0.5565" stop-color="#fdfdfd"/>
      <stop offset="0.7566" stop-color="#f6f6f6"/>
      <stop offset="0.899" stop-color="#ebebeb"/>
      <stop offset="0.9439" stop-color="#e5e5e5"/>
      <stop offset="0.9501" stop-color="#e1e1e1"/>
      <stop offset="0.9569" stop-color="#d4d4d4"/>
      <stop offset="0.9638" stop-color="#bebebe"/>
      <stop offset="0.9709" stop-color="#a0a0a0"/>
      <stop offset="0.9781" stop-color="#7a7a7a"/>
      <stop offset="0.9854" stop-color="#4a4a4a"/>
      <stop offset="0.9926" stop-color="#131313"/>
      <stop offset="0.9949"/>
    </radialGradient>
    <filter id="luminosity-noclip-2" x="25.1838" y="-8066.7377" width="21.2682" height="32766" filterUnits="userSpaceOnUse" color-interpolation-filters="sRGB">
      <feFlood flood-color="#fff" result="bg"/>
      <feBlend in="SourceGraphic" in2="bg"/>
    </filter>
    <mask id="mask-2" x="25.1838" y="-8066.7377" width="21.2682" height="32766" maskUnits="userSpaceOnUse">
      <g filter="url(#luminosity-noclip-2)"/>
    </mask>
    <linearGradient id="linear-gradient" x1="35.8179" y1="99.4897" x2="35.8179" y2="98.2645" gradientUnits="userSpaceOnUse">
      <stop offset="0" stop-color="#666"/>
      <stop offset="0.0172" stop-color="#565656"/>
      <stop offset="0.0526" stop-color="#3b3b3b"/>
      <stop offset="0.0932" stop-color="#252525"/>
      <stop offset="0.1407" stop-color="#141414"/>
      <stop offset="0.1993" stop-color="#090909"/>
      <stop offset="0.2817" stop-color="#020202"/>
      <stop offset="0.5102"/>
      <stop offset="0.5871" stop-color="#2a2a2a"/>
      <stop offset="0.8748" stop-color="#c2c2c2"/>
      <stop offset="1" stop-color="#fff"/>
    </linearGradient>
    <linearGradient id="linear-gradient-2" x1="35.8179" y1="115.8627" x2="35.8179" y2="114.6375" xlink:href="#linear-gradient"/>
    <linearGradient id="linear-gradient-3" x1="35.8179" y1="132.2353" x2="35.8179" y2="131.0101" xlink:href="#linear-gradient"/>
    <linearGradient id="linear-gradient-4" x1="35.8179" y1="148.6083" x2="35.8179" y2="147.3831" xlink:href="#linear-gradient"/>
    <filter id="luminosity-noclip-6" x="89.4585" y="-8066.7377" width="17.8694" height="32766" filterUnits="userSpaceOnUse" color-interpolation-filters="sRGB">
      <feFlood flood-color="#fff" result="bg"/>
      <feBlend in="SourceGraphic" in2="bg"/>
    </filter>
    <mask id="mask-6" x="89.4585" y="-8066.7377" width="17.8694" height="32766" maskUnits="userSpaceOnUse">
      <g filter="url(#luminosity-noclip-6)"/>
    </mask>
    <radialGradient id="radial-gradient-2" cx="-3646.8933" cy="-2021.5319" r="8.9347" gradientTransform="translate(-3548.5001 -1887.5871) rotate(180)" gradientUnits="userSpaceOnUse">
      <stop offset="0" stop-color="#fff"/>
      <stop offset="0.589" stop-color="#fdfdfd"/>
      <stop offset="0.6475" stop-color="#fcfcfc"/>
      <stop offset="0.7206" stop-color="#f9f9f9"/>
      <stop offset="0.7684" stop-color="#f1f1f1"/>
      <stop offset="0.8089" stop-color="#e2e2e2"/>
      <stop offset="0.8453" stop-color="#ccc"/>
      <stop offset="0.8791" stop-color="#b1b1b1"/>
      <stop offset="0.9108" stop-color="#8f8f8f"/>
      <stop offset="0.941" stop-color="#676767"/>
      <stop offset="0.97" stop-color="#393939"/>
      <stop offset="0.997" stop-color="#060606"/>
      <stop offset="1"/>
    </radialGradient>
    <linearGradient id="linear-gradient-5" x1="35.8179" y1="66.7441" x2="35.8179" y2="65.5189" xlink:href="#linear-gradient"/>
    <linearGradient id="linear-gradient-6" x1="35.8179" y1="33.9989" x2="35.8179" y2="32.7737" xlink:href="#linear-gradient"/>
    <linearGradient id="linear-gradient-7" x1="35.8179" y1="17.6259" x2="35.8179" y2="16.4006" xlink:href="#linear-gradient"/>
    <linearGradient id="linear-gradient-8" x1="35.8179" y1="83.117" x2="35.8179" y2="81.8918" xlink:href="#linear-gradient"/>
    <filter id="luminosity-noclip-11" x="84.9409" y="12.9864" width="27.2908" height="27.7007" filterUnits="userSpaceOnUse" color-interpolation-filters="sRGB">
      <feFlood flood-color="#fff" result="bg"/>
      <feBlend in="SourceGraphic" in2="bg"/>
    </filter>
    <mask id="mask-11" x="80.4342" y="8.3257" width="27.2908" height="27.7007" maskUnits="userSpaceOnUse">
      <g filter="url(#luminosity-noclip-11)">
        <g transform="translate(-4.5066 -4.6607)">
          <g mask="url(#mask)">
            <ellipse cx="98.5863" cy="26.8368" rx="13.6454" ry="13.8504" fill="url(#radial-gradient)" style="mix-blend-mode: multiply"/>
          </g>
        </g>
      </g>
    </mask>
    <radialGradient id="radial-gradient-3" cx="98.7139" cy="-5498.0597" r="4.0376" gradientTransform="translate(0 16279.0835) scale(1 2.9575)" gradientUnits="userSpaceOnUse">
      <stop offset="0" stop-color="#531a0a"/>
      <stop offset="1" stop-color="#290f0d"/>
    </radialGradient>
    <filter id="luminosity-noclip-12" x="25.1838" y="65.5189" width="21.2682" height="1.2252" filterUnits="userSpaceOnUse" color-interpolation-filters="sRGB">
      <feFlood flood-color="#fff" result="bg"/>
      <feBlend in="SourceGraphic" in2="bg"/>
    </filter>
    <mask id="mask-12" x="20.6772" y="60.8581" width="21.2682" height="1.2252" maskUnits="userSpaceOnUse">
      <g filter="url(#luminosity-noclip-12)">
        <g transform="translate(-4.5066 -4.6607)">
          <g mask="url(#mask-2)">
            <path d="M46.452,66.1652a.634.634,0,0,1-.6743.5789h-19.92a.6339.6339,0,0,1-.6743-.5789v-.0675a.6339.6339,0,0,1,.6743-.5788h19.92a.6339.6339,0,0,1,.6743.5788Z" fill="url(#linear-gradient-5)" style="mix-blend-mode: multiply"/>
          </g>
        </g>
      </g>
    </mask>
    <filter id="luminosity-noclip-13" x="25.1838" y="32.7737" width="21.2682" height="1.2252" filterUnits="userSpaceOnUse" color-interpolation-filters="sRGB">
      <feFlood flood-color="#fff" result="bg"/>
      <feBlend in="SourceGraphic" in2="bg"/>
    </filter>
    <mask id="mask-13" x="20.6772" y="28.1129" width="21.2682" height="1.2252" maskUnits="userSpaceOnUse">
      <g filter="url(#luminosity-noclip-13)">
        <g transform="translate(-4.5066 -4.6607)">
          <g mask="url(#mask-2)">
            <path d="M46.452,33.42a.634.634,0,0,1-.6743.5789h-19.92a.6339.6339,0,0,1-.6743-.5789v-.0675a.6339.6339,0,0,1,.6743-.5788h19.92a.6339.6339,0,0,1,.6743.5788Z" fill="url(#linear-gradient-6)" style="mix-blend-mode: multiply"/>
          </g>
        </g>
      </g>
    </mask>
    <filter id="luminosity-noclip-14" x="25.1838" y="16.4006" width="21.2682" height="1.2253" filterUnits="userSpaceOnUse" color-interpolation-filters="sRGB">
      <feFlood flood-color="#fff" result="bg"/>
      <feBlend in="SourceGraphic" in2="bg"/>
    </filter>
    <mask id="mask-14" x="20.6772" y="11.7398" width="21.2682" height="1.2253" maskUnits="userSpaceOnUse">
      <g filter="url(#luminosity-noclip-14)">
        <g transform="translate(-4.5066 -4.6607)">
          <g mask="url(#mask-2)">
            <path d="M46.452,17.047a.634.634,0,0,1-.6743.5789h-19.92a.6339.6339,0,0,1-.6743-.5789V16.98a.6339.6339,0,0,1,.6743-.5789h19.92a.634.634,0,0,1,.6743.5789Z" fill="url(#linear-gradient-7)" style="mix-blend-mode: multiply"/>
          </g>
        </g>
      </g>
    </mask>
    <filter id="luminosity-noclip-15" x="25.1838" y="81.8918" width="21.2682" height="1.2252" filterUnits="userSpaceOnUse" color-interpolation-filters="sRGB">
      <feFlood flood-color="#fff" result="bg"/>
      <feBlend in="SourceGraphic" in2="bg"/>
    </filter>
    <mask id="mask-15" x="20.6772" y="77.231" width="21.2682" height="1.2252" maskUnits="userSpaceOnUse">
      <g filter="url(#luminosity-noclip-15)">
        <g transform="translate(-4.5066 -4.6607)">
          <g mask="url(#mask-2)">
            <path d="M46.452,82.5382a.6339.6339,0,0,1-.6743.5788h-19.92a.6339.6339,0,0,1-.6743-.5788v-.0675a.6339.6339,0,0,1,.6743-.5789h19.92a.634.634,0,0,1,.6743.5789Z" fill="url(#linear-gradient-8)" style="mix-blend-mode: multiply"/>
          </g>
        </g>
      </g>
    </mask>
    <filter id="luminosity-noclip-16" x="25.1838" y="98.2645" width="21.2682" height="1.2252" filterUnits="userSpaceOnUse" color-interpolation-filters="sRGB">
      <feFlood flood-color="#fff" result="bg"/>
      <feBlend in="SourceGraphic" in2="bg"/>
    </filter>
    <mask id="mask-16" x="20.6772" y="93.6037" width="21.2682" height="1.2252" maskUnits="userSpaceOnUse">
      <g filter="url(#luminosity-noclip-16)">
        <g transform="translate(-4.5066 -4.6607)">
          <g mask="url(#mask-2)">
            <path d="M46.452,98.9109a.634.634,0,0,1-.6743.5788h-19.92a.6339.6339,0,0,1-.6743-.5788v-.0676a.6339.6339,0,0,1,.6743-.5788h19.92a.6339.6339,0,0,1,.6743.5788Z" fill="url(#linear-gradient)" style="mix-blend-mode: multiply"/>
          </g>
        </g>
      </g>
    </mask>
    <filter id="luminosity-noclip-17" x="25.1838" y="114.6375" width="21.2682" height="1.2252" filterUnits="userSpaceOnUse" color-interpolation-filters="sRGB">
      <feFlood flood-color="#fff" result="bg"/>
      <feBlend in="SourceGraphic" in2="bg"/>
    </filter>
    <mask id="mask-17" x="20.6772" y="109.9767" width="21.2682" height="1.2252" maskUnits="userSpaceOnUse">
      <g filter="url(#luminosity-noclip-17)">
        <g transform="translate(-4.5066 -4.6607)">
          <g mask="url(#mask-2)">
            <path d="M46.452,115.2838a.634.634,0,0,1-.6743.5789h-19.92a.6339.6339,0,0,1-.6743-.5789v-.0675a.6339.6339,0,0,1,.6743-.5788h19.92a.634.634,0,0,1,.6743.5788Z" fill="url(#linear-gradient-2)" style="mix-blend-mode: multiply"/>
          </g>
        </g>
      </g>
    </mask>
    <filter id="luminosity-noclip-18" x="25.1838" y="131.0101" width="21.2682" height="1.2252" filterUnits="userSpaceOnUse" color-interpolation-filters="sRGB">
      <feFlood flood-color="#fff" result="bg"/>
      <feBlend in="SourceGraphic" in2="bg"/>
    </filter>
    <mask id="mask-18" x="20.6772" y="126.3493" width="21.2682" height="1.2252" maskUnits="userSpaceOnUse">
      <g filter="url(#luminosity-noclip-18)">
        <g transform="translate(-4.5066 -4.6607)">
          <g mask="url(#mask-2)">
            <path d="M46.452,131.6565a.634.634,0,0,1-.6743.5788h-19.92a.6339.6339,0,0,1-.6743-.5788v-.0676a.6339.6339,0,0,1,.6743-.5788h19.92a.634.634,0,0,1,.6743.5788Z" fill="url(#linear-gradient-3)" style="mix-blend-mode: multiply"/>
          </g>
        </g>
      </g>
    </mask>
    <filter id="luminosity-noclip-19" x="25.1838" y="147.3831" width="21.2682" height="1.2252" filterUnits="userSpaceOnUse" color-interpolation-filters="sRGB">
      <feFlood flood-color="#fff" result="bg"/>
      <feBlend in="SourceGraphic" in2="bg"/>
    </filter>
    <mask id="mask-19" x="20.6772" y="142.7223" width="21.2682" height="1.2252" maskUnits="userSpaceOnUse">
      <g filter="url(#luminosity-noclip-19)">
        <g transform="translate(-4.5066 -4.6607)">
          <g mask="url(#mask-2)">
            <path d="M46.452,148.03a.634.634,0,0,1-.6743.5788h-19.92a.6339.6339,0,0,1-.6743-.5788v-.0676a.6339.6339,0,0,1,.6743-.5788h19.92a.634.634,0,0,1,.6743.5788Z" fill="url(#linear-gradient-4)" style="mix-blend-mode: multiply"/>
          </g>
        </g>
      </g>
    </mask>
    <filter id="luminosity-noclip-20" x="89.4585" y="125.0101" width="17.8694" height="17.8694" filterUnits="userSpaceOnUse" color-interpolation-filters="sRGB">
      <feFlood flood-color="#fff" result="bg"/>
      <feBlend in="SourceGraphic" in2="bg"/>
    </filter>
    <mask id="mask-20" x="84.9519" y="120.3493" width="17.8694" height="17.8694" maskUnits="userSpaceOnUse">
      <g filter="url(#luminosity-noclip-20)">
        <g transform="translate(-4.5066 -4.6607)">
          <g mask="url(#mask-6)">
            <circle cx="98.3932" cy="133.9448" r="8.9347" fill="url(#radial-gradient-2)" style="mix-blend-mode: multiply"/>
          </g>
        </g>
      </g>
    </mask>
  </defs>
  <g style="isolation: isolate">
    <g id="Layer_1" data-name="Layer 1">
      <g id="knob">
        <g>
          <g mask="url(#mask-11)">
            <ellipse cx="94.0797" cy="22.176" rx="13.6454" ry="13.8504" fill="#252965"/>
          </g>
          <path d="M98.5862,39.8947a13.058,13.058,0,1,1,13.058-13.058A13.0726,13.0726,0,0,1,98.5862,39.8947Zm0-25.7247A12.6668,12.6668,0,1,0,111.253,26.8367,12.681,12.681,0,0,0,98.5862,14.17Z" transform="translate(-4.5066 -4.6607)" fill="#fff"/>
          <path d="M100.4564,14.0342v11.53a1.9109,1.9109,0,1,1-3.8218,0V14.0412c-.455.04-.9007.109-1.3474.1765V25.5638a3.2583,3.2583,0,1,0,6.5166,0V14.1967C101.3575,14.1321,100.9111,14.0717,100.4564,14.0342Z" transform="translate(-4.5066 -4.6607)" opacity="0.5" fill="url(#radial-gradient-3)"/>
          <g style="mix-blend-mode: screen">
            <path d="M98.5461,28.9912A3.4313,3.4313,0,0,1,95.119,25.564V14.2425l.3369-.0743V25.564a3.09,3.09,0,1,0,6.18,0V14.1471l.3368.0743V25.564A3.4307,3.4307,0,0,1,98.5461,28.9912Z" transform="translate(-4.5066 -4.6607)" fill="#fff"/>
          </g>
          <g>
            <path d="M98.5863,10.4538a2.5458,2.5458,0,0,0-2.619,2.4653V23.6385a2.6237,2.6237,0,0,0,5.2379,0V12.9191A2.5456,2.5456,0,0,0,98.5863,10.4538Z" transform="translate(-4.5066 -4.6607)" fill="#252965"/>
            <path d="M98.5863,10.4538a2.5458,2.5458,0,0,0-2.619,2.4653V25.5126a2.6237,2.6237,0,0,0,5.2379,0V12.9191A2.5456,2.5456,0,0,0,98.5863,10.4538Z" transform="translate(-4.5066 -4.6607)" fill="#252965" opacity="0.5" style="mix-blend-mode: multiply"/>
            <path d="M98.5863,12.3279a2.5458,2.5458,0,0,0-2.619,2.4653V25.5126a2.6237,2.6237,0,0,0,5.2379,0V14.7932A2.5456,2.5456,0,0,0,98.5863,12.3279Z" transform="translate(-4.5066 -4.6607)" fill="#252965"/>
            <path d="M98.5863,27.7489a2.5148,2.5148,0,0,1-2.4654-2.5559v-10.08a2.467,2.467,0,1,1,4.9308,0v10.08A2.5148,2.5148,0,0,1,98.5863,27.7489Zm0-14.7164a2.0389,2.0389,0,0,0-1.99,2.08v10.08a1.9916,1.9916,0,1,0,3.9793,0v-10.08A2.0389,2.0389,0,0,0,98.5863,13.0325Z" transform="translate(-4.5066 -4.6607)" fill="#252965"/>
          </g>
        </g>
        <path d="M117.4253,37.4677a21.676,21.676,0,1,0-37.755.0087l0,0,.0059.01c.0349.0615.0646.1255.1.1867l.0064-.0037.1265.2179,3.9086-2.2731-.2388-.4111-3.4971,2.0336A21.1808,21.1808,0,0,1,77.353,27.0746h4.048v-.4757h-4.05a21.0591,21.0591,0,0,1,2.7244-10.151L83.5791,18.47l.2378-.4121L80.313,16.0355a21.3565,21.3565,0,0,1,7.4313-7.4313l2.0231,3.5038.4117-.2379L88.1564,8.367A21.0582,21.0582,0,0,1,98.3076,5.6425v4.05h.4757v-4.05A21.0582,21.0582,0,0,1,108.9345,8.367L106.9119,11.87l.4116.2379,2.0231-3.5038a21.3565,21.3565,0,0,1,7.4313,7.4313l-3.5035,2.0227.2379.4121,3.503-2.0224a21.06,21.06,0,0,1,2.7245,10.151h-4.05v.4757h4.0476A21.1813,21.1813,0,0,1,117.0133,37.23l-3.3045-1.9079-.2378.4121,3.7181,2.1467.1212-.21.0047.0028c.0286-.0493.0525-.101.0806-.1505l.0314-.0544Z" transform="translate(-4.5066 -4.6607)" fill="#252965" stroke="#252965" stroke-miterlimit="10"/>
      </g>
      <g id="level">
        <g>
          <path d="M54.0457,6.289a1.9718,1.9718,0,0,0-1.9718,1.9718v143.73a1.9718,1.9718,0,0,0,3.9436,0V8.2608A1.9718,1.9718,0,0,0,54.0457,6.289Z" transform="translate(-4.5066 -4.6607)" fill="#252965"/>
          <path d="M54.0457,154.0815a2.093,2.093,0,0,1-2.0906-2.0906V8.2606a2.0907,2.0907,0,0,1,4.1813,0v143.73A2.0929,2.0929,0,0,1,54.0457,154.0815Zm0-147.6737A1.8549,1.8549,0,0,0,52.193,8.2606v143.73a1.8528,1.8528,0,1,0,3.7055,0V8.2606A1.8549,1.8549,0,0,0,54.0457,6.4078Z" transform="translate(-4.5066 -4.6607)" fill="#252965"/>
        </g>
        <g>
          <g>
            <path d="M6.7629,17.5806H5.9146v.8484h-.56v-.8484H4.5066v-.5519H5.355V16.18h.56v.8484h.8483Z" transform="translate(-4.5066 -4.6607)" fill="#252965"/>
            <path d="M8.871,18.9326H8.2654V16.5334a2.2681,2.2681,0,0,1-.7436.0966v-.5082q.7461,0,.8535-.5622H8.871Z" transform="translate(-4.5066 -4.6607)" fill="#252965"/>
            <path d="M12.07,18.9326H9.8114a1.2621,1.2621,0,0,1,.1814-.71,2.5775,2.5775,0,0,1,.2658-.3192A4.4589,4.4589,0,0,1,10.67,17.53q.2172-.1756.3666-.3141a1.9421,1.9421,0,0,0,.24-.2592.8668.8668,0,0,0,.13-.2388.793.793,0,0,0,.04-.2532.4507.4507,0,0,0-.1189-.3336.4655.4655,0,0,0-.3435-.1185.4335.4335,0,0,0-.1764.0368.4289.4289,0,0,0-.15.111.6373.6373,0,0,0-.1084.183.8358.8358,0,0,0-.0537.2542H9.8778a1.4465,1.4465,0,0,1,.1073-.4511,1.0578,1.0578,0,0,1,.2314-.3448,1.0094,1.0094,0,0,1,.341-.22,1.17,1.17,0,0,1,.4344-.078,1.3138,1.3138,0,0,1,.4562.0739.9658.9658,0,0,1,.3359.2044.885.885,0,0,1,.207.3067,1.0132,1.0132,0,0,1,.0716.3837,1.1526,1.1526,0,0,1-.0512.3521,1.1143,1.1143,0,0,1-.1533.3067,3.4111,3.4111,0,0,1-.2887.3326,5.97,5.97,0,0,1-.47.4316q-.0819.069-.21.1854a1.8256,1.8256,0,0,0-.25.2871H12.07Z" transform="translate(-4.5066 -4.6607)" fill="#252965"/>
            <path d="M14.1943,18.7932a1.1254,1.1254,0,0,1-.28.1505.9068.9068,0,0,1-.3108.053,1.1239,1.1239,0,0,1-.4837-.099.9615.9615,0,0,1-.3526-.28,1.2693,1.2693,0,0,1-.216-.4363,2.0222,2.0222,0,0,1-.0739-.5644,1.8424,1.8424,0,0,1,.0878-.59,1.3387,1.3387,0,0,1,.2425-.4432,1.0529,1.0529,0,0,1,.8182-.3778,1.2121,1.2121,0,0,1,.301.0363,1.12,1.12,0,0,1,.2676.1059V15.253h.6523v3.68h-.6523Zm0-1.7924a.7828.7828,0,0,0-.5407-.2369.4168.4168,0,0,0-.3652.2118,1.2005,1.2005,0,0,0-.1366.6412,1.17,1.17,0,0,0,.1282.6118.4.4,0,0,0,.3568.2049.7259.7259,0,0,0,.5575-.3485Z" transform="translate(-4.5066 -4.6607)" fill="#252965"/>
            <path d="M18.49,17.8148a1.0069,1.0069,0,0,1-.3527.8349,1.6628,1.6628,0,0,1-1.0551.2829H15.6689v-3.68h1.3464a1.9671,1.9671,0,0,1,.5366.0683,1.2323,1.2323,0,0,1,.4112.1965.8938.8938,0,0,1,.2634.3122.9855.9855,0,0,1,.007.8223.8633.8633,0,0,1-.2676.3067.9234.9234,0,0,1,.2314.1547.8927.8927,0,0,1,.163.2021.9067.9067,0,0,1,.0976.2383A1.0589,1.0589,0,0,1,18.49,17.8148Zm-2.1353-1.1123h.6578a.9037.9037,0,0,0,.4725-.0962.3512.3512,0,0,0,.152-.3219.4147.4147,0,0,0-.0349-.1756.2941.2941,0,0,0-.1142-.1254.588.588,0,0,0-.2063-.0739,1.7459,1.7459,0,0,0-.3136-.0237h-.6133Zm0,1.5973H17.08q.7052,0,.7052-.485a.5933.5933,0,0,0-.0362-.2175.3248.3248,0,0,0-.1255-.1519.65.65,0,0,0-.2369-.0892,1.9579,1.9579,0,0,0-.3708-.0292h-.6606Z" transform="translate(-4.5066 -4.6607)" fill="#252965"/>
          </g>
          <g>
            <path d="M9.3846,50.37H8.5363v.8484h-.56V50.37H7.1284v-.5519h.8483V48.97h.56v.8484h.8483Z" transform="translate(-4.5066 -4.6607)" fill="#252965"/>
            <path d="M11.0021,48.8019a.33.33,0,0,0-.1928.0614.5643.5643,0,0,0-.1573.1738,1.2351,1.2351,0,0,0-.12.2731,2.0484,2.0484,0,0,0-.0767.36,1.3525,1.3525,0,0,1,.2773-.1533.7958.7958,0,0,1,.3053-.059.9568.9568,0,0,1,.4241.092.9765.9765,0,0,1,.3234.2518,1.1416,1.1416,0,0,1,.2056.37,1.39,1.39,0,0,1,.0716.4488,1.3159,1.3159,0,0,1-.0767.45,1.1158,1.1158,0,0,1-.2172.3689,1.0245,1.0245,0,0,1-.7794.341,1.06,1.06,0,0,1-.4957-.1124,1.012,1.012,0,0,1-.3654-.3229,1.5682,1.5682,0,0,1-.2263-.5152,2.7964,2.7964,0,0,1-.0777-.6895A3.7317,3.7317,0,0,1,9.9,49.346a1.764,1.764,0,0,1,.2248-.5789,1.0028,1.0028,0,0,1,.3742-.3536,1.0932,1.0932,0,0,1,.5239-.12,1.0416,1.0416,0,0,1,.3614.0614.8915.8915,0,0,1,.2992.1816.9835.9835,0,0,1,.22.3025,1.4765,1.4765,0,0,1,.1238.4232h-.6235Q11.35,48.802,11.0021,48.8019Zm-.0357,1.188a.7812.7812,0,0,0-.5392.2737,2.2375,2.2375,0,0,0,.05.4213,1.2333,1.2333,0,0,0,.1125.3169.5678.5678,0,0,0,.17.2007.3756.3756,0,0,0,.2223.07.386.386,0,0,0,.1928-.0484A.4488.4488,0,0,0,11.32,51.09a.6577.6577,0,0,0,.092-.1994.9054.9054,0,0,0,.0318-.2443.93.93,0,0,0-.0333-.2513.6888.6888,0,0,0-.0957-.21.48.48,0,0,0-.1509-.1431A.381.381,0,0,0,10.9664,49.99Z" transform="translate(-4.5066 -4.6607)" fill="#252965"/>
            <path d="M14.1943,51.583a1.1254,1.1254,0,0,1-.28.1505.9068.9068,0,0,1-.3108.053,1.1254,1.1254,0,0,1-.4837-.0989.9628.9628,0,0,1-.3526-.28,1.2693,1.2693,0,0,1-.216-.4363,2.0222,2.0222,0,0,1-.0739-.5644,1.8424,1.8424,0,0,1,.0878-.59,1.3369,1.3369,0,0,1,.2425-.4432,1.0529,1.0529,0,0,1,.8182-.3778,1.2121,1.2121,0,0,1,.301.0363,1.12,1.12,0,0,1,.2676.1059V48.0428h.6523v3.68h-.6523Zm0-1.7924a.7828.7828,0,0,0-.5407-.2369.4168.4168,0,0,0-.3652.2118,1.2005,1.2005,0,0,0-.1366.6412,1.17,1.17,0,0,0,.1282.6118.4.4,0,0,0,.3568.2049.7256.7256,0,0,0,.5575-.3485Z" transform="translate(-4.5066 -4.6607)" fill="#252965"/>
            <path d="M18.49,50.6046a1.0069,1.0069,0,0,1-.3527.8349,1.6622,1.6622,0,0,1-1.0551.2829H15.6689v-3.68h1.3464a1.9671,1.9671,0,0,1,.5366.0683,1.2342,1.2342,0,0,1,.4112.1965.8938.8938,0,0,1,.2634.3122.9857.9857,0,0,1,.007.8224.8639.8639,0,0,1-.2676.3066.9234.9234,0,0,1,.2314.1547.8927.8927,0,0,1,.163.2021.9067.9067,0,0,1,.0976.2383A1.0589,1.0589,0,0,1,18.49,50.6046Zm-2.1353-1.1123h.6578a.9037.9037,0,0,0,.4725-.0962.3512.3512,0,0,0,.152-.3219.4147.4147,0,0,0-.0349-.1756.2941.2941,0,0,0-.1142-.1254.588.588,0,0,0-.2063-.0739,1.7459,1.7459,0,0,0-.3136-.0237h-.6133Zm0,1.5973H17.08q.7052,0,.7052-.485a.5927.5927,0,0,0-.0362-.2174.3246.3246,0,0,0-.1255-.152.6519.6519,0,0,0-.2369-.0892,1.9579,1.9579,0,0,0-.3708-.0292h-.6606Z" transform="translate(-4.5066 -4.6607)" fill="#252965"/>
          </g>
          <g>
            <path d="M10.9408,80.9435a.9969.9969,0,0,1,.4869.1147.9525.9525,0,0,1,.3475.34,1.7436,1.7436,0,0,1,.21.5533,3.6435,3.6435,0,0,1,.07.755,2.4126,2.4126,0,0,1-.28,1.2865,1.0136,1.0136,0,0,1-1.6688,0,2.43,2.43,0,0,1-.2772-1.2865,3.7049,3.7049,0,0,1,.069-.755,1.7221,1.7221,0,0,1,.2082-.5533.9525.9525,0,0,1,.3475-.34A.9969.9969,0,0,1,10.9408,80.9435Zm0,2.9794a.366.366,0,0,0,.2146-.0641.4746.4746,0,0,0,.1547-.2081,1.46,1.46,0,0,0,.0943-.3754,4.2365,4.2365,0,0,0,.0321-.5687,4.3918,4.3918,0,0,0-.0321-.5752,1.5866,1.5866,0,0,0-.0943-.3884.5236.5236,0,0,0-.1547-.2206.3622.3622,0,0,0-.4267-.0014.5227.5227,0,0,0-.1559.22,1.5358,1.5358,0,0,0-.0957.3884,4.4049,4.4049,0,0,0-.0321.5775,4.2552,4.2552,0,0,0,.0321.57,1.4061,1.4061,0,0,0,.0957.3758.4824.4824,0,0,0,.1559.2068A.3619.3619,0,0,0,10.9408,83.9229Z" transform="translate(-4.5066 -4.6607)" fill="#252965"/>
            <path d="M14.1943,84.2333a1.1254,1.1254,0,0,1-.28.15.9067.9067,0,0,1-.3108.0529,1.1239,1.1239,0,0,1-.4837-.0989.9626.9626,0,0,1-.3526-.28,1.2711,1.2711,0,0,1-.216-.4363,2.0234,2.0234,0,0,1-.0739-.5645,1.8418,1.8418,0,0,1,.0878-.59,1.3374,1.3374,0,0,1,.2425-.4433,1.0532,1.0532,0,0,1,.8182-.3777,1.2121,1.2121,0,0,1,.301.0363,1.1112,1.1112,0,0,1,.2676.1059V80.6931h.6523v3.68h-.6523Zm0-1.7924a.7829.7829,0,0,0-.5407-.237.4167.4167,0,0,0-.3652.2119,1.2,1.2,0,0,0-.1366.6411,1.17,1.17,0,0,0,.1282.6119.4.4,0,0,0,.3568.2048.7258.7258,0,0,0,.5575-.3484Z" transform="translate(-4.5066 -4.6607)" fill="#252965"/>
            <path d="M18.49,83.2549a1.0066,1.0066,0,0,1-.3527.8348,1.6622,1.6622,0,0,1-1.0551.283H15.6689v-3.68h1.3464a1.9672,1.9672,0,0,1,.5366.0682,1.2343,1.2343,0,0,1,.4112.1966.8929.8929,0,0,1,.2634.3122.9855.9855,0,0,1,.007.8223.8639.8639,0,0,1-.2676.3066.9288.9288,0,0,1,.2314.1547.8949.8949,0,0,1,.163.2021.9088.9088,0,0,1,.0976.2384A1.0578,1.0578,0,0,1,18.49,83.2549Zm-2.1353-1.1123h.6578a.9047.9047,0,0,0,.4725-.0962.3513.3513,0,0,0,.152-.3219.4148.4148,0,0,0-.0349-.1757.2947.2947,0,0,0-.1142-.1254.588.588,0,0,0-.2063-.0739,1.7563,1.7563,0,0,0-.3136-.0236h-.6133Zm0,1.5973H17.08q.7052,0,.7052-.485a.5933.5933,0,0,0-.0362-.2175.3243.3243,0,0,0-.1255-.1519.65.65,0,0,0-.2369-.0892,1.9569,1.9569,0,0,0-.3708-.0293h-.6606Z" transform="translate(-4.5066 -4.6607)" fill="#252965"/>
          </g>
          <g>
            <path d="M9.5329,116.3507h-1.37v-.5826h1.37Z" transform="translate(-4.5066 -4.6607)" fill="#252965"/>
            <path d="M11.0021,114.36a.33.33,0,0,0-.1928.0613.5643.5643,0,0,0-.1573.1738,1.236,1.236,0,0,0-.12.2732,2.0445,2.0445,0,0,0-.0767.3605,1.3431,1.3431,0,0,1,.2773-.1533.7958.7958,0,0,1,.3053-.059.9555.9555,0,0,1,.4241.092.9752.9752,0,0,1,.3234.2518,1.1421,1.1421,0,0,1,.2056.37,1.39,1.39,0,0,1,.0716.4489,1.3163,1.3163,0,0,1-.0767.45,1.1168,1.1168,0,0,1-.2172.3689,1.0245,1.0245,0,0,1-.7794.341,1.0587,1.0587,0,0,1-.4957-.1125,1.012,1.012,0,0,1-.3654-.3229,1.5664,1.5664,0,0,1-.2263-.5152,2.7956,2.7956,0,0,1-.0777-.6894,3.732,3.732,0,0,1,.0755-.795,1.7634,1.7634,0,0,1,.2248-.5788,1.0012,1.0012,0,0,1,.3742-.3536,1.0921,1.0921,0,0,1,.5239-.12,1.0416,1.0416,0,0,1,.3614.0613.8947.8947,0,0,1,.2992.1816.9859.9859,0,0,1,.22.3025,1.4784,1.4784,0,0,1,.1238.4232h-.6235Q11.35,114.36,11.0021,114.36Zm-.0357,1.188a.7811.7811,0,0,0-.5392.2736,2.2376,2.2376,0,0,0,.05.4214,1.2347,1.2347,0,0,0,.1125.3169.5683.5683,0,0,0,.17.2006.3756.3756,0,0,0,.2223.07.387.387,0,0,0,.1928-.0483.448.448,0,0,0,.1459-.1343.6571.6571,0,0,0,.092-.1993.9061.9061,0,0,0,.0318-.2444.93.93,0,0,0-.0333-.2513.691.691,0,0,0-.0957-.21.4793.4793,0,0,0-.1509-.143A.38.38,0,0,0,10.9664,115.5484Z" transform="translate(-4.5066 -4.6607)" fill="#252965"/>
            <path d="M14.1943,117.1414a1.1225,1.1225,0,0,1-.28.1506.9068.9068,0,0,1-.3108.053,1.1254,1.1254,0,0,1-.4837-.099.9628.9628,0,0,1-.3526-.28,1.27,1.27,0,0,1-.216-.4362,2.0234,2.0234,0,0,1-.0739-.5645,1.8429,1.8429,0,0,1,.0878-.59,1.3389,1.3389,0,0,1,.2425-.4432,1.0532,1.0532,0,0,1,.8182-.3777,1.2169,1.2169,0,0,1,.301.0362,1.1156,1.1156,0,0,1,.2676.106v-1.0956h.6523v3.68h-.6523Zm0-1.7923a.7829.7829,0,0,0-.5407-.237.4167.4167,0,0,0-.3652.2119,1.2,1.2,0,0,0-.1366.6411,1.17,1.17,0,0,0,.1282.6119.4.4,0,0,0,.3568.2049.7259.7259,0,0,0,.5575-.3485Z" transform="translate(-4.5066 -4.6607)" fill="#252965"/>
            <path d="M18.49,116.163a1.0066,1.0066,0,0,1-.3527.8349,1.6622,1.6622,0,0,1-1.0551.2829H15.6689v-3.68h1.3464a1.9631,1.9631,0,0,1,.5366.0684,1.2323,1.2323,0,0,1,.4112.1965.8929.8929,0,0,1,.2634.3122.9855.9855,0,0,1,.007.8223.8641.8641,0,0,1-.2676.3067.9207.9207,0,0,1,.2314.1547.8883.8883,0,0,1,.163.2021.9053.9053,0,0,1,.0976.2383A1.0575,1.0575,0,0,1,18.49,116.163Zm-2.1353-1.1122h.6578a.9047.9047,0,0,0,.4725-.0962.3514.3514,0,0,0,.152-.322.4142.4142,0,0,0-.0349-.1755.2944.2944,0,0,0-.1142-.1255.59.59,0,0,0-.2063-.0739,1.7459,1.7459,0,0,0-.3136-.0237h-.6133Zm0,1.5972H17.08q.7052,0,.7052-.485a.5931.5931,0,0,0-.0362-.2174.3243.3243,0,0,0-.1255-.1519.65.65,0,0,0-.2369-.0892,1.9487,1.9487,0,0,0-.3708-.0293h-.6606Z" transform="translate(-4.5066 -4.6607)" fill="#252965"/>
          </g>
          <g>
            <path d="M6.9111,149.0249h-1.37v-.5826h1.37Z" transform="translate(-4.5066 -4.6607)" fill="#252965"/>
            <path d="M8.871,149.955H8.2654v-2.3991a2.2681,2.2681,0,0,1-.7436.0966v-.5083q.7461,0,.8535-.5621H8.871Z" transform="translate(-4.5066 -4.6607)" fill="#252965"/>
            <path d="M12.07,149.955H9.8114a1.2617,1.2617,0,0,1,.1814-.71,2.5686,2.5686,0,0,1,.2658-.3192,4.43,4.43,0,0,1,.4113-.3735q.2172-.1756.3666-.3141a1.9362,1.9362,0,0,0,.24-.2593.8663.8663,0,0,0,.13-.2387.7934.7934,0,0,0,.04-.2532.4507.4507,0,0,0-.1189-.3336.4656.4656,0,0,0-.3436-.1185.435.435,0,0,0-.1763.0367.43.43,0,0,0-.15.111.6378.6378,0,0,0-.1084.1831.8358.8358,0,0,0-.0537.2542H9.8778a1.4478,1.4478,0,0,1,.1073-.4512,1.0574,1.0574,0,0,1,.2314-.3447,1.0094,1.0094,0,0,1,.341-.22,1.17,1.17,0,0,1,.4344-.078,1.3162,1.3162,0,0,1,.4562.0738.966.966,0,0,1,.3359.2045.8846.8846,0,0,1,.207.3066,1.0141,1.0141,0,0,1,.0716.3838,1.1531,1.1531,0,0,1-.0512.3521,1.1123,1.1123,0,0,1-.1533.3066,3.41,3.41,0,0,1-.2887.3327,5.97,5.97,0,0,1-.47.4316q-.0819.069-.21.1854a1.8256,1.8256,0,0,0-.25.2871H12.07Z" transform="translate(-4.5066 -4.6607)" fill="#252965"/>
            <path d="M14.1943,149.8157a1.1254,1.1254,0,0,1-.28.15.9068.9068,0,0,1-.3108.053,1.1239,1.1239,0,0,1-.4837-.099.9628.9628,0,0,1-.3526-.28,1.2688,1.2688,0,0,1-.216-.4362,2.0234,2.0234,0,0,1-.0739-.5645,1.8429,1.8429,0,0,1,.0878-.59,1.3389,1.3389,0,0,1,.2425-.4432,1.0532,1.0532,0,0,1,.8182-.3777,1.2169,1.2169,0,0,1,.301.0362,1.1156,1.1156,0,0,1,.2676.106v-1.0955h.6523v3.68h-.6523Zm0-1.7924a.7829.7829,0,0,0-.5407-.237.4167.4167,0,0,0-.3652.2119,1.2,1.2,0,0,0-.1366.6411,1.17,1.17,0,0,0,.1282.6119.4.4,0,0,0,.3568.2049.7259.7259,0,0,0,.5575-.3485Z" transform="translate(-4.5066 -4.6607)" fill="#252965"/>
            <path d="M18.49,148.8372a1.0066,1.0066,0,0,1-.3527.8349,1.6622,1.6622,0,0,1-1.0551.2829H15.6689v-3.68h1.3464a1.9632,1.9632,0,0,1,.5366.0683,1.2323,1.2323,0,0,1,.4112.1965.8929.8929,0,0,1,.2634.3122.9855.9855,0,0,1,.007.8223.8641.8641,0,0,1-.2676.3067.9207.9207,0,0,1,.2314.1547.8883.8883,0,0,1,.163.2021.9053.9053,0,0,1,.0976.2383A1.0575,1.0575,0,0,1,18.49,148.8372Zm-2.1353-1.1122h.6578a.9047.9047,0,0,0,.4725-.0962.3514.3514,0,0,0,.152-.322.415.415,0,0,0-.0349-.1756.2947.2947,0,0,0-.1142-.1254.59.59,0,0,0-.2063-.0739,1.7459,1.7459,0,0,0-.3136-.0237h-.6133Zm0,1.5973H17.08q.7052,0,.7052-.4851a.5931.5931,0,0,0-.0362-.2174.3243.3243,0,0,0-.1255-.1519.65.65,0,0,0-.2369-.0892,1.9487,1.9487,0,0,0-.3708-.0293h-.6606Z" transform="translate(-4.5066 -4.6607)" fill="#252965"/>
          </g>
        </g>
        <g>
          <g>
            <path d="M46.452,66.1652a.634.634,0,0,1-.6743.5789h-19.92a.6339.6339,0,0,1-.6743-.5789v-.0675a.6339.6339,0,0,1,.6743-.5788h19.92a.6339.6339,0,0,1,.6743.5788Z" transform="translate(-4.5066 -4.6607)" fill="#252965"/>
            <g opacity="0.25" style="mix-blend-mode: multiply">
              <g mask="url(#mask-12)">
                <path d="M46.452,66.1652a.634.634,0,0,1-.6743.5789h-19.92a.6339.6339,0,0,1-.6743-.5789v-.0675a.6339.6339,0,0,1,.6743-.5788h19.92a.6339.6339,0,0,1,.6743.5788Z" transform="translate(-4.5066 -4.6607)" fill="#252965"/>
              </g>
            </g>
            <path d="M45.7776,66.8462H25.8582a.7445.7445,0,0,1-.7933-.6809v-.0678a.7445.7445,0,0,1,.7933-.6807H45.7776a.7445.7445,0,0,1,.7933.6807v.0678A.7445.7445,0,0,1,45.7776,66.8462ZM25.8582,65.6209a.5213.5213,0,0,0-.5555.4766v.0678a.5212.5212,0,0,0,.5555.4766H45.7776a.5211.5211,0,0,0,.5554-.4766v-.0678a.5212.5212,0,0,0-.5554-.4766Z" transform="translate(-4.5066 -4.6607)" fill="#252965"/>
          </g>
          <g>
            <path d="M46.452,49.7926a.634.634,0,0,1-.6743.5789h-19.92a.6339.6339,0,0,1-.6743-.5789v-.0675a.634.634,0,0,1,.6743-.5789h19.92a.6341.6341,0,0,1,.6743.5789Z" transform="translate(-4.5066 -4.6607)" fill="#252965"/>
            <path d="M45.7776,50.4736H25.8582a.7445.7445,0,0,1-.7933-.6808V49.725a.7445.7445,0,0,1,.7933-.6809H45.7776a.7445.7445,0,0,1,.7933.6809v.0678A.7445.7445,0,0,1,45.7776,50.4736ZM25.8582,49.2484a.5212.5212,0,0,0-.5555.4766v.0678a.5213.5213,0,0,0,.5555.4766H45.7776a.5212.5212,0,0,0,.5554-.4766V49.725a.5211.5211,0,0,0-.5554-.4766Z" transform="translate(-4.5066 -4.6607)" fill="#252965"/>
          </g>
          <g>
            <path d="M46.452,33.42a.634.634,0,0,1-.6743.5789h-19.92a.6339.6339,0,0,1-.6743-.5789v-.0675a.6339.6339,0,0,1,.6743-.5788h19.92a.6339.6339,0,0,1,.6743.5788Z" transform="translate(-4.5066 -4.6607)" fill="#252965"/>
            <g opacity="0.25" style="mix-blend-mode: multiply">
              <g mask="url(#mask-13)">
                <path d="M46.452,33.42a.634.634,0,0,1-.6743.5789h-19.92a.6339.6339,0,0,1-.6743-.5789v-.0675a.6339.6339,0,0,1,.6743-.5788h19.92a.6339.6339,0,0,1,.6743.5788Z" transform="translate(-4.5066 -4.6607)" fill="#252965"/>
              </g>
            </g>
            <g style="mix-blend-mode: multiply">
              <path d="M45.7776,34.1009H25.8582a.7445.7445,0,0,1-.7933-.6807v-.0678a.7445.7445,0,0,1,.7933-.6808H45.7776a.7445.7445,0,0,1,.7933.6808V33.42A.7445.7445,0,0,1,45.7776,34.1009ZM25.8582,32.8758a.5212.5212,0,0,0-.5555.4766V33.42a.5213.5213,0,0,0,.5555.4766H45.7776a.5212.5212,0,0,0,.5554-.4766v-.0678a.5211.5211,0,0,0-.5554-.4766Z" transform="translate(-4.5066 -4.6607)" fill="#252965"/>
            </g>
          </g>
          <g>
            <path d="M46.452,17.047a.634.634,0,0,1-.6743.5789h-19.92a.6339.6339,0,0,1-.6743-.5789V16.98a.6339.6339,0,0,1,.6743-.5789h19.92a.634.634,0,0,1,.6743.5789Z" transform="translate(-4.5066 -4.6607)" fill="#252965"/>
            <g opacity="0.09" style="mix-blend-mode: multiply">
              <g mask="url(#mask-14)">
                <path d="M46.452,17.047a.634.634,0,0,1-.6743.5789h-19.92a.6339.6339,0,0,1-.6743-.5789V16.98a.6339.6339,0,0,1,.6743-.5789h19.92a.634.634,0,0,1,.6743.5789Z" transform="translate(-4.5066 -4.6607)" fill="#252965"/>
              </g>
            </g>
            <g style="mix-blend-mode: multiply">
              <path d="M45.7776,17.728H25.8582a.7445.7445,0,0,1-.7933-.6808v-.0679a.7445.7445,0,0,1,.7933-.6808H45.7776a.7445.7445,0,0,1,.7933.6808v.0679A.7445.7445,0,0,1,45.7776,17.728ZM25.8582,16.5027a.5213.5213,0,0,0-.5555.4766v.0679a.5213.5213,0,0,0,.5555.4766H45.7776a.5212.5212,0,0,0,.5554-.4766v-.0679a.5212.5212,0,0,0-.5554-.4766Z" transform="translate(-4.5066 -4.6607)" fill="#252965"/>
            </g>
          </g>
          <g>
            <path d="M46.452,82.5382a.634.634,0,0,1-.6743.5789h-19.92a.6339.6339,0,0,1-.6743-.5789v-.0675a.6339.6339,0,0,1,.6743-.5788h19.92a.634.634,0,0,1,.6743.5788Z" transform="translate(-4.5066 -4.6607)" fill="#252965"/>
            <path d="M45.7776,83.2362H25.8582a.7511.7511,0,0,1-.7933-.6978v-.0679a.7511.7511,0,0,1,.7933-.6978H45.7776a.7511.7511,0,0,1,.7933.6978v.0679A.7511.7511,0,0,1,45.7776,83.2362ZM25.8582,82.0106a.5152.5152,0,0,0-.5555.46v.0679a.5152.5152,0,0,0,.5555.46H45.7776a.5151.5151,0,0,0,.5554-.46v-.0679a.5151.5151,0,0,0-.5554-.46Z" transform="translate(-4.5066 -4.6607)" fill="#252965"/>
            <g opacity="0.25" style="mix-blend-mode: multiply">
              <g mask="url(#mask-15)">
                <path d="M46.452,82.5382a.6339.6339,0,0,1-.6743.5788h-19.92a.6339.6339,0,0,1-.6743-.5788v-.0675a.6339.6339,0,0,1,.6743-.5789h19.92a.634.634,0,0,1,.6743.5789Z" transform="translate(-4.5066 -4.6607)" fill="#252965"/>
              </g>
            </g>
          </g>
          <g>
            <path d="M46.452,98.9109a.634.634,0,0,1-.6743.5788h-19.92a.6339.6339,0,0,1-.6743-.5788v-.0676a.6339.6339,0,0,1,.6743-.5788h19.92a.6339.6339,0,0,1,.6743.5788Z" transform="translate(-4.5066 -4.6607)" fill="#252965"/>
            <path d="M45.7776,99.5918H25.8582a.7445.7445,0,0,1-.7933-.6808v-.0678a.7445.7445,0,0,1,.7933-.6808H45.7776a.7445.7445,0,0,1,.7933.6808v.0678A.7445.7445,0,0,1,45.7776,99.5918ZM25.8582,98.3666a.5213.5213,0,0,0-.5555.4766v.0678a.5213.5213,0,0,0,.5555.4766H45.7776a.5212.5212,0,0,0,.5554-.4766v-.0678a.5212.5212,0,0,0-.5554-.4766Z" transform="translate(-4.5066 -4.6607)" fill="#252965"/>
            <g opacity="0.25" style="mix-blend-mode: multiply">
              <g mask="url(#mask-16)">
                <path d="M46.452,98.9109a.634.634,0,0,1-.6743.5788h-19.92a.6339.6339,0,0,1-.6743-.5788v-.0676a.6339.6339,0,0,1,.6743-.5788h19.92a.6339.6339,0,0,1,.6743.5788Z" transform="translate(-4.5066 -4.6607)" fill="#252965"/>
              </g>
            </g>
          </g>
          <g>
            <path d="M46.452,115.2838a.634.634,0,0,1-.6743.5789h-19.92a.6339.6339,0,0,1-.6743-.5789v-.0675a.6339.6339,0,0,1,.6743-.5788h19.92a.634.634,0,0,1,.6743.5788Z" transform="translate(-4.5066 -4.6607)" fill="#252965"/>
            <path d="M45.7776,115.9648H25.8582a.7445.7445,0,0,1-.7933-.6808v-.0678a.7445.7445,0,0,1,.7933-.6808H45.7776a.7445.7445,0,0,1,.7933.6808v.0678A.7445.7445,0,0,1,45.7776,115.9648ZM25.8582,114.74a.5212.5212,0,0,0-.5555.4766v.0678a.5213.5213,0,0,0,.5555.4766H45.7776a.5212.5212,0,0,0,.5554-.4766v-.0678a.5211.5211,0,0,0-.5554-.4766Z" transform="translate(-4.5066 -4.6607)" fill="#252965"/>
            <g opacity="0.25" style="mix-blend-mode: multiply">
              <g mask="url(#mask-17)">
                <path d="M46.452,115.2838a.634.634,0,0,1-.6743.5789h-19.92a.6339.6339,0,0,1-.6743-.5789v-.0675a.6339.6339,0,0,1,.6743-.5788h19.92a.634.634,0,0,1,.6743.5788Z" transform="translate(-4.5066 -4.6607)" fill="#252965"/>
              </g>
            </g>
          </g>
          <g>
            <path d="M46.452,131.6565a.634.634,0,0,1-.6743.5788h-19.92a.6339.6339,0,0,1-.6743-.5788v-.0676a.6339.6339,0,0,1,.6743-.5788h19.92a.634.634,0,0,1,.6743.5788Z" transform="translate(-4.5066 -4.6607)" fill="#252965"/>
            <path d="M45.7776,132.3374H25.8582a.7445.7445,0,0,1-.7933-.6808v-.0678a.7445.7445,0,0,1,.7933-.6808H45.7776a.7445.7445,0,0,1,.7933.6808v.0678A.7445.7445,0,0,1,45.7776,132.3374Zm-19.9194-1.2252a.5213.5213,0,0,0-.5555.4766v.0678a.5213.5213,0,0,0,.5555.4766H45.7776a.5212.5212,0,0,0,.5554-.4766v-.0678a.5212.5212,0,0,0-.5554-.4766Z" transform="translate(-4.5066 -4.6607)" fill="#252965"/>
            <g opacity="0.25" style="mix-blend-mode: multiply">
              <g mask="url(#mask-18)">
                <path d="M46.452,131.6565a.634.634,0,0,1-.6743.5788h-19.92a.6339.6339,0,0,1-.6743-.5788v-.0676a.6339.6339,0,0,1,.6743-.5788h19.92a.634.634,0,0,1,.6743.5788Z" transform="translate(-4.5066 -4.6607)" fill="#252965"/>
              </g>
            </g>
          </g>
          <g>
            <path d="M46.452,148.03a.634.634,0,0,1-.6743.5788h-19.92a.6339.6339,0,0,1-.6743-.5788v-.0676a.6339.6339,0,0,1,.6743-.5788h19.92a.634.634,0,0,1,.6743.5788Z" transform="translate(-4.5066 -4.6607)" fill="#252965"/>
            <path d="M45.7776,148.71H25.8582a.7445.7445,0,0,1-.7933-.6808v-.0678a.7445.7445,0,0,1,.7933-.6808H45.7776a.7445.7445,0,0,1,.7933.6808v.0678A.7445.7445,0,0,1,45.7776,148.71Zm-19.9194-1.2252a.5213.5213,0,0,0-.5555.4766v.0678a.5213.5213,0,0,0,.5555.4766H45.7776a.5212.5212,0,0,0,.5554-.4766v-.0678a.5212.5212,0,0,0-.5554-.4766Z" transform="translate(-4.5066 -4.6607)" fill="#252965"/>
            <g opacity="0.25" style="mix-blend-mode: multiply">
              <g mask="url(#mask-19)">
                <path d="M46.452,148.03a.634.634,0,0,1-.6743.5788h-19.92a.6339.6339,0,0,1-.6743-.5788v-.0676a.6339.6339,0,0,1,.6743-.5788h19.92a.634.634,0,0,1,.6743.5788Z" transform="translate(-4.5066 -4.6607)" fill="#252965"/>
              </g>
            </g>
          </g>
        </g>
        <g>
          <path d="M67.2259,95.001a.8835.8835,0,0,1-.8851-.8767v-.2359a.8835.8835,0,0,1,.8851-.8767h.0959V82.6088a1.7671,1.7671,0,0,0-1.77-1.7534H42.54a1.7671,1.7671,0,0,0-1.77,1.7534V93.0117h.0959a.8835.8835,0,0,1,.8851.8767v.2359a.8835.8835,0,0,1-.8851.8767h-.0959v10.4028a1.7671,1.7671,0,0,0,1.77,1.7535H65.5516a1.7671,1.7671,0,0,0,1.77-1.7535V95.001Z" transform="translate(-4.5066 -4.6607)" fill="#231f20" style="mix-blend-mode: lighten"/>
          <path d="M67.2259,95.001a.8835.8835,0,0,1-.8851-.8767v-.2359a.8835.8835,0,0,1,.8851-.8767h.0959V82.6088a1.7671,1.7671,0,0,0-1.77-1.7534H42.54a1.7671,1.7671,0,0,0-1.77,1.7534V93.0117h.0959a.8835.8835,0,0,1,.8851.8767v.2359a.8835.8835,0,0,1-.8851.8767h-.0959v10.4028a1.7671,1.7671,0,0,0,1.77,1.7535H65.5516a1.7671,1.7671,0,0,0,1.77-1.7535V95.001Z" transform="translate(-4.5066 -4.6607)" fill="#252965"/>
          <path d="M66.3408,94.1243v-.2359a.8835.8835,0,0,1,.8851-.8767H40.8653a.8835.8835,0,0,1,.8851.8767v.2359a.8835.8835,0,0,1-.8851.8767H67.2259A.8835.8835,0,0,1,66.3408,94.1243Z" transform="translate(-4.5066 -4.6607)" fill="#252965"/>
          <rect x="36.2628" y="90.3402" width="26.5524" height="2.8867" fill="#fff"/>
          <rect x="36.2628" y="85.4642" width="26.5524" height="2.8867" fill="#fff"/>
        </g>
      </g>
      <g id="jack">
        <path d="M115.6129,142.7721a2.1415,2.1415,0,0,1-.965,1.672l-15.29,8.8278a2.1438,2.1438,0,0,1-1.93,0l-15.29-8.8278a2.1417,2.1417,0,0,1-.9652-1.672l0-17.655a2.1421,2.1421,0,0,1,.9651-1.6717l15.29-8.8277a2.1438,2.1438,0,0,1,1.93,0l15.29,8.8277a2.1423,2.1423,0,0,1,.965,1.6717Z" transform="translate(-4.5066 -4.6607)" fill="#252965"/>
        <path d="M112.7733,133.9448a14.38,14.38,0,1,1-14.3806-14.38A14.38,14.38,0,0,1,112.7733,133.9448Z" transform="translate(-4.5066 -4.6607)" fill="#fff"/>
        <path d="M85.8343,133.9448a12.5589,12.5589,0,1,1,12.5584,12.5584A12.5583,12.5583,0,0,1,85.8343,133.9448Z" transform="translate(-4.5066 -4.6607)" fill="#252965"/>
        <path d="M88.6219,133.9448a9.7713,9.7713,0,1,1,9.7713,9.7713A9.7715,9.7715,0,0,1,88.6219,133.9448Z" transform="translate(-4.5066 -4.6607)" fill="#fff"/>
        <g mask="url(#mask-20)">
          <circle cx="93.8866" cy="129.284" r="8.9347" fill="#252965"/>
        </g>
        <rect x="89.8157" y="135.1713" width="8.1409" height="4.5955" fill="#252965" stroke="#fff" stroke-miterlimit="10"/>
      </g>
      <g id="on_off" data-name="on/off">
        <rect x="81.9013" y="54.0741" width="24.3567" height="45.0691" fill="#252965"/>
        <path d="M102.8244,81.903a4.2771,4.2771,0,1,1-4.2378-3.7A3.9962,3.9962,0,0,1,102.8244,81.903Z" transform="translate(-4.5066 -4.6607)" fill="#fff"/>
        <path d="M102.3033,81.7813a3.74,3.74,0,1,1-3.7167-3.3234A3.5366,3.5366,0,0,1,102.3033,81.7813Z" transform="translate(-4.5066 -4.6607)" fill="#fff"/>
        <path d="M101.358,81.6638a2.8481,2.8481,0,1,1-2.848-2.81A2.829,2.829,0,0,1,101.358,81.6638Z" transform="translate(-4.5066 -4.6607)" fill="#252965"/>
        <path d="M101.2579,80.6117a2.51,2.51,0,0,1-2.6718,2.31,2.9157,2.9157,0,0,1-1.7416-.5583,2.19,2.19,0,0,1-.93-1.7515,2.1655,2.1655,0,0,1,.82-1.6647,2.8921,2.8921,0,0,1,1.8517-.6453A2.51,2.51,0,0,1,101.2579,80.6117Z" transform="translate(-4.5066 -4.6607)" fill="#fff"/>
        <path d="M101.87,68.7408l-.6121,11.8709H98.5861v2.31a2.9157,2.9157,0,0,1-1.7416-.5583,2.19,2.19,0,0,1-.93-1.7515l-.6125-11.8709Z" transform="translate(-4.5066 -4.6607)" fill="#fff"/>
        <path d="M98.5861,68.7408V82.9215a2.9157,2.9157,0,0,1-1.7416-.5583l-.11-3.4162-.33-10.2062Z" transform="translate(-4.5066 -4.6607)" fill="#fff"/>
        <polygon points="96.751 75.951 94.08 76.155 94.08 64.08 97.363 64.08 96.751 75.951" fill="#fff"/>
        <g>
          <g>
            <path d="M91.705,95.4379a3.0571,3.0571,0,0,1,.2193-1.2316,2.2636,2.2636,0,0,1,.4474-.6583,1.8666,1.8666,0,0,1,.6207-.4324,2.6366,2.6366,0,0,1,1.0353-.19,2.2531,2.2531,0,0,1,1.6981.6586,2.9419,2.9419,0,0,1,.0052,3.6508,2.2372,2.2372,0,0,1-1.69.6568,2.2606,2.2606,0,0,1-1.7037-.6536A2.48,2.48,0,0,1,91.705,95.4379Zm.9992-.0325a1.7992,1.7992,0,0,0,.3767,1.2367,1.2947,1.2947,0,0,0,1.9078.0032,1.8346,1.8346,0,0,0,.3719-1.253,1.8079,1.8079,0,0,0-.3616-1.2318,1.3415,1.3415,0,0,0-1.9279.0049A1.8137,1.8137,0,0,0,92.7042,95.4054Z" transform="translate(-4.5066 -4.6607)" fill="#fff"/>
            <path d="M97.63,97.81V93.0074h3.2921V93.82H98.5993v1.1366h2.0051v.8126H98.5993V97.81Z" transform="translate(-4.5066 -4.6607)" fill="#fff"/>
            <path d="M102.231,97.81V93.0074h3.2919V93.82h-2.3223v1.1366h2.0045v.8126h-2.0045V97.81Z" transform="translate(-4.5066 -4.6607)" fill="#fff"/>
          </g>
          <g>
            <path d="M93.8581,65.7658a3.0576,3.0576,0,0,1,.22-1.2318,2.2635,2.2635,0,0,1,.4472-.6583,1.8742,1.8742,0,0,1,.621-.4326,2.6346,2.6346,0,0,1,1.0349-.19,2.2551,2.2551,0,0,1,1.6987.6587,2.9425,2.9425,0,0,1,.0047,3.6506,2.2384,2.2384,0,0,1-1.69.6571,2.2628,2.2628,0,0,1-1.7035-.6534A2.4815,2.4815,0,0,1,93.8581,65.7658Zm.9992-.0328a1.7982,1.7982,0,0,0,.3768,1.2369,1.2947,1.2947,0,0,0,1.9079.0031,1.834,1.834,0,0,0,.3721-1.253,1.8064,1.8064,0,0,0-.362-1.2318,1.3414,1.3414,0,0,0-1.9279.005A1.8138,1.8138,0,0,0,94.8573,65.733Z" transform="translate(-4.5066 -4.6607)" fill="#fff"/>
            <path d="M99.7859,68.1374V63.3353h.9435l1.9657,3.2069V63.3353h.9008v4.8021h-.9731l-1.9357-3.1313v3.1313Z" transform="translate(-4.5066 -4.6607)" fill="#fff"/>
          </g>
        </g>
        <path d="M101.87,68.7408a3.2837,3.2837,0,1,1-3.2834-3.2837A3.2835,3.2835,0,0,1,101.87,68.7408Z" transform="translate(-4.5066 -4.6607)" fill="#fff"/>
        <path d="M101.05,68.3078a2.5333,2.5333,0,1,1-2.533-2.5334A2.5334,2.5334,0,0,1,101.05,68.3078Z" transform="translate(-4.5066 -4.6607)" fill="#252965"/>
      </g>
    </g>
  </g>
</svg>
