<?xml version="1.0" encoding="UTF-8"?>
<svg width="110px" height="110px" viewBox="0 0 110 110" version="1.1" xmlns="http://www.w3.org/2000/svg" xmlns:xlink="http://www.w3.org/1999/xlink">
    <!-- Generator: Sketch 64 (93537) - https://sketch.com -->
    <title>buttons-ic/expand</title>
    <desc>Created with Sketch.</desc>
    <defs>
        <circle id="path-1" cx="55" cy="55" r="50"></circle>
        <filter x="-5.0%" y="-5.0%" width="110.0%" height="112.0%" filterUnits="objectBoundingBox" id="filter-2">
            <feMorphology radius="1" operator="dilate" in="SourceAlpha" result="shadowSpreadOuter1"></feMorphology>
            <feOffset dx="0" dy="2" in="shadowSpreadOuter1" result="shadowOffsetOuter1"></feOffset>
            <feGaussianBlur stdDeviation="1" in="shadowOffsetOuter1" result="shadowBlurOuter1"></feGaussianBlur>
            <feComposite in="shadowBlurOuter1" in2="SourceAlpha" operator="out" result="shadowBlurOuter1"></feComposite>
            <feColorMatrix values="0 0 0 0 0   0 0 0 0 0   0 0 0 0 0  0 0 0 0.24 0" type="matrix" in="shadowBlurOuter1" result="shadowMatrixOuter1"></feColorMatrix>
            <feMorphology radius="1" operator="dilate" in="SourceAlpha" result="shadowSpreadOuter2"></feMorphology>
            <feOffset dx="0" dy="0" in="shadowSpreadOuter2" result="shadowOffsetOuter2"></feOffset>
            <feGaussianBlur stdDeviation="1" in="shadowOffsetOuter2" result="shadowBlurOuter2"></feGaussianBlur>
            <feComposite in="shadowBlurOuter2" in2="SourceAlpha" operator="out" result="shadowBlurOuter2"></feComposite>
            <feColorMatrix values="0 0 0 0 0   0 0 0 0 0   0 0 0 0 0  0 0 0 0.12 0" type="matrix" in="shadowBlurOuter2" result="shadowMatrixOuter2"></feColorMatrix>
            <feMerge>
                <feMergeNode in="shadowMatrixOuter1"></feMergeNode>
                <feMergeNode in="shadowMatrixOuter2"></feMergeNode>
            </feMerge>
        </filter>
    </defs>
    <g id="ic/expand" stroke="none" stroke-width="1" fill="none" fill-rule="evenodd">
        <g id="Oval-Copy-2" opacity="0.46">
            <use fill="black" fill-opacity="1" filter="url(#filter-2)" xlink:href="#path-1"></use>
            <use stroke="#FFFFFF" stroke-width="2" fill-opacity="0.5" fill="#EAE5E5" fill-rule="evenodd" xlink:href="#path-1"></use>
        </g>
        <g id="expand" transform="translate(27.000000, 27.000000)">
            <g id="Group-4" transform="translate(0.000000, -0.000000)">
                <line x1="5.47058824" y1="20.5294118" x2="21" y2="5" id="Line" stroke="#FFFFFF" stroke-width="6" stroke-linecap="square" transform="translate(13.000000, 13.000000) scale(1, -1) translate(-13.000000, -13.000000) "></line>
                <polygon id="Path-3" fill="#FFFFFF" transform="translate(13.000000, 13.000000) scale(-1, -1) translate(-13.000000, -13.000000) " points="20.8 2.30926389e-14 26 9.5617958e-15 26 26 0 26 0 20.8 20.8 20.8"></polygon>
            </g>
            <g id="Group-3" transform="translate(30.000000, -0.000000)">
                <line x1="5.47058824" y1="20.5294118" x2="21" y2="5" id="Line-Copy" stroke="#FFFFFF" stroke-width="6" stroke-linecap="square" transform="translate(13.000000, 13.000000) scale(-1, -1) translate(-13.000000, -13.000000) "></line>
                <polygon id="Path-3-Copy-2" fill="#FFFFFF" transform="translate(13.000000, 13.000000) scale(1, -1) translate(-13.000000, -13.000000) " points="20.8 2.30926389e-14 26 9.5617958e-15 26 26 0 26 0 20.8 20.8 20.8"></polygon>
            </g>
            <g id="Group-2" transform="translate(0.000000, 30.000000)">
                <line x1="5.47058824" y1="20.5294118" x2="21" y2="5" id="Line" stroke="#FFFFFF" stroke-width="6" stroke-linecap="square"></line>
                <polygon id="Path-3-Copy" fill="#FFFFFF" transform="translate(13.000000, 13.000000) scale(-1, 1) translate(-13.000000, -13.000000) " points="20.8 2.30926389e-14 26 9.5617958e-15 26 26 0 26 0 20.8 20.8 20.8"></polygon>
            </g>
            <g id="Line-Copy-3" transform="translate(30.000000, 30.000000)">
                <line x1="5.47058824" y1="20.5294118" x2="21" y2="5" id="Line-Copy-2" stroke="#FFFFFF" stroke-width="6" stroke-linecap="square" transform="translate(13.000000, 13.000000) scale(-1, 1) translate(-13.000000, -13.000000) "></line>
                <polygon id="Path-3-Copy-3" fill="#FFFFFF" points="20.8 2.30926389e-14 26 9.5617958e-15 26 26 0 26 0 20.8 20.8 20.8"></polygon>
            </g>
        </g>
    </g>
</svg>