<?xml version="1.0" encoding="UTF-8"?>
<svg width="22px" height="19px" viewBox="0 0 22 19" version="1.1" xmlns="http://www.w3.org/2000/svg" xmlns:xlink="http://www.w3.org/1999/xlink">
    <!-- Generator: Sketch 64 (93537) - https://sketch.com -->
    <title>ic/shopping_basket</title>
    <desc>Created with Sketch.</desc>
    <defs>
        <path d="M16.21,7 L11.83,0.44 C11.64,0.16 11.32,0.02 11,0.02 C10.68,0.02 10.36,0.16 10.17,0.45 L5.79,7 L1,7 C0.45,7 0,7.45 0,8 C0,8.09 0.01,8.18 0.04,8.27 L2.58,17.54 C2.81,18.38 3.58,19 4.5,19 L17.5,19 C18.42,19 19.19,18.38 19.43,17.54 L21.97,8.27 L22,8 C22,7.45 21.55,7 21,7 L16.21,7 Z M8,7 L11,2.6 L14,7 L8,7 Z M11,15 C9.9,15 9,14.1 9,13 C9,11.9 9.9,11 11,11 C12.1,11 13,11.9 13,13 C13,14.1 12.1,15 11,15 Z" id="path-1"></path>
    </defs>
    <g id="Symbols" stroke="none" stroke-width="1" fill="none" fill-rule="evenodd">
        <g id="ic/shopping_basket" transform="translate(-1.000000, -2.000000)">
            <g transform="translate(1.000000, 2.000000)">
                <mask id="mask-2" fill="white">
                    <use xlink:href="#path-1"></use>
                </mask>
                <g id="Shape" fill-rule="nonzero"></g>
                <g id="🎨-Color" mask="url(#mask-2)" fill="#000000">
                    <g transform="translate(-1.000000, -2.000000)" id="Shape">
                        <rect x="0" y="0" width="24" height="24"></rect>
                    </g>
                </g>
            </g>
        </g>
    </g>
</svg>